<?xml version="1.0" standalone="no"?>
<!DOCTYPE svg PUBLIC "-//W3C//DTD SVG 1.1//EN" "http://www.w3.org/Graphics/SVG/1.1/DTD/svg11.dtd" >
<svg xmlns="http://www.w3.org/2000/svg" xmlns:xlink="http://www.w3.org/1999/xlink" version="1.1">
<metadata>
Created by FontForge 20201107 at Sun Mar  2 12:56:04 2025
 By 
Copyright (c) 2021 by Anugrah Pasau
</metadata>
<defs>
<font id="CreatoDisplay-Black" horiz-adv-x="1187" >
  <font-face 
    font-family="Creato Display Black"
    font-weight="900"
    font-stretch="normal"
    units-per-em="2048"
    panose-1="2 11 5 3 0 0 0 2 0 4"
    ascent="1647"
    descent="-401"
    x-height="1057"
    cap-height="1458"
    bbox="-360 -422 2634 1937"
    underline-thickness="102"
    underline-position="-204"
    unicode-range="U+000D-25CA"
  />
<missing-glyph horiz-adv-x="1146" 
d="M954 0h-761v1458h761v-1458zM897 49v1360h-647v-1360h647z" />
    <glyph glyph-name=".notdef" horiz-adv-x="1146" 
d="M954 0h-761v1458h761v-1458zM897 49v1360h-647v-1360h647z" />
    <glyph glyph-name=".null" horiz-adv-x="0" 
 />
    <glyph glyph-name="nonmarkingreturn" horiz-adv-x="682" 
 />
    <glyph glyph-name="NULL" horiz-adv-x="0" 
 />
    <glyph glyph-name="NULL" horiz-adv-x="0" 
 />
    <glyph glyph-name="CR" unicode="&#xd;" horiz-adv-x="512" 
 />
    <glyph glyph-name="space" unicode=" " horiz-adv-x="512" 
 />
    <glyph glyph-name="exclam" unicode="!" horiz-adv-x="540" 
d="M270 -20q-103 0 -161 55t-58 141t58 141.5t161 55.5t161 -55.5t58 -141.5t-58 -141t-161 -55zM367 487h-193l-102 508v463h397v-463z" />
    <glyph glyph-name="quotedbl" unicode="&#x22;" horiz-adv-x="1036" 
d="M408 782h-275l-61 676h397zM903 782h-274l-62 676h398z" />
    <glyph glyph-name="numbersign" unicode="#" horiz-adv-x="1462" 
d="M92 604h197l45 250h-199l49 283h199l57 321h316l-58 -321h209l58 321h315l-57 -321h198l-49 -283h-198l-46 -250h201l-51 -282h-199l-55 -322h-315l55 322h-209l-55 -322h-316l56 322h-199zM649 854l-45 -250h209l45 250h-209z" />
    <glyph glyph-name="dollar" unicode="$" horiz-adv-x="1372" 
d="M762 -238h-152v220q-280 15 -424.5 145.5t-144.5 355.5h393q10 -90 53 -139t123 -63v303l-73 10q-123 17 -206 46t-141.5 78t-85 122t-26.5 176q0 191 137 317t395 144v219h152v-219q258 -18 395 -147.5t137 -334.5h-381q-18 143 -151 179v-277l69 -8q123 -17 212.5 -49
t155.5 -84t99 -130.5t33 -183.5q0 -193 -146.5 -318t-422.5 -142v-220zM934 416q0 56 -37.5 89t-134.5 54v-280q82 10 127 48t45 89zM475 1042q0 -53 27 -78t108 -42v256q-67 -11 -101 -48.5t-34 -87.5z" />
    <glyph glyph-name="percent" unicode="%" horiz-adv-x="1855" 
d="M416 586q-187 0 -281 116t-94 326t94 326t281 116t281 -116t94 -326t-94 -326t-281 -116zM416 784q133 0 133 244t-133 244t-133 -244t133 -244zM643 0h-213l782 1458h213zM1440 -12q-187 0 -281 116t-94 326t94 326t281 116t281 -116t94 -326t-94 -326t-281 -116z
M1440 186q133 0 133 244t-133 244t-133 -244t133 -244z" />
    <glyph glyph-name="ampersand" unicode="&#x26;" horiz-adv-x="1486" 
d="M1065 0l-76 82q-179 -102 -389 -102q-140 0 -249 34t-175.5 93t-100.5 133.5t-34 160.5q0 137 67 230.5t220 159.5q-121 146 -121 305q0 76 31 144.5t88.5 122t146.5 85t197 31.5q212 0 337.5 -112t125.5 -271q0 -129 -76 -210t-258 -149l215 -231q48 94 67 201h336
q-46 -247 -192 -426l262 -281h-422zM629 262q86 0 162 33l-297 317q-76 -64 -76 -170q0 -79 60 -129.5t151 -50.5zM563 1106q0 -96 76 -195q66 35 101.5 86.5t35.5 108.5q0 51 -28.5 81t-77.5 30t-78 -30t-29 -81z" />
    <glyph glyph-name="quotesingle" unicode="'" horiz-adv-x="540" 
d="M408 782h-275l-61 676h397z" />
    <glyph glyph-name="parenleft" unicode="(" horiz-adv-x="614" 
d="M61 600q0 551 277 1002h276q-217 -507 -217 -1002q0 -494 217 -1001h-276q-277 451 -277 1001z" />
    <glyph glyph-name="parenright" unicode=")" horiz-adv-x="614" 
d="M553 600q0 -550 -277 -1001h-276q217 507 217 1001q0 495 -217 1002h276q277 -451 277 -1002z" />
    <glyph glyph-name="asterisk" unicode="*" horiz-adv-x="917" 
d="M596 625l-137 223l-137 -223l-218 157l172 201l-256 61l82 252l244 -100l-20 262h266l-21 -262l244 100l82 -252l-256 -61l172 -201z" />
    <glyph glyph-name="plus" unicode="+" horiz-adv-x="1118" 
d="M408 242v346h-336v282h336v347h303v-347h336v-282h-336v-346h-303z" />
    <glyph glyph-name="comma" unicode="," horiz-adv-x="540" 
d="M223 -324l-192 82q49 82 63.5 163t14.5 231v200h323v-200q0 -171 -45.5 -282t-163.5 -194z" />
    <glyph glyph-name="hyphen" unicode="-" horiz-adv-x="774" 
d="M702 446h-630v283h630v-283z" />
    <glyph glyph-name="period" unicode="." horiz-adv-x="540" 
d="M270 -20q-103 0 -161 55t-58 141t58 141.5t161 55.5t161 -55.5t58 -141.5t-58 -141t-161 -55z" />
    <glyph glyph-name="slash" unicode="/" horiz-adv-x="872" 
d="M336 0h-336l537 1458h335z" />
    <glyph glyph-name="zero" unicode="0" horiz-adv-x="1351" 
d="M676 -20q-316 0 -475.5 196t-159.5 553t159.5 553.5t475.5 196.5t475.5 -196.5t159.5 -553.5t-159.5 -553t-475.5 -196zM676 283q131 0 194.5 108t63.5 338t-63.5 338.5t-194.5 108.5t-194.5 -108.5t-63.5 -338.5t63.5 -338t194.5 -108z" />
    <glyph glyph-name="one" unicode="1" horiz-adv-x="847" 
d="M745 0h-376v877q-110 -9 -242 -9h-86v275q179 9 274.5 84t135.5 231h294v-1458z" />
    <glyph glyph-name="two" unicode="2" horiz-adv-x="1228" 
d="M1188 0h-1147v160q0 231 93 360.5t306 206.5l187 68q98 36 141 89.5t43 133.5q0 72 -50.5 115t-127.5 43q-92 0 -142 -53t-65 -169h-352q0 249 141.5 387t415.5 138q262 0 409.5 -130.5t147.5 -340.5q0 -322 -385 -461l-209 -76q-162 -59 -176 -168h770v-303z" />
    <glyph glyph-name="three" unicode="3" horiz-adv-x="1277" 
d="M639 -20q-287 0 -442.5 128t-155.5 396h352q28 -221 248 -221q105 0 162 47.5t57 130.5q0 68 -57 104.5t-154 36.5h-149v283h129q211 0 211 133q0 71 -59 114.5t-144 43.5q-94 0 -152 -45t-71 -136h-353q0 220 150.5 352t427.5 132q262 0 420 -120t158 -302
q0 -251 -244 -307q128 -32 196 -116t68 -233q0 -185 -162.5 -303t-435.5 -118z" />
    <glyph glyph-name="four" unicode="4" horiz-adv-x="1310" 
d="M1090 0h-365v315h-684v355l596 788h453v-840h180v-303h-180v-315zM725 618v480l-356 -480h356z" />
    <glyph glyph-name="five" unicode="5" horiz-adv-x="1261" 
d="M635 -20q-138 0 -249.5 35.5t-181 95.5t-106.5 136.5t-37 162.5h373q16 -65 66.5 -106.5t134.5 -41.5q98 0 153.5 59t55.5 160t-56 162.5t-153 61.5q-75 0 -124 -36t-71 -96h-370l123 885h946v-303h-641l-35 -248q86 60 225 60q254 0 393.5 -125.5t139.5 -347.5
q0 -110 -37 -203t-108.5 -163t-184.5 -109t-256 -39z" />
    <glyph glyph-name="six" unicode="6" horiz-adv-x="1290" 
d="M659 -20q-299 0 -458.5 166t-159.5 503q0 407 162 618.5t459 211.5q234 0 376 -101t172 -313h-352q-8 58 -54.5 94.5t-123.5 36.5q-114 0 -175 -80t-87 -246q132 97 299 97q253 0 392.5 -126t139.5 -347q0 -108 -37.5 -200.5t-109 -163t-185.5 -110.5t-258 -40zM645 262
q104 0 165.5 60.5t61.5 160.5t-61.5 161t-165.5 61t-165.5 -61t-61.5 -161t61.5 -160.5t165.5 -60.5z" />
    <glyph glyph-name="seven" unicode="7" horiz-adv-x="1085" 
d="M643 0h-393q0 329 124 623t359 532h-713v303h1045v-303q-169 -177 -258.5 -337t-126.5 -348.5t-37 -469.5z" />
    <glyph glyph-name="eight" unicode="8" horiz-adv-x="1282" 
d="M641 -20q-278 0 -439 117.5t-161 303.5q0 151 72 235.5t213 113.5q-110 26 -177 105.5t-67 201.5q0 89 36.5 165.5t105 134t176 90t241.5 32.5t241.5 -32.5t176 -90t105 -134t36.5 -165.5q0 -122 -67 -201.5t-177 -105.5q141 -29 213 -113.5t72 -235.5
q0 -186 -161 -303.5t-439 -117.5zM641 262q97 0 160 43.5t63 124.5q0 82 -63 127t-160 45q-96 0 -155.5 -45t-59.5 -127t59.5 -125t155.5 -43zM641 885q88 0 145.5 41.5t57.5 115.5t-57 114t-146 40t-146 -40t-57 -114t57.5 -115.5t145.5 -41.5z" />
    <glyph glyph-name="nine" unicode="9" horiz-adv-x="1290" 
d="M631 1479q299 0 458.5 -166.5t159.5 -503.5q0 -407 -161.5 -618t-458.5 -211q-234 0 -376.5 101t-172.5 312h352q8 -58 54.5 -94.5t123.5 -36.5q114 0 175 80t87 246q-131 -96 -299 -96q-253 0 -392.5 126t-139.5 347q0 108 37.5 200.5t109 163t185.5 110.5t258 40z
M645 1196q-104 0 -165.5 -60.5t-61.5 -160.5t61.5 -160.5t165.5 -60.5t165.5 60.5t61.5 160.5t-61.5 160.5t-165.5 60.5z" />
    <glyph glyph-name="colon" unicode=":" horiz-adv-x="540" 
d="M270 -20q-103 0 -161 55t-58 141t58 141.5t161 55.5t161 -55.5t58 -141.5t-58 -141t-161 -55zM270 631q-103 0 -161 55t-58 141t58 141.5t161 55.5t161 -55.5t58 -141.5t-58 -141t-161 -55z" />
    <glyph glyph-name="semicolon" unicode=";" horiz-adv-x="540" 
d="M223 -324l-192 82q49 82 63.5 163t14.5 231v200h323v-200q0 -171 -45.5 -282t-163.5 -194zM270 631q-103 0 -161 55t-58 141t58 141.5t161 55.5t161 -55.5t58 -141.5t-58 -141t-161 -55z" />
    <glyph glyph-name="less" unicode="&#x3c;" horiz-adv-x="1118" 
d="M1047 199l-975 389v282l975 390v-328l-615 -203l615 -203v-327z" />
    <glyph glyph-name="equal" unicode="=" horiz-adv-x="1118" 
d="M1047 383h-975v266h975v-266zM1047 809h-975v266h975v-266z" />
    <glyph glyph-name="greater" unicode="&#x3e;" horiz-adv-x="1118" 
d="M1047 588l-975 -389v327l614 203l-614 203v328l975 -390v-282z" />
    <glyph glyph-name="question" unicode="?" horiz-adv-x="1155" 
d="M557 -20q-103 0 -161 55t-58 141t58 141.5t161 55.5t161 -55.5t58 -141.5t-58 -141t-161 -55zM715 487h-316v66q0 79 17.5 139t45.5 94.5t62 60t68 44t62 38t45.5 50t17.5 72.5q0 65 -39 95t-100 30q-72 0 -111.5 -41.5t-52.5 -139.5h-373q0 231 138.5 357.5t398.5 126.5
q249 0 392.5 -119t143.5 -311q0 -69 -22 -124t-57 -89.5t-77.5 -62t-85.5 -49.5t-78 -45t-57 -54.5t-22 -71.5v-66z" />
    <glyph glyph-name="at" unicode="@" horiz-adv-x="1888" 
d="M848 164q-174 0 -277.5 119t-103.5 327q0 209 103.5 328t277.5 119q145 0 227 -107v92h305v-587q0 -62 62 -62q69 0 115.5 82t46.5 238q0 109 -43 206.5t-123.5 174t-208 121.5t-285.5 45q-317 0 -488 -175.5t-171 -474.5t171 -474t488 -175q229 0 436 90v-219
q-207 -90 -436 -90q-269 0 -474.5 109.5t-317 306.5t-111.5 452t111.5 452.5t317 307t474.5 109.5q200 0 371 -62t286.5 -166.5t180.5 -244t65 -293.5q0 -266 -132.5 -407.5t-346.5 -141.5q-95 0 -167.5 35t-106.5 98q-40 -64 -96 -98.5t-150 -34.5zM926 393q71 0 110 54.5
t39 162.5t-39 162.5t-110 54.5t-110.5 -54.5t-39.5 -162.5t39.5 -162.5t110.5 -54.5z" />
    <glyph glyph-name="A" unicode="A" horiz-adv-x="1515" 
d="M1516 0h-406l-74 227h-557l-73 -227h-406l512 1458h492zM942 530l-184 576l-185 -576h369z" />
    <glyph glyph-name="B" unicode="B" horiz-adv-x="1437" 
d="M1397 414q0 -188 -136.5 -301t-381.5 -113h-777v1458h736q247 0 382.5 -106.5t135.5 -292.5q0 -123 -61 -204t-183 -105q141 -24 213 -113t72 -223zM999 446q0 152 -170 152h-329v-303h329q170 0 170 151zM958 1026q0 74 -41.5 105.5t-128.5 31.5h-288v-274h288
q87 0 128.5 31.5t41.5 105.5z" />
    <glyph glyph-name="C" unicode="C" horiz-adv-x="1552" 
d="M801 -20q-232 0 -405 94.5t-264 264t-91 390.5t91 390.5t264 264.5t405 95q202 0 364 -73t254 -206.5t92 -302.5h-381q-18 119 -99.5 188.5t-229.5 69.5q-180 0 -271.5 -109t-91.5 -317q0 -209 91.5 -317.5t271.5 -108.5q292 0 329 270h381q0 -173 -90.5 -308t-252 -210
t-367.5 -75z" />
    <glyph glyph-name="D" unicode="D" horiz-adv-x="1519" 
d="M1479 729q0 -350 -196 -539.5t-564 -189.5h-617v1458h617q368 0 564 -189.5t196 -539.5zM1081 729q0 418 -342 418h-239v-836h239q342 0 342 418z" />
    <glyph glyph-name="E" unicode="E" horiz-adv-x="1286" 
d="M1237 0h-1135v1458h1135v-323h-737v-240h671v-303h-671v-268h737v-324z" />
    <glyph glyph-name="F" unicode="F" horiz-adv-x="1257" 
d="M500 0h-398v1458h1135v-323h-737v-240h671v-303h-671v-592z" />
    <glyph glyph-name="G" unicode="G" horiz-adv-x="1589" 
d="M760 -20q-222 0 -385.5 94.5t-248.5 263.5t-85 391q0 221 91 390.5t264 264.5t405 95q163 0 296 -43.5t216.5 -116.5t128.5 -164.5t45 -191.5h-361q-33 85 -115.5 138.5t-209.5 53.5q-180 0 -271.5 -109t-91.5 -317q0 -209 91.5 -317.5t271.5 -108.5q289 0 329 266h-290
v267h667v-836h-280l-37 180q-56 -103 -159.5 -151.5t-270.5 -48.5z" />
    <glyph glyph-name="H" unicode="H" horiz-adv-x="1523" 
d="M1421 0h-397v573h-524v-573h-398v1458h398v-545h524v545h397v-1458z" />
    <glyph glyph-name="I" unicode="I" horiz-adv-x="602" 
d="M500 0h-398v1458h398v-1458z" />
    <glyph glyph-name="J" unicode="J" horiz-adv-x="1212" 
d="M586 -20q-147 0 -253 36.5t-169.5 108.5t-93 171t-29.5 232v41h377v-41q0 -70 11.5 -116t34.5 -69t48.5 -31.5t62.5 -8.5t62.5 8.5t49 31.5t35 69t11.5 116v930h397v-930q0 -271 -127.5 -409.5t-416.5 -138.5z" />
    <glyph glyph-name="K" unicode="K" horiz-adv-x="1466" 
d="M1466 0h-458l-346 561l-162 -186v-375h-398v1458h398v-604l487 604h459l-526 -602z" />
    <glyph glyph-name="L" unicode="L" horiz-adv-x="1171" 
d="M1151 0h-1049v1458h398v-1134h651v-324z" />
    <glyph glyph-name="M" unicode="M" horiz-adv-x="1888" 
d="M1786 0h-377v1106l-299 -1106h-332l-299 1106v-1106h-377v1458h627l215 -848l215 848h627v-1458z" />
    <glyph glyph-name="N" unicode="N" horiz-adv-x="1523" 
d="M1421 0h-417l-525 885v-885h-377v1458h418l524 -885v885h377v-1458z" />
    <glyph glyph-name="O" unicode="O" horiz-adv-x="1601" 
d="M801 -20q-232 0 -405 94.5t-264 264t-91 390.5t91 390.5t264 264.5t405 95t405 -95t264 -264.5t91 -390.5t-91 -390.5t-264 -264t-405 -94.5zM801 303q180 0 271 108.5t91 317.5t-91 317.5t-271 108.5t-271.5 -109t-91.5 -317q0 -209 91.5 -317.5t271.5 -108.5z" />
    <glyph glyph-name="P" unicode="P" horiz-adv-x="1376" 
d="M1335 971q0 -230 -147.5 -359t-411.5 -129h-276v-483h-398v1458h674q264 0 411.5 -128.5t147.5 -358.5zM938 971q0 102 -55.5 147t-167.5 45h-215v-385h215q112 0 167.5 45.5t55.5 147.5z" />
    <glyph glyph-name="Q" unicode="Q" horiz-adv-x="1601" 
d="M1561 -164h-336l-138 187q-137 -43 -286 -43q-232 0 -405 94.5t-264 264t-91 390.5t91 390.5t264 264.5t405 95t405 -95t264 -264.5t91 -390.5q0 -179 -60.5 -325t-175.5 -246zM801 303q43 0 80 6l-238 326h336l127 -174q57 105 57 268q0 209 -91 317.5t-271 108.5
t-271.5 -109t-91.5 -317q0 -209 91.5 -317.5t271.5 -108.5z" />
    <glyph glyph-name="R" unicode="R" horiz-adv-x="1396" 
d="M1335 1030q0 -135 -67.5 -224t-196.5 -126q122 -24 183 -105t61 -204v-224q0 -89 20 -147h-385q-32 69 -32 147v207q0 60 -15 99.5t-45 58.5t-63.5 26t-81.5 7h-213v-545h-398v1458h715q246 0 382 -115t136 -313zM938 1001q0 78 -43 120t-127 42h-268v-323h268
q84 0 127 42t43 119z" />
    <glyph glyph-name="S" unicode="S" horiz-adv-x="1372" 
d="M686 -20q-317 0 -481 132t-164 371h393q13 -111 75.5 -160t186.5 -49q112 0 175 41t63 101q0 65 -53 100.5t-197 56.5l-147 21q-123 17 -206 46t-141.5 78t-85 122t-26.5 176q0 206 158 334.5t450 128.5q294 0 451 -132t157 -352h-381q-24 189 -237 189
q-100 0 -150.5 -39.5t-50.5 -102.5q0 -61 41 -88t168 -45l147 -20q123 -17 212.5 -49t155.5 -84t99 -130.5t33 -183.5q0 -206 -166.5 -334t-478.5 -128z" />
    <glyph glyph-name="T" unicode="T" horiz-adv-x="1277" 
d="M838 0h-398v1135h-420v323h1237v-323h-419v-1135z" />
    <glyph glyph-name="U" unicode="U" horiz-adv-x="1482" 
d="M741 -20q-322 0 -490.5 145.5t-168.5 427.5v905h397v-864q0 -162 61 -226.5t201 -64.5t201.5 64.5t61.5 226.5v864h397v-905q0 -282 -169 -427.5t-491 -145.5z" />
    <glyph glyph-name="V" unicode="V" horiz-adv-x="1515" 
d="M1004 0h-492l-512 1458h426l332 -1065l332 1065h426z" />
    <glyph glyph-name="W" unicode="W" horiz-adv-x="2125" 
d="M1733 0h-480l-190 903l-191 -903h-479l-393 1458h428l217 -983l215 983h406l215 -983l217 983h428z" />
    <glyph glyph-name="X" unicode="X" horiz-adv-x="1474" 
d="M1475 0h-461l-277 446l-276 -446h-461l479 743l-459 715h461l256 -418l256 418h461l-459 -715z" />
    <glyph glyph-name="Y" unicode="Y" horiz-adv-x="1474" 
d="M539 0v561l-539 897h459l278 -524l279 524h459l-539 -897v-561h-397z" />
    <glyph glyph-name="Z" unicode="Z" horiz-adv-x="1273" 
d="M1212 0h-1151v266l635 869h-614v323h1110v-266l-637 -868h657v-324z" />
    <glyph glyph-name="bracketleft" unicode="[" horiz-adv-x="786" 
d="M766 -401h-664v2003h664v-263h-328v-1478h328v-262z" />
    <glyph glyph-name="backslash" unicode="\" horiz-adv-x="872" 
d="M872 0h-335l-537 1458h336z" />
    <glyph glyph-name="bracketright" unicode="]" horiz-adv-x="786" 
d="M684 -401h-664v262h328v1478h-328v263h664v-2003z" />
    <glyph glyph-name="asciicircum" unicode="^" horiz-adv-x="950" 
d="M930 774h-328l-127 332l-127 -332h-328l314 684h282z" />
    <glyph glyph-name="underscore" unicode="_" horiz-adv-x="1056" 
d="M1057 -340h-1057v246h1057v-246z" />
    <glyph glyph-name="grave" unicode="`" horiz-adv-x="1024" 
d="M799 1176h-287l-307 331h389z" />
    <glyph glyph-name="a" unicode="a" 
d="M430 -20q-189 0 -289 85t-100 234q0 65 19.5 118.5t61 98.5t115 74t173.5 37l239 20q80 8 80 62q0 52 -32 79t-91 27q-116 0 -131 -106h-377q0 175 122.5 271.5t381.5 96.5t381.5 -96.5t122.5 -271.5v-439q0 -212 33 -270h-344q-45 51 -45 123q-48 -73 -121.5 -108
t-198.5 -35zM543 229q84 0 135 53t51 130v37q-16 -13 -82 -19l-100 -8q-129 -8 -129 -94q0 -99 125 -99z" />
    <glyph glyph-name="b" unicode="b" horiz-adv-x="1249" 
d="M737 -20q-114 0 -183 43t-116 120v-143h-356v1458h377v-514q95 133 278 133q216 0 343.5 -146t127.5 -403t-127.5 -402.5t-343.5 -145.5zM645 262q88 0 137 66t49 200t-49 200.5t-137 66.5t-137 -66.5t-49 -200.5t49 -200t137 -66z" />
    <glyph glyph-name="c" unicode="c" horiz-adv-x="1175" 
d="M614 -20q-271 0 -422 149.5t-151 398.5t151.5 399t421.5 150q132 0 237.5 -37t170.5 -100.5t99 -143.5t34 -169h-356q-22 168 -185 168q-196 0 -196 -267q0 -266 196 -266q162 0 185 176h356q0 -96 -35.5 -179t-102.5 -145.5t-170.5 -98t-232.5 -35.5z" />
    <glyph glyph-name="d" unicode="d" horiz-adv-x="1249" 
d="M512 -20q-216 0 -343.5 145.5t-127.5 402.5t127.5 403t343.5 146q184 0 279 -133v514h376v-1458h-356v143q-47 -77 -116 -120t-183 -43zM604 262q88 0 137.5 66t49.5 200t-49.5 200.5t-137.5 66.5t-137 -66.5t-49 -200.5t49 -200t137 -66z" />
    <glyph glyph-name="e" unicode="e" horiz-adv-x="1204" 
d="M614 -20q-271 0 -422 149.5t-151 398.5t148.5 399t412.5 150t412.5 -150t148.5 -399q0 -42 -6 -88h-739q6 -100 55.5 -155.5t140.5 -55.5q65 0 111.5 30.5t65.5 88.5h350q-33 -171 -168 -269.5t-359 -98.5zM602 827q-148 0 -184 -149h368q-36 149 -184 149z" />
    <glyph glyph-name="f" unicode="f" horiz-adv-x="786" 
d="M547 0h-377v795h-150v262h150v47q0 192 87 279t282 87q59 0 206 -12v-250h-108q-90 0 -90 -90v-61h198v-262h-198v-795z" />
    <glyph glyph-name="g" unicode="g" horiz-adv-x="1249" 
d="M512 41q-214 0 -342.5 141.5t-128.5 376.5t128.5 376.5t342.5 141.5q114 0 183 -43.5t116 -120.5v144h356v-955q0 -252 -140 -388t-423 -136q-252 0 -379 103.5t-127 289.5h357q12 -78 52.5 -114.5t117.5 -36.5q166 0 166 172v182q-95 -133 -279 -133zM604 303
q87 0 137 65t50 191t-50 191t-137 65t-136.5 -65t-49.5 -191t49.5 -191t136.5 -65z" />
    <glyph glyph-name="h" unicode="h" 
d="M1106 0h-377v621q0 153 -115 153q-72 0 -113.5 -47t-41.5 -137v-590h-377v1458h377v-514q93 133 278 133q369 0 369 -379v-698z" />
    <glyph glyph-name="i" unicode="i" horiz-adv-x="540" 
d="M459 0h-377v1057h377v-1057zM270 1155q-98 0 -153.5 52t-55.5 134t55.5 134.5t153.5 52.5t153.5 -52.5t55.5 -134.5t-55.5 -134t-153.5 -52z" />
    <glyph glyph-name="j" unicode="j" horiz-adv-x="540" 
d="M-61 -401v262h53q90 0 90 90v1106h377v-1104q0 -175 -90 -264.5t-258 -89.5h-172zM270 1155q-98 0 -153.5 52t-55.5 134t55.5 134.5t153.5 52.5t153.5 -52.5t55.5 -134.5t-55.5 -134t-153.5 -52z" />
    <glyph glyph-name="k" unicode="k" horiz-adv-x="1236" 
d="M1237 0h-434l-232 383l-112 -117v-266h-377v1458h377v-766l323 365h435l-392 -410z" />
    <glyph glyph-name="l" unicode="l" horiz-adv-x="540" 
d="M459 0h-377v1458h377v-1458z" />
    <glyph glyph-name="m" unicode="m" horiz-adv-x="1720" 
d="M1638 0h-360v633q0 72 -26.5 106.5t-71.5 34.5q-61 0 -100.5 -42.5t-39.5 -129.5v-602h-360v633q0 72 -26.5 106.5t-71.5 34.5q-61 0 -100.5 -42.5t-39.5 -129.5v-602h-360v1057h356v-144q47 78 109.5 121t161.5 43q224 0 299 -164q97 164 290 164q340 0 340 -379v-698z
" />
    <glyph glyph-name="n" unicode="n" 
d="M1106 0h-377v621q0 153 -115 153q-72 0 -113.5 -47t-41.5 -137v-590h-377v1057h356v-144q47 77 116 120.5t183 43.5q369 0 369 -379v-698z" />
    <glyph glyph-name="o" unicode="o" horiz-adv-x="1228" 
d="M614 -20q-271 0 -422 149.5t-151 398.5t151.5 399t421.5 150q271 0 422.5 -150t151.5 -399t-151.5 -398.5t-422.5 -149.5zM614 262q197 0 197 266q0 267 -197 267q-196 0 -196 -267q0 -266 196 -266z" />
    <glyph glyph-name="p" unicode="p" horiz-adv-x="1249" 
d="M737 -20q-183 0 -278 133v-514h-377v1458h356v-144q47 77 116 120.5t183 43.5q216 0 343.5 -146t127.5 -403t-127.5 -402.5t-343.5 -145.5zM645 262q88 0 137 66t49 200t-49 200.5t-137 66.5t-137 -66.5t-49 -200.5t49 -200t137 -66z" />
    <glyph glyph-name="q" unicode="q" horiz-adv-x="1249" 
d="M512 -20q-216 0 -343.5 145.5t-127.5 402.5t127.5 403t343.5 146q114 0 183 -43.5t116 -120.5v144h356v-1458h-376v514q-95 -133 -279 -133zM604 262q88 0 137.5 66t49.5 200t-49.5 200.5t-137.5 66.5t-137 -66.5t-49 -200.5t49 -200t137 -66z" />
    <glyph glyph-name="r" unicode="r" horiz-adv-x="851" 
d="M459 0h-377v1057h356v-217q38 132 103.5 182.5t171.5 50.5q22 0 54 -5t44 -11v-328h-115q-109 0 -173 -68t-64 -190v-471z" />
    <glyph glyph-name="s" unicode="s" horiz-adv-x="1142" 
d="M571 -20q-263 0 -396.5 98t-133.5 270h369q9 -68 47.5 -97.5t117.5 -29.5q72 0 111 22t39 60q0 62 -117 78l-147 20q-218 30 -304.5 106t-86.5 222q0 159 127 253.5t374 94.5t374.5 -95.5t127.5 -256.5h-368q-8 53 -39 82t-99 29q-61 0 -91 -20.5t-30 -53.5q0 -60 80 -70
l148 -20q221 -31 324.5 -106.5t103.5 -237.5q0 -158 -135 -253t-396 -95z" />
    <glyph glyph-name="t" unicode="t" horiz-adv-x="798" 
d="M539 -12q-211 0 -290 79t-79 287v441h-150v262h150v319h377v-319h198v-262h-198v-455q0 -90 90 -90h108v-250q-147 -12 -206 -12z" />
    <glyph glyph-name="u" unicode="u" 
d="M451 -20q-369 0 -369 378v699h377v-621q0 -153 114 -153q72 0 114 47t42 137v590h377v-1057h-356v143q-47 -77 -116 -120t-183 -43z" />
    <glyph glyph-name="v" unicode="v" 
d="M823 0h-458l-365 1057h393l201 -733l201 733h393z" />
    <glyph glyph-name="w" unicode="w" horiz-adv-x="1777" 
d="M1434 0h-396l-149 545l-150 -545h-395l-344 1057h393l172 -627l160 627h328l159 -627l172 627h394z" />
    <glyph glyph-name="x" unicode="x" horiz-adv-x="1146" 
d="M1147 0h-414l-160 264l-159 -264h-414l356 559l-336 498h414l139 -234l140 234h413l-335 -498z" />
    <glyph glyph-name="y" unicode="y" 
d="M96 -401v262h133q68 0 100.5 26t32.5 82q0 64 -40 174l-322 914h393l201 -774l201 774h393l-316 -914q-72 -208 -159 -326t-201.5 -168t-282.5 -50h-133z" />
    <glyph glyph-name="z" unicode="z" horiz-adv-x="1024" 
d="M983 0h-942v242l481 553h-461v262h902v-242l-482 -553h502v-262z" />
    <glyph glyph-name="braceleft" unicode="{" horiz-adv-x="786" 
d="M766 -401h-172q-195 0 -292 103.5t-97 293.5v346q0 55 -30.5 91t-92.5 36h-62v262h62q62 0 92.5 36t30.5 91v346q0 191 97 294.5t292 103.5h172v-263h-102q-62 0 -92.5 -36t-30.5 -91v-338q0 -104 -55.5 -182t-170.5 -92q115 -14 170.5 -92t55.5 -182v-338
q0 -55 30.5 -91t92.5 -36h102v-262z" />
    <glyph glyph-name="bar" unicode="|" horiz-adv-x="499" 
d="M397 -401h-295v2003h295v-2003z" />
    <glyph glyph-name="braceright" unicode="}" horiz-adv-x="786" 
d="M193 -401h-173v262h103q62 0 92.5 36t30.5 91v338q0 49 12.5 93t38 83t70.5 65t104 33q-59 7 -104 33t-70.5 65t-38 83t-12.5 93v338q0 55 -30.5 91t-92.5 36h-103v263h173q195 0 292 -103.5t97 -294.5v-346q0 -55 30.5 -91t92.5 -36h61v-262h-61q-62 0 -92.5 -36
t-30.5 -91v-346q0 -190 -97 -293.5t-292 -103.5z" />
    <glyph glyph-name="asciitilde" unicode="~" horiz-adv-x="1118" 
d="M764 526q-53 0 -111 22t-98 48t-85.5 48t-76.5 22q-108 0 -108 -140h-213q0 202 76.5 304t205.5 102q53 0 111 -21.5t98 -48t85.5 -48t76.5 -21.5q109 0 109 139h213q0 -202 -77 -304t-206 -102z" />
    <glyph glyph-name="exclamdown" unicode="&#xa1;" horiz-adv-x="540" 
d="M469 -401h-397v462l102 508h193l102 -508v-462zM270 684q-103 0 -161 55.5t-58 141.5t58 141t161 55t161 -55t58 -141t-58 -141.5t-161 -55.5z" />
    <glyph glyph-name="cent" unicode="&#xa2;" horiz-adv-x="1175" 
d="M678 -238h-127v222q-242 17 -376 163.5t-134 380.5q0 233 134 380t376 165v221h127v-219q117 -9 209.5 -49.5t150 -102t87.5 -137t30 -159.5h-356q-19 130 -121 159v-518q102 30 121 170h356q0 -186 -125.5 -312.5t-351.5 -143.5v-220zM418 528q0 -219 133 -258v516
q-133 -39 -133 -258z" />
    <glyph glyph-name="sterling" unicode="&#xa3;" horiz-adv-x="1277" 
d="M1010 -20q-61 0 -244.5 43t-276.5 43q-62 0 -139.5 -19t-216.5 -67l-92 256q61 22 106.5 62t69 86t34.5 88.5t11 82.5q0 24 -6 51h-215v160h149q-67 134 -67 227q0 230 147 358t410 128t410 -127.5t147 -356.5h-373q-13 97 -56.5 139t-119.5 42q-78 0 -123 -46.5
t-45 -134.5q0 -16 1.5 -32t5 -35t6 -30.5t9.5 -35t9 -30.5t11.5 -34.5t10.5 -31.5h443v-160h-402q4 -32 4 -51q0 -121 -129 -207q62 8 103 8q68 0 220 -36.5t218 -36.5q143 0 207 41v-283q-95 -61 -227 -61z" />
    <glyph glyph-name="currency" unicode="&#xa4;" horiz-adv-x="1277" 
d="M639 227q-154 0 -283 82l-147 -147l-137 137l147 147q-82 124 -82 283q0 157 82 281l-147 149l137 137l147 -149q127 84 283 84q157 0 281 -84l149 149l137 -137l-149 -149q84 -127 84 -281q0 -156 -84 -283l149 -147l-137 -137l-149 147q-125 -82 -281 -82zM639 510
q98 0 158.5 63t60.5 156t-60.5 156t-158.5 63t-158.5 -63t-60.5 -156t60.5 -156t158.5 -63z" />
    <glyph glyph-name="yen" unicode="&#xa5;" horiz-adv-x="1372" 
d="M874 0h-376v186h-312v160h312v152h-312v159h252l-489 801h448l289 -545l289 545h448l-489 -801h252v-159h-312v-152h312v-160h-312v-186z" />
    <glyph glyph-name="brokenbar" unicode="&#xa6;" horiz-adv-x="499" 
d="M397 -401h-295v856h295v-856zM397 745h-295v857h295v-857z" />
    <glyph glyph-name="section" unicode="&#xa7;" horiz-adv-x="1331" 
d="M1290 477q0 -96 -55 -171.5t-176 -115.5q69 -39 103 -103.5t34 -139.5q0 -172 -133.5 -270.5t-396.5 -98.5t-397 98.5t-134 270.5h369q9 -66 50 -96.5t116 -30.5q149 0 149 119q0 89 -108 143l-435 211q-125 61 -180 128.5t-55 172.5q0 102 57.5 177t175.5 114
q-110 91 -110 225q0 172 127 270.5t375 98.5q247 0 374 -96t127 -257h-368q-8 53 -38.5 82t-98.5 29q-121 0 -121 -119q0 -40 18.5 -69t69.5 -54l405 -196q67 -32 109 -59.5t78 -65t52.5 -85.5t16.5 -112zM913 449q0 100 -106 151l-313 152q-38 -16 -57 -53.5t-19 -75.5
q0 -50 21 -79.5t65 -51.5l338 -166q37 19 54 52.5t17 70.5z" />
    <glyph glyph-name="dieresis" unicode="&#xa8;" horiz-adv-x="1024" 
d="M297 1184q-84 0 -131 43.5t-47 113.5t47 114t131 44t131 -44t47 -114t-47 -113.5t-131 -43.5zM727 1184q-84 0 -131 43.5t-47 113.5t47 114t131 44t131 -44t47 -114t-47 -113.5t-131 -43.5z" />
    <glyph glyph-name="copyright" unicode="&#xa9;" horiz-adv-x="1642" 
d="M821 -20q-232 0 -410 94.5t-274 264.5t-96 390q0 165 56 304.5t157 237.5t247 153t320 55q232 0 410 -94.5t274.5 -265t96.5 -390.5t-96.5 -390t-274.5 -264.5t-410 -94.5zM821 199q248 0 392.5 145.5t144.5 384.5t-144.5 385t-392.5 146t-392 -146t-144 -385t144 -384.5
t392 -145.5zM831 344q-189 0 -295 105t-106 280t106 280t295 105q182 0 281.5 -91.5t99.5 -223.5h-249q-16 116 -132 116q-137 0 -137 -186t137 -186q114 0 132 123h249q0 -139 -100.5 -230.5t-280.5 -91.5z" />
    <glyph glyph-name="ordfeminine" unicode="&#xaa;" horiz-adv-x="1048" 
d="M379 524q-163 0 -250.5 74.5t-87.5 204.5q0 118 75 194.5t244 89.5l209 17q70 5 70 55q0 44 -28 68t-79 24q-98 0 -114 -92h-328q0 151 106.5 235.5t331.5 84.5q226 0 332.5 -84t106.5 -236v-383q0 -188 28 -233h-299q-39 45 -39 106q-41 -64 -105 -94.5t-173 -30.5z
M477 741q73 0 117.5 45.5t44.5 112.5v33q-19 -14 -72 -17l-86 -6q-112 -8 -112 -82q0 -86 108 -86z" />
    <glyph glyph-name="guillemotleft" unicode="&#xab;" horiz-adv-x="1015" 
d="M463 139l-361 307v283l361 307v-327l-144 -121l144 -121v-328zM913 139l-360 307v283l360 307v-327l-143 -121l143 -121v-328z" />
    <glyph glyph-name="logicalnot" unicode="&#xac;" horiz-adv-x="1118" 
d="M1047 416h-304v344h-671v282h975v-626z" />
    <glyph glyph-name="uni00AD" unicode="&#xad;" horiz-adv-x="774" 
d="M702 446h-630v283h630v-283z" />
    <glyph glyph-name="registered" unicode="&#xae;" horiz-adv-x="1196" 
d="M598 410q-251 0 -404 147.5t-153 386.5t153 387t404 148t404 -148t153 -387t-153 -386.5t-404 -147.5zM598 530q192 0 306 114t114 300t-114 300t-306 114t-306 -114t-114 -300t114 -300t306 -114zM836 1053q0 -99 -97 -127q88 -17 88 -113v-82q0 -26 9 -53h-152
q-10 23 -10 53v72q0 41 -20 55t-56 14h-59v-194h-154v532h262q90 0 139.5 -42t49.5 -115zM682 1042q0 54 -61 54h-82v-109h82q61 0 61 55z" />
    <glyph glyph-name="macron" unicode="&#xaf;" horiz-adv-x="1024" 
d="M860 1239h-696v205h696v-205z" />
    <glyph glyph-name="degree" unicode="&#xb0;" horiz-adv-x="729" 
d="M365 815q-157 0 -251 95.5t-94 236.5t94 236.5t251 95.5t250.5 -95.5t93.5 -236.5t-93.5 -236.5t-250.5 -95.5zM365 1008q61 0 96 38.5t35 100.5t-35 100.5t-96 38.5t-96.5 -38.5t-35.5 -100.5t35.5 -100.5t96.5 -38.5z" />
    <glyph glyph-name="plusminus" unicode="&#xb1;" horiz-adv-x="1118" 
d="M1047 0h-975v283h975v-283zM711 406h-303v264h-336v282h336v265h303v-265h336v-282h-336v-264z" />
    <glyph glyph-name="twosuperior" unicode="&#xb2;" horiz-adv-x="759" 
d="M719 1008h-678v114q0 135 54 207t181 117l111 41q50 18 70 46.5t20 74.5q0 33 -23 53t-63 20q-43 0 -69.5 -23t-34.5 -87h-226q0 147 83 228t245 81q155 0 242.5 -77t87.5 -201q0 -200 -227 -283l-123 -43q-75 -27 -86 -70h436v-198z" />
    <glyph glyph-name="threesuperior" unicode="&#xb3;" horiz-adv-x="788" 
d="M395 995q-170 0 -262 76t-92 234h227q7 -60 38.5 -85.5t88.5 -25.5q56 0 83.5 26t27.5 70q0 70 -105 70h-90v172h78q105 0 105 65q0 36 -29 60t-72 24q-51 0 -78.5 -20t-33.5 -66h-228q0 130 88.5 207.5t253.5 77.5q154 0 247 -71.5t93 -178.5q0 -150 -143 -180
q156 -41 156 -205q0 -109 -96.5 -179.5t-256.5 -70.5z" />
    <glyph glyph-name="acute" unicode="&#xb4;" horiz-adv-x="1024" 
d="M512 1176h-287l205 331h389z" />
    <glyph glyph-name="mu" unicode="&#xb5;" 
d="M532 -20q-40 0 -73 10v-391h-377v1458h377v-621q0 -153 114 -153q72 0 114 47t42 137v590h377v-1057h-356v143q-48 -163 -218 -163z" />
    <glyph glyph-name="paragraph" unicode="&#xb6;" horiz-adv-x="1314" 
d="M1212 -401h-274v1601h-205v-1601h-274v1065q-182 0 -300 109.5t-118 287.5t118 287.5t300 109.5h753v-1859z" />
    <glyph glyph-name="periodcentered" unicode="&#xb7;" horiz-adv-x="540" 
d="M270 391q-103 0 -161 55.5t-58 141.5t58 141t161 55t161 -55t58 -141t-58 -141.5t-161 -55.5z" />
    <glyph glyph-name="cedilla" unicode="&#xb8;" horiz-adv-x="1024" 
d="M750 -221q0 -93 -74 -136.5t-242 -43.5l-160 16v131h156q82 0 82 49t-82 49h-51v74l88 105h123l-88 -105q110 0 179 -34t69 -105z" />
    <glyph glyph-name="onesuperior" unicode="&#xb9;" horiz-adv-x="581" 
d="M479 1008h-241v495q-62 -4 -146 -4h-51v182q106 6 163 50.5t81 136.5h194v-860z" />
    <glyph glyph-name="ordmasculine" unicode="&#xba;" horiz-adv-x="1081" 
d="M541 524q-234 0 -367 130.5t-133 346.5t133 347t367 131t366.5 -131t132.5 -347t-132.5 -346.5t-366.5 -130.5zM541 770q172 0 172 231q0 232 -172 232t-172 -232q0 -231 172 -231z" />
    <glyph glyph-name="guillemotright" unicode="&#xbb;" horiz-adv-x="1015" 
d="M463 446l-361 -307v328l144 121l-144 121v327l361 -307v-283zM913 446l-360 -307v328l143 121l-143 121v327l360 -307v-283z" />
    <glyph glyph-name="onequarter" unicode="&#xbc;" horiz-adv-x="1605" 
d="M479 598h-241v496q-62 -4 -146 -4h-51v182q106 6 163.5 50t80.5 136h194v-860zM459 0h-213l782 1458h213zM1458 0h-233v184h-406v215l365 461h274v-491h107v-185h-107v-184zM1225 369v249l-197 -249h197z" />
    <glyph glyph-name="onehalf" unicode="&#xbd;" horiz-adv-x="1626" 
d="M479 598h-241v496q-62 -4 -146 -4h-51v182q106 6 163.5 50t80.5 136h194v-860zM459 0h-213l782 1458h213zM1585 0h-678v115q0 135 54 206.5t182 116.5l110 41q50 18 70 46.5t20 74.5q0 33 -23 53.5t-63 20.5q-43 0 -69.5 -23.5t-34.5 -87.5h-225q0 147 82.5 228t244.5 81
q155 0 242.5 -77t87.5 -201q0 -200 -227 -283l-123 -43q-75 -27 -86 -69h436v-199z" />
    <glyph glyph-name="threequarters" unicode="&#xbe;" horiz-adv-x="1769" 
d="M395 586q-354 0 -354 309h227q7 -60 38.5 -85.5t88.5 -25.5q56 0 83.5 26.5t27.5 70.5q0 69 -105 69h-90v172h78q105 0 105 66q0 36 -29 60t-72 24q-51 0 -78.5 -20t-33.5 -66h-228q0 130 88.5 207t253.5 77q155 0 247.5 -71t92.5 -178q0 -151 -143 -181
q156 -41 156 -204q0 -109 -96.5 -179.5t-256.5 -70.5zM623 0h-213l782 1458h213zM1622 0h-233v184h-406v215l365 461h274v-491h107v-185h-107v-184zM1389 369v249l-197 -249h197z" />
    <glyph glyph-name="questiondown" unicode="&#xbf;" horiz-adv-x="1155" 
d="M578 -422q-249 0 -393 119t-144 311q0 69 22 124t57 89.5t77.5 62t85.5 49.5t78 45t57 54.5t22 71.5v65h316v-65q0 -79 -17.5 -139t-45.5 -94.5t-62 -60t-68 -44t-62 -38t-45.5 -50t-17.5 -72.5q0 -65 39.5 -95t100.5 -30q72 0 111 41t52 139h373q0 -231 -138 -357
t-398 -126zM598 684q-103 0 -161 55.5t-58 141.5t58 141t161 55t161 -55t58 -141t-58 -141.5t-161 -55.5z" />
    <glyph glyph-name="Agrave" unicode="&#xc0;" horiz-adv-x="1515" 
d="M1516 0h-406l-74 227h-557l-73 -227h-406l512 1458h492zM942 530l-184 576l-185 -576h369zM901 1565h-287l-307 331h389z" />
    <glyph glyph-name="Aacute" unicode="&#xc1;" horiz-adv-x="1515" 
d="M1516 0h-406l-74 227h-557l-73 -227h-406l512 1458h492zM942 530l-184 576l-185 -576h369zM901 1565h-287l205 331h389z" />
    <glyph glyph-name="Acircumflex" unicode="&#xc2;" horiz-adv-x="1515" 
d="M1516 0h-406l-74 227h-557l-73 -227h-406l512 1458h492zM942 530l-184 576l-185 -576h369zM1126 1565h-266l-102 135l-103 -135h-266l225 331h287z" />
    <glyph glyph-name="Atilde" unicode="&#xc3;" horiz-adv-x="1515" 
d="M1516 0h-406l-74 227h-557l-73 -227h-406l512 1458h492zM942 530l-184 576l-185 -576h369zM895 1565q-44 0 -86.5 17t-69 38t-54.5 38t-46 17q-31 0 -49.5 -28t-18.5 -82h-182q0 169 58 250t174 81q44 0 86.5 -17t69 -38t54.5 -38t46 -17q30 0 48.5 28t18.5 82h182
q0 -169 -57.5 -250t-173.5 -81z" />
    <glyph glyph-name="Adieresis" unicode="&#xc4;" horiz-adv-x="1515" 
d="M1516 0h-406l-74 227h-557l-73 -227h-406l512 1458h492zM942 530l-184 576l-185 -576h369zM543 1573q-84 0 -131 44t-47 114t47 113.5t131 43.5t131 -43.5t47 -113.5t-47 -114t-131 -44zM973 1573q-84 0 -131 44t-47 114t47 113.5t131 43.5t131 -43.5t47 -113.5t-47 -114
t-131 -44z" />
    <glyph glyph-name="Aring" unicode="&#xc5;" horiz-adv-x="1515" 
d="M1516 0h-406l-74 227h-557l-73 -227h-406l512 1458h27q-88 73 -88 205q0 122 81 198t226 76t226 -76t81 -198q0 -129 -88 -205h27zM942 530l-184 576l-185 -576h369zM758 1556q48 0 73 29t25 78t-25 77.5t-73 28.5t-73.5 -28.5t-25.5 -77.5t25.5 -78t73.5 -29z" />
    <glyph glyph-name="AE" unicode="&#xc6;" horiz-adv-x="2228" 
d="M2179 0h-1135v227h-534l-104 -227h-406l676 1458h1503v-323h-737v-240h672v-303h-672v-268h737v-324zM1044 530v605h-116l-279 -605h395z" />
    <glyph glyph-name="Ccedilla" unicode="&#xc7;" horiz-adv-x="1552" 
d="M1038 -221q0 -94 -73.5 -137t-241.5 -43l-160 16v131h156q82 0 82 49t-82 49h-51v74l53 66q-316 23 -498 225.5t-182 519.5q0 221 91 390.5t264 264.5t405 95q202 0 364 -73t254 -206.5t92 -302.5h-381q-18 119 -99.5 188.5t-229.5 69.5q-180 0 -271.5 -109t-91.5 -317
q0 -209 91.5 -317.5t271.5 -108.5q292 0 329 270h381q0 -252 -186.5 -415.5t-482.5 -175.5l-51 -64q110 0 178.5 -34t68.5 -105z" />
    <glyph glyph-name="Egrave" unicode="&#xc8;" horiz-adv-x="1286" 
d="M1237 0h-1135v1458h1135v-323h-737v-240h671v-303h-671v-268h737v-324zM813 1565h-287l-307 331h389z" />
    <glyph glyph-name="Eacute" unicode="&#xc9;" horiz-adv-x="1286" 
d="M1237 0h-1135v1458h1135v-323h-737v-240h671v-303h-671v-268h737v-324zM813 1565h-287l205 331h389z" />
    <glyph glyph-name="Ecircumflex" unicode="&#xca;" horiz-adv-x="1286" 
d="M1237 0h-1135v1458h1135v-323h-737v-240h671v-303h-671v-268h737v-324zM1038 1565h-266l-102 135l-103 -135h-266l225 331h287z" />
    <glyph glyph-name="Edieresis" unicode="&#xcb;" horiz-adv-x="1286" 
d="M1237 0h-1135v1458h1135v-323h-737v-240h671v-303h-671v-268h737v-324zM455 1573q-84 0 -131.5 44t-47.5 114t47.5 113.5t131.5 43.5t131 -43.5t47 -113.5t-47 -114t-131 -44zM885 1573q-84 0 -131 44t-47 114t47 113.5t131 43.5t131 -43.5t47 -113.5t-47 -114t-131 -44z
" />
    <glyph glyph-name="Igrave" unicode="&#xcc;" horiz-adv-x="602" 
d="M500 0h-398v1458h398v-1458zM444 1565h-286l-308 331h390z" />
    <glyph glyph-name="Iacute" unicode="&#xcd;" horiz-adv-x="602" 
d="M500 0h-398v1458h398v-1458zM444 1565h-286l204 331h390z" />
    <glyph glyph-name="Icircumflex" unicode="&#xce;" horiz-adv-x="602" 
d="M500 0h-398v1458h398v-1458zM670 1565h-267l-102 135l-102 -135h-267l226 331h286z" />
    <glyph glyph-name="Idieresis" unicode="&#xcf;" horiz-adv-x="602" 
d="M500 0h-398v1458h398v-1458zM86 1573q-84 0 -131 44t-47 114t47 113.5t131 43.5t131 -43.5t47 -113.5t-47 -114t-131 -44zM516 1573q-84 0 -131 44t-47 114t47 113.5t131 43.5t131 -43.5t47 -113.5t-47 -114t-131 -44z" />
    <glyph glyph-name="Eth" unicode="&#xd0;" horiz-adv-x="1560" 
d="M1520 729q0 -350 -196 -539.5t-564 -189.5h-617v641h-143v205h143v612h617q368 0 564 -189.5t196 -539.5zM815 641h-274v-330h239q342 0 342 418t-342 418h-239v-301h274v-205z" />
    <glyph glyph-name="Ntilde" unicode="&#xd1;" horiz-adv-x="1523" 
d="M1421 0h-417l-525 885v-885h-377v1458h418l524 -885v885h377v-1458zM899 1565q-44 0 -86.5 17t-69 38t-54.5 38t-46 17q-31 0 -49.5 -28t-18.5 -82h-182q0 169 58 250t174 81q44 0 86.5 -17t69 -38t54.5 -38t46 -17q30 0 48.5 28t18.5 82h182q0 -169 -57.5 -250
t-173.5 -81z" />
    <glyph glyph-name="Ograve" unicode="&#xd2;" horiz-adv-x="1601" 
d="M801 -20q-232 0 -405 94.5t-264 264t-91 390.5t91 390.5t264 264.5t405 95t405 -95t264 -264.5t91 -390.5t-91 -390.5t-264 -264t-405 -94.5zM801 303q180 0 271 108.5t91 317.5t-91 317.5t-271 108.5t-271.5 -109t-91.5 -317q0 -209 91.5 -317.5t271.5 -108.5zM944 1565
h-287l-307 331h389z" />
    <glyph glyph-name="Oacute" unicode="&#xd3;" horiz-adv-x="1601" 
d="M801 -20q-232 0 -405 94.5t-264 264t-91 390.5t91 390.5t264 264.5t405 95t405 -95t264 -264.5t91 -390.5t-91 -390.5t-264 -264t-405 -94.5zM801 303q180 0 271 108.5t91 317.5t-91 317.5t-271 108.5t-271.5 -109t-91.5 -317q0 -209 91.5 -317.5t271.5 -108.5zM944 1565
h-287l205 331h389z" />
    <glyph glyph-name="Ocircumflex" unicode="&#xd4;" horiz-adv-x="1601" 
d="M801 -20q-232 0 -405 94.5t-264 264t-91 390.5t91 390.5t264 264.5t405 95t405 -95t264 -264.5t91 -390.5t-91 -390.5t-264 -264t-405 -94.5zM801 303q180 0 271 108.5t91 317.5t-91 317.5t-271 108.5t-271.5 -109t-91.5 -317q0 -209 91.5 -317.5t271.5 -108.5z
M1169 1565h-266l-102 135l-103 -135h-266l225 331h287z" />
    <glyph glyph-name="Otilde" unicode="&#xd5;" horiz-adv-x="1601" 
d="M801 -20q-232 0 -405 94.5t-264 264t-91 390.5t91 390.5t264 264.5t405 95t405 -95t264 -264.5t91 -390.5t-91 -390.5t-264 -264t-405 -94.5zM801 303q180 0 271 108.5t91 317.5t-91 317.5t-271 108.5t-271.5 -109t-91.5 -317q0 -209 91.5 -317.5t271.5 -108.5zM938 1565
q-44 0 -86.5 17t-69 38t-54.5 38t-46 17q-31 0 -49.5 -28t-18.5 -82h-182q0 169 58 250t174 81q44 0 86.5 -17t69 -38t54.5 -38t46 -17q30 0 48.5 28t18.5 82h182q0 -169 -57.5 -250t-173.5 -81z" />
    <glyph glyph-name="Odieresis" unicode="&#xd6;" horiz-adv-x="1601" 
d="M801 -20q-232 0 -405 94.5t-264 264t-91 390.5t91 390.5t264 264.5t405 95t405 -95t264 -264.5t91 -390.5t-91 -390.5t-264 -264t-405 -94.5zM801 303q180 0 271 108.5t91 317.5t-91 317.5t-271 108.5t-271.5 -109t-91.5 -317q0 -209 91.5 -317.5t271.5 -108.5zM586 1573
q-84 0 -131 44t-47 114t47 113.5t131 43.5t131 -43.5t47 -113.5t-47 -114t-131 -44zM1016 1573q-84 0 -131 44t-47 114t47 113.5t131 43.5t131 -43.5t47 -113.5t-47 -114t-131 -44z" />
    <glyph glyph-name="multiply" unicode="&#xd7;" horiz-adv-x="1118" 
d="M848 242l-289 288l-289 -288l-198 198l288 289l-288 289l198 199l289 -289l289 289l199 -199l-289 -289l289 -289z" />
    <glyph glyph-name="Oslash" unicode="&#xd8;" horiz-adv-x="1601" 
d="M147 -20l-106 106l156 154q-156 198 -156 489q0 221 91 390.5t264 264.5t405 95q297 0 495 -156l158 156l107 -107l-158 -155q158 -197 158 -488q0 -221 -91 -390.5t-264 -264t-405 -94.5q-300 0 -498 153zM801 303q180 0 271 108.5t91 317.5q0 127 -35 217l-571 -563
q89 -80 244 -80zM438 729q0 -131 33 -219l573 565q-89 80 -243 80q-180 0 -271.5 -109t-91.5 -317z" />
    <glyph glyph-name="Ugrave" unicode="&#xd9;" horiz-adv-x="1482" 
d="M741 -20q-322 0 -490.5 145.5t-168.5 427.5v905h397v-864q0 -162 61 -226.5t201 -64.5t201.5 64.5t61.5 226.5v864h397v-905q0 -282 -169 -427.5t-491 -145.5zM885 1565h-287l-307 331h389z" />
    <glyph glyph-name="Uacute" unicode="&#xda;" horiz-adv-x="1482" 
d="M741 -20q-322 0 -490.5 145.5t-168.5 427.5v905h397v-864q0 -162 61 -226.5t201 -64.5t201.5 64.5t61.5 226.5v864h397v-905q0 -282 -169 -427.5t-491 -145.5zM885 1565h-287l205 331h389z" />
    <glyph glyph-name="Ucircumflex" unicode="&#xdb;" horiz-adv-x="1482" 
d="M741 -20q-322 0 -490.5 145.5t-168.5 427.5v905h397v-864q0 -162 61 -226.5t201 -64.5t201.5 64.5t61.5 226.5v864h397v-905q0 -282 -169 -427.5t-491 -145.5zM1110 1565h-266l-103 135l-102 -135h-266l225 331h287z" />
    <glyph glyph-name="Udieresis" unicode="&#xdc;" horiz-adv-x="1482" 
d="M741 -20q-322 0 -490.5 145.5t-168.5 427.5v905h397v-864q0 -162 61 -226.5t201 -64.5t201.5 64.5t61.5 226.5v864h397v-905q0 -282 -169 -427.5t-491 -145.5zM526 1573q-84 0 -131 44t-47 114t47 113.5t131 43.5t131.5 -43.5t47.5 -113.5t-47.5 -114t-131.5 -44z
M956 1573q-84 0 -131 44t-47 114t47 113.5t131 43.5t131.5 -43.5t47.5 -113.5t-47.5 -114t-131.5 -44z" />
    <glyph glyph-name="Yacute" unicode="&#xdd;" horiz-adv-x="1474" 
d="M539 0v561l-539 897h459l278 -524l279 524h459l-539 -897v-561h-397zM881 1565h-287l205 331h389z" />
    <glyph glyph-name="Thorn" unicode="&#xde;" horiz-adv-x="1376" 
d="M1335 729q0 -230 -147.5 -358.5t-411.5 -128.5h-276v-242h-398v1458h398v-241h276q264 0 411.5 -129t147.5 -359zM938 729q0 102 -55.5 147.5t-167.5 45.5h-215v-385h215q112 0 167.5 45t55.5 147z" />
    <glyph glyph-name="germandbls" unicode="&#xdf;" horiz-adv-x="1249" 
d="M778 -12q-19 0 -166 12v262h88q70 0 100.5 29t30.5 94q0 48 -25.5 97.5t-56 85t-56 85t-25.5 97.5q0 32 16 65.5t35 58t35 66t16 88.5q0 77 -41.5 122.5t-114.5 45.5t-114 -45.5t-41 -122.5v-1028h-377v1028q0 94 30.5 174t90.5 142.5t160.5 98.5t230.5 36
q105 0 191 -23.5t145 -65t99 -98.5t58.5 -123t18.5 -141q0 -47 -16 -88.5t-35 -66t-35 -58t-16 -65.5q0 -33 32 -77.5t70 -83t70 -94.5t32 -110q0 -397 -430 -397z" />
    <glyph glyph-name="agrave" unicode="&#xe0;" 
d="M430 -20q-189 0 -289 85t-100 234q0 65 19.5 118.5t61 98.5t115 74t173.5 37l239 20q80 8 80 62q0 52 -32 79t-91 27q-116 0 -131 -106h-377q0 175 122.5 271.5t381.5 96.5t381.5 -96.5t122.5 -271.5v-439q0 -212 33 -270h-344q-45 51 -45 123q-48 -73 -121.5 -108
t-198.5 -35zM543 229q84 0 135 53t51 130v37q-16 -13 -82 -19l-100 -8q-129 -8 -129 -94q0 -99 125 -99zM745 1176h-286l-307 331h389z" />
    <glyph glyph-name="aacute" unicode="&#xe1;" 
d="M430 -20q-189 0 -289 85t-100 234q0 65 19.5 118.5t61 98.5t115 74t173.5 37l239 20q80 8 80 62q0 52 -32 79t-91 27q-116 0 -131 -106h-377q0 175 122.5 271.5t381.5 96.5t381.5 -96.5t122.5 -271.5v-439q0 -212 33 -270h-344q-45 51 -45 123q-48 -73 -121.5 -108
t-198.5 -35zM543 229q84 0 135 53t51 130v37q-16 -13 -82 -19l-100 -8q-129 -8 -129 -94q0 -99 125 -99zM745 1176h-286l205 331h389z" />
    <glyph glyph-name="acircumflex" unicode="&#xe2;" 
d="M430 -20q-189 0 -289 85t-100 234q0 65 19.5 118.5t61 98.5t115 74t173.5 37l239 20q80 8 80 62q0 52 -32 79t-91 27q-116 0 -131 -106h-377q0 175 122.5 271.5t381.5 96.5t381.5 -96.5t122.5 -271.5v-439q0 -212 33 -270h-344q-45 51 -45 123q-48 -73 -121.5 -108
t-198.5 -35zM543 229q84 0 135 53t51 130v37q-16 -13 -82 -19l-100 -8q-129 -8 -129 -94q0 -99 125 -99zM971 1176h-266l-103 135l-102 -135h-267l226 331h286z" />
    <glyph glyph-name="atilde" unicode="&#xe3;" 
d="M430 -20q-189 0 -289 85t-100 234q0 65 19.5 118.5t61 98.5t115 74t173.5 37l239 20q80 8 80 62q0 52 -32 79t-91 27q-116 0 -131 -106h-377q0 175 122.5 271.5t381.5 96.5t381.5 -96.5t122.5 -271.5v-439q0 -212 33 -270h-344q-45 51 -45 123q-48 -73 -121.5 -108
t-198.5 -35zM543 229q84 0 135 53t51 130v37q-16 -13 -82 -19l-100 -8q-129 -8 -129 -94q0 -99 125 -99zM739 1176q-44 0 -86.5 17t-69 38t-54.5 38t-46 17q-30 0 -48.5 -28t-18.5 -82h-183q0 169 58 250t174 81q44 0 86.5 -17t69 -38t54.5 -38t46 -17q30 0 48.5 28t18.5 82
h183q0 -169 -58 -250t-174 -81z" />
    <glyph glyph-name="adieresis" unicode="&#xe4;" 
d="M430 -20q-189 0 -289 85t-100 234q0 65 19.5 118.5t61 98.5t115 74t173.5 37l239 20q80 8 80 62q0 52 -32 79t-91 27q-116 0 -131 -106h-377q0 175 122.5 271.5t381.5 96.5t381.5 -96.5t122.5 -271.5v-439q0 -212 33 -270h-344q-45 51 -45 123q-48 -73 -121.5 -108
t-198.5 -35zM543 229q84 0 135 53t51 130v37q-16 -13 -82 -19l-100 -8q-129 -8 -129 -94q0 -99 125 -99zM387 1184q-84 0 -131 43.5t-47 113.5t47 114t131 44t131 -44t47 -114t-47 -113.5t-131 -43.5zM817 1184q-84 0 -131 43.5t-47 113.5t47 114t131 44t131 -44t47 -114
t-47 -113.5t-131 -43.5z" />
    <glyph glyph-name="aring" unicode="&#xe5;" 
d="M430 -20q-189 0 -289 85t-100 234q0 65 19.5 118.5t61 98.5t115 74t173.5 37l239 20q80 8 80 62q0 52 -32 79t-91 27q-116 0 -131 -106h-377q0 175 122.5 271.5t381.5 96.5t381.5 -96.5t122.5 -271.5v-439q0 -212 33 -270h-344q-45 51 -45 123q-48 -73 -121.5 -108
t-198.5 -35zM543 229q84 0 135 53t51 130v37q-16 -13 -82 -19l-100 -8q-129 -8 -129 -94q0 -99 125 -99zM602 1118q-145 0 -226 76.5t-81 198.5t81 198t226 76t226 -76t81 -198t-81 -198.5t-226 -76.5zM602 1286q48 0 73 29t25 78t-25 77.5t-73 28.5t-73 -28.5t-25 -77.5
t25 -78t73 -29z" />
    <glyph glyph-name="ae" unicode="&#xe6;" horiz-adv-x="1892" 
d="M1303 -20q-303 0 -422 223q-72 -121 -179 -172t-272 -51q-189 0 -289 85t-100 234q0 135 87 222.5t282 105.5l239 20q80 8 80 62q0 52 -32 79t-91 27q-116 0 -131 -106h-377q0 175 122.5 271.5t381.5 96.5q260 0 352 -119q122 119 336 119q264 0 412.5 -150t148.5 -399
q0 -42 -6 -88h-739q6 -100 56 -155.5t141 -55.5q65 0 111 30.5t65 88.5h350q-33 -171 -167.5 -269.5t-358.5 -98.5zM543 229q84 0 135 53t51 130v37q-16 -13 -82 -19l-100 -8q-129 -8 -129 -94q0 -99 125 -99zM1290 827q-148 0 -184 -149h369q-36 149 -185 149z" />
    <glyph glyph-name="ccedilla" unicode="&#xe7;" horiz-adv-x="1175" 
d="M852 -221q0 -94 -73.5 -137t-241.5 -43l-160 16v131h155q82 0 82 49t-82 49h-51v74l56 66q-236 21 -366 167t-130 377q0 249 151.5 399t421.5 150q132 0 237.5 -37t170.5 -100.5t99 -143.5t34 -169h-356q-22 168 -185 168q-196 0 -196 -267q0 -266 196 -266
q162 0 185 176h356q0 -92 -33 -172.5t-94.5 -142t-157.5 -99t-215 -42.5l-51 -64q110 0 179 -34t69 -105z" />
    <glyph glyph-name="egrave" unicode="&#xe8;" horiz-adv-x="1204" 
d="M614 -20q-271 0 -422 149.5t-151 398.5t148.5 399t412.5 150t412.5 -150t148.5 -399q0 -42 -6 -88h-739q6 -100 55.5 -155.5t140.5 -55.5q65 0 111.5 30.5t65.5 88.5h350q-33 -171 -168 -269.5t-359 -98.5zM602 827q-148 0 -184 -149h368q-36 149 -184 149zM745 1176
h-286l-307 331h389z" />
    <glyph glyph-name="eacute" unicode="&#xe9;" horiz-adv-x="1204" 
d="M614 -20q-271 0 -422 149.5t-151 398.5t148.5 399t412.5 150t412.5 -150t148.5 -399q0 -42 -6 -88h-739q6 -100 55.5 -155.5t140.5 -55.5q65 0 111.5 30.5t65.5 88.5h350q-33 -171 -168 -269.5t-359 -98.5zM602 827q-148 0 -184 -149h368q-36 149 -184 149zM745 1176
h-286l205 331h389z" />
    <glyph glyph-name="ecircumflex" unicode="&#xea;" horiz-adv-x="1204" 
d="M614 -20q-271 0 -422 149.5t-151 398.5t148.5 399t412.5 150t412.5 -150t148.5 -399q0 -42 -6 -88h-739q6 -100 55.5 -155.5t140.5 -55.5q65 0 111.5 30.5t65.5 88.5h350q-33 -171 -168 -269.5t-359 -98.5zM602 827q-148 0 -184 -149h368q-36 149 -184 149zM971 1176
h-266l-103 135l-102 -135h-267l226 331h286z" />
    <glyph glyph-name="edieresis" unicode="&#xeb;" horiz-adv-x="1204" 
d="M614 -20q-271 0 -422 149.5t-151 398.5t148.5 399t412.5 150t412.5 -150t148.5 -399q0 -42 -6 -88h-739q6 -100 55.5 -155.5t140.5 -55.5q65 0 111.5 30.5t65.5 88.5h350q-33 -171 -168 -269.5t-359 -98.5zM602 827q-148 0 -184 -149h368q-36 149 -184 149zM387 1184
q-84 0 -131 43.5t-47 113.5t47 114t131 44t131 -44t47 -114t-47 -113.5t-131 -43.5zM817 1184q-84 0 -131 43.5t-47 113.5t47 114t131 44t131 -44t47 -114t-47 -113.5t-131 -43.5z" />
    <glyph glyph-name="igrave" unicode="&#xec;" horiz-adv-x="540" 
d="M459 0h-377v1057h377v-1057zM414 1176h-287l-307 331h389z" />
    <glyph glyph-name="iacute" unicode="&#xed;" horiz-adv-x="540" 
d="M459 0h-377v1057h377v-1057zM414 1176h-287l205 331h389z" />
    <glyph glyph-name="icircumflex" unicode="&#xee;" horiz-adv-x="540" 
d="M459 0h-377v1057h377v-1057zM639 1176h-266l-103 135l-102 -135h-266l225 331h287z" />
    <glyph glyph-name="idieresis" unicode="&#xef;" horiz-adv-x="540" 
d="M459 0h-377v1057h377v-1057zM55 1184q-84 0 -131 43.5t-47 113.5t47 114t131 44t131 -44t47 -114t-47 -113.5t-131 -43.5zM485 1184q-84 0 -131 43.5t-47 113.5t47 114t131 44t131.5 -44t47.5 -114t-47.5 -113.5t-131.5 -43.5z" />
    <glyph glyph-name="eth" unicode="&#xf0;" horiz-adv-x="1228" 
d="M614 -20q-270 0 -421.5 141.5t-151.5 376.5q0 233 127.5 375.5t343.5 142.5q174 0 270 -123q-46 113 -174 262l-354 -98v188l213 60q-89 86 -168 153h356l84 -78l318 90v-188l-174 -49q305 -352 305 -735q0 -235 -152 -376.5t-422 -141.5zM614 242q197 0 197 256
t-197 256q-196 0 -196 -256t196 -256z" />
    <glyph glyph-name="ntilde" unicode="&#xf1;" 
d="M1106 0h-377v621q0 153 -115 153q-72 0 -113.5 -47t-41.5 -137v-590h-377v1057h356v-144q47 77 116 120.5t183 43.5q369 0 369 -379v-698zM731 1176q-44 0 -86.5 17t-69 38t-54.5 38t-46 17q-30 0 -48.5 -28t-18.5 -82h-183q0 169 58 250t174 81q44 0 86.5 -17t69 -38
t54.5 -38t46 -17q30 0 48.5 28t18.5 82h183q0 -169 -58 -250t-174 -81z" />
    <glyph glyph-name="ograve" unicode="&#xf2;" horiz-adv-x="1228" 
d="M614 -20q-271 0 -422 149.5t-151 398.5t151.5 399t421.5 150q271 0 422.5 -150t151.5 -399t-151.5 -398.5t-422.5 -149.5zM614 262q197 0 197 266q0 267 -197 267q-196 0 -196 -267q0 -266 196 -266zM758 1176h-287l-307 331h389z" />
    <glyph glyph-name="oacute" unicode="&#xf3;" horiz-adv-x="1228" 
d="M614 -20q-271 0 -422 149.5t-151 398.5t151.5 399t421.5 150q271 0 422.5 -150t151.5 -399t-151.5 -398.5t-422.5 -149.5zM614 262q197 0 197 266q0 267 -197 267q-196 0 -196 -267q0 -266 196 -266zM758 1176h-287l205 331h389z" />
    <glyph glyph-name="ocircumflex" unicode="&#xf4;" horiz-adv-x="1228" 
d="M614 -20q-271 0 -422 149.5t-151 398.5t151.5 399t421.5 150q271 0 422.5 -150t151.5 -399t-151.5 -398.5t-422.5 -149.5zM614 262q197 0 197 266q0 267 -197 267q-196 0 -196 -267q0 -266 196 -266zM983 1176h-266l-103 135l-102 -135h-266l225 331h287z" />
    <glyph glyph-name="otilde" unicode="&#xf5;" horiz-adv-x="1228" 
d="M614 -20q-271 0 -422 149.5t-151 398.5t151.5 399t421.5 150q271 0 422.5 -150t151.5 -399t-151.5 -398.5t-422.5 -149.5zM614 262q197 0 197 266q0 267 -197 267q-196 0 -196 -267q0 -266 196 -266zM752 1176q-44 0 -86.5 17t-69 38t-54.5 38t-46 17q-31 0 -49.5 -28
t-18.5 -82h-182q0 169 57.5 250t173.5 81q44 0 86.5 -17t69 -38t54.5 -38t46 -17q31 0 49.5 28t18.5 82h182q0 -169 -57.5 -250t-173.5 -81z" />
    <glyph glyph-name="odieresis" unicode="&#xf6;" horiz-adv-x="1228" 
d="M614 -20q-271 0 -422 149.5t-151 398.5t151.5 399t421.5 150q271 0 422.5 -150t151.5 -399t-151.5 -398.5t-422.5 -149.5zM614 262q197 0 197 266q0 267 -197 267q-196 0 -196 -267q0 -266 196 -266zM399 1184q-84 0 -131 43.5t-47 113.5t47 114t131 44t131.5 -44
t47.5 -114t-47.5 -113.5t-131.5 -43.5zM829 1184q-84 0 -131 43.5t-47 113.5t47 114t131 44t131.5 -44t47.5 -114t-47.5 -113.5t-131.5 -43.5z" />
    <glyph glyph-name="divide" unicode="&#xf7;" horiz-adv-x="1118" 
d="M559 180q-81 0 -126.5 43.5t-45.5 110.5t45.5 110t126.5 43t126.5 -43t45.5 -110t-45.5 -110.5t-126.5 -43.5zM1047 588h-975v282h975v-282zM559 971q-81 0 -126.5 43t-45.5 110t45.5 110.5t126.5 43.5t126.5 -43.5t45.5 -110.5t-45.5 -110t-126.5 -43z" />
    <glyph glyph-name="oslash" unicode="&#xf8;" horiz-adv-x="1228" 
d="M131 -20l-90 90l111 104q-111 138 -111 354q0 249 151.5 399t421.5 150q226 0 371 -108l115 110l88 -92l-111 -106q111 -142 111 -353q0 -249 -151.5 -398.5t-422.5 -149.5q-223 0 -370 106zM614 262q197 0 197 266q0 54 -8 93l-324 -310q49 -49 135 -49zM418 528
q0 -51 6 -92l324 307q-49 52 -134 52q-196 0 -196 -267z" />
    <glyph glyph-name="ugrave" unicode="&#xf9;" 
d="M451 -20q-369 0 -369 378v699h377v-621q0 -153 114 -153q72 0 114 47t42 137v590h377v-1057h-356v143q-47 -77 -116 -120t-183 -43zM737 1176h-286l-308 331h389z" />
    <glyph glyph-name="uacute" unicode="&#xfa;" 
d="M451 -20q-369 0 -369 378v699h377v-621q0 -153 114 -153q72 0 114 47t42 137v590h377v-1057h-356v143q-47 -77 -116 -120t-183 -43zM737 1176h-286l204 331h389z" />
    <glyph glyph-name="ucircumflex" unicode="&#xfb;" 
d="M451 -20q-369 0 -369 378v699h377v-621q0 -153 114 -153q72 0 114 47t42 137v590h377v-1057h-356v143q-47 -77 -116 -120t-183 -43zM963 1176h-267l-102 135l-102 -135h-267l226 331h286z" />
    <glyph glyph-name="udieresis" unicode="&#xfc;" 
d="M451 -20q-369 0 -369 378v699h377v-621q0 -153 114 -153q72 0 114 47t42 137v590h377v-1057h-356v143q-47 -77 -116 -120t-183 -43zM379 1184q-84 0 -131 43.5t-47 113.5t47 114t131 44t131 -44t47 -114t-47 -113.5t-131 -43.5zM809 1184q-84 0 -131 43.5t-47 113.5
t47 114t131 44t131 -44t47 -114t-47 -113.5t-131 -43.5z" />
    <glyph glyph-name="yacute" unicode="&#xfd;" 
d="M96 -401v262h133q68 0 100.5 26t32.5 82q0 64 -40 174l-322 914h393l201 -774l201 774h393l-316 -914q-72 -208 -159 -326t-201.5 -168t-282.5 -50h-133zM737 1176h-286l204 331h389z" />
    <glyph glyph-name="thorn" unicode="&#xfe;" horiz-adv-x="1249" 
d="M737 -20q-183 0 -278 133v-514h-377v1859h377v-514q95 133 278 133q216 0 343.5 -146t127.5 -403t-127.5 -402.5t-343.5 -145.5zM645 262q88 0 137 66t49 200t-49 200.5t-137 66.5t-137 -66.5t-49 -200.5t49 -200t137 -66z" />
    <glyph glyph-name="ydieresis" unicode="&#xff;" 
d="M96 -401v262h133q68 0 100.5 26t32.5 82q0 64 -40 174l-322 914h393l201 -774l201 774h393l-316 -914q-72 -208 -159 -326t-201.5 -168t-282.5 -50h-133zM809 1184q-84 0 -131 43.5t-47 113.5t47 114t131 44t131 -44t47 -114t-47 -113.5t-131 -43.5zM379 1184
q-84 0 -131 43.5t-47 113.5t47 114t131 44t131 -44t47 -114t-47 -113.5t-131 -43.5z" />
    <glyph glyph-name="dotlessi" unicode="&#x131;" horiz-adv-x="540" 
d="M459 0h-377v1057h377v-1057z" />
    <glyph glyph-name="Lslash" unicode="&#x141;" horiz-adv-x="1212" 
d="M893 834l-352 -129v-381h651v-324h-1049v557l-143 -51v205l143 51v696h398v-549l352 129v-204z" />
    <glyph glyph-name="lslash" unicode="&#x142;" horiz-adv-x="622" 
d="M500 0h-377v557l-123 -43v205l123 43v696h377v-559l123 45v-205l-123 -45v-694z" />
    <glyph glyph-name="OE" unicode="&#x152;" horiz-adv-x="2203" 
d="M2154 0h-1353q-368 0 -564 189.5t-196 539.5t196 539.5t564 189.5h1353v-323h-737v-240h672v-303h-672v-268h737v-324zM438 729q0 -418 342 -418h240v836h-240q-342 0 -342 -418z" />
    <glyph glyph-name="oe" unicode="&#x153;" horiz-adv-x="1974" 
d="M1384 -20q-263 0 -385 163q-125 -163 -385 -163q-271 0 -422 149.5t-151 398.5t151.5 399t421.5 150q254 0 383 -164q120 164 375 164q264 0 412.5 -150t148.5 -399q0 -42 -6 -88h-739q6 -100 55.5 -155.5t140.5 -55.5q65 0 111.5 30.5t65.5 88.5h350
q-33 -171 -168 -269.5t-359 -98.5zM614 262q197 0 197 266q0 267 -197 267q-196 0 -196 -267q0 -266 196 -266zM1372 827q-148 0 -184 -149h368q-36 149 -184 149z" />
    <glyph glyph-name="Scaron" unicode="&#x160;" horiz-adv-x="1372" 
d="M686 -20q-317 0 -481 132t-164 371h393q13 -111 75.5 -160t186.5 -49q112 0 175 41t63 101q0 65 -53 100.5t-197 56.5l-147 21q-123 17 -206 46t-141.5 78t-85 122t-26.5 176q0 206 158 334.5t450 128.5q294 0 451 -132t157 -352h-381q-24 189 -237 189
q-100 0 -150.5 -39.5t-50.5 -102.5q0 -61 41 -88t168 -45l147 -20q123 -17 212.5 -49t155.5 -84t99 -130.5t33 -183.5q0 -206 -166.5 -334t-478.5 -128zM829 1565h-286l-226 331h267l102 -135l102 135h267z" />
    <glyph glyph-name="scaron" unicode="&#x161;" horiz-adv-x="1142" 
d="M571 -20q-263 0 -396.5 98t-133.5 270h369q9 -68 47.5 -97.5t117.5 -29.5q72 0 111 22t39 60q0 62 -117 78l-147 20q-218 30 -304.5 106t-86.5 222q0 159 127 253.5t374 94.5t374.5 -95.5t127.5 -256.5h-368q-8 53 -39 82t-99 29q-61 0 -91 -20.5t-30 -53.5q0 -60 80 -70
l148 -20q221 -31 324.5 -106.5t103.5 -237.5q0 -158 -135 -253t-396 -95zM715 1176h-287l-225 331h266l102 -135l103 135h266z" />
    <glyph glyph-name="Ydieresis" unicode="&#x178;" horiz-adv-x="1474" 
d="M539 0v561l-539 897h459l278 -524l279 524h459l-539 -897v-561h-397zM522 1573q-84 0 -131 44t-47 114t47 113.5t131 43.5t131 -43.5t47 -113.5t-47 -114t-131 -44zM952 1573q-84 0 -131 44t-47 114t47 113.5t131 43.5t131 -43.5t47 -113.5t-47 -114t-131 -44z" />
    <glyph glyph-name="Zcaron" unicode="&#x17d;" horiz-adv-x="1273" 
d="M1212 0h-1151v266l635 869h-614v323h1110v-266l-637 -868h657v-324zM780 1565h-286l-226 331h267l102 -135l102 135h267z" />
    <glyph glyph-name="zcaron" unicode="&#x17e;" horiz-adv-x="1024" 
d="M983 0h-942v242l481 553h-461v262h902v-242l-482 -553h502v-262zM655 1176h-286l-226 331h267l102 -135l102 135h267z" />
    <glyph glyph-name="florin" unicode="&#x192;" horiz-adv-x="1138" 
d="M203 -414q-44 0 -203 13v249h150q93 0 108 91l121 692h-248v262h293l37 211q34 193 136 279.5t296 86.5q58 0 205 -12v-250h-152q-91 0 -106 -90l-39 -225h248v-262h-295l-117 -678q-34 -192 -136.5 -279.5t-297.5 -87.5z" />
    <glyph glyph-name="circumflex" unicode="&#x2c6;" horiz-adv-x="1024" 
d="M881 1176h-267l-102 135l-102 -135h-267l226 331h286z" />
    <glyph glyph-name="caron" unicode="&#x2c7;" horiz-adv-x="1024" 
d="M655 1176h-286l-226 331h267l102 -135l102 135h267z" />
    <glyph glyph-name="breve" unicode="&#x2d8;" horiz-adv-x="1024" 
d="M512 1155q-183 0 -265.5 87t-82.5 265h182q17 -131 166 -131t166 131h182q0 -178 -82.5 -265t-265.5 -87z" />
    <glyph glyph-name="dotaccent" unicode="&#x2d9;" horiz-adv-x="1024" 
d="M512 1184q-84 0 -131 43.5t-47 113.5t47 114t131 44t131 -44t47 -114t-47 -113.5t-131 -43.5z" />
    <glyph glyph-name="ring" unicode="&#x2da;" horiz-adv-x="1024" 
d="M512 1118q-145 0 -226 76.5t-81 198.5t81 198t226 76t226 -76t81 -198t-81 -198.5t-226 -76.5zM512 1286q48 0 73 29t25 78t-25 77.5t-73 28.5t-73 -28.5t-25 -77.5t25 -78t73 -29z" />
    <glyph glyph-name="ogonek" unicode="&#x2db;" horiz-adv-x="1024" 
d="M569 -401q-274 0 -274 159q0 77 62.5 135t199.5 107h172q-197 -109 -197 -195q0 -59 72 -59h125v-131z" />
    <glyph glyph-name="tilde" unicode="&#x2dc;" horiz-adv-x="1024" 
d="M649 1176q-44 0 -86.5 17t-69 38t-54.5 38t-46 17q-30 0 -48.5 -28t-18.5 -82h-183q0 169 58 250t174 81q44 0 86.5 -17t69 -38t54.5 -38t46 -17q30 0 48.5 28t18.5 82h183q0 -169 -58 -250t-174 -81z" />
    <glyph glyph-name="hungarumlaut" unicode="&#x2dd;" horiz-adv-x="1024" 
d="M287 1176h-287l205 331h389zM737 1176h-286l204 331h389z" />
    <glyph glyph-name="pi" unicode="&#x3c0;" horiz-adv-x="1363" 
d="M1194 0h-377v795h-270v-795h-377v795h-150v262h1323v-262h-149v-795z" />
    <glyph glyph-name="endash" unicode="&#x2013;" horiz-adv-x="1122" 
d="M1051 446h-979v283h979v-283z" />
    <glyph glyph-name="emdash" unicode="&#x2014;" horiz-adv-x="1818" 
d="M1747 446h-1675v283h1675v-283z" />
    <glyph glyph-name="quoteleft" unicode="&#x2018;" horiz-adv-x="540" 
d="M432 782h-323v201q0 172 45 282t163 193l193 -82q-49 -82 -63.5 -162.5t-14.5 -230.5v-201z" />
    <glyph glyph-name="quoteright" unicode="&#x2019;" horiz-adv-x="540" 
d="M223 782l-192 82q49 82 63.5 162.5t14.5 230.5v201h323v-201q0 -171 -45.5 -281.5t-163.5 -193.5z" />
    <glyph glyph-name="quotesinglbase" unicode="&#x201a;" horiz-adv-x="540" 
d="M223 -324l-192 82q49 82 63.5 163t14.5 231v200h323v-200q0 -171 -45.5 -282t-163.5 -194z" />
    <glyph glyph-name="quotedblleft" unicode="&#x201c;" horiz-adv-x="1036" 
d="M432 782h-323v201q0 172 45 282t163 193l193 -82q-49 -82 -63.5 -162.5t-14.5 -230.5v-201zM928 782h-324v201q0 171 45.5 281.5t163.5 193.5l193 -82q-49 -82 -63.5 -162.5t-14.5 -230.5v-201z" />
    <glyph glyph-name="quotedblright" unicode="&#x201d;" horiz-adv-x="1036" 
d="M223 782l-192 82q49 82 63.5 162.5t14.5 230.5v201h323v-201q0 -171 -45.5 -281.5t-163.5 -193.5zM719 782l-193 82q49 82 63.5 162.5t14.5 230.5v201h324v-201q0 -171 -45.5 -281.5t-163.5 -193.5z" />
    <glyph glyph-name="quotedblbase" unicode="&#x201e;" horiz-adv-x="1036" 
d="M223 -324l-192 82q49 82 63.5 163t14.5 231v200h323v-200q0 -171 -45.5 -282t-163.5 -194zM719 -324l-193 82q49 82 63.5 163t14.5 231v200h324v-200q0 -171 -45.5 -282t-163.5 -194z" />
    <glyph glyph-name="dagger" unicode="&#x2020;" horiz-adv-x="1118" 
d="M711 -401h-303v1130l20 191l-190 -21h-166v283h166l190 -21l-20 191v176h303v-176l-21 -191l191 21h166v-283h-166l-191 21l21 -191v-1130z" />
    <glyph glyph-name="daggerdbl" unicode="&#x2021;" horiz-adv-x="1118" 
d="M711 -401h-303v176l20 190l-190 -20h-166v282h166l190 -20l-20 190v332l20 191l-190 -21h-166v283h166l190 -21l-20 191v176h303v-176l-21 -191l191 21h166v-283h-166l-191 21l21 -191v-332l-21 -190l191 20h166v-282h-166l-191 20l21 -190v-176z" />
    <glyph glyph-name="bullet" unicode="&#x2022;" horiz-adv-x="806" 
d="M403 281q-161 0 -251.5 86.5t-90.5 220.5t90.5 220.5t251.5 86.5t251.5 -86.5t90.5 -220.5t-90.5 -220.5t-251.5 -86.5z" />
    <glyph glyph-name="ellipsis" unicode="&#x2026;" horiz-adv-x="1622" 
d="M270 -20q-103 0 -161 55t-58 141t58 141.5t161 55.5t161 -55.5t58 -141.5t-58 -141t-161 -55zM811 -20q-103 0 -161 55t-58 141t58 141.5t161 55.5t161 -55.5t58 -141.5t-58 -141t-161 -55zM1352 -20q-103 0 -161 55t-58 141t58 141.5t161 55.5t161 -55.5t58 -141.5
t-58 -141t-161 -55z" />
    <glyph glyph-name="perthousand" unicode="&#x2030;" horiz-adv-x="2674" 
d="M416 586q-187 0 -281 116t-94 326t94 326t281 116t281 -116t94 -326t-94 -326t-281 -116zM416 784q133 0 133 244t-133 244t-133 -244t133 -244zM643 0h-213l782 1458h213zM1440 -12q-187 0 -281 116t-94 326t94 326t281 116t281 -116t94 -326t-94 -326t-281 -116z
M1440 186q133 0 133 244t-133 244t-133 -244t133 -244zM2259 -12q-187 0 -281 116t-94 326t94 326t281 116t281 -116t94 -326t-94 -326t-281 -116zM2259 186q133 0 133 244t-133 244t-133 -244t133 -244z" />
    <glyph glyph-name="guilsinglleft" unicode="&#x2039;" horiz-adv-x="565" 
d="M463 139l-361 307v283l361 307v-327l-144 -121l144 -121v-328z" />
    <glyph glyph-name="guilsinglright" unicode="&#x203a;" horiz-adv-x="565" 
d="M463 446l-361 -307v328l144 121l-144 121v327l361 -307v-283z" />
    <glyph glyph-name="fraction" unicode="&#x2044;" horiz-adv-x="274" 
d="M-147 0h-213l782 1458h213z" />
    <glyph glyph-name="Euro" unicode="&#x20ac;" horiz-adv-x="1277" 
d="M883 -20q-283 0 -474 137.5t-257 376.5h-111v159h84q-2 25 -2 76t2 76h-84v160h111q66 239 257 376.5t474 137.5q107 0 203 -21t151 -53v-283q-61 23 -160 38.5t-194 15.5q-248 0 -328 -211h465v-160h-498q-2 -25 -2 -76t2 -76h498v-159h-465q80 -211 328 -211
q96 0 195 15.5t159 37.5v-283q-54 -32 -150.5 -52.5t-203.5 -20.5z" />
    <glyph glyph-name="trademark" unicode="&#x2122;" horiz-adv-x="1236" 
d="M324 926h-154v405h-150v127h453v-127h-149v-405zM1135 926h-148v372l-100 -372h-123l-100 372v-372h-148v532h238l71 -289l72 289h238v-532z" />
    <glyph glyph-name="Omega" unicode="&#x2126;" horiz-adv-x="1601" 
d="M1540 0h-659v266q138 59 210 168t72 295q0 209 -91 317.5t-271 108.5t-271.5 -109t-91.5 -317q0 -186 72.5 -295t210.5 -168v-266h-660v324h279q-148 74 -223.5 195t-75.5 312q0 136 53 254t149.5 205.5t240.5 138t317 50.5t317 -50.5t240.5 -138t149.5 -205.5t53 -254
q0 -191 -75.5 -312t-223.5 -195h278v-324z" />
    <glyph glyph-name="partialdiff" unicode="&#x2202;" horiz-adv-x="1351" 
d="M561 -20q-126 0 -226.5 34t-164 93.5t-96.5 137t-33 167.5q0 263 160.5 409t443.5 146q96 0 177 -33.5t120 -83.5q10 68 10 111q0 115 -54 175t-157 60q-72 0 -124 -30t-76 -81h-353q46 189 195 291.5t387 102.5q113 0 210.5 -36t171.5 -104t116.5 -176t42.5 -243
q0 -460 -196 -700t-554 -240zM612 262q107 0 180.5 84t102.5 246q-17 51 -73.5 82t-131.5 31q-122 0 -197 -73.5t-75 -191.5q0 -81 51.5 -129.5t142.5 -48.5z" />
    <glyph glyph-name="Delta" unicode="&#x2206;" horiz-adv-x="1515" 
d="M1516 0h-1516l512 1458h492zM1008 324l-250 782l-250 -782h500z" />
    <glyph glyph-name="product" unicode="&#x220f;" horiz-adv-x="1273" 
d="M1171 -401h-376v1577h-316v-1577h-377v1859h1069v-1859z" />
    <glyph glyph-name="summation" unicode="&#x2211;" horiz-adv-x="1232" 
d="M1171 -401h-1110v262l488 667l-488 668v262h1110v-282h-669l440 -590v-115l-440 -590h669v-282z" />
    <glyph glyph-name="minus" unicode="&#x2212;" horiz-adv-x="1118" 
d="M1047 588h-975v282h975v-282z" />
    <glyph glyph-name="radical" unicode="&#x221a;" horiz-adv-x="1564" 
d="M922 -401h-459l-197 569h-266v283h528l164 -529l479 1536h394z" />
    <glyph glyph-name="infinity" unicode="&#x221e;" horiz-adv-x="1617" 
d="M1577 729q0 -184 -112 -290.5t-300 -106.5q-100 0 -181 37.5t-175 154.5q-94 -117 -175.5 -154.5t-180.5 -37.5q-188 0 -300 106.5t-112 290.5t112 290.5t300 106.5q98 0 180 -38t176 -154q95 116 176 154t180 38q188 0 300 -106.5t112 -290.5zM1290 729q0 64 -40 106
t-105 42q-58 0 -100 -32.5t-97 -115.5q55 -83 97 -115t100 -32q65 0 105 41.5t40 105.5zM328 729q0 -64 40 -105.5t105 -41.5q58 0 100 32t97 115q-55 83 -97 115.5t-100 32.5q-65 0 -105 -42t-40 -106z" />
    <glyph glyph-name="integral" unicode="&#x222b;" horiz-adv-x="856" 
d="M248 -414q-48 0 -207 13v249h109q90 0 90 91v1165q0 192 87 279t281 87q60 0 207 -12v-250h-108q-91 0 -91 -90v-1165q0 -193 -87 -280t-281 -87z" />
    <glyph glyph-name="approxequal" unicode="&#x2248;" horiz-adv-x="1118" 
d="M764 281q-53 0 -111 21.5t-98 48t-85.5 48t-76.5 21.5q-108 0 -108 -139h-213q0 202 76.5 303.5t205.5 101.5q53 0 111 -21.5t98 -48t85.5 -48t76.5 -21.5q109 0 109 139h213q0 -201 -77 -303t-206 -102zM764 772q-53 0 -111 21.5t-98 48t-85.5 48t-76.5 21.5
q-108 0 -108 -139h-213q0 202 76.5 304t205.5 102q53 0 111 -22t98 -48t85.5 -48t76.5 -22q109 0 109 140h213q0 -202 -77 -304t-206 -102z" />
    <glyph glyph-name="notequal" unicode="&#x2260;" horiz-adv-x="1118" 
d="M481 180h-213l68 203h-264v266h352l55 160h-407v266h495l70 203h213l-70 -203h267v-266h-355l-55 -160h410v-266h-498z" />
    <glyph glyph-name="lessequal" unicode="&#x2264;" horiz-adv-x="1118" 
d="M1047 0h-975v283h975v-283zM1047 362l-975 308v282l975 308v-304l-594 -145l594 -145v-304z" />
    <glyph glyph-name="greaterequal" unicode="&#x2265;" horiz-adv-x="1118" 
d="M1047 0h-975v283h975v-283zM1047 670l-975 -308v304l594 145l-594 145v304l975 -308v-282z" />
    <glyph glyph-name="lozenge" unicode="&#x25ca;" horiz-adv-x="1146" 
d="M784 0h-422l-311 729l311 729h422l312 -729zM573 283l177 446l-177 447l-176 -447z" />
    </font>
</defs>
</svg>
