<?xml version="1.0" standalone="no"?>
<!DOCTYPE svg PUBLIC "-//W3C//DTD SVG 1.1//EN" "http://www.w3.org/Graphics/SVG/1.1/DTD/svg11.dtd" >
<svg xmlns="http://www.w3.org/2000/svg" xmlns:xlink="http://www.w3.org/1999/xlink" version="1.1">
<metadata>
Created by FontForge 20201107 at Sun Mar  2 12:56:04 2025
 By 
Copyright (c) 2021 by Anugrah Pasau
</metadata>
<defs>
<font id="CreatoDisplay-Thin" horiz-adv-x="1024" >
  <font-face 
    font-family="Creato Display Thin"
    font-weight="265"
    font-stretch="normal"
    units-per-em="2048"
    panose-1="2 11 5 3 0 0 0 2 0 4"
    ascent="1647"
    descent="-401"
    x-height="1057"
    cap-height="1458"
    bbox="-289 -422 2474 1937"
    underline-thickness="102"
    underline-position="-204"
    unicode-range="U+000D-25CA"
  />
<missing-glyph horiz-adv-x="1146" 
d="M954 0h-761v1458h761v-1458zM897 49v1360h-647v-1360h647z" />
    <glyph glyph-name=".notdef" horiz-adv-x="1146" 
d="M954 0h-761v1458h761v-1458zM897 49v1360h-647v-1360h647z" />
    <glyph glyph-name=".null" horiz-adv-x="0" 
 />
    <glyph glyph-name="nonmarkingreturn" horiz-adv-x="682" 
 />
    <glyph glyph-name="NULL" horiz-adv-x="0" 
 />
    <glyph glyph-name="NULL" horiz-adv-x="0" 
 />
    <glyph glyph-name="CR" unicode="&#xd;" horiz-adv-x="512" 
 />
    <glyph glyph-name="space" unicode=" " horiz-adv-x="512" 
 />
    <glyph glyph-name="exclam" unicode="!" horiz-adv-x="303" 
d="M152 -8q-23 0 -36.5 13t-13.5 32t13.5 32t36.5 13t36 -13t13 -32t-13 -32t-36 -13zM172 356h-41l-8 639v463h57v-463z" />
    <glyph glyph-name="quotedbl" unicode="&#x22;" horiz-adv-x="585" 
d="M172 1049h-41l-12 409h65zM455 1049h-41l-13 409h66z" />
    <glyph glyph-name="numbersign" unicode="#" horiz-adv-x="1257" 
d="M78 526h276l72 406h-276l6 49h278l84 477h57l-83 -477h364l84 477h57l-84 -477h275l-6 -49h-277l-71 -406h276l-8 -49h-277l-84 -477h-57l84 477h-365l-84 -477h-57l84 477h-276zM483 932l-71 -406h364l72 406h-365z" />
    <glyph glyph-name="dollar" unicode="$" horiz-adv-x="1208" 
d="M629 -238h-49v218q-256 6 -377 119.5t-121 342.5h45q11 -105 36.5 -177t76.5 -126.5t135 -81t205 -28.5v688l-101 16q-104 16 -175.5 45t-111 71.5t-56.5 92.5t-17 115q0 194 115 305t346 117v217h49v-217q233 -6 347 -119t114 -324h-46q-21 198 -115 293t-300 101v-662
l110 -16q196 -29 291.5 -110t95.5 -220q0 -215 -121.5 -325.5t-375.5 -116.5v-218zM739 694l-110 17v-682q234 4 337 103.5t103 289.5q0 52 -15 92.5t-50.5 77t-102 62.5t-162.5 40zM176 1057q0 -113 66.5 -177t236.5 -89l101 -17v656q-203 -6 -303.5 -103t-100.5 -270z" />
    <glyph glyph-name="percent" unicode="%" horiz-adv-x="1777" 
d="M397 586q-166 0 -240.5 113.5t-74.5 328.5t74.5 328.5t240.5 113.5t241 -113.5t75 -328.5t-75 -328.5t-241 -113.5zM397 635q124 0 191 92t67 301t-67 301t-191 92t-191 -92t-67 -301t67 -301t191 -92zM530 0h-65l782 1458h66zM1380 -12q-166 0 -240.5 113.5t-74.5 328.5
t74.5 328.5t240.5 113.5t241 -113.5t75 -328.5t-75 -328.5t-241 -113.5zM1380 37q124 0 191 92t67 301t-67 301t-191 92t-191 -92t-67 -301t67 -301t191 -92z" />
    <glyph glyph-name="ampersand" unicode="&#x26;" horiz-adv-x="1343" 
d="M1241 0l-205 193q-187 -213 -506 -213q-206 0 -327 101t-121 259q0 149 79 250t271 170q-96 92 -140 182t-44 195q0 154 95 248t265 94t265.5 -94t95.5 -248q0 -131 -105.5 -222.5t-337.5 -169.5l504 -471q118 161 166 433h57q-51 -288 -182 -471l252 -236h-82zM530 29
q291 0 465 202l-528 494q-182 -66 -255 -152t-73 -233q0 -141 112.5 -226t278.5 -85zM305 1137q0 -102 38 -176.5t149 -180.5q223 75 321 158.5t98 198.5q0 139 -82.5 216t-220.5 77t-220.5 -77t-82.5 -216z" />
    <glyph glyph-name="quotesingle" unicode="'" horiz-adv-x="303" 
d="M172 1049h-41l-12 409h65z" />
    <glyph glyph-name="parenleft" unicode="(" horiz-adv-x="450" 
d="M102 600q0 551 277 1002h51q-270 -440 -270 -1002q0 -561 270 -1001h-51q-277 451 -277 1001z" />
    <glyph glyph-name="parenright" unicode=")" horiz-adv-x="450" 
d="M348 600q0 -551 -276 -1001h-52q271 442 271 1001q0 560 -271 1002h52q276 -450 276 -1002z" />
    <glyph glyph-name="asterisk" unicode="*" horiz-adv-x="819" 
d="M604 750l-194 305l-195 -305l-55 36l231 285l-350 92l18 64l338 -131l-20 362h65l-20 -362l338 131l18 -64l-350 -92l231 -285z" />
    <glyph glyph-name="plus" unicode="+" horiz-adv-x="1036" 
d="M489 324v381h-376v49h376v381h58v-381h377v-49h-377v-381h-58z" />
    <glyph glyph-name="comma" unicode="," horiz-adv-x="303" 
d="M113 -264l-33 14q47 68 47 158v235h49v-235q0 -57 -18 -103t-45 -69z" />
    <glyph glyph-name="hyphen" unicode="-" horiz-adv-x="692" 
d="M580 563h-467v49h467v-49z" />
    <glyph glyph-name="period" unicode="." horiz-adv-x="303" 
d="M152 -8q-23 0 -36.5 13t-13.5 32t13.5 32t36.5 13t36 -13t13 -32t-13 -32t-36 -13z" />
    <glyph glyph-name="slash" unicode="/" horiz-adv-x="598" 
d="M61 0h-61l537 1458h61z" />
    <glyph glyph-name="zero" unicode="0" horiz-adv-x="1228" 
d="M614 -20q-143 0 -246.5 51t-165.5 150t-91 234t-29 314t29 314t91 234.5t165.5 150.5t246.5 51t247 -51t166 -150.5t91 -234.5t29 -314t-29 -314t-91 -234t-166 -150t-247 -51zM614 29q476 0 476 700q0 701 -476 701q-475 0 -475 -701q0 -700 475 -700z" />
    <glyph glyph-name="one" unicode="1" horiz-adv-x="630" 
d="M500 0h-58v1360q-47 -94 -142.5 -141.5t-209.5 -47.5h-8v50q287 13 364 237h54v-1458z" />
    <glyph glyph-name="two" unicode="2" horiz-adv-x="1105" 
d="M1024 0h-942v49q0 238 86 371t305 213l242 88q135 49 193.5 130.5t58.5 197.5q0 180 -106.5 280.5t-291.5 100.5q-195 0 -294.5 -109t-114.5 -326h-45q0 242 116 363t338 121q217 0 336 -113t119 -317q0 -271 -295 -379l-242 -88q-188 -68 -268 -193t-80 -340h885v-49z
" />
    <glyph glyph-name="three" unicode="3" horiz-adv-x="1155" 
d="M578 -20q-113 0 -200 24.5t-155.5 79t-104.5 150t-36 229.5h45q17 -236 125.5 -335t325.5 -99q208 0 323 97.5t115 254.5q0 174 -86 256t-273 82h-219v49h199q358 0 358 309q0 156 -109.5 254.5t-307.5 98.5q-402 0 -431 -394h-45q0 212 126 327.5t350 115.5
q212 0 343.5 -107t131.5 -295q0 -134 -66 -218.5t-178 -110.5q129 -33 196.5 -118.5t67.5 -248.5q0 -189 -136.5 -295t-358.5 -106z" />
    <glyph glyph-name="four" unicode="4" horiz-adv-x="1187" 
d="M885 0h-58v442h-745v58l749 958h54v-966h221v-50h-221v-442zM827 492v880l-688 -880h688z" />
    <glyph glyph-name="five" unicode="5" horiz-adv-x="1118" 
d="M557 -20q-114 0 -204.5 34t-143.5 89t-80 118t-27 127h45q4 -41 19 -83t47 -85t77 -76t114 -54t153 -21q188 0 305 110.5t117 311.5t-117 311t-305 110q-78 0 -142.5 -18.5t-108 -48t-76 -70t-50 -80t-26.5 -82.5h-43l122 885h721v-49h-671l-93 -655q111 168 367 168
q213 0 346 -121t133 -350t-133 -350t-346 -121z" />
    <glyph glyph-name="six" unicode="6" horiz-adv-x="1146" 
d="M586 -20q-248 0 -376 153.5t-128 464.5q0 431 126.5 656t377.5 225q377 0 428 -353h-45q-24 140 -116.5 222t-266.5 82q-214 0 -330.5 -207.5t-116.5 -624.5q41 163 158.5 243.5t288.5 80.5q213 0 346 -121t133 -350t-133 -350t-346 -121zM586 29q188 0 305 110.5
t117 311.5t-117 311t-305 110t-305 -110t-117 -311t117 -311.5t305 -110.5z" />
    <glyph glyph-name="seven" unicode="7" horiz-adv-x="937" 
d="M401 0h-57q0 419 126 786t370 623h-791v49h840v-49q-243 -254 -365.5 -620.5t-122.5 -788.5z" />
    <glyph glyph-name="eight" unicode="8" horiz-adv-x="1159" 
d="M580 -20q-231 0 -364.5 99.5t-133.5 295.5q0 306 336 370q-141 36 -218 124t-77 229q0 124 61.5 211.5t163 128.5t232.5 41t232 -41t162.5 -128.5t61.5 -211.5q0 -141 -77 -229t-218 -124q336 -64 336 -370q0 -196 -133 -295.5t-364 -99.5zM580 29q216 0 328 91t112 255
t-112 254t-328 90q-217 0 -329 -90t-112 -254t112.5 -255t328.5 -91zM580 768q187 0 293 89t106 241t-106 242t-293 90t-293.5 -90t-106.5 -242t106.5 -241t293.5 -89z" />
    <glyph glyph-name="nine" unicode="9" horiz-adv-x="1146" 
d="M561 1479q248 0 376 -154t128 -465q0 -431 -126.5 -655.5t-377.5 -224.5q-377 0 -428 352h45q11 -67 38 -120.5t72 -95.5t114 -64.5t159 -22.5q214 0 330.5 207.5t116.5 623.5q-41 -163 -158.5 -243t-288.5 -80q-213 0 -346 121t-133 350t133 350t346 121zM561 1430
q-188 0 -305 -110.5t-117 -311.5t117 -311.5t305 -110.5t305 110.5t117 311.5t-117 311.5t-305 110.5z" />
    <glyph glyph-name="colon" unicode=":" horiz-adv-x="303" 
d="M152 -8q-23 0 -36.5 13t-13.5 32t13.5 32t36.5 13t36 -13t13 -32t-13 -32t-36 -13zM152 922q-23 0 -36.5 13t-13.5 32t13.5 32t36.5 13t36 -13t13 -32t-13 -32t-36 -13z" />
    <glyph glyph-name="semicolon" unicode=";" horiz-adv-x="303" 
d="M113 -264l-33 14q47 68 47 158v235h49v-235q0 -57 -18 -103t-45 -69zM152 922q-23 0 -36.5 13t-13.5 32t13.5 32t36.5 13t36 -13t13 -32t-13 -32t-36 -13z" />
    <glyph glyph-name="less" unicode="&#x3c;" horiz-adv-x="1036" 
d="M924 336l-811 369v49l811 368v-53l-756 -340l756 -340v-53z" />
    <glyph glyph-name="equal" unicode="=" horiz-adv-x="1036" 
d="M924 520h-811v49h811v-49zM924 889h-811v49h811v-49z" />
    <glyph glyph-name="greater" unicode="&#x3e;" horiz-adv-x="1036" 
d="M924 705l-811 -369v53l755 340l-755 340v53l811 -368v-49z" />
    <glyph glyph-name="question" unicode="?" horiz-adv-x="1032" 
d="M496 -8q-23 0 -36.5 13t-13.5 32t13.5 32t36.5 13t36 -13t13 -32t-13 -32t-36 -13zM520 356h-49v66q0 72 23.5 133t60.5 104.5t82 82.5t90 75.5t82 74.5t60.5 88.5t23.5 109.5q0 146 -105.5 243t-271.5 97q-177 0 -275 -105t-114 -289h-45q0 207 115 325t319 118
q198 0 316 -109.5t118 -279.5q0 -63 -23.5 -117t-61.5 -93.5t-84 -76.5t-92 -75.5t-84 -80t-61.5 -99.5t-23.5 -126v-66z" />
    <glyph glyph-name="at" unicode="@" horiz-adv-x="1847" 
d="M897 164q-174 0 -271.5 118t-97.5 328q0 211 98 329t271 118q243 0 324 -193v178h57v-665q0 -164 162 -164q120 0 194 138t74 362q0 114 -34 220t-101.5 196t-161 157.5t-219 105.5t-268.5 38q-240 0 -419 -105t-272.5 -290t-93.5 -425t93.5 -425t272.5 -289.5
t419 -104.5q104 0 215 21.5t198 60.5v-49q-87 -39 -198 -60.5t-215 -21.5q-259 0 -450.5 110t-291.5 305.5t-100 452.5t100 453t291.5 306t450.5 110q192 0 352.5 -61.5t266 -167t164 -244t58.5 -293.5q0 -263 -92.5 -406t-232.5 -143q-194 0 -219 192q-81 -192 -324 -192z
M903 213q146 0 232 100t86 297t-86.5 297.5t-231.5 100.5t-231 -100.5t-86 -297.5t86 -297t231 -100z" />
    <glyph glyph-name="A" unicode="A" horiz-adv-x="1351" 
d="M1311 0h-64l-182 444h-778l-183 -444h-63l602 1458h66zM1044 494l-368 895l-369 -895h737z" />
    <glyph glyph-name="B" unicode="B" horiz-adv-x="1302" 
d="M1221 385q0 -80 -27.5 -150t-79 -122.5t-131 -82.5t-178.5 -30h-674v1458h633q197 0 306.5 -103t109.5 -268q0 -123 -62.5 -211.5t-179.5 -127.5q135 -33 209 -131t74 -232zM1163 385q0 145 -94 240.5t-264 95.5h-617v-672h617q170 0 264 95.5t94 240.5zM1122 1087
q0 143 -93 232.5t-265 89.5h-576v-643h576q172 0 265 89t93 232z" />
    <glyph glyph-name="C" unicode="C" horiz-adv-x="1421" 
d="M739 -20q-166 0 -292.5 54t-205.5 154t-119 236t-40 305t40 305t119 236t205.5 154.5t292.5 54.5q141 0 256.5 -41t189.5 -111t114 -159.5t40 -188.5h-45q-23 201 -167 326t-388 125q-292 0 -446 -182.5t-154 -518.5t154 -518t446 -182q245 0 389 125.5t166 337.5h45
q0 -102 -39 -193.5t-112 -163t-189.5 -113.5t-259.5 -42z" />
    <glyph glyph-name="D" unicode="D" horiz-adv-x="1384" 
d="M1303 729q0 -169 -39 -301.5t-117.5 -229t-205.5 -147.5t-296 -51h-514v1458h514q169 0 296 -51t205.5 -147.5t117.5 -229t39 -301.5zM1245 729q0 335 -150.5 507.5t-449.5 172.5h-457v-1360h457q299 0 449.5 172.5t150.5 507.5z" />
    <glyph glyph-name="E" unicode="E" horiz-adv-x="1138" 
d="M1061 0h-930v1458h930v-49h-873v-641h807v-49h-807v-670h873v-49z" />
    <glyph glyph-name="F" unicode="F" horiz-adv-x="1110" 
d="M188 0h-57v1458h930v-49h-873v-641h807v-49h-807v-719z" />
    <glyph glyph-name="G" unicode="G" horiz-adv-x="1454" 
d="M739 -20q-166 0 -292.5 54t-205.5 154t-119 236t-40 305t40 305t119 236t205.5 154.5t292.5 54.5q141 0 256.5 -41t189.5 -111t114 -159.5t40 -188.5h-45q-23 201 -167 326t-388 125q-292 0 -446 -182.5t-154 -518.5t154 -518t446 -182q149 0 256 45t170 131t92 200.5
t29 264.5h-508v49h565v-719h-57v367q-39 -180 -174.5 -283.5t-372.5 -103.5z" />
    <glyph glyph-name="H" unicode="H" horiz-adv-x="1376" 
d="M1245 0h-57v719h-1000v-719h-57v1458h57v-690h1000v690h57v-1458z" />
    <glyph glyph-name="I" unicode="I" horiz-adv-x="319" 
d="M188 0h-57v1458h57v-1458z" />
    <glyph glyph-name="J" unicode="J" horiz-adv-x="1064" 
d="M512 -20q-233 0 -337.5 116t-104.5 350v41h57v-41q0 -219 91 -318t294 -99t294 99t91 318v1012h57v-1012q0 -234 -104.5 -350t-337.5 -116z" />
    <glyph glyph-name="K" unicode="K" horiz-adv-x="1179" 
d="M1139 0h-76l-631 813l-272 -256v-557h-58v1458h58v-831l882 831h76l-643 -604z" />
    <glyph glyph-name="L" unicode="L" 
d="M975 0h-844v1458h57v-1409h787v-49z" />
    <glyph glyph-name="M" unicode="M" horiz-adv-x="1740" 
d="M1610 0h-58v1393l-653 -1393h-57l-654 1393v-1393h-57v1458h86l653 -1392l654 1392h86v-1458z" />
    <glyph glyph-name="N" unicode="N" horiz-adv-x="1376" 
d="M1245 0h-78l-979 1393v-1393h-57v1458h78l979 -1392v1392h57v-1458z" />
    <glyph glyph-name="O" unicode="O" horiz-adv-x="1478" 
d="M739 -20q-166 0 -292.5 54t-205.5 154t-119 236t-40 305t40 305t119 236t205.5 154.5t292.5 54.5t292.5 -54.5t206 -154.5t119.5 -236t40 -305t-40 -305t-119.5 -236t-206 -154t-292.5 -54zM739 29q292 0 446 182t154 518t-154 518.5t-446 182.5t-446 -182.5t-154 -518.5
t154 -518t446 -182z" />
    <glyph glyph-name="P" unicode="P" horiz-adv-x="1241" 
d="M1159 1034q0 -209 -123.5 -316.5t-333.5 -107.5h-514v-610h-57v1458h571q210 0 333.5 -107.5t123.5 -316.5zM1102 1034q0 182 -102.5 278.5t-297.5 96.5h-514v-750h514q195 0 297.5 96.5t102.5 278.5z" />
    <glyph glyph-name="Q" unicode="Q" horiz-adv-x="1478" 
d="M1397 -164h-70l-188 258q-157 -114 -400 -114q-166 0 -292.5 54t-205.5 154t-119 236t-40 305t40 305t119 236t205.5 154.5t292.5 54.5t292.5 -54.5t206 -154.5t119.5 -236t40 -305q0 -403 -215 -600zM739 29q225 0 369 108l-363 498h70l336 -461q188 182 188 555
q0 336 -154 518.5t-446 182.5t-446 -182.5t-154 -518.5t154 -518t446 -182z" />
    <glyph glyph-name="R" unicode="R" horiz-adv-x="1261" 
d="M1159 1065q0 -144 -64.5 -239.5t-189.5 -131.5q113 -31 173.5 -107.5t60.5 -195.5v-244q0 -89 20 -147h-45q-33 72 -33 147v244q0 281 -338 281h-555v-672h-57v1458h612q201 0 308.5 -103.5t107.5 -289.5zM1102 1065q0 160 -86.5 252t-272.5 92h-555v-688h555
q186 0 272.5 92t86.5 252z" />
    <glyph glyph-name="S" unicode="S" horiz-adv-x="1208" 
d="M604 -20q-268 0 -395 114t-127 348h45q9 -85 27.5 -147.5t53 -114.5t87.5 -84t129.5 -49.5t179.5 -17.5q248 0 356.5 99.5t108.5 293.5q0 52 -15 92.5t-50.5 77t-102 62.5t-162.5 40l-260 39q-104 16 -175.5 45t-111 71.5t-56.5 92.5t-17 115q0 199 121 310.5t364 111.5
q486 0 486 -443h-46q-21 204 -121 299t-319 95q-215 0 -321.5 -97t-106.5 -276q0 -113 66.5 -177t236.5 -89l260 -39q196 -29 291.5 -110t95.5 -220q0 -220 -127.5 -331t-394.5 -111z" />
    <glyph glyph-name="T" unicode="T" horiz-adv-x="1130" 
d="M594 0h-57v1409h-488v49h1032v-49h-487v-1409z" />
    <glyph glyph-name="U" unicode="U" horiz-adv-x="1335" 
d="M668 -20q-299 0 -428 139t-129 430v909h57v-909q0 -279 118.5 -399.5t381.5 -120.5t381 120t118 400v909h58v-909q0 -291 -129 -430t-428 -139z" />
    <glyph glyph-name="V" unicode="V" horiz-adv-x="1351" 
d="M709 0h-66l-602 1458h63l572 -1388l571 1388h64z" />
    <glyph glyph-name="W" unicode="W" horiz-adv-x="1961" 
d="M1466 0h-65l-420 1380l-420 -1380h-65l-455 1458h63l424 -1380l420 1380h66l420 -1380l424 1380h63z" />
    <glyph glyph-name="X" unicode="X" horiz-adv-x="1310" 
d="M1270 0h-76l-539 692l-538 -692h-76l580 743l-560 715h76l518 -663l519 663h75l-559 -715z" />
    <glyph glyph-name="Y" unicode="Y" horiz-adv-x="1310" 
d="M627 0v643l-586 815h68l546 -764l547 764h68l-586 -815v-643h-57z" />
    <glyph glyph-name="Z" unicode="Z" horiz-adv-x="1069" 
d="M987 0h-905v49l819 1360h-799v49h865v-49l-822 -1360h842v-49z" />
    <glyph glyph-name="bracketleft" unicode="[" horiz-adv-x="557" 
d="M516 -401h-385v2003h385v-50h-328v-1904h328v-49z" />
    <glyph glyph-name="backslash" unicode="\" horiz-adv-x="598" 
d="M598 0h-61l-537 1458h61z" />
    <glyph glyph-name="bracketright" unicode="]" horiz-adv-x="557" 
d="M426 -401h-385v49h328v1904h-328v50h385v-2003z" />
    <glyph glyph-name="asciicircum" unicode="^" horiz-adv-x="716" 
d="M676 897h-58l-260 510l-260 -510h-57l293 561h49z" />
    <glyph glyph-name="underscore" unicode="_" horiz-adv-x="892" 
d="M893 -184h-893v49h893v-49z" />
    <glyph glyph-name="grave" unicode="`" 
d="M610 1237h-45l-180 270h70z" />
    <glyph glyph-name="a" unicode="a" 
d="M451 -20q-174 0 -271.5 85t-97.5 234q0 120 85.5 194.5t264.5 88.5l170 14q140 12 191 44.5t51 109.5q0 278 -324 278q-159 0 -241 -67.5t-91 -210.5h-49q0 156 94.5 241.5t286.5 85.5t286.5 -85.5t94.5 -241.5v-480q0 -212 33 -270h-45q-27 39 -36 87t-9 155
q-39 -128 -142 -195t-251 -67zM459 29q125 0 213.5 63t130 165t41.5 230v142q-48 -68 -242 -84l-170 -15q-150 -13 -221.5 -73.5t-71.5 -157.5q0 -121 79.5 -195.5t240.5 -74.5z" />
    <glyph glyph-name="b" unicode="b" horiz-adv-x="1126" 
d="M592 -20q-155 0 -261 67t-151 201v-248h-57v1458h57v-649q45 134 151 201t261 67q214 0 333 -144.5t119 -404.5q0 -259 -119 -403.5t-333 -144.5zM584 29q186 0 294.5 124.5t108.5 374.5q0 251 -108.5 375.5t-294.5 124.5t-295 -125t-109 -375t108.5 -374.5t295.5 -124.5
z" />
    <glyph glyph-name="c" unicode="c" horiz-adv-x="1011" 
d="M532 -20q-214 0 -332 144t-118 404t118.5 404.5t331.5 144.5q108 0 192 -34.5t131.5 -90t71 -117.5t23.5 -126h-45q-10 63 -34.5 117t-67 101t-112 74t-159.5 27q-184 0 -288.5 -129.5t-104.5 -370.5t104.5 -370t288.5 -129q162 0 257 86.5t116 240.5h45q0 -70 -25 -135
t-74 -120t-131.5 -88t-187.5 -33z" />
    <glyph glyph-name="d" unicode="d" horiz-adv-x="1126" 
d="M535 -20q-214 0 -333.5 144.5t-119.5 403.5t119.5 404t333.5 145q155 0 260.5 -67t150.5 -201v649h58v-1458h-58v248q-45 -134 -150.5 -201t-260.5 -67zM543 29q186 0 294.5 124.5t108.5 374.5q0 251 -108.5 375.5t-294.5 124.5t-295 -125t-109 -375t108.5 -374.5
t295.5 -124.5z" />
    <glyph glyph-name="e" unicode="e" horiz-adv-x="1081" 
d="M553 -20q-227 0 -349 143.5t-122 404.5q0 253 117 401t342 148q113 0 201.5 -40t144 -110.5t84 -162.5t28.5 -199q0 -20 -2 -30h-858q3 -264 113.5 -385t300.5 -121q154 0 249.5 74.5t129.5 203.5h45q-81 -327 -424 -327zM541 1028q-174 0 -279.5 -111t-122.5 -333h803
q-17 222 -122 333t-279 111z" />
    <glyph glyph-name="f" unicode="f" horiz-adv-x="602" 
d="M274 0h-57v1008h-197v49h197v176q0 119 53 176t176 57q41 0 115 -8v-47l-115 6q-95 0 -133.5 -44t-38.5 -140v-176h287v-49h-287v-1008z" />
    <glyph glyph-name="g" unicode="g" horiz-adv-x="1126" 
d="M535 41q-211 0 -332 142.5t-121 375.5t121 375.5t332 142.5q155 0 260.5 -67t150.5 -201v248h58v-1004q0 -238 -117.5 -356.5t-329.5 -118.5q-197 0 -307.5 97.5t-110.5 254.5h49q9 -144 107 -223.5t262 -79.5q187 0 288 105t101 321v256q-45 -134 -150.5 -201
t-260.5 -67zM543 90q183 0 293 122.5t110 346.5t-110 346.5t-293 122.5t-293.5 -122.5t-110.5 -346.5t110.5 -346.5t293.5 -122.5z" />
    <glyph glyph-name="h" unicode="h" 
d="M901 0h-57v698q0 169 -68.5 249.5t-230.5 80.5q-165 0 -265 -120.5t-100 -317.5v-590h-57v1458h57v-624q96 243 373 243q180 0 264 -93t84 -286v-698z" />
    <glyph glyph-name="i" unicode="i" horiz-adv-x="303" 
d="M180 0h-57v1057h57v-1057zM152 1327q-23 0 -36.5 13t-13.5 32t13.5 32t36.5 13t36 -13t13 -32t-13 -32t-36 -13z" />
    <glyph glyph-name="j" unicode="j" horiz-adv-x="303" 
d="M-102 -401v49h90q135 0 135 176v1233h57v-1233q0 -105 -50 -165t-142 -60h-90zM152 1327q-23 0 -36.5 13t-13.5 32t13.5 32t36.5 13t36 -13t13 -32t-13 -32t-36 -13z" />
    <glyph glyph-name="k" unicode="k" horiz-adv-x="991" 
d="M950 0h-67l-453 586l-250 -236v-350h-57v1458h57v-1042l680 641h70l-461 -434z" />
    <glyph glyph-name="l" unicode="l" horiz-adv-x="303" 
d="M180 0h-57v1458h57v-1458z" />
    <glyph glyph-name="m" unicode="m" horiz-adv-x="1523" 
d="M1401 0h-58v698q0 171 -55 250.5t-190 79.5q-136 0 -224 -121.5t-88 -316.5v-590h-57v698q0 170 -55.5 250t-186.5 80q-136 0 -221.5 -121t-85.5 -317v-590h-57v1057h57v-223q33 114 118.5 178.5t197.5 64.5q126 0 194.5 -65t89.5 -197q38 132 124.5 197t201.5 65
q154 0 224.5 -92.5t70.5 -286.5v-698z" />
    <glyph glyph-name="n" unicode="n" 
d="M901 0h-57v698q0 169 -68.5 249.5t-230.5 80.5q-165 0 -265 -120.5t-100 -317.5v-590h-57v1057h57v-223q96 243 373 243q180 0 264 -93t84 -286v-698z" />
    <glyph glyph-name="o" unicode="o" horiz-adv-x="1105" 
d="M553 -20q-227 0 -349 143.5t-122 404.5t122 405t349 144t349 -144t122 -405t-122 -404.5t-349 -143.5zM553 29q198 0 306 128t108 371t-108 371.5t-306 128.5t-306 -128.5t-108 -371.5t108 -371t306 -128z" />
    <glyph glyph-name="p" unicode="p" horiz-adv-x="1126" 
d="M592 -20q-155 0 -261 67t-151 201v-649h-57v1458h57v-248q45 134 151 201t261 67q214 0 333 -144.5t119 -404.5q0 -259 -119 -403.5t-333 -144.5zM584 29q186 0 294.5 124.5t108.5 374.5q0 251 -108.5 375.5t-294.5 124.5t-295 -125t-109 -375t108.5 -374.5t295.5 -124.5
z" />
    <glyph glyph-name="q" unicode="q" horiz-adv-x="1126" 
d="M535 -20q-214 0 -333.5 144.5t-119.5 403.5t119.5 404t333.5 145q155 0 260.5 -67t150.5 -201v248h58v-1458h-58v649q-45 -134 -150.5 -201t-260.5 -67zM543 29q186 0 294.5 124.5t108.5 374.5q0 251 -108.5 375.5t-294.5 124.5t-295 -125t-109 -375t108.5 -374.5
t295.5 -124.5z" />
    <glyph glyph-name="r" unicode="r" horiz-adv-x="647" 
d="M180 0h-57v1057h57v-269q45 141 125 209t207 68q20 0 94 -8v-51l-94 6q-153 0 -242.5 -126t-89.5 -354v-532z" />
    <glyph glyph-name="s" unicode="s" horiz-adv-x="937" 
d="M469 -20q-110 0 -187.5 25t-120 71t-61 102.5t-18.5 128.5h49q3 -50 13 -88t33 -75t59 -61t95 -39t138 -15q78 0 137.5 14.5t95.5 38t58.5 58t30.5 70t8 77.5q0 175 -205 205l-242 36q-118 19 -179.5 74t-61.5 168q0 66 15.5 117t53.5 96t111 69.5t178 24.5t178 -24.5
t111 -69.5t53.5 -97.5t15.5 -119.5h-49q-3 46 -10.5 79t-27.5 70t-52 60t-87.5 38t-131.5 15q-160 0 -230.5 -65t-70.5 -193q0 -93 47.5 -133.5t136.5 -54.5l242 -37q262 -39 262 -258q0 -65 -18.5 -117t-60.5 -96.5t-120.5 -69t-187.5 -24.5z" />
    <glyph glyph-name="t" unicode="t" horiz-adv-x="614" 
d="M446 -8q-124 0 -176.5 42t-52.5 154v820h-197v49h197v319h57v-319h287v-49h-287v-820q0 -90 35.5 -118.5t136.5 -28.5l115 6v-47q-74 -8 -115 -8z" />
    <glyph glyph-name="u" unicode="u" 
d="M471 -20q-180 0 -264 92.5t-84 285.5v699h57v-699q0 -169 68.5 -249t230.5 -80q165 0 265 120.5t100 317.5v590h57v-1057h-57v223q-96 -243 -373 -243z" />
    <glyph glyph-name="v" unicode="v" 
d="M545 0h-66l-438 1057h59l412 -996l412 996h59z" />
    <glyph glyph-name="w" unicode="w" horiz-adv-x="1613" 
d="M1176 0h-66l-303 995l-303 -995h-66l-397 1057h59l371 -996l303 996h66l303 -996l370 996h60z" />
    <glyph glyph-name="x" unicode="x" horiz-adv-x="983" 
d="M942 0h-68l-382 496l-383 -496h-68l418 541l-398 516h68l363 -471l362 471h68l-398 -516z" />
    <glyph glyph-name="y" unicode="y" 
d="M137 -401v49h56q78 0 133.5 50t105.5 171l49 123l-440 1065h59l412 -996l412 996h59l-494 -1190q-63 -155 -130 -211.5t-169 -56.5h-53z" />
    <glyph glyph-name="z" unicode="z" horiz-adv-x="860" 
d="M799 0h-738v49l654 959h-633v49h696v-49l-653 -959h674v-49z" />
    <glyph glyph-name="braceleft" unicode="{" horiz-adv-x="557" 
d="M516 -401h-92q-89 0 -150 58.5t-61 149.5v625q0 65 -41 104t-100 39h-31v50h31q59 0 100 39t41 104v625q0 91 61 150t150 59h92v-50h-80q-75 0 -120.5 -44t-45.5 -122v-616q0 -74 -44 -120.5t-111 -49.5q67 -5 111 -51.5t44 -118.5v-616q0 -78 45.5 -122t120.5 -44h80
v-49z" />
    <glyph glyph-name="bar" unicode="|" horiz-adv-x="319" 
d="M188 -401h-57v2003h57v-2003z" />
    <glyph glyph-name="braceright" unicode="}" horiz-adv-x="557" 
d="M133 -401h-92v49h80q75 0 120.5 44t45.5 122v616q0 72 43.5 118.5t109.5 51.5q-66 3 -109.5 49.5t-43.5 120.5v616q0 78 -45.5 122t-120.5 44h-80v50h92q89 0 150 -59t61 -150v-625q0 -65 41 -104t100 -39h31v-50h-31q-59 0 -100 -39t-41 -104v-625q0 -91 -61 -149.5
t-150 -58.5z" />
    <glyph glyph-name="asciitilde" unicode="~" horiz-adv-x="1036" 
d="M743 608q-49 0 -98.5 20t-91 48t-82.5 56.5t-87.5 48.5t-90.5 20q-59 0 -99 -50t-40 -143h-41q0 107 46 174.5t134 67.5q49 0 98.5 -20t91 -48t82.5 -56.5t87.5 -48.5t90.5 -20q59 0 99.5 50t40.5 143h41q0 -107 -46.5 -174.5t-134.5 -67.5z" />
    <glyph glyph-name="exclamdown" unicode="&#xa1;" horiz-adv-x="303" 
d="M180 -401h-57v462l8 639h41l8 -639v-462zM152 975q-23 0 -36.5 13t-13.5 32t13.5 32t36.5 13t36 -13t13 -32t-13 -32t-36 -13z" />
    <glyph glyph-name="cent" unicode="&#xa2;" horiz-adv-x="1011" 
d="M557 -238h-49v218q-203 9 -314.5 152.5t-111.5 395.5t111.5 396t314.5 153v217h49v-217q82 -3 150 -28t112 -62t74.5 -84.5t43.5 -96t13 -97.5h-45q-10 61 -33 113.5t-63 99t-104.5 74.5t-147.5 32v-999q151 6 239 92t109 235h45q0 -68 -24 -131.5t-70 -117.5
t-123.5 -88.5t-175.5 -38.5v-218zM139 528q0 -233 98 -362t271 -137v999q-173 -9 -271 -138.5t-98 -361.5z" />
    <glyph glyph-name="sterling" unicode="&#xa3;" horiz-adv-x="1155" 
d="M846 -20q-66 0 -205 43t-207 43t-128.5 -16t-205.5 -70l-18 49q126 46 183 141t57 262q0 91 -37 213h-203v49h184q-7 18 -27 71t-29 79.5t-22 71.5t-18.5 87t-5.5 87q0 176 120.5 282.5t333.5 106.5q220 0 337.5 -114.5t117.5 -328.5h-45q-15 189 -116 291.5t-294 102.5
q-181 0 -289 -94t-108 -246q0 -55 12 -116.5t20 -88t38.5 -106t32.5 -85.5h528v-49h-510q37 -122 37 -213q0 -131 -34.5 -215t-106.5 -145q103 43 196 43q68 0 207 -43t205 -43q145 0 227 53v-41q-95 -61 -227 -61z" />
    <glyph glyph-name="currency" unicode="&#xa4;" horiz-adv-x="1155" 
d="M578 330q-149 0 -267 100l-166 -166l-32 33l166 166q-101 119 -101 266q0 148 101 264l-166 168l32 33l166 -168q117 102 267 102q151 0 264 -102l168 168l32 -33l-168 -168q103 -114 103 -264q0 -148 -103 -266l168 -166l-32 -33l-168 166q-115 -100 -264 -100zM578 379
q146 0 248 102t102 248t-102 248t-248 102t-248.5 -102t-102.5 -248t102.5 -248t248.5 -102z" />
    <glyph glyph-name="yen" unicode="&#xa5;" horiz-adv-x="1208" 
d="M633 0h-58v313h-348v49h348v263h-348v49h326l-563 784h67l547 -764l547 764h68l-564 -784h326v-49h-348v-263h348v-49h-348v-313z" />
    <glyph glyph-name="brokenbar" unicode="&#xa6;" horiz-adv-x="319" 
d="M188 -401h-57v856h57v-856zM188 745h-57v857h57v-857z" />
    <glyph glyph-name="section" unicode="&#xa7;" horiz-adv-x="1126" 
d="M1044 420q0 -102 -59.5 -170t-183.5 -82q149 -87 149 -283q0 -65 -18.5 -117t-60.5 -96.5t-120.5 -69t-187.5 -24.5q-110 0 -187.5 25t-120 71.5t-61 103t-18.5 128.5h49q4 -63 19.5 -109t51 -86.5t102.5 -62t165 -21.5q78 0 137.5 14.5t95.5 38t58.5 58t30.5 70t8 77.5
q0 112 -45.5 174.5t-151.5 114.5l-407 199q-106 53 -156.5 116t-50.5 162q0 209 272 238q-79 52 -114 121t-35 161q0 66 15.5 117.5t53.5 96.5t111 69.5t178 24.5q85 0 149 -17t103.5 -45t64 -69t33.5 -84.5t9 -96.5h-50q-3 46 -10.5 79t-27.5 70t-52 60t-87.5 38.5
t-131.5 15.5q-160 0 -230.5 -65.5t-70.5 -193.5q0 -75 26.5 -132t67.5 -91.5t103 -64.5l370 -181q114 -55 164.5 -115.5t50.5 -166.5zM987 420q0 81 -34.5 132t-121.5 93l-415 205q-277 -3 -277 -199q0 -76 33.5 -128.5t114.5 -92.5l452 -223q132 3 190 62t58 151z" />
    <glyph glyph-name="dieresis" unicode="&#xa8;" 
d="M369 1331q-21 0 -33 11.5t-12 29.5t12 29.5t33 11.5t33 -11.5t12 -29.5t-12 -29.5t-33 -11.5zM655 1331q-21 0 -33 11.5t-12 29.5t12 29.5t33 11.5t33 -11.5t12 -29.5t-12 -29.5t-33 -11.5z" />
    <glyph glyph-name="copyright" unicode="&#xa9;" horiz-adv-x="1683" 
d="M842 -20q-232 0 -405 94.5t-264 264t-91 390.5t91 390.5t264 264.5t405 95t405 -95t264 -264.5t91 -390.5t-91 -390.5t-264 -264t-405 -94.5zM842 29q161 0 293 51.5t221.5 144t138.5 221.5t49 283q0 206 -83.5 364t-244 247.5t-374.5 89.5t-374.5 -89.5t-244.5 -247.5
t-84 -364t84 -364t244.5 -247t374.5 -89zM852 344q-151 0 -234 101t-83 284t83 284t234 101q75 0 134 -24.5t92.5 -63.5t50 -82.5t16.5 -87.5h-49q-14 90 -72.5 149.5t-171.5 59.5q-121 0 -190.5 -88t-69.5 -248t69.5 -248t190.5 -88q106 0 169 57t75 158h49
q0 -49 -17.5 -95t-52 -84.5t-92.5 -61.5t-131 -23z" />
    <glyph glyph-name="ordfeminine" unicode="&#xaa;" horiz-adv-x="917" 
d="M401 524q-151 0 -235 74.5t-84 204.5q0 103 74.5 168t230.5 78l148 12q122 10 162 37.5t40 95.5q0 236 -274 236q-134 0 -205 -56.5t-78 -179.5h-49q0 136 83 210.5t249 74.5t249 -74.5t83 -210.5v-418q0 -188 28 -233h-45q-24 33 -32.5 75t-8.5 134
q-33 -112 -120.5 -170t-215.5 -58zM410 573q156 0 241.5 111.5t85.5 282.5v123q-45 -68 -202 -80l-148 -13q-128 -10 -188 -62.5t-60 -131.5q0 -105 68 -167.5t203 -62.5z" />
    <glyph glyph-name="guillemotleft" unicode="&#xab;" horiz-adv-x="909" 
d="M410 276l-279 287v49l279 287v-61l-248 -250l248 -250v-62zM778 276l-278 287v49l278 287v-61l-248 -250l248 -250v-62z" />
    <glyph glyph-name="logicalnot" unicode="&#xac;" horiz-adv-x="1036" 
d="M924 514h-58v381h-753v49h811v-430z" />
    <glyph glyph-name="uni00AD" unicode="&#xad;" horiz-adv-x="692" 
d="M580 563h-467v49h467v-49z" />
    <glyph glyph-name="registered" unicode="&#xae;" horiz-adv-x="1249" 
d="M625 410q-250 0 -396.5 147t-146.5 387t147 387.5t396 147.5t395.5 -147.5t146.5 -387.5t-146.5 -387t-395.5 -147zM625 459q224 0 354.5 132t130.5 353t-130.5 353.5t-354.5 132.5t-355 -132.5t-131 -353.5t131 -353t355 -132zM823 1067q0 -108 -92 -135q86 -26 86 -111
v-90q0 -35 6 -53h-51q-12 28 -12 53v78q0 102 -123 102h-129v-233h-57v532h221q73 0 112 -37.5t39 -105.5zM766 1061q0 55 -29.5 77.5t-101.5 22.5h-127v-200h127q72 0 101.5 22.5t29.5 77.5z" />
    <glyph glyph-name="macron" unicode="&#xaf;" 
d="M737 1348h-450v49h450v-49z" />
    <glyph glyph-name="degree" unicode="&#xb0;" horiz-adv-x="643" 
d="M322 979q-119 0 -190 72t-71 178t71 178t190 72t189.5 -71.5t70.5 -178.5t-70.5 -178.5t-189.5 -71.5zM322 1028q93 0 147.5 56.5t54.5 144.5t-54.5 144.5t-147.5 56.5t-148 -56.5t-55 -144.5t55 -144.5t148 -56.5z" />
    <glyph glyph-name="plusminus" unicode="&#xb1;" horiz-adv-x="1036" 
d="M924 0h-811v49h811v-49zM547 324h-58v381h-376v49h376v381h58v-381h377v-49h-377v-381z" />
    <glyph glyph-name="twosuperior" unicode="&#xb2;" horiz-adv-x="720" 
d="M639 1008h-557v49q0 140 50 214.5t179 121.5l146 53q125 47 125 180q0 103 -58 154t-155 51q-104 0 -159.5 -56.5t-64.5 -179.5h-45q0 143 69 214t200 71q128 0 199 -66.5t71 -187.5q0 -169 -174 -233l-146 -54q-103 -38 -141.5 -103.5t-38.5 -178.5h500v-49z" />
    <glyph glyph-name="threesuperior" unicode="&#xb3;" horiz-adv-x="749" 
d="M375 995q-293 0 -293 285h45q9 -133 70.5 -184.5t177.5 -51.5q113 0 174 49t61 140q0 100 -44.5 144t-141.5 44h-131v49h119q93 0 139.5 41.5t46.5 130.5t-58.5 139t-164.5 50q-221 0 -236 -211h-45q0 125 74.5 192.5t206.5 67.5q126 0 203 -63t77 -175q0 -80 -38 -129.5
t-105 -64.5q76 -18 116 -69t40 -146q0 -113 -80.5 -175.5t-212.5 -62.5z" />
    <glyph glyph-name="acute" unicode="&#xb4;" 
d="M459 1237h-45l155 270h70z" />
    <glyph glyph-name="mu" unicode="&#xb5;" 
d="M471 -20q-219 0 -291 141v-522h-57v1458h57v-699q0 -169 68.5 -249t230.5 -80q165 0 265 120.5t100 317.5v590h57v-1057h-57v223q-96 -243 -373 -243z" />
    <glyph glyph-name="paragraph" unicode="&#xb6;" horiz-adv-x="1011" 
d="M881 -401h-58v1810h-372v-1810h-58v1187q-153 0 -252.5 93t-99.5 243t99.5 243t252.5 93h488v-1859z" />
    <glyph glyph-name="periodcentered" unicode="&#xb7;" horiz-adv-x="303" 
d="M152 543q-23 0 -36.5 13t-13.5 32t13.5 32t36.5 13t36 -13t13 -32t-13 -32t-36 -13z" />
    <glyph glyph-name="cedilla" unicode="&#xb8;" 
d="M668 -209q0 -119 -197 -119l-115 9v40h115q76 0 107.5 16t31.5 54t-31.5 54t-107.5 16h-61v35l106 127h49l-104 -125q110 0 158.5 -25t48.5 -82z" />
    <glyph glyph-name="onesuperior" unicode="&#xb9;" horiz-adv-x="481" 
d="M350 1008h-57v784q-27 -56 -81.5 -84.5t-121.5 -28.5h-8v50q169 7 215 139h53v-860z" />
    <glyph glyph-name="ordmasculine" unicode="&#xba;" horiz-adv-x="983" 
d="M492 524q-198 0 -304 125t-106 352t106 352.5t304 125.5t303.5 -125t105.5 -353q0 -227 -105.5 -352t-303.5 -125zM492 573q167 0 259.5 111t92.5 317t-92.5 317.5t-259.5 111.5t-260 -111.5t-93 -317.5t93 -317t260 -111z" />
    <glyph glyph-name="guillemotright" unicode="&#xbb;" horiz-adv-x="909" 
d="M410 563l-279 -287v62l248 250l-248 250v61l279 -287v-49zM778 563l-278 -287v62l248 250l-248 250v61l278 -287v-49z" />
    <glyph glyph-name="onequarter" unicode="&#xbc;" horiz-adv-x="1437" 
d="M350 598h-57v784q-26 -56 -81 -84t-122 -28h-8v49q169 7 215 139h53v-860zM295 0h-66l783 1458h65zM1225 0h-58v250h-417v53l419 557h56v-561h131v-49h-131v-250zM1167 299v481l-360 -481h360z" />
    <glyph glyph-name="onehalf" unicode="&#xbd;" horiz-adv-x="1499" 
d="M350 598h-57v784q-26 -56 -81 -84t-122 -28h-8v49q169 7 215 139h53v-860zM295 0h-66l783 1458h65zM1417 0h-557v49q0 139 50.5 214t179.5 122l145 53q125 47 125 180q0 103 -58 154t-155 51q-104 0 -159 -56t-64 -179h-45q0 284 268 284q128 0 199 -66.5t71 -187.5
q0 -169 -174 -233l-145 -53q-103 -38 -141.5 -104t-38.5 -179h499v-49z" />
    <glyph glyph-name="threequarters" unicode="&#xbe;" horiz-adv-x="1650" 
d="M375 586q-293 0 -293 284h45q8 -133 70 -184t178 -51q113 0 174 48.5t61 139.5q0 100 -45 144.5t-141 44.5h-131v49h119q93 0 139.5 41.5t46.5 130.5t-58.5 138.5t-164.5 49.5q-221 0 -236 -211h-45q0 125 74.5 192.5t206.5 67.5q126 0 203 -62.5t77 -174.5
q0 -80 -38.5 -130t-104.5 -65q76 -18 116 -69t40 -146q0 -113 -80.5 -175t-212.5 -62zM508 0h-66l783 1458h65zM1438 0h-58v250h-417v53l419 557h56v-561h131v-49h-131v-250zM1380 299v481l-360 -481h360z" />
    <glyph glyph-name="questiondown" unicode="&#xbf;" horiz-adv-x="1032" 
d="M516 -422q-198 0 -316 109.5t-118 279.5q0 63 23.5 117t61.5 93.5t84 76.5t92 75.5t84 80t61.5 99.5t23.5 126v65h49v-65q0 -72 -23.5 -133t-60.5 -104.5t-82 -82.5t-90 -75.5t-82 -74.5t-60.5 -88.5t-23.5 -109.5q0 -146 105.5 -243t271.5 -97q178 0 275.5 105
t113.5 288h45q0 -207 -115 -324.5t-319 -117.5zM537 975q-23 0 -36.5 13t-13.5 32t13.5 32t36.5 13t36 -13t13 -32t-13 -32t-36 -13z" />
    <glyph glyph-name="Agrave" unicode="&#xc0;" horiz-adv-x="1351" 
d="M1311 0h-64l-182 444h-778l-183 -444h-63l602 1458h66zM1044 494l-368 895l-369 -895h737zM698 1626h-45l-180 270h70z" />
    <glyph glyph-name="Aacute" unicode="&#xc1;" horiz-adv-x="1351" 
d="M1311 0h-64l-182 444h-778l-183 -444h-63l602 1458h66zM1044 494l-368 895l-369 -895h737zM698 1626h-45l156 270h70z" />
    <glyph glyph-name="Acircumflex" unicode="&#xc2;" horiz-adv-x="1351" 
d="M1311 0h-64l-182 444h-778l-183 -444h-63l602 1458h66zM1044 494l-368 895l-369 -895h737zM922 1626h-66l-180 225l-180 -225h-66l221 270h49z" />
    <glyph glyph-name="Atilde" unicode="&#xc3;" horiz-adv-x="1351" 
d="M1311 0h-64l-182 444h-778l-183 -444h-63l602 1458h66zM1044 494l-368 895l-369 -895h737zM793 1669q-37 0 -71.5 21t-56.5 46.5t-51 46.5t-55 21q-40 0 -62 -36.5t-22 -98.5h-45q0 91 33.5 137.5t95.5 46.5q37 0 71.5 -21t56.5 -46.5t51 -46.5t55 -21q40 0 62 36.5
t22 98.5h45q0 -91 -33.5 -137.5t-95.5 -46.5z" />
    <glyph glyph-name="Adieresis" unicode="&#xc4;" horiz-adv-x="1351" 
d="M1311 0h-64l-182 444h-778l-183 -444h-63l602 1458h66zM1044 494l-368 895l-369 -895h737zM532 1720q-21 0 -33 11.5t-12 29.5t12 29.5t33 11.5t33.5 -11.5t12.5 -29.5t-12.5 -29.5t-33.5 -11.5zM819 1720q-21 0 -33 11.5t-12 29.5t12 29.5t33 11.5t33 -11.5t12 -29.5
t-12 -29.5t-33 -11.5z" />
    <glyph glyph-name="Aring" unicode="&#xc5;" horiz-adv-x="1351" 
d="M1311 0h-64l-182 444h-778l-183 -444h-63l602 1458h66zM1044 494l-368 895l-369 -895h737zM676 1536q-106 0 -165.5 56t-59.5 145t59.5 144.5t165.5 55.5t165.5 -55.5t59.5 -144.5t-59.5 -145t-165.5 -56zM676 1585q79 0 123.5 42.5t44.5 109.5t-44.5 109t-123.5 42
t-123.5 -42t-44.5 -109t44.5 -109.5t123.5 -42.5z" />
    <glyph glyph-name="AE" unicode="&#xc6;" horiz-adv-x="2052" 
d="M1974 0h-930v444h-708l-232 -444h-63l766 1458h1167v-49h-872v-641h807v-49h-807v-670h872v-49zM1044 494v915h-202l-480 -915h682z" />
    <glyph glyph-name="Ccedilla" unicode="&#xc7;" horiz-adv-x="1421" 
d="M895 -209q0 -119 -197 -119l-114 9v40h114q76 0 108 16t32 54t-32 54t-108 16h-61v35l72 86q-312 9 -469.5 209t-157.5 538q0 169 40 305t119 236t205.5 154.5t292.5 54.5q141 0 256.5 -41t189.5 -111t114 -159.5t40 -188.5h-45q-23 201 -167 326t-388 125
q-292 0 -446 -182.5t-154 -518.5t154 -518t446 -182q245 0 389 125.5t166 337.5h45q0 -80 -23.5 -154t-71.5 -138t-116 -112t-163.5 -77t-208.5 -31l-68 -82q110 0 158.5 -25t48.5 -82z" />
    <glyph glyph-name="Egrave" unicode="&#xc8;" horiz-adv-x="1138" 
d="M1061 0h-930v1458h930v-49h-873v-641h807v-49h-807v-670h873v-49zM618 1626h-45l-180 270h70z" />
    <glyph glyph-name="Eacute" unicode="&#xc9;" horiz-adv-x="1138" 
d="M1061 0h-930v1458h930v-49h-873v-641h807v-49h-807v-670h873v-49zM618 1626h-45l156 270h70z" />
    <glyph glyph-name="Ecircumflex" unicode="&#xca;" horiz-adv-x="1138" 
d="M1061 0h-930v1458h930v-49h-873v-641h807v-49h-807v-670h873v-49zM842 1626h-66l-180 225l-180 -225h-66l221 270h50z" />
    <glyph glyph-name="Edieresis" unicode="&#xcb;" horiz-adv-x="1138" 
d="M1061 0h-930v1458h930v-49h-873v-641h807v-49h-807v-670h873v-49zM453 1720q-21 0 -33 11.5t-12 29.5t12 29.5t33 11.5t33 -11.5t12 -29.5t-12 -29.5t-33 -11.5zM739 1720q-21 0 -33 11.5t-12 29.5t12 29.5t33 11.5t33 -11.5t12 -29.5t-12 -29.5t-33 -11.5z" />
    <glyph glyph-name="Igrave" unicode="&#xcc;" horiz-adv-x="319" 
d="M188 0h-57v1458h57v-1458zM182 1626h-45l-180 270h70z" />
    <glyph glyph-name="Iacute" unicode="&#xcd;" horiz-adv-x="319" 
d="M188 0h-57v1458h57v-1458zM182 1626h-45l156 270h69z" />
    <glyph glyph-name="Icircumflex" unicode="&#xce;" horiz-adv-x="319" 
d="M188 0h-57v1458h57v-1458zM406 1626h-66l-180 225l-180 -225h-66l221 270h49z" />
    <glyph glyph-name="Idieresis" unicode="&#xcf;" horiz-adv-x="319" 
d="M188 0h-57v1458h57v-1458zM16 1720q-21 0 -33 11.5t-12 29.5t12 29.5t33 11.5t33 -11.5t12 -29.5t-12 -29.5t-33 -11.5zM303 1720q-21 0 -33 11.5t-12 29.5t12 29.5t33 11.5t33 -11.5t12 -29.5t-12 -29.5t-33 -11.5z" />
    <glyph glyph-name="Eth" unicode="&#xd0;" horiz-adv-x="1425" 
d="M1343 729q0 -169 -38.5 -301.5t-117.5 -229t-205.5 -147.5t-295.5 -51h-514v719h-172v49h172v690h514q169 0 295.5 -51t205.5 -147.5t117.5 -229t38.5 -301.5zM741 719h-512v-670h457q299 0 449.5 172.5t150.5 507.5t-150.5 507.5t-449.5 172.5h-457v-641h512v-49z" />
    <glyph glyph-name="Ntilde" unicode="&#xd1;" horiz-adv-x="1376" 
d="M1245 0h-78l-979 1393v-1393h-57v1458h78l979 -1392v1392h57v-1458zM805 1669q-37 0 -71.5 21t-56.5 46.5t-51 46.5t-55 21q-40 0 -62 -36.5t-22 -98.5h-45q0 91 33.5 137.5t95.5 46.5q37 0 71.5 -21t56.5 -46.5t51 -46.5t55 -21q40 0 62 36.5t22 98.5h45
q0 -91 -33.5 -137.5t-95.5 -46.5z" />
    <glyph glyph-name="Ograve" unicode="&#xd2;" horiz-adv-x="1478" 
d="M739 -20q-166 0 -292.5 54t-205.5 154t-119 236t-40 305t40 305t119 236t205.5 154.5t292.5 54.5t292.5 -54.5t206 -154.5t119.5 -236t40 -305t-40 -305t-119.5 -236t-206 -154t-292.5 -54zM739 29q292 0 446 182t154 518t-154 518.5t-446 182.5t-446 -182.5t-154 -518.5
t154 -518t446 -182zM762 1626h-45l-180 270h69z" />
    <glyph glyph-name="Oacute" unicode="&#xd3;" horiz-adv-x="1478" 
d="M739 -20q-166 0 -292.5 54t-205.5 154t-119 236t-40 305t40 305t119 236t205.5 154.5t292.5 54.5t292.5 -54.5t206 -154.5t119.5 -236t40 -305t-40 -305t-119.5 -236t-206 -154t-292.5 -54zM739 29q292 0 446 182t154 518t-154 518.5t-446 182.5t-446 -182.5t-154 -518.5
t154 -518t446 -182zM762 1626h-45l155 270h70z" />
    <glyph glyph-name="Ocircumflex" unicode="&#xd4;" horiz-adv-x="1478" 
d="M739 -20q-166 0 -292.5 54t-205.5 154t-119 236t-40 305t40 305t119 236t205.5 154.5t292.5 54.5t292.5 -54.5t206 -154.5t119.5 -236t40 -305t-40 -305t-119.5 -236t-206 -154t-292.5 -54zM739 29q292 0 446 182t154 518t-154 518.5t-446 182.5t-446 -182.5t-154 -518.5
t154 -518t446 -182zM985 1626h-65l-181 225l-180 -225h-65l221 270h49z" />
    <glyph glyph-name="Otilde" unicode="&#xd5;" horiz-adv-x="1478" 
d="M739 -20q-166 0 -292.5 54t-205.5 154t-119 236t-40 305t40 305t119 236t205.5 154.5t292.5 54.5t292.5 -54.5t206 -154.5t119.5 -236t40 -305t-40 -305t-119.5 -236t-206 -154t-292.5 -54zM739 29q292 0 446 182t154 518t-154 518.5t-446 182.5t-446 -182.5t-154 -518.5
t154 -518t446 -182zM856 1669q-37 0 -71 21t-56.5 46.5t-51 46.5t-54.5 21q-40 0 -62 -36.5t-22 -98.5h-45q0 91 33.5 137.5t95.5 46.5q37 0 71 -21t56.5 -46.5t51 -46.5t54.5 -21q40 0 62 36.5t22 98.5h45q0 -91 -33.5 -137.5t-95.5 -46.5z" />
    <glyph glyph-name="Odieresis" unicode="&#xd6;" horiz-adv-x="1478" 
d="M739 -20q-166 0 -292.5 54t-205.5 154t-119 236t-40 305t40 305t119 236t205.5 154.5t292.5 54.5t292.5 -54.5t206 -154.5t119.5 -236t40 -305t-40 -305t-119.5 -236t-206 -154t-292.5 -54zM739 29q292 0 446 182t154 518t-154 518.5t-446 182.5t-446 -182.5t-154 -518.5
t154 -518t446 -182zM596 1720q-21 0 -33 11.5t-12 29.5t12 29.5t33 11.5t33 -11.5t12 -29.5t-12 -29.5t-33 -11.5zM883 1720q-21 0 -33 11.5t-12 29.5t12 29.5t33 11.5t33 -11.5t12 -29.5t-12 -29.5t-33 -11.5z" />
    <glyph glyph-name="multiply" unicode="&#xd7;" horiz-adv-x="1036" 
d="M891 324l-373 372l-373 -372l-32 32l372 373l-372 373l32 33l373 -373l373 373l33 -33l-373 -373l373 -373z" />
    <glyph glyph-name="Oslash" unicode="&#xd8;" horiz-adv-x="1478" 
d="M119 -20l-37 32l156 178q-156 200 -156 539q0 169 40 305t119 236t205.5 154.5t292.5 54.5q299 0 469 -176l152 176l37 -33l-158 -180q158 -195 158 -537q0 -169 -40 -305t-119.5 -236t-206 -154t-292.5 -54q-298 0 -469 174zM139 729q0 -318 135 -496l897 1029
q-154 168 -432 168q-292 0 -446 -182.5t-154 -518.5zM739 29q292 0 446 182t154 518q0 315 -137 496l-897 -1030q152 -166 434 -166z" />
    <glyph glyph-name="Ugrave" unicode="&#xd9;" horiz-adv-x="1335" 
d="M668 -20q-299 0 -428 139t-129 430v909h57v-909q0 -279 118.5 -399.5t381.5 -120.5t381 120t118 400v909h58v-909q0 -291 -129 -430t-428 -139zM690 1626h-45l-180 270h70z" />
    <glyph glyph-name="Uacute" unicode="&#xda;" horiz-adv-x="1335" 
d="M668 -20q-299 0 -428 139t-129 430v909h57v-909q0 -279 118.5 -399.5t381.5 -120.5t381 120t118 400v909h58v-909q0 -291 -129 -430t-428 -139zM690 1626h-45l156 270h69z" />
    <glyph glyph-name="Ucircumflex" unicode="&#xdb;" horiz-adv-x="1335" 
d="M668 -20q-299 0 -428 139t-129 430v909h57v-909q0 -279 118.5 -399.5t381.5 -120.5t381 120t118 400v909h58v-909q0 -291 -129 -430t-428 -139zM913 1626h-65l-180 225l-181 -225h-65l221 270h49z" />
    <glyph glyph-name="Udieresis" unicode="&#xdc;" horiz-adv-x="1335" 
d="M668 -20q-299 0 -428 139t-129 430v909h57v-909q0 -279 118.5 -399.5t381.5 -120.5t381 120t118 400v909h58v-909q0 -291 -129 -430t-428 -139zM524 1720q-21 0 -33 11.5t-12 29.5t12 29.5t33 11.5t33 -11.5t12 -29.5t-12 -29.5t-33 -11.5zM811 1720q-21 0 -33 11.5
t-12 29.5t12 29.5t33 11.5t33 -11.5t12 -29.5t-12 -29.5t-33 -11.5z" />
    <glyph glyph-name="Yacute" unicode="&#xdd;" horiz-adv-x="1310" 
d="M627 0v643l-586 815h68l546 -764l547 764h68l-586 -815v-643h-57zM678 1626h-45l155 270h70z" />
    <glyph glyph-name="Thorn" unicode="&#xde;" horiz-adv-x="1241" 
d="M1159 729q0 -240 -142 -363.5t-382 -123.5h-447v-242h-57v1458h57v-241h447q240 0 382 -124t142 -364zM1102 729q0 214 -120.5 326t-346.5 112h-447v-876h447q226 0 346.5 112t120.5 326z" />
    <glyph glyph-name="germandbls" unicode="&#xdf;" horiz-adv-x="1126" 
d="M635 -12q-110 0 -221 12v45l221 -8q171 0 261.5 92t90.5 236q0 50 -21 97t-51 83t-60.5 69t-51.5 68.5t-21 67.5q0 29 16 67.5t35.5 72t35.5 82.5t16 97q0 164 -92.5 262.5t-260.5 98.5t-260 -98.5t-92 -262.5v-1069h-57v1069q0 86 24.5 158.5t73 129.5t128.5 89.5
t183 32.5t183 -32.5t128.5 -89.5t73.5 -130t25 -158q0 -61 -25.5 -121.5t-51 -111t-25.5 -86.5q0 -32 21 -65.5t51 -64.5t60 -66t51 -84t21 -105q0 -78 -24.5 -145t-72.5 -119.5t-128 -82.5t-184 -30z" />
    <glyph glyph-name="agrave" unicode="&#xe0;" 
d="M451 -20q-174 0 -271.5 85t-97.5 234q0 120 85.5 194.5t264.5 88.5l170 14q140 12 191 44.5t51 109.5q0 278 -324 278q-159 0 -241 -67.5t-91 -210.5h-49q0 156 94.5 241.5t286.5 85.5t286.5 -85.5t94.5 -241.5v-480q0 -212 33 -270h-45q-27 39 -36 87t-9 155
q-39 -128 -142 -195t-251 -67zM459 29q125 0 213.5 63t130 165t41.5 230v142q-48 -68 -242 -84l-170 -15q-150 -13 -221.5 -73.5t-71.5 -157.5q0 -121 79.5 -195.5t240.5 -74.5zM543 1237h-45l-181 270h70z" />
    <glyph glyph-name="aacute" unicode="&#xe1;" 
d="M451 -20q-174 0 -271.5 85t-97.5 234q0 120 85.5 194.5t264.5 88.5l170 14q140 12 191 44.5t51 109.5q0 278 -324 278q-159 0 -241 -67.5t-91 -210.5h-49q0 156 94.5 241.5t286.5 85.5t286.5 -85.5t94.5 -241.5v-480q0 -212 33 -270h-45q-27 39 -36 87t-9 155
q-39 -128 -142 -195t-251 -67zM459 29q125 0 213.5 63t130 165t41.5 230v142q-48 -68 -242 -84l-170 -15q-150 -13 -221.5 -73.5t-71.5 -157.5q0 -121 79.5 -195.5t240.5 -74.5zM543 1237h-45l155 270h70z" />
    <glyph glyph-name="acircumflex" unicode="&#xe2;" 
d="M451 -20q-174 0 -271.5 85t-97.5 234q0 120 85.5 194.5t264.5 88.5l170 14q140 12 191 44.5t51 109.5q0 278 -324 278q-159 0 -241 -67.5t-91 -210.5h-49q0 156 94.5 241.5t286.5 85.5t286.5 -85.5t94.5 -241.5v-480q0 -212 33 -270h-45q-27 39 -36 87t-9 155
q-39 -128 -142 -195t-251 -67zM459 29q125 0 213.5 63t130 165t41.5 230v142q-48 -68 -242 -84l-170 -15q-150 -13 -221.5 -73.5t-71.5 -157.5q0 -121 79.5 -195.5t240.5 -74.5zM766 1237h-66l-180 225l-180 -225h-66l222 270h49z" />
    <glyph glyph-name="atilde" unicode="&#xe3;" 
d="M451 -20q-174 0 -271.5 85t-97.5 234q0 120 85.5 194.5t264.5 88.5l170 14q140 12 191 44.5t51 109.5q0 278 -324 278q-159 0 -241 -67.5t-91 -210.5h-49q0 156 94.5 241.5t286.5 85.5t286.5 -85.5t94.5 -241.5v-480q0 -212 33 -270h-45q-27 39 -36 87t-9 155
q-39 -128 -142 -195t-251 -67zM459 29q125 0 213.5 63t130 165t41.5 230v142q-48 -68 -242 -84l-170 -15q-150 -13 -221.5 -73.5t-71.5 -157.5q0 -121 79.5 -195.5t240.5 -74.5zM637 1280q-37 0 -71.5 21t-56.5 46.5t-51 46.5t-55 21q-40 0 -62 -36.5t-22 -98.5h-45
q0 91 33.5 137.5t95.5 46.5q37 0 71.5 -21t56.5 -46.5t51 -46.5t55 -21q40 0 62 36.5t22 98.5h45q0 -91 -33.5 -137.5t-95.5 -46.5z" />
    <glyph glyph-name="adieresis" unicode="&#xe4;" 
d="M451 -20q-174 0 -271.5 85t-97.5 234q0 120 85.5 194.5t264.5 88.5l170 14q140 12 191 44.5t51 109.5q0 278 -324 278q-159 0 -241 -67.5t-91 -210.5h-49q0 156 94.5 241.5t286.5 85.5t286.5 -85.5t94.5 -241.5v-480q0 -212 33 -270h-45q-27 39 -36 87t-9 155
q-39 -128 -142 -195t-251 -67zM459 29q125 0 213.5 63t130 165t41.5 230v142q-48 -68 -242 -84l-170 -15q-150 -13 -221.5 -73.5t-71.5 -157.5q0 -121 79.5 -195.5t240.5 -74.5zM377 1331q-21 0 -33 11.5t-12 29.5t12 29.5t33 11.5t33 -11.5t12 -29.5t-12 -29.5t-33 -11.5z
M664 1331q-21 0 -33.5 11.5t-12.5 29.5t12.5 29.5t33.5 11.5t33 -11.5t12 -29.5t-12 -29.5t-33 -11.5z" />
    <glyph glyph-name="aring" unicode="&#xe5;" 
d="M451 -20q-174 0 -271.5 85t-97.5 234q0 120 85.5 194.5t264.5 88.5l170 14q140 12 191 44.5t51 109.5q0 278 -324 278q-159 0 -241 -67.5t-91 -210.5h-49q0 156 94.5 241.5t286.5 85.5t286.5 -85.5t94.5 -241.5v-480q0 -212 33 -270h-45q-27 39 -36 87t-9 155
q-39 -128 -142 -195t-251 -67zM459 29q125 0 213.5 63t130 165t41.5 230v142q-48 -68 -242 -84l-170 -15q-150 -13 -221.5 -73.5t-71.5 -157.5q0 -121 79.5 -195.5t240.5 -74.5zM520 1223q-106 0 -165.5 55.5t-59.5 144.5t59.5 145t165.5 56t165.5 -56t59.5 -145
t-59.5 -144.5t-165.5 -55.5zM520 1272q79 0 123.5 42t44.5 109t-44.5 109.5t-123.5 42.5t-123.5 -42.5t-44.5 -109.5t44.5 -109t123.5 -42z" />
    <glyph glyph-name="ae" unicode="&#xe6;" horiz-adv-x="1843" 
d="M1315 -20q-184 0 -295.5 94.5t-147.5 271.5q-16 -100 -58 -173t-100.5 -114t-123.5 -60t-139 -19q-174 0 -271.5 85t-97.5 234q0 120 85.5 194.5t264.5 88.5l170 14q140 12 191 44.5t51 109.5q0 278 -324 278q-159 0 -241 -67.5t-91 -210.5h-49q0 156 94.5 241.5
t286.5 85.5q354 0 367 -305q44 146 148 225.5t268 79.5q113 0 201.5 -40t144 -110.5t84 -162.5t28.5 -199q0 -20 -2 -30h-858q3 -264 113.5 -385t300.5 -121q154 0 249.5 74.5t129.5 203.5h45q-81 -327 -424 -327zM459 29q125 0 213.5 63t130 165t41.5 230v150
q-54 -77 -242 -92l-170 -15q-150 -13 -221.5 -73.5t-71.5 -157.5q0 -121 79.5 -195.5t240.5 -74.5zM1303 1028q-174 0 -279.5 -111t-122.5 -333h803q-17 222 -122 333t-279 111z" />
    <glyph glyph-name="ccedilla" unicode="&#xe7;" horiz-adv-x="1011" 
d="M688 -209q0 -119 -196 -119l-115 9v40h115q76 0 107.5 16t31.5 54t-31.5 54t-107.5 16h-62v35l70 84q-198 11 -308 154.5t-110 393.5q0 260 118.5 404.5t331.5 144.5q108 0 192 -34.5t131.5 -90t71 -117.5t23.5 -126h-45q-10 63 -34.5 117t-67 101t-112 74t-159.5 27
q-184 0 -288.5 -129.5t-104.5 -370.5t104.5 -370t288.5 -129q162 0 257 86.5t116 240.5h45q0 -68 -24 -132t-71 -118.5t-126.5 -88.5t-179.5 -37l-68 -82q110 0 158.5 -25t48.5 -82z" />
    <glyph glyph-name="egrave" unicode="&#xe8;" horiz-adv-x="1081" 
d="M553 -20q-227 0 -349 143.5t-122 404.5q0 253 117 401t342 148q113 0 201.5 -40t144 -110.5t84 -162.5t28.5 -199q0 -20 -2 -30h-858q3 -264 113.5 -385t300.5 -121q154 0 249.5 74.5t129.5 203.5h45q-81 -327 -424 -327zM541 1028q-174 0 -279.5 -111t-122.5 -333h803
q-17 222 -122 333t-279 111zM563 1237h-45l-180 270h70z" />
    <glyph glyph-name="eacute" unicode="&#xe9;" horiz-adv-x="1081" 
d="M553 -20q-227 0 -349 143.5t-122 404.5q0 253 117 401t342 148q113 0 201.5 -40t144 -110.5t84 -162.5t28.5 -199q0 -20 -2 -30h-858q3 -264 113.5 -385t300.5 -121q154 0 249.5 74.5t129.5 203.5h45q-81 -327 -424 -327zM541 1028q-174 0 -279.5 -111t-122.5 -333h803
q-17 222 -122 333t-279 111zM563 1237h-45l156 270h69z" />
    <glyph glyph-name="ecircumflex" unicode="&#xea;" horiz-adv-x="1081" 
d="M553 -20q-227 0 -349 143.5t-122 404.5q0 253 117 401t342 148q113 0 201.5 -40t144 -110.5t84 -162.5t28.5 -199q0 -20 -2 -30h-858q3 -264 113.5 -385t300.5 -121q154 0 249.5 74.5t129.5 203.5h45q-81 -327 -424 -327zM541 1028q-174 0 -279.5 -111t-122.5 -333h803
q-17 222 -122 333t-279 111zM786 1237h-65l-180 225l-181 -225h-65l221 270h49z" />
    <glyph glyph-name="edieresis" unicode="&#xeb;" horiz-adv-x="1081" 
d="M553 -20q-227 0 -349 143.5t-122 404.5q0 253 117 401t342 148q113 0 201.5 -40t144 -110.5t84 -162.5t28.5 -199q0 -20 -2 -30h-858q3 -264 113.5 -385t300.5 -121q154 0 249.5 74.5t129.5 203.5h45q-81 -327 -424 -327zM541 1028q-174 0 -279.5 -111t-122.5 -333h803
q-17 222 -122 333t-279 111zM397 1331q-21 0 -33 11.5t-12 29.5t12 29.5t33 11.5t33 -11.5t12 -29.5t-12 -29.5t-33 -11.5zM684 1331q-21 0 -33 11.5t-12 29.5t12 29.5t33 11.5t33 -11.5t12 -29.5t-12 -29.5t-33 -11.5z" />
    <glyph glyph-name="igrave" unicode="&#xec;" horiz-adv-x="303" 
d="M180 0h-57v1057h57v-1057zM174 1237h-45l-180 270h69z" />
    <glyph glyph-name="iacute" unicode="&#xed;" horiz-adv-x="303" 
d="M180 0h-57v1057h57v-1057zM174 1237h-45l156 270h69z" />
    <glyph glyph-name="icircumflex" unicode="&#xee;" horiz-adv-x="303" 
d="M180 0h-57v1057h57v-1057zM397 1237h-65l-180 225l-181 -225h-65l221 270h49z" />
    <glyph glyph-name="idieresis" unicode="&#xef;" horiz-adv-x="303" 
d="M180 0h-57v1057h57v-1057zM8 1331q-21 0 -33 11.5t-12 29.5t12 29.5t33 11.5t33 -11.5t12 -29.5t-12 -29.5t-33 -11.5zM295 1331q-21 0 -33 11.5t-12 29.5t12 29.5t33 11.5t33 -11.5t12 -29.5t-12 -29.5t-33 -11.5z" />
    <glyph glyph-name="eth" unicode="&#xf0;" horiz-adv-x="1105" 
d="M553 -20q-226 0 -348.5 138.5t-122.5 379.5t122.5 379.5t348.5 138.5q113 0 192 -34.5t140 -107.5q-104 198 -283 379l-307 -86v45l272 76q-77 79 -184 170h66q103 -89 169 -155l275 77v-45l-240 -67q371 -384 371 -770q0 -241 -122.5 -379.5t-348.5 -138.5zM553 29
q197 0 305.5 123t108.5 346t-108.5 346t-305.5 123t-305.5 -123t-108.5 -346t108.5 -346t305.5 -123z" />
    <glyph glyph-name="ntilde" unicode="&#xf1;" 
d="M901 0h-57v698q0 169 -68.5 249.5t-230.5 80.5q-165 0 -265 -120.5t-100 -317.5v-590h-57v1057h57v-223q96 243 373 243q180 0 264 -93t84 -286v-698zM629 1280q-37 0 -71.5 21t-56.5 46.5t-51 46.5t-55 21q-40 0 -62 -36.5t-22 -98.5h-45q0 91 33.5 137.5t95.5 46.5
q37 0 71.5 -21t56.5 -46.5t51 -46.5t55 -21q40 0 62 36.5t22 98.5h45q0 -91 -33.5 -137.5t-95.5 -46.5z" />
    <glyph glyph-name="ograve" unicode="&#xf2;" horiz-adv-x="1105" 
d="M553 -20q-227 0 -349 143.5t-122 404.5t122 405t349 144t349 -144t122 -405t-122 -404.5t-349 -143.5zM553 29q198 0 306 128t108 371t-108 371.5t-306 128.5t-306 -128.5t-108 -371.5t108 -371t306 -128zM575 1237h-45l-180 270h70z" />
    <glyph glyph-name="oacute" unicode="&#xf3;" horiz-adv-x="1105" 
d="M553 -20q-227 0 -349 143.5t-122 404.5t122 405t349 144t349 -144t122 -405t-122 -404.5t-349 -143.5zM553 29q198 0 306 128t108 371t-108 371.5t-306 128.5t-306 -128.5t-108 -371.5t108 -371t306 -128zM575 1237h-45l156 270h70z" />
    <glyph glyph-name="ocircumflex" unicode="&#xf4;" horiz-adv-x="1105" 
d="M553 -20q-227 0 -349 143.5t-122 404.5t122 405t349 144t349 -144t122 -405t-122 -404.5t-349 -143.5zM553 29q198 0 306 128t108 371t-108 371.5t-306 128.5t-306 -128.5t-108 -371.5t108 -371t306 -128zM799 1237h-66l-180 225l-180 -225h-66l221 270h50z" />
    <glyph glyph-name="otilde" unicode="&#xf5;" horiz-adv-x="1105" 
d="M553 -20q-227 0 -349 143.5t-122 404.5t122 405t349 144t349 -144t122 -405t-122 -404.5t-349 -143.5zM553 29q198 0 306 128t108 371t-108 371.5t-306 128.5t-306 -128.5t-108 -371.5t108 -371t306 -128zM670 1280q-37 0 -71.5 21t-56.5 46.5t-51 46.5t-55 21
q-40 0 -62 -36.5t-22 -98.5h-45q0 91 33.5 137.5t95.5 46.5q37 0 71.5 -21t56.5 -46.5t51 -46.5t55 -21q40 0 62 36.5t22 98.5h45q0 -91 -33.5 -137.5t-95.5 -46.5z" />
    <glyph glyph-name="odieresis" unicode="&#xf6;" horiz-adv-x="1105" 
d="M553 -20q-227 0 -349 143.5t-122 404.5t122 405t349 144t349 -144t122 -405t-122 -404.5t-349 -143.5zM553 29q198 0 306 128t108 371t-108 371.5t-306 128.5t-306 -128.5t-108 -371.5t108 -371t306 -128zM410 1331q-21 0 -33 11.5t-12 29.5t12 29.5t33 11.5t33 -11.5
t12 -29.5t-12 -29.5t-33 -11.5zM696 1331q-21 0 -33 11.5t-12 29.5t12 29.5t33 11.5t33 -11.5t12 -29.5t-12 -29.5t-33 -11.5z" />
    <glyph glyph-name="divide" unicode="&#xf7;" horiz-adv-x="1036" 
d="M518 324q-23 0 -36 13t-13 32t13 32t36 13t36 -13t13 -32t-13 -32t-36 -13zM924 705h-811v49h811v-49zM518 1044q-22 0 -35.5 13t-13.5 33q0 19 13 32t36 13t36 -13t13 -32q0 -20 -13.5 -33t-35.5 -13z" />
    <glyph glyph-name="oslash" unicode="&#xf8;" horiz-adv-x="1105" 
d="M119 -20l-37 32l108 127q-108 141 -108 389q0 261 122 405t349 144q207 0 330 -123l104 123l37 -33l-109 -129q109 -143 109 -387q0 -261 -122 -404.5t-349 -143.5q-211 0 -330 122zM139 528q0 -216 88 -346l619 729q-108 117 -293 117q-198 0 -306 -128.5t-108 -371.5z
M553 29q198 0 306 128t108 371q0 217 -88 344l-621 -729q108 -114 295 -114z" />
    <glyph glyph-name="ugrave" unicode="&#xf9;" 
d="M471 -20q-180 0 -264 92.5t-84 285.5v699h57v-699q0 -169 68.5 -249t230.5 -80q165 0 265 120.5t100 317.5v590h57v-1057h-57v223q-96 -243 -373 -243zM535 1237h-46l-180 270h70z" />
    <glyph glyph-name="uacute" unicode="&#xfa;" 
d="M471 -20q-180 0 -264 92.5t-84 285.5v699h57v-699q0 -169 68.5 -249t230.5 -80q165 0 265 120.5t100 317.5v590h57v-1057h-57v223q-96 -243 -373 -243zM535 1237h-46l156 270h70z" />
    <glyph glyph-name="ucircumflex" unicode="&#xfb;" 
d="M471 -20q-180 0 -264 92.5t-84 285.5v699h57v-699q0 -169 68.5 -249t230.5 -80q165 0 265 120.5t100 317.5v590h57v-1057h-57v223q-96 -243 -373 -243zM758 1237h-66l-180 225l-180 -225h-66l221 270h50z" />
    <glyph glyph-name="udieresis" unicode="&#xfc;" 
d="M471 -20q-180 0 -264 92.5t-84 285.5v699h57v-699q0 -169 68.5 -249t230.5 -80q165 0 265 120.5t100 317.5v590h57v-1057h-57v223q-96 -243 -373 -243zM369 1331q-21 0 -33 11.5t-12 29.5t12 29.5t33 11.5t33 -11.5t12 -29.5t-12 -29.5t-33 -11.5zM655 1331
q-21 0 -33 11.5t-12 29.5t12 29.5t33 11.5t33 -11.5t12 -29.5t-12 -29.5t-33 -11.5z" />
    <glyph glyph-name="yacute" unicode="&#xfd;" 
d="M137 -401v49h56q78 0 133.5 50t105.5 171l49 123l-440 1065h59l412 -996l412 996h59l-494 -1190q-63 -155 -130 -211.5t-169 -56.5h-53zM535 1237h-46l156 270h70z" />
    <glyph glyph-name="thorn" unicode="&#xfe;" horiz-adv-x="1126" 
d="M592 -20q-155 0 -261 67t-151 201v-649h-57v1859h57v-649q45 134 151 201t261 67q214 0 333 -144.5t119 -404.5q0 -259 -119 -403.5t-333 -144.5zM584 29q186 0 294.5 124.5t108.5 374.5q0 251 -108.5 375.5t-294.5 124.5t-295 -125t-109 -375t108.5 -374.5t295.5 -124.5
z" />
    <glyph glyph-name="ydieresis" unicode="&#xff;" 
d="M137 -401v49h56q78 0 133.5 50t105.5 171l49 123l-440 1065h59l412 -996l412 996h59l-494 -1190q-63 -155 -130 -211.5t-169 -56.5h-53zM655 1331q-21 0 -33 11.5t-12 29.5t12 29.5t33 11.5t33 -11.5t12 -29.5t-12 -29.5t-33 -11.5zM369 1331q-21 0 -33 11.5t-12 29.5
t12 29.5t33 11.5t33 -11.5t12 -29.5t-12 -29.5t-33 -11.5z" />
    <glyph glyph-name="dotlessi" unicode="&#x131;" horiz-adv-x="303" 
d="M180 0h-57v1057h57v-1057z" />
    <glyph glyph-name="Lslash" unicode="&#x141;" horiz-adv-x="1064" 
d="M649 866l-420 -151v-666h787v-49h-844v694l-172 -61v49l172 61v715h57v-694l420 151v-49z" />
    <glyph glyph-name="lslash" unicode="&#x142;" horiz-adv-x="385" 
d="M221 0h-57v694l-164 -59v49l164 59v715h57v-694l164 59v-49l-164 -59v-715z" />
    <glyph glyph-name="OE" unicode="&#x152;" horiz-adv-x="2203" 
d="M2126 0h-1387q-169 0 -295.5 51t-205.5 147.5t-117.5 229t-38.5 301.5t38.5 301.5t117.5 229t205.5 147.5t295.5 51h1387v-49h-873v-641h807v-49h-807v-670h873v-49zM139 729q0 -335 150.5 -507.5t449.5 -172.5h457v1360h-457q-299 0 -449.5 -172.5t-150.5 -507.5z" />
    <glyph glyph-name="oe" unicode="&#x153;" horiz-adv-x="1966" 
d="M1438 -20q-184 0 -295.5 94.5t-147.5 273.5q-36 -179 -147 -273.5t-295 -94.5q-227 0 -349 143.5t-122 404.5t122 405t349 144q183 0 294.5 -94.5t147.5 -273.5q35 175 142 271.5t288 96.5q113 0 201.5 -40t144 -110.5t84.5 -162.5t29 -199q0 -20 -2 -30h-858
q3 -264 113.5 -385t300.5 -121q154 0 249.5 74.5t129.5 203.5h45q-81 -327 -424 -327zM553 29q198 0 306 128t108 371t-108 371.5t-306 128.5t-306 -128.5t-108 -371.5t108 -371t306 -128zM1425 1028q-174 0 -279 -111t-122 -333h803q-17 222 -122.5 333t-279.5 111z" />
    <glyph glyph-name="Scaron" unicode="&#x160;" horiz-adv-x="1208" 
d="M604 -20q-268 0 -395 114t-127 348h45q9 -85 27.5 -147.5t53 -114.5t87.5 -84t129.5 -49.5t179.5 -17.5q248 0 356.5 99.5t108.5 293.5q0 52 -15 92.5t-50.5 77t-102 62.5t-162.5 40l-260 39q-104 16 -175.5 45t-111 71.5t-56.5 92.5t-17 115q0 199 121 310.5t364 111.5
q486 0 486 -443h-46q-21 204 -121 299t-319 95q-215 0 -321.5 -97t-106.5 -276q0 -113 66.5 -177t236.5 -89l260 -39q196 -29 291.5 -110t95.5 -220q0 -220 -127.5 -331t-394.5 -111zM629 1626h-49l-222 270h66l180 -225l180 225h66z" />
    <glyph glyph-name="scaron" unicode="&#x161;" horiz-adv-x="937" 
d="M469 -20q-110 0 -187.5 25t-120 71t-61 102.5t-18.5 128.5h49q3 -50 13 -88t33 -75t59 -61t95 -39t138 -15q78 0 137.5 14.5t95.5 38t58.5 58t30.5 70t8 77.5q0 175 -205 205l-242 36q-118 19 -179.5 74t-61.5 168q0 66 15.5 117t53.5 96t111 69.5t178 24.5t178 -24.5
t111 -69.5t53.5 -97.5t15.5 -119.5h-49q-3 46 -10.5 79t-27.5 70t-52 60t-87.5 38t-131.5 15q-160 0 -230.5 -65t-70.5 -193q0 -93 47.5 -133.5t136.5 -54.5l242 -37q262 -39 262 -258q0 -65 -18.5 -117t-60.5 -96.5t-120.5 -69t-187.5 -24.5zM494 1237h-50l-221 270h66
l180 -225l180 225h66z" />
    <glyph glyph-name="Ydieresis" unicode="&#x178;" horiz-adv-x="1310" 
d="M627 0v643l-586 815h68l546 -764l547 764h68l-586 -815v-643h-57zM512 1720q-21 0 -33 11.5t-12 29.5t12 29.5t33 11.5t33 -11.5t12 -29.5t-12 -29.5t-33 -11.5zM799 1720q-21 0 -33 11.5t-12 29.5t12 29.5t33 11.5t33 -11.5t12 -29.5t-12 -29.5t-33 -11.5z" />
    <glyph glyph-name="Zcaron" unicode="&#x17d;" horiz-adv-x="1069" 
d="M987 0h-905v49l819 1360h-799v49h865v-49l-822 -1360h842v-49zM559 1626h-49l-221 270h65l181 -225l180 225h65z" />
    <glyph glyph-name="zcaron" unicode="&#x17e;" horiz-adv-x="860" 
d="M799 0h-738v49l654 959h-633v49h696v-49l-653 -959h674v-49zM455 1237h-49l-222 270h66l180 -225l180 225h66z" />
    <glyph glyph-name="florin" unicode="&#x192;" horiz-adv-x="997" 
d="M113 -410q-30 0 -113 9v41h121q94 0 139.5 44t63.5 140l161 913h-354v49h363l79 447q21 119 84.5 176t186.5 57q38 0 112 -8v-41h-120q-95 0 -141 -44t-64 -140l-80 -447h356v-49h-364l-162 -913q-21 -119 -84 -176.5t-184 -57.5z" />
    <glyph glyph-name="circumflex" unicode="&#x2c6;" 
d="M758 1237h-66l-180 225l-180 -225h-66l221 270h50z" />
    <glyph glyph-name="caron" unicode="&#x2c7;" 
d="M537 1237h-50l-221 270h66l180 -225l180 225h66z" />
    <glyph glyph-name="breve" unicode="&#x2d8;" 
d="M512 1217q-116 0 -170.5 70.5t-54.5 219.5h45q4 -130 46.5 -185.5t133.5 -55.5t133.5 55.5t46.5 185.5h45q0 -149 -54.5 -219.5t-170.5 -70.5z" />
    <glyph glyph-name="dotaccent" unicode="&#x2d9;" 
d="M512 1331q-21 0 -33 11.5t-12 29.5t12 29.5t33 11.5t33 -11.5t12 -29.5t-12 -29.5t-33 -11.5z" />
    <glyph glyph-name="ring" unicode="&#x2da;" 
d="M512 1223q-106 0 -165.5 55.5t-59.5 144.5t59.5 145t165.5 56t165.5 -56t59.5 -145t-59.5 -144.5t-165.5 -55.5zM512 1272q79 0 123.5 42t44.5 109t-44.5 109.5t-123.5 42.5t-123.5 -42.5t-44.5 -109.5t44.5 -109t123.5 -42z" />
    <glyph glyph-name="ogonek" unicode="&#x2db;" 
d="M532 -328q-71 0 -113 27.5t-42 83.5q0 57 54 108.5t167 108.5h49q-121 -68 -167 -116.5t-46 -100.5q0 -62 98 -62h115v-40z" />
    <glyph glyph-name="tilde" unicode="&#x2dc;" 
d="M629 1280q-37 0 -71.5 21t-56.5 46.5t-51 46.5t-55 21q-40 0 -62 -36.5t-22 -98.5h-45q0 91 33.5 137.5t95.5 46.5q37 0 71.5 -21t56.5 -46.5t51 -46.5t55 -21q40 0 62 36.5t22 98.5h45q0 -91 -33.5 -137.5t-95.5 -46.5z" />
    <glyph glyph-name="hungarumlaut" unicode="&#x2dd;" 
d="M274 1237h-45l156 270h70zM643 1237h-45l156 270h69z" />
    <glyph glyph-name="pi" unicode="&#x3c0;" horiz-adv-x="1212" 
d="M995 0h-57v1008h-664v-1008h-57v1008h-197v49h1172v-49h-197v-1008z" />
    <glyph glyph-name="endash" unicode="&#x2013;" horiz-adv-x="1040" 
d="M928 563h-815v49h815v-49z" />
    <glyph glyph-name="emdash" unicode="&#x2014;" horiz-adv-x="1736" 
d="M1624 563h-1511v49h1511v-49z" />
    <glyph glyph-name="quoteleft" unicode="&#x2018;" horiz-adv-x="303" 
d="M176 1051h-49v235q0 57 18 103t45 69l33 -14q-47 -68 -47 -158v-235z" />
    <glyph glyph-name="quoteright" unicode="&#x2019;" horiz-adv-x="303" 
d="M113 1051l-33 14q47 68 47 158v235h49v-235q0 -57 -18 -103t-45 -69z" />
    <glyph glyph-name="quotesinglbase" unicode="&#x201a;" horiz-adv-x="303" 
d="M113 -264l-33 14q47 68 47 158v235h49v-235q0 -57 -18 -103t-45 -69z" />
    <glyph glyph-name="quotedblleft" unicode="&#x201c;" horiz-adv-x="585" 
d="M176 1051h-49v235q0 57 18 103t45 69l33 -14q-47 -68 -47 -158v-235zM459 1051h-49v235q0 57 18 103t45 69l33 -14q-47 -68 -47 -158v-235z" />
    <glyph glyph-name="quotedblright" unicode="&#x201d;" horiz-adv-x="585" 
d="M113 1051l-33 14q47 68 47 158v235h49v-235q0 -57 -18 -103t-45 -69zM395 1051l-33 14q48 70 48 158v235h49v-235q0 -56 -18 -102.5t-46 -69.5z" />
    <glyph glyph-name="quotedblbase" unicode="&#x201e;" horiz-adv-x="585" 
d="M113 -264l-33 14q47 68 47 158v235h49v-235q0 -57 -18 -103t-45 -69zM395 -264l-33 14q48 70 48 158v235h49v-235q0 -56 -18 -102.5t-46 -69.5z" />
    <glyph glyph-name="dagger" unicode="&#x2020;" horiz-adv-x="1036" 
d="M547 -401h-58v1288l9 149l-150 -8h-235v49h235l150 -8l-9 150v239h58v-239l-8 -150l149 8h236v-49h-236l-149 8l8 -149v-1288z" />
    <glyph glyph-name="daggerdbl" unicode="&#x2021;" horiz-adv-x="1036" 
d="M547 -401h-58v239l9 150l-150 -8h-235v49h235l150 -9l-9 150v717l9 149l-150 -8h-235v49h235l150 -8l-9 150v239h58v-239l-8 -150l149 8h236v-49h-236l-149 8l8 -149v-717l-8 -150l149 9h236v-49h-236l-149 8l8 -150v-239z" />
    <glyph glyph-name="bullet" unicode="&#x2022;" horiz-adv-x="548" 
d="M274 430q-79 0 -125.5 45.5t-46.5 112.5t46.5 112t125.5 45t125.5 -45t46.5 -112t-46.5 -112.5t-125.5 -45.5z" />
    <glyph glyph-name="ellipsis" unicode="&#x2026;" horiz-adv-x="909" 
d="M152 -8q-23 0 -36.5 13t-13.5 32t13.5 32t36.5 13t36 -13t13 -32t-13 -32t-36 -13zM455 -8q-23 0 -36 13t-13 32t13 32t36 13t36 -13t13 -32t-13 -32t-36 -13zM758 -8q-23 0 -36 13t-13 32t13 32t36 13t36 -13t13 -32t-13 -32t-36 -13z" />
    <glyph glyph-name="perthousand" unicode="&#x2030;" horiz-adv-x="2555" 
d="M397 586q-166 0 -240.5 113.5t-74.5 328.5t74.5 328.5t240.5 113.5t241 -113.5t75 -328.5t-75 -328.5t-241 -113.5zM397 635q124 0 191 92t67 301t-67 301t-191 92t-191 -92t-67 -301t67 -301t191 -92zM530 0h-65l782 1458h66zM1380 -12q-166 0 -240.5 113.5t-74.5 328.5
t74.5 328.5t240.5 113.5t241 -113.5t75 -328.5t-75 -328.5t-241 -113.5zM1380 37q124 0 191 92t67 301t-67 301t-191 92t-191 -92t-67 -301t67 -301t191 -92zM2159 -12q-166 0 -241 113.5t-75 328.5t75 328.5t241 113.5t240.5 -113.5t74.5 -328.5t-74.5 -328.5
t-240.5 -113.5zM2159 37q124 0 191 92t67 301t-67 301t-191 92t-191 -92t-67 -301t67 -301t191 -92z" />
    <glyph glyph-name="guilsinglleft" unicode="&#x2039;" horiz-adv-x="540" 
d="M410 276l-279 287v49l279 287v-61l-248 -250l248 -250v-62z" />
    <glyph glyph-name="guilsinglright" unicode="&#x203a;" horiz-adv-x="540" 
d="M410 563l-279 -287v62l248 250l-248 250v61l279 -287v-49z" />
    <glyph glyph-name="fraction" unicode="&#x2044;" horiz-adv-x="270" 
d="M-223 0h-66l783 1458h65z" />
    <glyph glyph-name="Euro" unicode="&#x20ac;" horiz-adv-x="1155" 
d="M821 -20q-276 0 -437 144.5t-204 403.5h-98v50h90q-8 63 -8 151q0 87 8 152h-90v49h98q43 258 204 403.5t437 145.5q140 0 252 -39v-49q-107 39 -252 39q-245 0 -393 -129t-190 -371h618v-49h-627q-8 -65 -8 -152q0 -88 8 -151h627v-50h-618q42 -242 190 -370.5
t393 -128.5q145 0 252 39v-50q-109 -38 -252 -38z" />
    <glyph glyph-name="trademark" unicode="&#x2122;" horiz-adv-x="1163" 
d="M266 926h-57v483h-160v49h377v-49h-160v-483zM1032 926h-57v467l-184 -467h-58l-184 467v-467h-57v532h86l184 -467l184 467h86v-532z" />
    <glyph glyph-name="Omega" unicode="&#x2126;" horiz-adv-x="1478" 
d="M1376 0h-516v49q99 26 183 79t151.5 135t106 201.5t38.5 264.5q0 336 -154 518.5t-446 182.5t-446 -182.5t-154 -518.5q0 -145 38.5 -264.5t106 -201.5t151.5 -135t183 -79v-49h-516v49h398q-189 68 -303.5 246t-114.5 434q0 169 40 305t119 236t205.5 154.5t292.5 54.5
t292.5 -54.5t206 -154.5t119.5 -236t40 -305q0 -256 -114.5 -434t-303.5 -246h397v-49z" />
    <glyph glyph-name="partialdiff" unicode="&#x2202;" horiz-adv-x="1220" 
d="M500 -20q-190 0 -304 112.5t-114 296.5q0 261 152.5 397t408.5 136q159 0 270.5 -65.5t165.5 -168.5q11 56 11 232q0 146 -40.5 259t-128 182t-212.5 69q-152 0 -248.5 -74.5t-151.5 -229.5h-45q104 353 445 353q91 0 169 -34.5t139 -102t95.5 -176t34.5 -246.5
q0 -454 -171 -697t-476 -243zM500 29q221 0 369.5 148.5t199.5 453.5q-46 102 -159 171.5t-267 69.5q-235 0 -369.5 -124t-134.5 -359q0 -166 97.5 -263t263.5 -97z" />
    <glyph glyph-name="Delta" unicode="&#x2206;" horiz-adv-x="1351" 
d="M1311 0h-1270l602 1458h66zM1227 49l-551 1340l-551 -1340h1102z" />
    <glyph glyph-name="product" unicode="&#x220f;" horiz-adv-x="1085" 
d="M954 -401h-57v1810h-709v-1810h-57v1859h823v-1859z" />
    <glyph glyph-name="summation" unicode="&#x2211;" horiz-adv-x="1028" 
d="M946 -401h-864v49l643 880l-643 881v49h864v-49h-801l629 -864v-33l-629 -864h801v-49z" />
    <glyph glyph-name="minus" unicode="&#x2212;" horiz-adv-x="1036" 
d="M924 705h-811v49h811v-49z" />
    <glyph glyph-name="radical" unicode="&#x221a;" horiz-adv-x="1400" 
d="M631 -401h-66l-315 802h-209v50h248l309 -791l702 1798h60z" />
    <glyph glyph-name="infinity" unicode="&#x221e;" horiz-adv-x="1536" 
d="M1454 729q0 -153 -86 -234t-244 -81q-100 0 -180 55t-176 209q-96 -153 -176.5 -208.5t-179.5 -55.5q-158 0 -244 81t-86 234t86 234t244 81q98 0 179 -56.5t177 -209.5q97 154 176.5 210t179.5 56q158 0 244 -81t86 -234zM1397 729q0 121 -73.5 193.5t-199.5 72.5
q-92 0 -168.5 -61.5t-160.5 -204.5q84 -143 160.5 -204.5t168.5 -61.5q126 0 199.5 72.5t73.5 193.5zM139 729q0 -121 73.5 -193.5t199.5 -72.5q92 0 168.5 61.5t160.5 204.5q-84 143 -160.5 204.5t-168.5 61.5q-126 0 -199.5 -72.5t-73.5 -193.5z" />
    <glyph glyph-name="integral" unicode="&#x222b;" horiz-adv-x="712" 
d="M156 -410q-32 0 -115 9v47l115 -6q95 0 133.5 44t38.5 140v1409q0 119 53 176t176 57q41 0 115 -8v-47l-115 6q-95 0 -133.5 -44t-38.5 -140v-1409q0 -119 -53 -176.5t-176 -57.5z" />
    <glyph glyph-name="approxequal" unicode="&#x2248;" horiz-adv-x="1036" 
d="M743 424q-49 0 -98.5 20t-91 48t-82.5 56t-87.5 48t-90.5 20q-59 0 -99 -49.5t-40 -142.5h-41q0 107 46 174.5t134 67.5q49 0 98.5 -20t91 -48t82.5 -56.5t87.5 -48.5t90.5 -20q59 0 99.5 50t40.5 143h41q0 -107 -46.5 -174.5t-134.5 -67.5zM743 793q-49 0 -98.5 20
t-91 48t-82.5 56t-87.5 48t-90.5 20q-59 0 -99 -49.5t-40 -142.5h-41q0 107 46 174t134 67q49 0 98.5 -20t91 -48t82.5 -56t87.5 -48t90.5 -20q60 0 100 49.5t40 142.5h41q0 -107 -46.5 -174t-134.5 -67z" />
    <glyph glyph-name="notequal" unicode="&#x2260;" horiz-adv-x="1036" 
d="M403 317h-49l68 203h-309v49h325l109 320h-434v49h450l70 203h49l-70 -203h312v-49h-328l-109 -320h437v-49h-453z" />
    <glyph glyph-name="lessequal" unicode="&#x2264;" horiz-adv-x="1036" 
d="M924 0h-811v49h811v-49zM924 336l-811 369v49l811 368v-53l-756 -340l756 -340v-53z" />
    <glyph glyph-name="greaterequal" unicode="&#x2265;" horiz-adv-x="1036" 
d="M924 0h-811v49h811v-49zM924 705l-811 -369v53l755 340l-755 340v53l811 -368v-49z" />
    <glyph glyph-name="lozenge" unicode="&#x25ca;" horiz-adv-x="983" 
d="M524 0h-65l-367 729l367 729h65l367 -729zM492 61l333 668l-333 668l-334 -668z" />
    </font>
</defs>
</svg>
