<?xml version="1.0" standalone="no"?>
<!DOCTYPE svg PUBLIC "-//W3C//DTD SVG 1.1//EN" "http://www.w3.org/Graphics/SVG/1.1/DTD/svg11.dtd" >
<svg xmlns="http://www.w3.org/2000/svg" xmlns:xlink="http://www.w3.org/1999/xlink" version="1.1">
<metadata>
Created by FontForge 20201107 at Sun Mar  2 12:56:05 2025
 By 
Copyright (c) 2021 by Anugrah Pasau
</metadata>
<defs>
<font id="CreatoDisplay-ExtraBoldItalic" horiz-adv-x="1155" >
  <font-face 
    font-family="Creato Display ExtraBold"
    font-weight="800"
    font-style="italic"
    font-stretch="normal"
    units-per-em="2048"
    panose-1="2 11 5 3 0 0 0 9 0 4"
    ascent="1647"
    descent="-401"
    x-height="1057"
    cap-height="1458"
    bbox="-438 -422 2599 1937"
    underline-thickness="102"
    underline-position="-204"
    slope="-10"
    unicode-range="U+000D-25CA"
  />
<missing-glyph horiz-adv-x="1146" 
d="M862 0h-762l256 1458h762zM813 49l240 1360h-647l-240 -1360h647z" />
    <glyph glyph-name=".notdef" horiz-adv-x="1146" 
d="M862 0h-762l256 1458h762zM813 49l240 1360h-647l-240 -1360h647z" />
    <glyph glyph-name=".null" horiz-adv-x="0" 
 />
    <glyph glyph-name="nonmarkingreturn" horiz-adv-x="682" 
 />
    <glyph glyph-name="NULL" horiz-adv-x="0" 
 />
    <glyph glyph-name="NULL" horiz-adv-x="0" 
 />
    <glyph glyph-name="CR" unicode="&#xd;" horiz-adv-x="512" 
 />
    <glyph glyph-name="space" unicode=" " horiz-adv-x="512" 
 />
    <glyph glyph-name="exclam" unicode="!" horiz-adv-x="493" 
d="M158 -18q-77 0 -123.5 40.5t-46.5 100.5q0 87 56 139.5t155 52.5q77 0 123.5 -40.5t46.5 -100.5q0 -87 -55.5 -139.5t-155.5 -52.5zM315 461h-161l10 534l82 463h329l-81 -463z" />
    <glyph glyph-name="quotedbl" unicode="&#x22;" horiz-adv-x="946" 
d="M416 836h-230l60 622h329zM868 836h-227l57 622h330z" />
    <glyph glyph-name="numbersign" unicode="#" horiz-adv-x="1421" 
d="M100 588h215l99 282h-215l82 236h217l123 352h262l-123 -352h241l123 352h262l-122 -352h213l-82 -236h-215l-99 -282h215l-84 -236h-215l-123 -352h-262l123 352h-241l-123 -352h-262l122 352h-215zM676 870l-98 -282h241l99 282h-242z" />
    <glyph glyph-name="dollar" unicode="$" horiz-adv-x="1339" 
d="M600 -238h-131l39 222q-233 17 -353 125t-120 299q0 21 4 67h317q0 -208 195 -244l67 381l-77 13q-186 26 -277.5 113.5t-91.5 242.5q0 227 159 358t439 140l39 217h131l-39 -221q210 -22 324 -132.5t114 -285.5q0 -35 -2 -53h-307q0 181 -174 221l-61 -355l77 -10
q192 -29 299 -123.5t107 -255.5q0 -230 -164.5 -362t-476.5 -139zM948 438q0 63 -45.5 99t-157.5 57l-65 -369q123 9 195.5 66.5t72.5 146.5zM502 1030q0 -62 35 -93t129 -48l61 342q-104 -11 -164.5 -63t-60.5 -138z" />
    <glyph glyph-name="percent" unicode="%" horiz-adv-x="1839" 
d="M453 754q156 0 204 264q13 66 13 123q0 162 -125 162q-154 0 -205 -265q-10 -64 -10 -123q0 -161 123 -161zM438 586q-149 0 -231 82t-82 239q0 47 12 133q38 213 139 321.5t285 108.5q148 0 230.5 -82.5t82.5 -238.5q0 -53 -14 -133q-37 -212 -138 -321t-284 -109z
M528 0h-184l1038 1458h185zM1366 156q154 0 205 264q12 76 12 123q0 162 -125 162q-154 0 -205 -265q-10 -64 -10 -123q0 -161 123 -161zM1352 -12q-150 0 -232 82t-82 239q0 40 13 133q38 212 138.5 321t283.5 109q150 0 232.5 -82.5t82.5 -238.5q0 -53 -14 -133
q-37 -212 -138 -321t-284 -109z" />
    <glyph glyph-name="ampersand" unicode="&#x26;" horiz-adv-x="1458" 
d="M1026 0l-74 92q-198 -112 -436 -112q-239 0 -365 100t-126 266q0 155 83 259t285 181q-84 128 -84 244q0 195 136.5 322t351.5 127q190 0 298.5 -91.5t108.5 -230.5q0 -157 -107.5 -253.5t-326.5 -170.5l236 -291q84 111 129 265h280q-86 -274 -258 -455l205 -252h-336z
M557 215q131 0 248 57l-299 369q-168 -83 -168 -252q0 -77 61.5 -125.5t157.5 -48.5zM606 1036q0 -74 53 -159q124 46 186 110t62 158q0 55 -33 85t-92 30q-84 0 -130 -64t-46 -160z" />
    <glyph glyph-name="quotesingle" unicode="'" horiz-adv-x="493" 
d="M416 836h-230l60 622h329z" />
    <glyph glyph-name="parenleft" unicode="(" horiz-adv-x="581" 
d="M70 344q0 737 465 1258h231q-148 -198 -244 -424.5t-134 -428t-38 -405.5q0 -214 16 -380.5t48 -364.5h-232q-112 373 -112 745z" />
    <glyph glyph-name="parenright" unicode=")" horiz-adv-x="581" 
d="M537 856q0 -736 -465 -1257h-232q148 199 244 424.5t134 427t38 405.5q0 216 -16 383.5t-47 362.5h231q113 -376 113 -746z" />
    <glyph glyph-name="asterisk" unicode="*" horiz-adv-x="897" 
d="M618 649l-106 240l-190 -240l-162 133l223 219l-264 68l108 213l242 -106l31 282h225l-70 -282l281 106l33 -213l-287 -68l145 -219z" />
    <glyph glyph-name="plus" unicode="+" horiz-adv-x="1101" 
d="M375 258l61 352h-342l41 238h344l64 352h254l-64 -352h344l-41 -238h-346l-61 -352h-254z" />
    <glyph glyph-name="comma" unicode="," horiz-adv-x="493" 
d="M53 -311l-147 67q57 74 83.5 146t49.5 200l35 209h268l-35 -209q-26 -148 -83.5 -246t-170.5 -167z" />
    <glyph glyph-name="hyphen" unicode="-" horiz-adv-x="757" 
d="M668 469h-598l41 238h598z" />
    <glyph glyph-name="period" unicode="." horiz-adv-x="493" 
d="M158 -18q-77 0 -123.5 40.5t-46.5 100.5q0 87 56 139.5t155 52.5q77 0 123.5 -40.5t46.5 -100.5q0 -87 -55.5 -139.5t-155.5 -52.5z" />
    <glyph glyph-name="slash" unicode="/" horiz-adv-x="817" 
d="M201 0h-293l780 1458h293z" />
    <glyph glyph-name="zero" unicode="0" horiz-adv-x="1327" 
d="M594 -20q-253 0 -392 139.5t-139 402.5q0 78 25 228q32 177 87 309t140.5 227.5t207.5 144t280 48.5q253 0 391.5 -140t138.5 -403q0 -83 -24 -227q-32 -177 -87 -309t-140.5 -227.5t-207.5 -144t-280 -48.5zM614 231q297 0 381 478q25 133 25 227q0 291 -238 291
q-297 0 -381 -477q-24 -128 -24 -228q0 -291 237 -291z" />
    <glyph glyph-name="one" unicode="1" horiz-adv-x="804" 
d="M606 0h-313l170 973q-38 -20 -126.5 -31.5t-146.5 -11.5h-69l41 229q172 7 279 78.5t173 220.5h248z" />
    <glyph glyph-name="two" unicode="2" horiz-adv-x="1204" 
d="M1065 0h-1106l21 137q19 125 53.5 213t94.5 156t142.5 115.5t204.5 89.5l215 73q244 81 244 269q0 83 -56.5 128.5t-146.5 45.5q-117 0 -186 -64.5t-94 -199.5h-291q28 249 178 382.5t420 133.5q228 0 358.5 -110t130.5 -298q0 -192 -102.5 -307t-345.5 -197l-236 -80
q-107 -37 -167 -92.5t-81 -142.5h793z" />
    <glyph glyph-name="three" unicode="3" horiz-adv-x="1253" 
d="M557 -20q-241 0 -379.5 110t-138.5 322q0 40 6 84h291q0 -141 63.5 -203t194.5 -62t209 61.5t78 178.5q0 81 -50 117.5t-157 36.5h-168l43 237h143q138 0 206.5 47t68.5 148q0 79 -61 124.5t-169 45.5q-118 0 -193 -56t-98 -167h-290q23 225 170.5 350t439.5 125
q231 0 372.5 -107.5t141.5 -271.5q0 -276 -299 -350q98 -28 152.5 -97t54.5 -168q0 -244 -161.5 -374.5t-469.5 -130.5z" />
    <glyph glyph-name="four" unicode="4" horiz-adv-x="1286" 
d="M958 0h-303l60 340h-697l52 295l772 823h372l-151 -864h188l-45 -254h-188zM760 594l98 557l-520 -557h422z" />
    <glyph glyph-name="five" unicode="5" horiz-adv-x="1232" 
d="M547 -20q-231 0 -364 109t-134 308h307q6 -79 63 -130.5t159 -51.5q136 0 212 86t76 225q0 101 -58 156t-161 55q-188 0 -262 -164h-297l279 885h901l-45 -252h-648l-102 -325q99 77 248 77q215 0 337 -113t122 -292q0 -123 -38.5 -226t-114.5 -181t-198.5 -122
t-281.5 -44z" />
    <glyph glyph-name="six" unicode="6" horiz-adv-x="1261" 
d="M575 -20q-247 0 -378 130t-131 373q0 206 49.5 387t140 316.5t227.5 214t303 78.5q225 0 352.5 -99.5t131.5 -302.5h-291q-6 77 -54 121.5t-141 44.5q-136 0 -226 -106.5t-144 -315.5q121 137 336 137t336.5 -112.5t121.5 -292.5q0 -123 -38.5 -226t-114.5 -181
t-198.5 -122t-281.5 -44zM600 215q138 0 216.5 86.5t78.5 224.5q0 98 -58.5 154.5t-164.5 56.5q-137 0 -216 -86t-79 -225q0 -98 59 -154.5t164 -56.5z" />
    <glyph glyph-name="seven" unicode="7" horiz-adv-x="1056" 
d="M504 0h-326q130 741 696 1206h-727l46 252h1003l-45 -252q-203 -180 -322 -339.5t-195.5 -362t-129.5 -504.5z" />
    <glyph glyph-name="eight" unicode="8" horiz-adv-x="1257" 
d="M559 -20q-248 0 -392 106t-144 270q0 166 93 265t269 129q-94 38 -149.5 108.5t-55.5 163.5q0 99 35.5 181t105.5 144.5t184.5 97t262.5 34.5q232 0 366 -105t134 -266q0 -148 -80 -233t-234 -125q109 -36 174.5 -109t65.5 -182q0 -222 -155.5 -350.5t-479.5 -128.5z
M580 215q126 0 213.5 61t87.5 168q0 83 -64.5 132t-173.5 49q-126 0 -213.5 -60.5t-87.5 -167.5q0 -83 64.5 -132.5t173.5 -49.5zM692 862q115 0 196 55.5t81 155.5q0 76 -60 123t-157 47q-115 0 -195 -55.5t-80 -157.5q0 -76 59 -122t156 -46z" />
    <glyph glyph-name="nine" unicode="9" horiz-adv-x="1261" 
d="M586 500q-215 0 -337 113t-122 292q0 123 38.5 226t114.5 181.5t198 122.5t280 44q248 0 380 -130t132 -374q0 -164 -31 -314t-92.5 -274t-147.5 -215t-201.5 -141.5t-248.5 -50.5q-225 0 -352 99t-131 302h290q6 -77 54 -121.5t141 -44.5q136 0 226.5 106.5t144.5 315.5
q-121 -137 -336 -137zM664 721q137 0 214.5 86t77.5 225q0 98 -58.5 154.5t-164.5 56.5q-137 0 -215 -86.5t-78 -224.5q0 -98 59 -154.5t165 -56.5z" />
    <glyph glyph-name="colon" unicode=":" horiz-adv-x="493" 
d="M158 -18q-77 0 -123.5 40.5t-46.5 100.5q0 87 56 139.5t155 52.5q77 0 123.5 -40.5t46.5 -100.5q0 -87 -55.5 -139.5t-155.5 -52.5zM283 688q-77 0 -123.5 40.5t-46.5 100.5q0 87 55.5 140t155.5 53q77 0 123.5 -40.5t46.5 -100.5q0 -87 -55.5 -140t-155.5 -53z" />
    <glyph glyph-name="semicolon" unicode=";" horiz-adv-x="493" 
d="M53 -311l-147 67q57 74 83.5 146t49.5 200l35 209h268l-35 -209q-26 -148 -83.5 -246t-170.5 -167zM283 688q-77 0 -123.5 40.5t-46.5 100.5q0 87 55.5 140t155.5 53q77 0 123.5 -40.5t46.5 -100.5q0 -87 -55.5 -140t-155.5 -53z" />
    <glyph glyph-name="less" unicode="&#x3c;" horiz-adv-x="1101" 
d="M969 225l-875 385l41 238l1012 385l-49 -285l-686 -229l604 -230z" />
    <glyph glyph-name="equal" unicode="=" horiz-adv-x="1101" 
d="M999 410h-942l41 223h942zM1073 825h-942l41 224h942z" />
    <glyph glyph-name="greater" unicode="&#x3e;" horiz-adv-x="1101" 
d="M1036 610l-1011 -385l49 285l686 229l-604 230l47 264l874 -385z" />
    <glyph glyph-name="question" unicode="?" horiz-adv-x="1130" 
d="M457 -18q-77 0 -123.5 40.5t-46.5 100.5q0 87 55.5 139.5t155.5 52.5q77 0 123.5 -40.5t46.5 -100.5q0 -87 -56 -139.5t-155 -52.5zM664 461h-263l13 65q15 82 48 144t72.5 97.5t84 63.5t85.5 49.5t74.5 46.5t53.5 65t20 95q0 65 -50.5 102.5t-123.5 37.5
q-103 0 -160.5 -54.5t-81.5 -168.5h-303q24 228 168.5 351.5t403.5 123.5q220 0 348.5 -102.5t128.5 -264.5q0 -86 -25.5 -152.5t-67.5 -107.5t-92.5 -72.5t-103.5 -56.5t-98 -50t-77.5 -62t-41.5 -85z" />
    <glyph glyph-name="at" unicode="@" horiz-adv-x="1880" 
d="M813 164q-157 0 -242.5 99.5t-85.5 252.5t52.5 274.5t155.5 194t241 72.5q186 0 240 -144l22 129h254l-98 -567q-6 -21 -6 -39q0 -80 86 -80q97 0 159 112t62 327q0 225 -153.5 362t-448.5 137q-187 0 -337.5 -59.5t-249.5 -166t-151.5 -255t-52.5 -326.5
q0 -271 154 -416t442 -145q120 0 216 21.5t210 68.5l-33 -186q-108 -45 -204.5 -66.5t-208.5 -21.5q-229 0 -407 88.5t-277 250t-99 370.5q0 317 125 550t356 355.5t543 122.5q148 0 276 -37t219.5 -100.5t157.5 -146.5t98 -176t32 -188q0 -325 -134 -496t-378 -171
q-95 0 -164.5 35t-100.5 104q-93 -139 -270 -139zM891 356q104 0 168.5 97t64.5 235q0 86 -38 131t-109 45q-104 0 -169 -97t-65 -235q0 -86 38.5 -131t109.5 -45z" />
    <glyph glyph-name="A" unicode="A" horiz-adv-x="1482" 
d="M1382 0h-319l-47 270h-604l-142 -270h-354l786 1458h406zM979 522l-109 641l-333 -641h442z" />
    <glyph glyph-name="B" unicode="B" horiz-adv-x="1411" 
d="M1352 473q0 -243 -146 -358t-434 -115h-756l256 1458h660q235 0 365 -83t130 -251q0 -164 -75.5 -250t-235.5 -124q113 -30 174.5 -106.5t61.5 -170.5zM1022 473q0 76 -48.5 113t-154.5 37h-362l-68 -377h408q110 0 167.5 61t57.5 166zM1098 1073q0 72 -51.5 105.5
t-163.5 33.5h-326l-61 -348h376q106 0 166 55t60 154z" />
    <glyph glyph-name="C" unicode="C" horiz-adv-x="1525" 
d="M719 -20q-299 0 -472 161t-173 430q0 263 101.5 468t296.5 322.5t456 117.5q97 0 186.5 -20t167.5 -61t136 -100t91 -142t33 -181q0 -22 -4 -62h-309q0 130 -88 213.5t-236 83.5q-118 0 -214.5 -49t-158.5 -133.5t-95.5 -195.5t-33.5 -236q0 -161 92 -254.5t246 -93.5
q159 0 269.5 83.5t150.5 225.5h316q-24 -183 -125.5 -313.5t-263 -197t-369.5 -66.5z" />
    <glyph glyph-name="D" unicode="D" horiz-adv-x="1492" 
d="M1489 887q0 -203 -53.5 -365.5t-158.5 -279t-267.5 -179.5t-372.5 -63h-621l256 1458h568q312 0 480.5 -148t168.5 -423zM1159 862q0 161 -86.5 249.5t-236.5 88.5h-281l-166 -942h287q153 0 264.5 82.5t165 217.5t53.5 304z" />
    <glyph glyph-name="E" unicode="E" horiz-adv-x="1257" 
d="M1110 0h-1094l256 1458h1094l-47 -268h-766l-55 -320h700l-47 -254h-698l-62 -348h764z" />
    <glyph glyph-name="F" unicode="F" horiz-adv-x="1228" 
d="M346 0h-330l256 1458h1094l-47 -268h-766l-55 -320h700l-47 -254h-698z" />
    <glyph glyph-name="G" unicode="G" horiz-adv-x="1562" 
d="M686 -20q-286 0 -449 160.5t-163 430.5q0 263 101.5 468t296.5 322.5t456 117.5q144 0 262 -36.5t193.5 -99t116 -143t40.5 -170.5q0 -33 -6 -63h-297q-13 107 -98 175t-234 68q-118 0 -214.5 -49t-158.5 -133.5t-95.5 -195.5t-33.5 -236q0 -161 92 -254.5t246 -93.5
q173 0 272 87t144 255h-317l37 223h647l-142 -813h-235l6 215q-80 -123 -185.5 -179t-281.5 -56z" />
    <glyph glyph-name="H" unicode="H" horiz-adv-x="1495" 
d="M1294 0h-329l104 602h-618l-105 -602h-330l256 1458h330l-102 -573h620l101 573h329z" />
    <glyph glyph-name="I" unicode="I" horiz-adv-x="544" 
d="M346 0h-330l256 1458h330z" />
    <glyph glyph-name="J" unicode="J" horiz-adv-x="1183" 
d="M502 -20q-234 0 -353.5 100t-119.5 291q0 51 14 137l8 45h314l-9 -45q-10 -65 -10 -100q0 -90 43.5 -125t128.5 -35q102 0 160 56t86 208l166 946h330l-168 -946q-24 -140 -64 -236.5t-109 -164.5t-171 -99.5t-246 -31.5z" />
    <glyph glyph-name="K" unicode="K" horiz-adv-x="1409" 
d="M1309 0h-365l-301 623l-231 -211l-72 -412h-330l256 1458h330l-111 -629l660 629h399l-655 -604z" />
    <glyph glyph-name="L" unicode="L" horiz-adv-x="1142" 
d="M1024 0h-1008l256 1458h330l-211 -1190h678z" />
    <glyph glyph-name="M" unicode="M" horiz-adv-x="1859" 
d="M1659 0h-313l204 1163l-575 -1163h-277l-166 1163l-202 -1163h-314l256 1458h506l135 -956l471 956h531z" />
    <glyph glyph-name="N" unicode="N" horiz-adv-x="1495" 
d="M1294 0h-350l-438 1008l-176 -1008h-314l256 1458h351l436 -1007l178 1007h313z" />
    <glyph glyph-name="O" unicode="O" horiz-adv-x="1576" 
d="M719 -20q-299 0 -472 161t-173 430q0 263 101.5 468t296.5 322.5t456 117.5q296 0 470.5 -161.5t174.5 -430.5q0 -198 -57 -364t-163.5 -287t-269 -188.5t-364.5 -67.5zM741 248q118 0 214.5 49t158.5 133.5t95.5 195.5t33.5 236q0 161 -92 254.5t-246 93.5
q-118 0 -214.5 -49t-158.5 -133.5t-95.5 -195.5t-33.5 -236q0 -161 92 -254.5t246 -93.5z" />
    <glyph glyph-name="P" unicode="P" horiz-adv-x="1349" 
d="M1384 1057q0 -263 -156.5 -406t-443.5 -143h-350l-88 -508h-330l256 1458h625q225 0 356 -107.5t131 -293.5zM1055 1030q0 95 -61.5 138.5t-188.5 43.5h-246l-82 -458h299q138 0 208.5 70.5t70.5 205.5z" />
    <glyph glyph-name="Q" unicode="Q" horiz-adv-x="1576" 
d="M1403 -164h-264l-107 193q-149 -49 -313 -49q-299 0 -472 161t-173 430q0 263 101.5 468t296.5 322.5t456 117.5q296 0 470.5 -161.5t174.5 -430.5q0 -246 -86 -440t-250 -314zM741 248q85 0 156 24l-199 363h265l127 -234q74 86 113.5 205.5t39.5 255.5q0 161 -92 254.5
t-246 93.5q-118 0 -214.5 -49t-158.5 -133.5t-95.5 -195.5t-33.5 -236q0 -161 92 -254.5t246 -93.5z" />
    <glyph glyph-name="R" unicode="R" horiz-adv-x="1370" 
d="M1391 1112q0 -186 -78.5 -283.5t-247.5 -146.5q192 -43 192 -233q0 -33 -6 -74l-39 -228q-8 -47 -8 -96q0 -37 4 -51h-317q-14 44 -14 88q0 24 6 59l39 215q6 37 6 70q0 74 -46 105.5t-141 31.5h-297l-98 -569h-330l256 1458h658q218 0 339.5 -96t121.5 -250zM1059 1061
q0 83 -58 117t-186 34h-256l-72 -397h310q136 0 199 60.5t63 185.5z" />
    <glyph glyph-name="S" unicode="S" horiz-adv-x="1339" 
d="M600 -20q-278 0 -421.5 109t-143.5 319q0 21 4 67h317q0 -250 281 -250q141 0 226 58t85 155q0 69 -53 105.5t-188 56.5l-166 25q-186 26 -277.5 113.5t-91.5 242.5q0 235 170 366.5t467 131.5q253 0 391.5 -113.5t138.5 -308.5q0 -35 -2 -53h-307q0 108 -65.5 168.5
t-192.5 60.5q-121 0 -195.5 -54t-74.5 -149q0 -67 42.5 -98.5t160.5 -48.5l167 -23q192 -29 299 -123.5t107 -255.5q0 -237 -174 -369t-504 -132z" />
    <glyph glyph-name="T" unicode="T" horiz-adv-x="1249" 
d="M696 0h-329l208 1190h-432l47 268h1196l-47 -268h-434z" />
    <glyph glyph-name="U" unicode="U" horiz-adv-x="1454" 
d="M657 -20q-279 0 -428 113t-149 331q0 62 12 129l160 905h330l-154 -872q-10 -46 -10 -101q0 -237 262 -237q157 0 246.5 77t120.5 261l153 872h330l-160 -905q-56 -314 -223 -443.5t-490 -129.5z" />
    <glyph glyph-name="V" unicode="V" horiz-adv-x="1482" 
d="M852 0h-406l-274 1458h336l180 -1130l580 1130h370z" />
    <glyph glyph-name="W" unicode="W" horiz-adv-x="2093" 
d="M1587 0h-389l-61 999l-412 -999h-403l-150 1458h348l72 -1063l442 1063h338l68 -1063l446 1063h363z" />
    <glyph glyph-name="X" unicode="X" horiz-adv-x="1441" 
d="M1341 0h-366l-242 496l-416 -496h-401l631 743l-354 715h366l225 -467l392 467h401l-604 -715z" />
    <glyph glyph-name="Y" unicode="Y" horiz-adv-x="1441" 
d="M465 0l100 578l-393 880h363l231 -571l434 571h397l-702 -880l-102 -578h-328z" />
    <glyph glyph-name="Z" unicode="Z" horiz-adv-x="1232" 
d="M1075 0h-1102l37 223l826 967h-633l47 268h1061l-39 -223l-828 -967h676z" />
    <glyph glyph-name="bracketleft" unicode="[" horiz-adv-x="741" 
d="M553 -401h-608l352 2003h608l-39 -220h-327l-275 -1564h328z" />
    <glyph glyph-name="backslash" unicode="\" horiz-adv-x="817" 
d="M725 0h-268l-293 1458h268z" />
    <glyph glyph-name="bracketright" unicode="]" horiz-adv-x="741" 
d="M469 -401h-606l39 219h325l277 1564h-328l37 220h608z" />
    <glyph glyph-name="asciicircum" unicode="^" horiz-adv-x="903" 
d="M926 799h-273l-88 366l-219 -366h-274l426 659h235z" />
    <glyph glyph-name="underscore" unicode="_" horiz-adv-x="1024" 
d="M877 -309h-1022l34 207h1022z" />
    <glyph glyph-name="grave" unicode="`" horiz-adv-x="1024" 
d="M877 1188h-238l-223 319h319z" />
    <glyph glyph-name="a" unicode="a" 
d="M358 -20q-165 0 -257.5 78t-92.5 212q0 161 104 244.5t304 101.5l248 21q124 10 124 100q0 57 -42 89t-111 32q-82 0 -125 -35.5t-57 -105.5h-312q31 360 521 360q201 0 319.5 -79.5t118.5 -231.5q0 -45 -8 -86l-72 -410q-25 -137 -25 -202q0 -42 11 -68h-285
q-27 40 -27 88q0 7 4 43q-64 -79 -141.5 -115t-198.5 -36zM467 188q105 0 178 66t88 166l10 65q-17 -22 -112 -32l-135 -11q-174 -15 -174 -135q0 -55 38 -87t107 -32z" />
    <glyph glyph-name="b" unicode="b" horiz-adv-x="1224" 
d="M633 -20q-240 0 -307 198l-31 -178h-297l256 1458h313l-92 -526q48 67 126 106t179 39q193 0 298.5 -122.5t105.5 -311.5q0 -187 -64 -336t-191 -238t-296 -89zM580 215q86 0 153 56.5t102 149t35 202.5q0 107 -48 163t-136 56q-86 0 -153.5 -56.5t-102.5 -149
t-35 -202.5q0 -106 48.5 -162.5t136.5 -56.5z" />
    <glyph glyph-name="c" unicode="c" horiz-adv-x="1142" 
d="M522 -20q-221 0 -351 116.5t-130 317.5q0 310 170.5 486.5t462.5 176.5q222 0 344.5 -106t122.5 -262q0 -20 -8 -66h-291q0 82 -48.5 140.5t-142.5 58.5q-93 0 -162 -57t-102 -148t-33 -203q0 -105 51.5 -162t139.5 -57q89 0 159 51t101 156h293q-36 -204 -179 -323
t-397 -119z" />
    <glyph glyph-name="d" unicode="d" horiz-adv-x="1224" 
d="M444 -20q-193 0 -298 122.5t-105 311.5q0 187 64 336t191 238t296 89q110 0 185.5 -44.5t109.5 -129.5l98 555h313l-256 -1458h-297l27 150q-115 -170 -328 -170zM539 215q86 0 153 56.5t102 149t35 202.5q0 107 -48 163t-136 56q-86 0 -153.5 -56.5t-102.5 -149
t-35 -202.5q0 -106 48.5 -162.5t136.5 -56.5z" />
    <glyph glyph-name="e" unicode="e" horiz-adv-x="1179" 
d="M526 -20q-230 0 -357.5 116.5t-127.5 317.5q0 303 172.5 483t452.5 180q221 0 347 -120.5t126 -313.5q0 -92 -29 -184h-762q-2 -20 -2 -60q0 -102 52 -156.5t149 -54.5q167 0 237 152h291q-49 -169 -187.5 -264.5t-361.5 -95.5zM645 868q-96 0 -163.5 -53.5t-98.5 -155.5
h451q0 100 -47.5 154.5t-141.5 54.5z" />
    <glyph glyph-name="f" unicode="f" horiz-adv-x="749" 
d="M399 0h-311l145 838h-157l37 219h161l13 73q31 181 116 260.5t263 79.5q65 0 206 -12l-36 -209h-111q-57 0 -86.5 -26.5t-38.5 -83.5l-14 -82h215l-37 -219h-217z" />
    <glyph glyph-name="g" unicode="g" horiz-adv-x="1224" 
d="M455 41q-187 0 -296.5 114.5t-109.5 288.5q0 284 145 458.5t398 174.5q236 0 307 -198l31 178h297l-170 -965q-48 -274 -199.5 -394t-411.5 -120q-94 0 -172.5 19t-139.5 58t-95.5 105t-34.5 154q0 33 2 49h285q0 -88 47.5 -135t142.5 -47q211 0 248 223l31 170
q-46 -58 -125.5 -95.5t-179.5 -37.5zM543 260q84 0 150.5 56t101 145.5t34.5 191.5q0 95 -48 150t-134 55q-83 0 -149.5 -56t-101 -145.5t-34.5 -191.5q0 -94 48.5 -149.5t132.5 -55.5z" />
    <glyph glyph-name="h" unicode="h" 
d="M973 0h-314l113 637q4 36 4 55q0 133 -127 133q-92 0 -154.5 -64t-82.5 -183l-101 -578h-313l256 1458h313l-92 -522q111 141 297 141q157 0 244.5 -76.5t87.5 -216.5q0 -28 -8 -86z" />
    <glyph glyph-name="i" unicode="i" horiz-adv-x="493" 
d="M311 0h-313l184 1057h314zM371 1190q-73 0 -116.5 38t-43.5 95q0 81 53 131.5t148 50.5q73 0 116 -38t43 -95q0 -82 -52.5 -132t-147.5 -50z" />
    <glyph glyph-name="j" unicode="j" horiz-adv-x="493" 
d="M-231 -401l38 219h64q49 0 76.5 26t36.5 82l198 1131h314l-199 -1131q-59 -327 -354 -327h-174zM371 1190q-73 0 -116.5 38t-43.5 95q0 81 53 131.5t148 50.5q73 0 116 -38t43 -95q0 -82 -52.5 -132t-147.5 -50z" />
    <glyph glyph-name="k" unicode="k" horiz-adv-x="1187" 
d="M1087 0h-344l-206 434l-179 -153l-47 -281h-313l256 1458h313l-141 -803l446 402h379l-477 -416z" />
    <glyph glyph-name="l" unicode="l" horiz-adv-x="493" 
d="M311 0h-313l256 1458h313z" />
    <glyph glyph-name="m" unicode="m" horiz-adv-x="1681" 
d="M1499 0h-301l115 645q4 23 4 60q0 120 -105 120q-77 0 -134 -58t-74 -161l-107 -606h-299l113 645q6 35 6 60q0 120 -105 120q-77 0 -134.5 -58t-74.5 -161l-106 -606h-299l184 1057h297l-24 -146q49 77 121.5 121.5t158.5 44.5q224 0 285 -172q117 172 315 172
q135 0 215 -78t80 -215q0 -45 -8 -86z" />
    <glyph glyph-name="n" unicode="n" 
d="M973 0h-314l113 637q4 36 4 55q0 133 -127 133q-92 0 -154.5 -64t-82.5 -183l-101 -578h-313l184 1057h297l-24 -146q116 166 317 166q157 0 244.5 -76.5t87.5 -216.5q0 -28 -8 -86z" />
    <glyph glyph-name="o" unicode="o" horiz-adv-x="1204" 
d="M549 215q88 0 157.5 56.5t106.5 149t37 202.5q0 106 -52 162.5t-143 56.5q-88 0 -157.5 -56.5t-106.5 -149t-37 -202.5q0 -106 52 -162.5t143 -56.5zM526 -20q-224 0 -354.5 116t-130.5 318q0 307 175.5 485t461.5 178q224 0 354.5 -116t130.5 -318q0 -307 -175.5 -485
t-461.5 -178z" />
    <glyph glyph-name="p" unicode="p" horiz-adv-x="1224" 
d="M633 -20q-110 0 -185.5 44.5t-109.5 129.5l-98 -555h-314l256 1458h297l-26 -150q115 170 327 170q193 0 298.5 -122.5t105.5 -311.5q0 -187 -64 -336t-191 -238t-296 -89zM580 215q86 0 153 56.5t102 149t35 202.5q0 107 -48 163t-136 56q-86 0 -153.5 -56.5
t-102.5 -149t-35 -202.5q0 -106 48.5 -162.5t136.5 -56.5z" />
    <glyph glyph-name="q" unicode="q" horiz-adv-x="1224" 
d="M444 -20q-193 0 -298 122.5t-105 311.5q0 187 64 336t191 238t296 89q240 0 307 -198l31 178h297l-256 -1458h-314l93 526q-48 -66 -126.5 -105.5t-179.5 -39.5zM539 215q86 0 153 56.5t102 149t35 202.5q0 107 -48 163t-136 56q-86 0 -153.5 -56.5t-102.5 -149
t-35 -202.5q0 -106 48.5 -162.5t136.5 -56.5z" />
    <glyph glyph-name="r" unicode="r" horiz-adv-x="811" 
d="M311 0h-313l184 1057h297l-39 -213q54 122 128.5 174.5t179.5 52.5q82 0 114 -14l-47 -273l-129 2q-116 0 -190.5 -76t-100.5 -221z" />
    <glyph glyph-name="s" unicode="s" horiz-adv-x="1101" 
d="M475 -20q-217 0 -341 84t-124 225q0 15 4 51h295q0 -158 197 -158q95 0 148 36.5t53 94.5q0 38 -30.5 59.5t-101.5 30.5l-153 23q-155 22 -231 91.5t-76 201.5q0 115 67.5 197t182 121.5t264.5 39.5q83 0 156.5 -16t137 -49t101 -92t37.5 -138q0 -33 -2 -49h-295
q0 72 -39 106.5t-127 34.5q-77 0 -124.5 -31.5t-47.5 -92.5q0 -37 20.5 -55t73.5 -25l154 -23q176 -26 261 -98t85 -213q0 -165 -149 -260.5t-396 -95.5z" />
    <glyph glyph-name="t" unicode="t" horiz-adv-x="761" 
d="M444 -12q-165 0 -239 50.5t-74 172.5q0 47 12 111l90 516h-157l37 219h159l58 319h311l-55 -319h215l-37 -219h-217l-92 -529q-4 -24 -4 -33q0 -36 23 -51.5t71 -15.5h108l-37 -209q-147 -12 -172 -12z" />
    <glyph glyph-name="u" unicode="u" 
d="M383 -20q-158 0 -245 76t-87 216q0 28 8 86l123 699h314l-113 -637q-4 -36 -4 -55q0 -65 32 -99.5t95 -34.5q92 0 154.5 64.5t82.5 183.5l101 578h313l-184 -1057h-297l24 145q-115 -165 -317 -165z" />
    <glyph glyph-name="v" unicode="v" 
d="M676 0h-381l-195 1057h314l104 -787l381 787h340z" />
    <glyph glyph-name="w" unicode="w" horiz-adv-x="1744" 
d="M1290 0h-323l-70 635l-291 -635h-336l-170 1057h320l90 -701l309 701h277l65 -701l334 701h334z" />
    <glyph glyph-name="x" unicode="x" horiz-adv-x="1114" 
d="M1014 0h-328l-151 311l-256 -311h-363l467 555l-262 502h328l135 -281l231 281h363l-435 -502z" />
    <glyph glyph-name="y" unicode="y" 
d="M-59 -401l39 219h116q97 0 145 51.5t48 140.5q0 24 -8 78l-181 969h314l98 -819l387 819h340l-520 -969q-101 -188 -198.5 -294t-206.5 -150.5t-257 -44.5h-116z" />
    <glyph glyph-name="z" unicode="z" horiz-adv-x="991" 
d="M854 0h-901l35 203l610 635h-477l37 219h860l-35 -203l-610 -635h518z" />
    <glyph glyph-name="braceleft" unicode="{" horiz-adv-x="741" 
d="M553 -401h-141q-151 0 -232.5 73t-81.5 203q0 43 8 84l70 401q4 20 4 31q0 43 -27 70.5t-79 27.5h-56l37 222h56q62 0 101 36t48 93l72 401q63 361 399 361h174l-39 -220h-98q-66 0 -105 -37.5t-49 -97.5l-69 -393q-20 -118 -82 -180t-176 -74q81 -10 126.5 -68.5
t45.5 -136.5q0 -17 -4 -49l-70 -393q-4 -20 -4 -33q0 -45 29 -73.5t84 -28.5h98z" />
    <glyph glyph-name="bar" unicode="|" horiz-adv-x="462" 
d="M193 -401h-248l352 2003h248z" />
    <glyph glyph-name="braceright" unicode="}" horiz-adv-x="741" 
d="M-137 -401l37 219h98q67 0 106 37t50 98l69 393q21 119 82 180.5t176 73.5q-81 10 -127.5 69t-46.5 136q0 17 4 49l72 393q2 10 2 33q0 45 -28 73.5t-83 28.5h-98l39 220h139q152 0 234 -73.5t82 -203.5q0 -43 -8 -84l-72 -401q-2 -10 -2 -31q0 -44 26.5 -71t79.5 -27h56
l-39 -222h-56q-60 0 -99 -36t-50 -93l-70 -401q-63 -360 -401 -360h-172z" />
    <glyph glyph-name="asciitilde" unicode="~" horiz-adv-x="1101" 
d="M780 543q-55 0 -112 23.5t-96.5 51t-86 51t-82.5 23.5q-56 0 -92.5 -38t-48.5 -111h-180q21 182 105 277t206 95q55 0 112 -23.5t96.5 -51t86 -51t82.5 -23.5q56 0 92.5 38t48.5 111h181q-21 -181 -105.5 -276.5t-206.5 -95.5z" />
    <glyph glyph-name="exclamdown" unicode="&#xa1;" horiz-adv-x="493" 
d="M248 -401h-330l82 462l178 535h162l-10 -535zM293 741q-76 0 -122 41t-46 101q0 87 55.5 139.5t155.5 52.5q76 0 123 -40.5t47 -100.5q0 -87 -56 -140t-157 -53z" />
    <glyph glyph-name="cent" unicode="&#xa2;" horiz-adv-x="1142" 
d="M518 -238h-110l38 222q-189 19 -297 132t-108 298q0 300 160.5 476t437.5 187l39 217h110l-38 -221q187 -19 289 -121.5t102 -242.5q0 -20 -8 -66h-291q0 67 -34 121t-101 72l-109 -617q71 13 125.5 63t81.5 140h293q-36 -198 -170 -315.5t-373 -126.5zM354 434
q0 -87 35 -141t98 -72l109 615q-114 -22 -178 -135t-64 -267z" />
    <glyph glyph-name="sterling" unicode="&#xa3;" horiz-adv-x="1253" 
d="M999 614h-424v-2q0 -101 -41.5 -179t-136.5 -140q57 14 123 14q68 0 212 -38t210 -38q141 0 217 43l-41 -233q-106 -61 -237 -61q-62 0 -229 43t-255 43q-62 0 -138.5 -18.5t-227.5 -67.5l-41 215q75 26 133.5 74.5t91 104.5t48.5 109t16 99q0 5 -1.5 15.5t-1.5 16.5
h-210l22 138h158q-37 125 -37 196q0 240 158 385.5t436 145.5q234 0 361.5 -106.5t127.5 -301.5q0 -21 -4 -67h-301q0 115 -48 169t-144 54q-113 0 -184.5 -75t-71.5 -206q0 -49 22 -194h461z" />
    <glyph glyph-name="currency" unicode="&#xa4;" horiz-adv-x="1253" 
d="M578 248q-151 0 -265 86l-178 -152l-96 117l178 152q-45 85 -45 190q0 99 39 197t104 170l-125 151l138 117l125 -152q141 86 292 86q157 0 263 -88l180 154l96 -117l-180 -153q47 -80 47 -189q0 -99 -39 -195t-106 -171l127 -152l-138 -117l-125 152q-140 -86 -292 -86z
M618 483q130 0 213.5 86.5t83.5 206.5q0 86 -57.5 142.5t-152.5 56.5q-128 0 -212.5 -86.5t-84.5 -206.5q0 -86 57.5 -142.5t152.5 -56.5z" />
    <glyph glyph-name="yen" unicode="&#xa5;" horiz-adv-x="1339" 
d="M1090 211h-320l-37 -211h-311l37 211h-320l23 139h321l29 172h-319l24 140h266l-362 796h354l238 -588l444 588h389l-643 -796h264l-24 -140h-318l-30 -172h317z" />
    <glyph glyph-name="brokenbar" unicode="&#xa6;" horiz-adv-x="462" 
d="M193 -401h-248l151 856h248zM395 745h-248l150 857h248z" />
    <glyph glyph-name="section" unicode="&#xa7;" horiz-adv-x="1290" 
d="M1241 500q0 -254 -280 -320q94 -94 94 -196q0 -197 -141 -301.5t-406 -104.5q-217 0 -341 84t-124 225q0 34 4 52h295q0 -158 197 -158q202 0 202 166q0 116 -100 170l-391 209q-96 51 -140 111t-44 143q0 249 292 311q-75 69 -75 186q0 205 136 303.5t380 98.5
q81 0 154.5 -16t138.5 -49t104 -92.5t39 -137.5q0 -17 -4 -49h-295q0 71 -40.5 106t-127.5 35q-84 0 -128 -45t-44 -129q0 -102 86 -148l360 -192q102 -55 150.5 -114t48.5 -148zM928 459q0 98 -97 149l-307 166q-73 -13 -109 -55.5t-36 -106.5q0 -86 82 -133l332 -182
q135 25 135 162z" />
    <glyph glyph-name="dieresis" unicode="&#xa8;" horiz-adv-x="1024" 
d="M438 1212q-63 0 -100 33t-37 82q0 70 44 113t126 43q61 0 99 -33t38 -82q0 -70 -44 -113t-126 -43zM840 1212q-63 0 -100.5 33t-37.5 82q0 70 44 113t126 43q62 0 100 -33t38 -82q0 -70 -44 -113t-126 -43z" />
    <glyph glyph-name="copyright" unicode="&#xa9;" horiz-adv-x="1650" 
d="M860 -20q-174 0 -319.5 55t-245.5 153t-155.5 237t-55.5 304t55.5 304t155.5 237.5t245.5 153.5t319.5 55t319.5 -55t245.5 -153.5t155.5 -237.5t55.5 -304t-55.5 -304t-155.5 -237t-245.5 -153t-319.5 -55zM860 164q262 0 416 155.5t154 409.5t-154 409.5t-416 155.5
t-415.5 -155.5t-153.5 -409.5t153.5 -409.5t415.5 -155.5zM870 344q-182 0 -283.5 104.5t-101.5 280.5t101.5 280.5t283.5 104.5q175 0 269 -89.5t94 -213.5h-209q-9 63 -47.5 99t-106.5 36q-78 0 -119.5 -55t-41.5 -162t41.5 -162t119.5 -55q134 0 154 141h209
q0 -133 -95 -221t-268 -88z" />
    <glyph glyph-name="ordfeminine" unicode="&#xaa;" horiz-adv-x="1021" 
d="M399 524q-142 0 -222.5 68t-80.5 184q0 274 355 303l215 17q106 10 106 88q0 50 -35.5 76t-95.5 26q-133 0 -158 -121h-272q28 314 455 314q174 0 276 -69t102 -202q0 -48 -6 -75l-63 -357q-21 -114 -21 -176q0 -30 9 -57h-248q-23 33 -23 75q0 21 4 39
q-56 -69 -124 -101t-173 -32zM496 709q89 0 152 56t77 142l8 56q-20 -23 -96 -29l-117 -8q-149 -12 -149 -119q0 -44 32.5 -71t92.5 -27z" />
    <glyph glyph-name="guillemotleft" unicode="&#xab;" horiz-adv-x="995" 
d="M387 166l-289 303l41 238l398 303l-50 -285l-190 -147l139 -148zM821 166l-289 303l41 238l398 303l-49 -285l-191 -147l139 -148z" />
    <glyph glyph-name="logicalnot" unicode="&#xac;" horiz-adv-x="1101" 
d="M1006 436h-254l61 350h-688l41 236h942z" />
    <glyph glyph-name="uni00AD" unicode="&#xad;" horiz-adv-x="757" 
d="M668 469h-598l41 238h598z" />
    <glyph glyph-name="registered" unicode="&#xae;" horiz-adv-x="1206" 
d="M678 410q-251 0 -403 147.5t-152 386.5t152 387t403 148t402 -148t151 -387t-151 -386.5t-402 -147.5zM678 516q198 0 315 117.5t117 310.5t-117 310.5t-315 117.5q-200 0 -317 -117t-117 -311t117 -311t317 -117zM907 1055q0 -100 -96 -127q88 -21 88 -113v-84
q0 -29 8 -53h-131q-12 28 -12 53v74q0 76 -84 76h-74v-203h-135v532h254q87 0 134.5 -41t47.5 -114zM772 1047q0 32 -18 46.5t-58 14.5h-90v-127h90q40 0 58 15.5t18 50.5z" />
    <glyph glyph-name="macron" unicode="&#xaf;" horiz-adv-x="1024" 
d="M965 1262h-648l31 172h647z" />
    <glyph glyph-name="degree" unicode="&#xb0;" horiz-adv-x="712" 
d="M467 848q-150 0 -239 90t-89 225t89 225.5t239 90.5t239 -90.5t89 -225.5t-89 -225t-239 -90zM467 1012q68 0 106.5 42t38.5 109q0 68 -38.5 110t-106.5 42q-66 0 -105.5 -42.5t-39.5 -109.5t39 -109t106 -42z" />
    <glyph glyph-name="plusminus" unicode="&#xb1;" horiz-adv-x="1101" 
d="M930 0h-942l41 236h942zM653 389h-254l52 287h-345l41 237h345l51 287h254l-52 -287h345l-41 -237h-344z" />
    <glyph glyph-name="twosuperior" unicode="&#xb2;" horiz-adv-x="751" 
d="M784 1008h-651l12 86q23 144 87 217t206 123l127 45q66 23 94.5 56t28.5 81q0 44 -26 70t-76 26q-119 0 -144 -137h-190q15 147 103.5 226t248.5 79q134 0 211.5 -64.5t77.5 -175.5q0 -115 -60 -185.5t-204 -119.5l-140 -47q-58 -21 -84.5 -46.5t-37.5 -65.5h450z" />
    <glyph glyph-name="threesuperior" unicode="&#xb3;" horiz-adv-x="780" 
d="M487 995q-143 0 -224 65t-81 191q0 8 1 24.5t1 24.5h191q0 -137 131 -137q71 0 109 32t38 87q0 47 -26 68.5t-84 21.5h-86l24 148h72q156 0 156 106q0 41 -32 63.5t-87 22.5q-127 0 -150 -113h-190q27 281 360 281q137 0 220 -63.5t83 -159.5q0 -162 -176 -207
q58 -17 89.5 -57.5t31.5 -98.5q0 -145 -94.5 -222t-276.5 -77z" />
    <glyph glyph-name="acute" unicode="&#xb4;" horiz-adv-x="1024" 
d="M618 1188h-239l248 319h331z" />
    <glyph glyph-name="mu" unicode="&#xb5;" 
d="M973 0h-297l24 145q-41 -80 -109 -122.5t-151 -42.5q-90 0 -127 43l-73 -424h-314l256 1458h314l-113 -637q-4 -36 -4 -55q0 -65 32 -99.5t95 -34.5q92 0 154.5 64.5t82.5 183.5l101 578h313z" />
    <glyph glyph-name="paragraph" unicode="&#xb6;" horiz-adv-x="1253" 
d="M983 -401h-231l288 1642h-237l-291 -1642h-229l192 1089q-161 4 -253.5 96.5t-92.5 235.5q0 197 127 317.5t334 120.5h721z" />
    <glyph glyph-name="periodcentered" unicode="&#xb7;" horiz-adv-x="493" 
d="M236 422q-77 0 -123.5 39.5t-46.5 99.5q0 87 56 140t157 53q76 0 121.5 -40t45.5 -100q0 -87 -55 -139.5t-155 -52.5z" />
    <glyph glyph-name="cedilla" unicode="&#xb8;" horiz-adv-x="1024" 
d="M602 -205q0 -98 -72.5 -140t-228.5 -42l-170 14l23 115h147q52 0 76 14t24 49q0 43 -84 43h-53l12 66l111 109h109l-111 -109q99 0 158 -30.5t59 -88.5z" />
    <glyph glyph-name="onesuperior" unicode="&#xb9;" horiz-adv-x="561" 
d="M537 1008h-205l98 553q-24 -11 -76 -18t-86 -7h-43l29 156q102 4 165.5 46.5t102.5 129.5h166z" />
    <glyph glyph-name="ordmasculine" unicode="&#xba;" horiz-adv-x="1060" 
d="M569 731q113 0 186.5 103t73.5 249q0 92 -44.5 140.5t-122.5 48.5q-114 0 -187.5 -103t-73.5 -249q0 -92 44.5 -140.5t123.5 -48.5zM549 524q-195 0 -308.5 101t-113.5 276q0 268 152.5 423t400.5 155q194 0 308 -101.5t114 -275.5q0 -268 -152.5 -423t-400.5 -155z" />
    <glyph glyph-name="guillemotright" unicode="&#xbb;" horiz-adv-x="995" 
d="M442 469l-399 -303l49 285l193 147l-140 147l48 265l290 -303zM877 469l-400 -303l49 285l193 147l-139 147l47 265l291 -303z" />
    <glyph glyph-name="onequarter" unicode="&#xbc;" horiz-adv-x="1572" 
d="M465 598h-205l98 553q-24 -11 -76 -18t-85 -7h-43l28 156q102 4 166.5 46.5t102.5 129.5h165zM334 0h-184l1038 1458h184zM1319 0h-199l35 197h-410l35 184l461 479h229l-90 -506h111l-27 -157h-112zM1182 354l53 295l-283 -295h230z" />
    <glyph glyph-name="onehalf" unicode="&#xbd;" horiz-adv-x="1601" 
d="M465 598h-205l98 553q-24 -11 -76 -18t-85 -7h-43l28 156q102 4 166.5 46.5t102.5 129.5h165zM334 0h-184l1038 1458h184zM1458 0h-653l14 86q23 144 87 217t206 123l125 45q67 23 95 55.5t28 81.5q0 44 -25.5 70.5t-74.5 26.5q-121 0 -146 -138h-188q15 147 103.5 226
t248.5 79q133 0 210 -64.5t77 -174.5q0 -115 -60.5 -185.5t-204.5 -119.5l-137 -47q-58 -21 -85 -46.5t-38 -66.5h449z" />
    <glyph glyph-name="threequarters" unicode="&#xbe;" horiz-adv-x="1744" 
d="M416 586q-143 0 -224 65t-81 191q0 8 1 24.5t1 24.5h190q0 -137 131 -137q71 0 109.5 31.5t38.5 86.5q0 47 -26.5 69t-84.5 22h-86l25 147h71q156 0 156 107q0 41 -32 63.5t-87 22.5q-126 0 -149 -113h-191q27 280 361 280q137 0 220 -63.5t83 -159.5q0 -162 -176 -207
q58 -17 89 -57t31 -98q0 -146 -94 -222.5t-276 -76.5zM508 0h-184l1038 1458h184zM1493 0h-199l33 197h-407l32 184l463 479h230l-91 -506h111l-27 -157h-112zM1356 354l53 295l-283 -295h230z" />
    <glyph glyph-name="questiondown" unicode="&#xbf;" horiz-adv-x="1130" 
d="M426 -422q-220 0 -348.5 102.5t-128.5 264.5q0 86 25.5 152.5t67.5 107t92.5 72.5t103.5 56.5t98 49.5t77.5 62t41.5 85l12 66h262l-12 -66q-15 -82 -48 -144t-72.5 -97.5t-84 -63.5t-85.5 -49.5t-74.5 -46.5t-53.5 -65t-20 -95q0 -65 50.5 -102t123.5 -37
q103 0 160 54.5t81 168.5h303q-24 -228 -168 -351.5t-403 -123.5zM633 741q-77 0 -123.5 41t-46.5 101q0 87 56 139.5t155 52.5q77 0 123.5 -40.5t46.5 -100.5q0 -87 -55.5 -140t-155.5 -53z" />
    <glyph glyph-name="Agrave" unicode="&#xc0;" horiz-adv-x="1482" 
d="M1382 0h-319l-47 270h-604l-142 -270h-354l786 1458h406zM979 522l-109 641l-333 -641h442zM1047 1577h-238l-223 319h317z" />
    <glyph glyph-name="Aacute" unicode="&#xc1;" horiz-adv-x="1482" 
d="M1382 0h-319l-47 270h-604l-142 -270h-354l786 1458h406zM979 522l-109 641l-333 -641h442zM1047 1577h-238l246 319h334z" />
    <glyph glyph-name="Acircumflex" unicode="&#xc2;" horiz-adv-x="1482" 
d="M1382 0h-319l-47 270h-604l-142 -270h-354l786 1458h406zM979 522l-109 641l-333 -641h442zM1272 1577h-213l-92 154l-146 -154h-237l280 319h238z" />
    <glyph glyph-name="Atilde" unicode="&#xc3;" horiz-adv-x="1482" 
d="M1382 0h-319l-47 270h-604l-142 -270h-354l786 1458h406zM979 522l-109 641l-333 -641h442zM1079 1585q-42 0 -81.5 18.5t-63.5 40t-53 40t-52 18.5q-37 0 -58 -29t-32 -88h-153q13 153 76 228t169 75q42 0 81.5 -18t63.5 -40t53 -40t52 -18q72 0 90 116h154
q-13 -152 -76.5 -227.5t-169.5 -75.5z" />
    <glyph glyph-name="Adieresis" unicode="&#xc4;" horiz-adv-x="1482" 
d="M1382 0h-319l-47 270h-604l-142 -270h-354l786 1458h406zM979 522l-109 641l-333 -641h442zM737 1602q-63 0 -100 32.5t-37 81.5q0 70 44 113t126 43q61 0 99 -33t38 -82q0 -70 -44 -112.5t-126 -42.5zM1139 1602q-63 0 -100.5 32.5t-37.5 81.5q0 70 44 113t126 43
q62 0 100 -33t38 -82q0 -70 -44 -112.5t-126 -42.5z" />
    <glyph glyph-name="Aring" unicode="&#xc5;" horiz-adv-x="1482" 
d="M1382 0h-319l-47 270h-604l-142 -270h-354l786 1458h50q-50 29 -77.5 76t-27.5 104q0 135 86.5 217t241.5 82q117 0 190.5 -62t73.5 -159q0 -87 -37.5 -154t-107.5 -104h14zM979 522l-109 641l-333 -641h442zM924 1563q62 0 99.5 38t37.5 101q0 42 -26.5 67t-71.5 25
q-62 0 -100 -39t-38 -102q0 -40 27 -65t72 -25z" />
    <glyph glyph-name="AE" unicode="&#xc6;" horiz-adv-x="2193" 
d="M2046 0h-1094l47 270h-550l-179 -270h-354l950 1458h1436l-47 -268h-764l-55 -320h698l-47 -254h-698l-62 -348h764zM1042 522l119 668h-114l-437 -668h432z" />
    <glyph glyph-name="Ccedilla" unicode="&#xc7;" horiz-adv-x="1525" 
d="M879 -205q0 -98 -72.5 -140t-228.5 -42l-170 14l22 115h148q52 0 76 14t24 49q0 43 -84 43h-53l12 66l72 72q-258 25 -404.5 181.5t-146.5 403.5q0 263 101.5 468t296.5 322.5t456 117.5q97 0 186.5 -20t167.5 -61t136 -100t91 -142t33 -181q0 -22 -4 -62h-309
q0 130 -88 213.5t-236 83.5q-118 0 -214.5 -49t-158.5 -133.5t-95.5 -195.5t-33.5 -236q0 -161 92 -254.5t246 -93.5q159 0 269.5 83.5t150.5 225.5h316q-36 -273 -237 -423.5t-513 -153.5l-65 -66q99 0 158 -30.5t59 -88.5z" />
    <glyph glyph-name="Egrave" unicode="&#xc8;" horiz-adv-x="1257" 
d="M1110 0h-1094l256 1458h1094l-47 -268h-766l-55 -320h700l-47 -254h-698l-62 -348h764zM961 1577h-238l-223 319h317z" />
    <glyph glyph-name="Eacute" unicode="&#xc9;" horiz-adv-x="1257" 
d="M1110 0h-1094l256 1458h1094l-47 -268h-766l-55 -320h700l-47 -254h-698l-62 -348h764zM961 1577h-240l248 319h331z" />
    <glyph glyph-name="Ecircumflex" unicode="&#xca;" horiz-adv-x="1257" 
d="M1110 0h-1094l256 1458h1094l-47 -268h-766l-55 -320h700l-47 -254h-698l-62 -348h764zM1186 1577h-215l-92 154l-144 -154h-237l278 319h240z" />
    <glyph glyph-name="Edieresis" unicode="&#xcb;" horiz-adv-x="1257" 
d="M1110 0h-1094l256 1458h1094l-47 -268h-766l-55 -320h700l-47 -254h-698l-62 -348h764zM651 1602q-63 0 -100 32.5t-37 81.5q0 70 43.5 113t124.5 43q63 0 101 -33t38 -82q0 -70 -44.5 -112.5t-125.5 -42.5zM1053 1602q-63 0 -100.5 32.5t-37.5 81.5q0 70 43.5 113
t124.5 43q63 0 101.5 -33t38.5 -82q0 -70 -44.5 -112.5t-125.5 -42.5z" />
    <glyph glyph-name="Igrave" unicode="&#xcc;" horiz-adv-x="544" 
d="M346 0h-330l256 1458h330zM578 1577h-238l-223 319h317z" />
    <glyph glyph-name="Iacute" unicode="&#xcd;" horiz-adv-x="544" 
d="M346 0h-330l256 1458h330zM580 1577h-240l246 319h334z" />
    <glyph glyph-name="Icircumflex" unicode="&#xce;" horiz-adv-x="544" 
d="M346 0h-330l256 1458h330zM803 1577h-213l-92 154l-144 -154h-239l280 319h240z" />
    <glyph glyph-name="Idieresis" unicode="&#xcf;" horiz-adv-x="544" 
d="M346 0h-330l256 1458h330zM268 1602q-62 0 -99.5 33t-37.5 81q0 70 44 113t126 43q61 0 99 -33t38 -82q0 -70 -44 -112.5t-126 -42.5zM670 1602q-62 0 -100 33t-38 81q0 70 44 113t126 43q62 0 100 -33t38 -82q0 -70 -44 -112.5t-126 -42.5z" />
    <glyph glyph-name="Eth" unicode="&#xd0;" horiz-adv-x="1533" 
d="M1530 887q0 -203 -53.5 -365.5t-158.5 -279t-267.5 -179.5t-372.5 -63h-621l115 657h-149l30 172h148l112 629h568q312 0 480.5 -148t168.5 -423zM1200 862q0 161 -86.5 249.5t-236.5 88.5h-281l-66 -371h324l-31 -172h-323l-70 -399h287q153 0 264.5 82.5t165 217.5
t53.5 304z" />
    <glyph glyph-name="Ntilde" unicode="&#xd1;" horiz-adv-x="1495" 
d="M1294 0h-350l-438 1008l-176 -1008h-314l256 1458h351l436 -1007l178 1007h313zM1085 1585q-42 0 -81.5 18.5t-64 40t-52.5 40t-51 18.5q-73 0 -91 -117h-153q13 152 76.5 227.5t169.5 75.5q42 0 81 -18t63 -40t52 -40t51 -18q39 0 60.5 28.5t32.5 87.5h153
q-13 -152 -76.5 -227.5t-169.5 -75.5z" />
    <glyph glyph-name="Ograve" unicode="&#xd2;" horiz-adv-x="1576" 
d="M719 -20q-299 0 -472 161t-173 430q0 263 101.5 468t296.5 322.5t456 117.5q296 0 470.5 -161.5t174.5 -430.5q0 -198 -57 -364t-163.5 -287t-269 -188.5t-364.5 -67.5zM741 248q118 0 214.5 49t158.5 133.5t95.5 195.5t33.5 236q0 161 -92 254.5t-246 93.5
q-118 0 -214.5 -49t-158.5 -133.5t-95.5 -195.5t-33.5 -236q0 -161 92 -254.5t246 -93.5zM1094 1577h-238l-223 319h317z" />
    <glyph glyph-name="Oacute" unicode="&#xd3;" horiz-adv-x="1576" 
d="M719 -20q-299 0 -472 161t-173 430q0 263 101.5 468t296.5 322.5t456 117.5q296 0 470.5 -161.5t174.5 -430.5q0 -198 -57 -364t-163.5 -287t-269 -188.5t-364.5 -67.5zM741 248q118 0 214.5 49t158.5 133.5t95.5 195.5t33.5 236q0 161 -92 254.5t-246 93.5
q-118 0 -214.5 -49t-158.5 -133.5t-95.5 -195.5t-33.5 -236q0 -161 92 -254.5t246 -93.5zM1094 1577h-238l246 319h334z" />
    <glyph glyph-name="Ocircumflex" unicode="&#xd4;" horiz-adv-x="1576" 
d="M719 -20q-299 0 -472 161t-173 430q0 263 101.5 468t296.5 322.5t456 117.5q296 0 470.5 -161.5t174.5 -430.5q0 -198 -57 -364t-163.5 -287t-269 -188.5t-364.5 -67.5zM741 248q118 0 214.5 49t158.5 133.5t95.5 195.5t33.5 236q0 161 -92 254.5t-246 93.5
q-118 0 -214.5 -49t-158.5 -133.5t-95.5 -195.5t-33.5 -236q0 -161 92 -254.5t246 -93.5zM1319 1577h-213l-92 154l-146 -154h-237l280 319h238z" />
    <glyph glyph-name="Otilde" unicode="&#xd5;" horiz-adv-x="1576" 
d="M719 -20q-299 0 -472 161t-173 430q0 263 101.5 468t296.5 322.5t456 117.5q296 0 470.5 -161.5t174.5 -430.5q0 -198 -57 -364t-163.5 -287t-269 -188.5t-364.5 -67.5zM741 248q118 0 214.5 49t158.5 133.5t95.5 195.5t33.5 236q0 161 -92 254.5t-246 93.5
q-118 0 -214.5 -49t-158.5 -133.5t-95.5 -195.5t-33.5 -236q0 -161 92 -254.5t246 -93.5zM1126 1585q-42 0 -81 18.5t-63.5 40t-53 40t-51.5 18.5q-37 0 -58.5 -29t-32.5 -88h-153q13 152 76.5 227.5t169.5 75.5q42 0 81 -18t63.5 -40t53 -40t51.5 -18q73 0 91 116h153
q-13 -152 -76.5 -227.5t-169.5 -75.5z" />
    <glyph glyph-name="Odieresis" unicode="&#xd6;" horiz-adv-x="1576" 
d="M719 -20q-299 0 -472 161t-173 430q0 263 101.5 468t296.5 322.5t456 117.5q296 0 470.5 -161.5t174.5 -430.5q0 -198 -57 -364t-163.5 -287t-269 -188.5t-364.5 -67.5zM741 248q118 0 214.5 49t158.5 133.5t95.5 195.5t33.5 236q0 161 -92 254.5t-246 93.5
q-118 0 -214.5 -49t-158.5 -133.5t-95.5 -195.5t-33.5 -236q0 -161 92 -254.5t246 -93.5zM784 1602q-63 0 -100 32.5t-37 81.5q0 70 44 113t126 43q61 0 99 -33t38 -82q0 -70 -44 -112.5t-126 -42.5zM1186 1602q-63 0 -100 32.5t-37 81.5q0 70 44 113t126 43q61 0 99 -33
t38 -82q0 -70 -44 -112.5t-126 -42.5z" />
    <glyph glyph-name="multiply" unicode="&#xd7;" horiz-adv-x="1101" 
d="M809 258l-252 305l-360 -305l-136 166l359 305l-252 305l194 166l252 -305l361 305l135 -166l-358 -305l252 -305z" />
    <glyph glyph-name="Oslash" unicode="&#xd8;" horiz-adv-x="1576" 
d="M45 -20l-76 92l195 168q-90 137 -90 331q0 263 101.5 468t296.5 322.5t456 117.5q303 0 479 -170l197 170l75 -93l-196 -169q90 -145 90 -330q0 -198 -57 -364t-163.5 -287t-269 -188.5t-364.5 -67.5q-301 0 -479 167zM403 596q0 -71 19 -133l743 639q-91 108 -260 108
q-118 0 -214.5 -49t-158.5 -133.5t-95.5 -195.5t-33.5 -236zM741 248q118 0 214.5 49t158.5 133.5t95.5 195.5t33.5 236q0 66 -20 131l-742 -639q89 -106 260 -106z" />
    <glyph glyph-name="Ugrave" unicode="&#xd9;" horiz-adv-x="1454" 
d="M657 -20q-279 0 -428 113t-149 331q0 62 12 129l160 905h330l-154 -872q-10 -46 -10 -101q0 -237 262 -237q157 0 246.5 77t120.5 261l153 872h330l-160 -905q-56 -314 -223 -443.5t-490 -129.5zM1032 1577h-237l-224 319h318z" />
    <glyph glyph-name="Uacute" unicode="&#xda;" horiz-adv-x="1454" 
d="M657 -20q-279 0 -428 113t-149 331q0 62 12 129l160 905h330l-154 -872q-10 -46 -10 -101q0 -237 262 -237q157 0 246.5 77t120.5 261l153 872h330l-160 -905q-56 -314 -223 -443.5t-490 -129.5zM1032 1577h-239l247 319h332z" />
    <glyph glyph-name="Ucircumflex" unicode="&#xdb;" horiz-adv-x="1454" 
d="M657 -20q-279 0 -428 113t-149 331q0 62 12 129l160 905h330l-154 -872q-10 -46 -10 -101q0 -237 262 -237q157 0 246.5 77t120.5 261l153 872h330l-160 -905q-56 -314 -223 -443.5t-490 -129.5zM1257 1577h-215l-92 154l-143 -154h-238l279 319h239z" />
    <glyph glyph-name="Udieresis" unicode="&#xdc;" horiz-adv-x="1454" 
d="M657 -20q-279 0 -428 113t-149 331q0 62 12 129l160 905h330l-154 -872q-10 -46 -10 -101q0 -237 262 -237q157 0 246.5 77t120.5 261l153 872h330l-160 -905q-56 -314 -223 -443.5t-490 -129.5zM723 1602q-63 0 -100 32.5t-37 81.5q0 70 43.5 113t124.5 43q63 0 101 -33
t38 -82q0 -70 -44.5 -112.5t-125.5 -42.5zM1124 1602q-63 0 -100 32.5t-37 81.5q0 70 43.5 113t124.5 43q63 0 101 -33t38 -82q0 -70 -44.5 -112.5t-125.5 -42.5z" />
    <glyph glyph-name="Yacute" unicode="&#xdd;" horiz-adv-x="1441" 
d="M465 0l100 578l-393 880h363l231 -571l434 571h397l-702 -880l-102 -578h-328zM1026 1577h-238l246 319h334z" />
    <glyph glyph-name="Thorn" unicode="&#xde;" horiz-adv-x="1349" 
d="M1339 805q0 -269 -160 -416t-454 -147h-338l-41 -242h-330l256 1458h330l-43 -241h281q231 0 365 -110t134 -302zM1010 778q0 100 -65 146.5t-197 46.5h-232l-86 -484h287q144 0 218.5 74t74.5 217z" />
    <glyph glyph-name="germandbls" unicode="&#xdf;" horiz-adv-x="1224" 
d="M676 -12q-42 0 -195 12l37 219l119 -2q95 0 149 50.5t54 144.5q0 41 -17.5 84.5t-39 74.5t-39 72t-17.5 78q0 42 25.5 83t55.5 72.5t55.5 87t25.5 121.5q0 72 -46 115t-124 43q-92 0 -151 -55.5t-74 -151.5l-183 -1036h-313l182 1036q16 93 55.5 171t104.5 140t164 97
t223 35q215 0 328.5 -100t113.5 -259q0 -61 -16.5 -112t-40.5 -84.5t-47.5 -62.5t-40 -61t-16.5 -65q0 -25 15 -54.5t36 -58.5t42.5 -60.5t36.5 -70.5t15 -79q0 -199 -129 -311.5t-348 -112.5z" />
    <glyph glyph-name="agrave" unicode="&#xe0;" 
d="M358 -20q-165 0 -257.5 78t-92.5 212q0 161 104 244.5t304 101.5l248 21q124 10 124 100q0 57 -42 89t-111 32q-82 0 -125 -35.5t-57 -105.5h-312q31 360 521 360q201 0 319.5 -79.5t118.5 -231.5q0 -45 -8 -86l-72 -410q-25 -137 -25 -202q0 -42 11 -68h-285
q-27 40 -27 88q0 7 4 43q-64 -79 -141.5 -115t-198.5 -36zM467 188q105 0 178 66t88 166l10 65q-17 -22 -112 -32l-135 -11q-174 -15 -174 -135q0 -55 38 -87t107 -32zM821 1188h-237l-224 319h318z" />
    <glyph glyph-name="aacute" unicode="&#xe1;" 
d="M358 -20q-165 0 -257.5 78t-92.5 212q0 161 104 244.5t304 101.5l248 21q124 10 124 100q0 57 -42 89t-111 32q-82 0 -125 -35.5t-57 -105.5h-312q31 360 521 360q201 0 319.5 -79.5t118.5 -231.5q0 -45 -8 -86l-72 -410q-25 -137 -25 -202q0 -42 11 -68h-285
q-27 40 -27 88q0 7 4 43q-64 -79 -141.5 -115t-198.5 -36zM467 188q105 0 178 66t88 166l10 65q-17 -22 -112 -32l-135 -11q-174 -15 -174 -135q0 -55 38 -87t107 -32zM821 1188h-237l245 319h334z" />
    <glyph glyph-name="acircumflex" unicode="&#xe2;" 
d="M358 -20q-165 0 -257.5 78t-92.5 212q0 161 104 244.5t304 101.5l248 21q124 10 124 100q0 57 -42 89t-111 32q-82 0 -125 -35.5t-57 -105.5h-312q31 360 521 360q201 0 319.5 -79.5t118.5 -231.5q0 -45 -8 -86l-72 -410q-25 -137 -25 -202q0 -42 11 -68h-285
q-27 40 -27 88q0 7 4 43q-64 -79 -141.5 -115t-198.5 -36zM467 188q105 0 178 66t88 166l10 65q-17 -22 -112 -32l-135 -11q-174 -15 -174 -135q0 -55 38 -87t107 -32zM1047 1188h-213l-93 153l-145 -153h-238l281 319h238z" />
    <glyph glyph-name="atilde" unicode="&#xe3;" 
d="M358 -20q-165 0 -257.5 78t-92.5 212q0 161 104 244.5t304 101.5l248 21q124 10 124 100q0 57 -42 89t-111 32q-82 0 -125 -35.5t-57 -105.5h-312q31 360 521 360q201 0 319.5 -79.5t118.5 -231.5q0 -45 -8 -86l-72 -410q-25 -137 -25 -202q0 -42 11 -68h-285
q-27 40 -27 88q0 7 4 43q-64 -79 -141.5 -115t-198.5 -36zM467 188q105 0 178 66t88 166l10 65q-17 -22 -112 -32l-135 -11q-174 -15 -174 -135q0 -55 38 -87t107 -32zM854 1196q-42 0 -81.5 18.5t-63.5 40t-53 40t-52 18.5q-37 0 -58 -29t-32 -88h-154q13 152 76.5 227.5
t169.5 75.5q42 0 81.5 -18.5t63.5 -40t53 -40t52 -18.5q72 0 90 117h154q-13 -152 -76.5 -227.5t-169.5 -75.5z" />
    <glyph glyph-name="adieresis" unicode="&#xe4;" 
d="M358 -20q-165 0 -257.5 78t-92.5 212q0 161 104 244.5t304 101.5l248 21q124 10 124 100q0 57 -42 89t-111 32q-82 0 -125 -35.5t-57 -105.5h-312q31 360 521 360q201 0 319.5 -79.5t118.5 -231.5q0 -45 -8 -86l-72 -410q-25 -137 -25 -202q0 -42 11 -68h-285
q-27 40 -27 88q0 7 4 43q-64 -79 -141.5 -115t-198.5 -36zM467 188q105 0 178 66t88 166l10 65q-17 -22 -112 -32l-135 -11q-174 -15 -174 -135q0 -55 38 -87t107 -32zM512 1212q-63 0 -100 33t-37 82q0 70 44 113t126 43q61 0 99 -33t38 -82q0 -70 -44 -113t-126 -43z
M913 1212q-63 0 -100 33t-37 82q0 70 44 113t126 43q61 0 99 -33t38 -82q0 -70 -44 -113t-126 -43z" />
    <glyph glyph-name="aring" unicode="&#xe5;" 
d="M358 -20q-165 0 -257.5 78t-92.5 212q0 161 104 244.5t304 101.5l248 21q124 10 124 100q0 57 -42 89t-111 32q-82 0 -125 -35.5t-57 -105.5h-312q31 360 521 360q201 0 319.5 -79.5t118.5 -231.5q0 -45 -8 -86l-72 -410q-25 -137 -25 -202q0 -42 11 -68h-285
q-27 40 -27 88q0 7 4 43q-64 -79 -141.5 -115t-198.5 -36zM467 188q105 0 178 66t88 166l10 65q-17 -22 -112 -32l-135 -11q-174 -15 -174 -135q0 -55 38 -87t107 -32zM709 1139q-117 0 -191 62t-74 159q0 135 86.5 217t241.5 82q117 0 190.5 -62t73.5 -159q0 -135 -86 -217
t-241 -82zM721 1284q62 0 99.5 38t37.5 101q0 41 -26 65.5t-72 24.5q-62 0 -99.5 -38t-37.5 -101q0 -41 26 -65.5t72 -24.5z" />
    <glyph glyph-name="ae" unicode="&#xe6;" horiz-adv-x="1882" 
d="M1231 -20q-158 0 -257 64.5t-138 182.5q-72 -121 -184.5 -184t-293.5 -63q-165 0 -257.5 78t-92.5 212q0 161 104 244.5t304 101.5l248 21q124 10 124 100q0 57 -42 89t-111 32q-82 0 -125 -35.5t-57 -105.5h-312q31 360 521 360q267 0 331 -151q151 151 377 151
q221 0 347 -120.5t126 -313.5q0 -95 -28 -184h-762q-2 -20 -2 -60q0 -103 51.5 -157t148.5 -54q82 0 143 39t95 113h291q-49 -169 -187.5 -264.5t-361.5 -95.5zM467 188q105 0 178 66t88 166l10 65q-17 -22 -112 -32l-135 -11q-174 -15 -174 -135q0 -55 38 -87t107 -32z
M1350 868q-96 0 -164.5 -53.5t-98.5 -155.5h451q0 100 -47 154.5t-141 54.5z" />
    <glyph glyph-name="ccedilla" unicode="&#xe7;" horiz-adv-x="1142" 
d="M688 -205q0 -98 -72.5 -140t-228.5 -42l-170 14l23 115h147q52 0 76 14t24 49q0 43 -84 43h-53l12 66l72 72q-183 22 -288 134.5t-105 293.5q0 310 170.5 486.5t462.5 176.5q222 0 344.5 -106t122.5 -262q0 -20 -8 -66h-291q0 82 -48.5 140.5t-142.5 58.5q-93 0 -162 -57
t-102 -148t-33 -203q0 -105 51.5 -162t139.5 -57q89 0 159 51t101 156h293q-36 -201 -175 -319.5t-386 -122.5l-66 -66q99 0 158 -30.5t59 -88.5z" />
    <glyph glyph-name="egrave" unicode="&#xe8;" horiz-adv-x="1179" 
d="M526 -20q-230 0 -357.5 116.5t-127.5 317.5q0 303 172.5 483t452.5 180q221 0 347 -120.5t126 -313.5q0 -92 -29 -184h-762q-2 -20 -2 -60q0 -102 52 -156.5t149 -54.5q167 0 237 152h291q-49 -169 -187.5 -264.5t-361.5 -95.5zM645 868q-96 0 -163.5 -53.5t-98.5 -155.5
h451q0 100 -47.5 154.5t-141.5 54.5zM825 1188h-237l-223 319h317z" />
    <glyph glyph-name="eacute" unicode="&#xe9;" horiz-adv-x="1179" 
d="M526 -20q-230 0 -357.5 116.5t-127.5 317.5q0 303 172.5 483t452.5 180q221 0 347 -120.5t126 -313.5q0 -92 -29 -184h-762q-2 -20 -2 -60q0 -102 52 -156.5t149 -54.5q167 0 237 152h291q-49 -169 -187.5 -264.5t-361.5 -95.5zM645 868q-96 0 -163.5 -53.5t-98.5 -155.5
h451q0 100 -47.5 154.5t-141.5 54.5zM825 1188h-237l246 319h333z" />
    <glyph glyph-name="ecircumflex" unicode="&#xea;" horiz-adv-x="1179" 
d="M526 -20q-230 0 -357.5 116.5t-127.5 317.5q0 303 172.5 483t452.5 180q221 0 347 -120.5t126 -313.5q0 -92 -29 -184h-762q-2 -20 -2 -60q0 -102 52 -156.5t149 -54.5q167 0 237 152h291q-49 -169 -187.5 -264.5t-361.5 -95.5zM645 868q-96 0 -163.5 -53.5t-98.5 -155.5
h451q0 100 -47.5 154.5t-141.5 54.5zM1051 1188h-213l-93 153l-145 -153h-238l281 319h238z" />
    <glyph glyph-name="edieresis" unicode="&#xeb;" horiz-adv-x="1179" 
d="M526 -20q-230 0 -357.5 116.5t-127.5 317.5q0 303 172.5 483t452.5 180q221 0 347 -120.5t126 -313.5q0 -92 -29 -184h-762q-2 -20 -2 -60q0 -102 52 -156.5t149 -54.5q167 0 237 152h291q-49 -169 -187.5 -264.5t-361.5 -95.5zM645 868q-96 0 -163.5 -53.5t-98.5 -155.5
h451q0 100 -47.5 154.5t-141.5 54.5zM516 1212q-63 0 -100 33t-37 82q0 70 44 113t126 43q61 0 99 -33t38 -82q0 -70 -44 -113t-126 -43zM918 1212q-63 0 -100.5 33t-37.5 82q0 70 44 113t126 43q61 0 99 -33t38 -82q0 -70 -43.5 -113t-125.5 -43z" />
    <glyph glyph-name="igrave" unicode="&#xec;" horiz-adv-x="493" 
d="M311 0h-313l184 1057h314zM481 1188h-237l-224 319h320z" />
    <glyph glyph-name="iacute" unicode="&#xed;" horiz-adv-x="493" 
d="M311 0h-313l184 1057h314zM483 1188h-239l248 319h331z" />
    <glyph glyph-name="icircumflex" unicode="&#xee;" horiz-adv-x="493" 
d="M311 0h-313l184 1057h314zM707 1188h-213l-93 153l-143 -153h-240l281 319h240z" />
    <glyph glyph-name="idieresis" unicode="&#xef;" horiz-adv-x="493" 
d="M311 0h-313l184 1057h314zM172 1212q-61 0 -99 33t-38 82q0 70 44 113t126 43q63 0 100 -33t37 -82q0 -70 -44 -113t-126 -43zM573 1212q-61 0 -99 33t-38 82q0 70 44 113t126 43q63 0 100 -33t37 -82q0 -70 -44 -113t-126 -43z" />
    <glyph glyph-name="eth" unicode="&#xf0;" horiz-adv-x="1204" 
d="M526 -20q-228 0 -356.5 118t-128.5 310q0 134 42 248.5t115.5 193t174 122.5t215.5 44q92 0 165.5 -34t112.5 -97q-35 142 -145 291l-363 -97l29 160l236 61q-63 77 -144 158h299l84 -94l324 88l-27 -160l-201 -53q205 -296 205 -602q0 -142 -42.5 -262t-122.5 -208
t-201 -137.5t-271 -49.5zM551 199q87 0 156.5 54.5t106 143t36.5 193.5q0 99 -52 153t-145 54q-87 0 -156.5 -54.5t-106 -143t-36.5 -193.5q0 -99 52 -153t145 -54z" />
    <glyph glyph-name="ntilde" unicode="&#xf1;" 
d="M973 0h-314l113 637q4 36 4 55q0 133 -127 133q-92 0 -154.5 -64t-82.5 -183l-101 -578h-313l184 1057h297l-24 -146q116 166 317 166q157 0 244.5 -76.5t87.5 -216.5q0 -28 -8 -86zM846 1196q-42 0 -81.5 18.5t-63.5 40t-53 40t-52 18.5q-37 0 -58 -29t-32 -88h-154
q13 152 76.5 227.5t169.5 75.5q42 0 81.5 -18.5t63.5 -40t53 -40t52 -18.5q72 0 90 117h154q-13 -152 -76.5 -227.5t-169.5 -75.5z" />
    <glyph glyph-name="ograve" unicode="&#xf2;" horiz-adv-x="1204" 
d="M549 215q88 0 157.5 56.5t106.5 149t37 202.5q0 106 -52 162.5t-143 56.5q-88 0 -157.5 -56.5t-106.5 -149t-37 -202.5q0 -106 52 -162.5t143 -56.5zM526 -20q-224 0 -354.5 116t-130.5 318q0 307 175.5 485t461.5 178q224 0 354.5 -116t130.5 -318q0 -307 -175.5 -485
t-461.5 -178zM838 1188h-238l-223 319h317z" />
    <glyph glyph-name="oacute" unicode="&#xf3;" horiz-adv-x="1204" 
d="M549 215q88 0 157.5 56.5t106.5 149t37 202.5q0 106 -52 162.5t-143 56.5q-88 0 -157.5 -56.5t-106.5 -149t-37 -202.5q0 -106 52 -162.5t143 -56.5zM526 -20q-224 0 -354.5 116t-130.5 318q0 307 175.5 485t461.5 178q224 0 354.5 -116t130.5 -318q0 -307 -175.5 -485
t-461.5 -178zM838 1188h-238l246 319h334z" />
    <glyph glyph-name="ocircumflex" unicode="&#xf4;" horiz-adv-x="1204" 
d="M549 215q88 0 157.5 56.5t106.5 149t37 202.5q0 106 -52 162.5t-143 56.5q-88 0 -157.5 -56.5t-106.5 -149t-37 -202.5q0 -106 52 -162.5t143 -56.5zM526 -20q-224 0 -354.5 116t-130.5 318q0 307 175.5 485t461.5 178q224 0 354.5 -116t130.5 -318q0 -307 -175.5 -485
t-461.5 -178zM1063 1188h-213l-92 153l-146 -153h-237l280 319h238z" />
    <glyph glyph-name="otilde" unicode="&#xf5;" horiz-adv-x="1204" 
d="M549 215q88 0 157.5 56.5t106.5 149t37 202.5q0 106 -52 162.5t-143 56.5q-88 0 -157.5 -56.5t-106.5 -149t-37 -202.5q0 -106 52 -162.5t143 -56.5zM526 -20q-224 0 -354.5 116t-130.5 318q0 307 175.5 485t461.5 178q224 0 354.5 -116t130.5 -318q0 -307 -175.5 -485
t-461.5 -178zM870 1196q-42 0 -81 18.5t-63.5 40t-53 40t-51.5 18.5q-37 0 -58.5 -29t-32.5 -88h-153q13 152 76.5 227.5t169.5 75.5q42 0 81 -18.5t63.5 -40t53 -40t51.5 -18.5q73 0 91 117h153q-13 -152 -76.5 -227.5t-169.5 -75.5z" />
    <glyph glyph-name="odieresis" unicode="&#xf6;" horiz-adv-x="1204" 
d="M549 215q88 0 157.5 56.5t106.5 149t37 202.5q0 106 -52 162.5t-143 56.5q-88 0 -157.5 -56.5t-106.5 -149t-37 -202.5q0 -106 52 -162.5t143 -56.5zM526 -20q-224 0 -354.5 116t-130.5 318q0 307 175.5 485t461.5 178q224 0 354.5 -116t130.5 -318q0 -307 -175.5 -485
t-461.5 -178zM528 1212q-63 0 -100 33t-37 82q0 70 44 113t126 43q61 0 99 -33t38 -82q0 -70 -44 -113t-126 -43zM930 1212q-63 0 -100 33t-37 82q0 70 44 113t126 43q61 0 99 -33t38 -82q0 -70 -44 -113t-126 -43z" />
    <glyph glyph-name="divide" unicode="&#xf7;" horiz-adv-x="1101" 
d="M502 209q-61 0 -98 31.5t-37 78.5q0 69 43.5 111.5t121.5 42.5q63 0 99.5 -32t36.5 -79q0 -69 -44 -111t-122 -42zM1036 610h-942l41 238h942zM639 985q-62 0 -98.5 31.5t-36.5 79.5q0 69 44 111t122 42q61 0 98 -31.5t37 -78.5q0 -69 -44 -111.5t-122 -42.5z" />
    <glyph glyph-name="oslash" unicode="&#xf8;" horiz-adv-x="1204" 
d="M33 -20l-68 77l139 117q-63 101 -63 240q0 307 175.5 485t461.5 178q226 0 354 -116l142 118l63 -80l-137 -116q63 -101 63 -240q0 -307 -175.5 -485t-461.5 -178q-228 0 -356 116zM354 434q0 -33 2 -47l453 383q-54 72 -154 72q-88 0 -157.5 -56.5t-106.5 -149
t-37 -202.5zM549 215q88 0 157.5 56.5t106.5 149t37 202.5q0 17 -4 45l-451 -383q51 -70 154 -70z" />
    <glyph glyph-name="ugrave" unicode="&#xf9;" 
d="M383 -20q-158 0 -245 76t-87 216q0 28 8 86l123 699h314l-113 -637q-4 -36 -4 -55q0 -65 32 -99.5t95 -34.5q92 0 154.5 64.5t82.5 183.5l101 578h313l-184 -1057h-297l24 145q-115 -165 -317 -165zM813 1188h-238l-223 319h318z" />
    <glyph glyph-name="uacute" unicode="&#xfa;" 
d="M383 -20q-158 0 -245 76t-87 216q0 28 8 86l123 699h314l-113 -637q-4 -36 -4 -55q0 -65 32 -99.5t95 -34.5q92 0 154.5 64.5t82.5 183.5l101 578h313l-184 -1057h-297l24 145q-115 -165 -317 -165zM813 1188h-238l246 319h334z" />
    <glyph glyph-name="ucircumflex" unicode="&#xfb;" 
d="M383 -20q-158 0 -245 76t-87 216q0 28 8 86l123 699h314l-113 -637q-4 -36 -4 -55q0 -65 32 -99.5t95 -34.5q92 0 154.5 64.5t82.5 183.5l101 578h313l-184 -1057h-297l24 145q-115 -165 -317 -165zM1038 1188h-213l-92 153l-145 -153h-238l281 319h237z" />
    <glyph glyph-name="udieresis" unicode="&#xfc;" 
d="M383 -20q-158 0 -245 76t-87 216q0 28 8 86l123 699h314l-113 -637q-4 -36 -4 -55q0 -65 32 -99.5t95 -34.5q92 0 154.5 64.5t82.5 183.5l101 578h313l-184 -1057h-297l24 145q-115 -165 -317 -165zM504 1212q-63 0 -100 33t-37 82q0 70 44 113t126 43q61 0 99 -33
t38 -82q0 -70 -44 -113t-126 -43zM905 1212q-63 0 -100 33t-37 82q0 70 44 113t126 43q61 0 99 -33t38 -82q0 -70 -44 -113t-126 -43z" />
    <glyph glyph-name="yacute" unicode="&#xfd;" 
d="M-59 -401l39 219h116q97 0 145 51.5t48 140.5q0 24 -8 78l-181 969h314l98 -819l387 819h340l-520 -969q-101 -188 -198.5 -294t-206.5 -150.5t-257 -44.5h-116zM813 1188h-238l246 319h334z" />
    <glyph glyph-name="thorn" unicode="&#xfe;" horiz-adv-x="1224" 
d="M633 -20q-225 0 -295 174l-98 -555h-314l328 1859h313l-92 -526q48 67 126 106t179 39q193 0 298.5 -122.5t105.5 -311.5q0 -187 -64 -336t-191 -238t-296 -89zM580 215q86 0 153 56.5t102 149t35 202.5q0 107 -48 163t-136 56q-86 0 -153.5 -56.5t-102.5 -149
t-35 -202.5q0 -106 48.5 -162.5t136.5 -56.5z" />
    <glyph glyph-name="ydieresis" unicode="&#xff;" 
d="M-59 -401l39 219h116q97 0 145 51.5t48 140.5q0 24 -8 78l-181 969h314l98 -819l387 819h340l-520 -969q-101 -188 -198.5 -294t-206.5 -150.5t-257 -44.5h-116zM905 1212q-63 0 -100 33t-37 82q0 70 44 113t126 43q61 0 99 -33t38 -82q0 -70 -44 -113t-126 -43z
M504 1212q-63 0 -100 33t-37 82q0 70 44 113t126 43q61 0 99 -33t38 -82q0 -70 -44 -113t-126 -43z" />
    <glyph glyph-name="dotlessi" unicode="&#x131;" horiz-adv-x="493" 
d="M311 0h-313l184 1057h314z" />
    <glyph glyph-name="Lslash" unicode="&#x141;" horiz-adv-x="1183" 
d="M899 840l-389 -135l-78 -437h678l-45 -268h-1008l103 586l-160 -56l31 175l159 55l123 698h330l-102 -577l389 133z" />
    <glyph glyph-name="lslash" unicode="&#x142;" horiz-adv-x="575" 
d="M352 0h-313l102 586l-139 -47l29 174l141 47l123 698h313l-102 -586l139 48l-33 -175l-137 -47z" />
    <glyph glyph-name="OE" unicode="&#x152;" horiz-adv-x="2203" 
d="M2056 0h-1333q-312 0 -480.5 148t-168.5 423q0 203 53.5 365.5t158.5 279t267.5 179.5t372.5 63h1386l-47 -268h-764l-55 -320h698l-47 -254h-698l-62 -348h766zM403 596q0 -161 87 -249.5t237 -88.5h281l166 942h-287q-116 0 -209 -47.5t-152.5 -130t-91 -191.5
t-31.5 -235z" />
    <glyph glyph-name="oe" unicode="&#x153;" horiz-adv-x="1972" 
d="M1321 -20q-291 0 -367 204q-145 -204 -428 -204q-224 0 -354.5 116t-130.5 318q0 307 175.5 485t461.5 178q138 0 232 -52.5t132 -152.5q136 205 418 205q221 0 347 -120.5t126 -313.5q0 -95 -28 -184h-762q-2 -20 -2 -60q0 -103 51.5 -157t148.5 -54q82 0 143 39t95 113
h291q-49 -169 -187.5 -264.5t-361.5 -95.5zM549 215q88 0 157.5 56.5t106.5 149t37 202.5q0 106 -52 162.5t-143 56.5q-88 0 -157.5 -56.5t-106.5 -149t-37 -202.5q0 -106 52 -162.5t143 -56.5zM1440 868q-96 0 -163.5 -53.5t-98.5 -155.5h450q0 100 -47 154.5t-141 54.5z
" />
    <glyph glyph-name="Scaron" unicode="&#x160;" horiz-adv-x="1339" 
d="M600 -20q-278 0 -421.5 109t-143.5 319q0 21 4 67h317q0 -250 281 -250q141 0 226 58t85 155q0 69 -53 105.5t-188 56.5l-166 25q-186 26 -277.5 113.5t-91.5 242.5q0 235 170 366.5t467 131.5q253 0 391.5 -113.5t138.5 -308.5q0 -35 -2 -53h-307q0 108 -65.5 168.5
t-192.5 60.5q-121 0 -195.5 -54t-74.5 -149q0 -67 42.5 -98.5t160.5 -48.5l167 -23q192 -29 299 -123.5t107 -255.5q0 -237 -174 -369t-504 -132zM967 1577h-238l-170 319h213l92 -153l146 153h237z" />
    <glyph glyph-name="scaron" unicode="&#x161;" horiz-adv-x="1101" 
d="M475 -20q-217 0 -341 84t-124 225q0 15 4 51h295q0 -158 197 -158q95 0 148 36.5t53 94.5q0 38 -30.5 59.5t-101.5 30.5l-153 23q-155 22 -231 91.5t-76 201.5q0 115 67.5 197t182 121.5t264.5 39.5q83 0 156.5 -16t137 -49t101 -92t37.5 -138q0 -33 -2 -49h-295
q0 72 -39 106.5t-127 34.5q-77 0 -124.5 -31.5t-47.5 -92.5q0 -37 20.5 -55t73.5 -25l154 -23q176 -26 261 -98t85 -213q0 -165 -149 -260.5t-396 -95.5zM786 1188h-237l-170 319h213l92 -153l145 153h238z" />
    <glyph glyph-name="Ydieresis" unicode="&#x178;" horiz-adv-x="1441" 
d="M465 0l100 578l-393 880h363l231 -571l434 571h397l-702 -880l-102 -578h-328zM717 1602q-63 0 -100 32.5t-37 81.5q0 70 44 113t126 43q61 0 99 -33t38 -82q0 -70 -44 -112.5t-126 -42.5zM1118 1602q-63 0 -100 32.5t-37 81.5q0 70 44 113t126 43q61 0 99 -33t38 -82
q0 -70 -44 -112.5t-126 -42.5z" />
    <glyph glyph-name="Zcaron" unicode="&#x17d;" horiz-adv-x="1232" 
d="M1075 0h-1102l37 223l826 967h-633l47 268h1061l-39 -223l-828 -967h676zM922 1577h-238l-170 319h213l92 -153l146 153h237z" />
    <glyph glyph-name="zcaron" unicode="&#x17e;" horiz-adv-x="991" 
d="M854 0h-901l35 203l610 635h-477l37 219h860l-35 -203l-610 -635h518zM731 1188h-237l-170 319h213l92 -153l145 153h238z" />
    <glyph glyph-name="florin" unicode="&#x192;" horiz-adv-x="1110" 
d="M39 -414q-55 0 -201 13l35 208h143q109 0 146 109l260 735h-268l36 221h310l90 258q43 122 98 194.5t138.5 109t203.5 36.5q62 0 203 -12l-35 -209h-145q-110 0 -146 -108l-96 -269h268l-37 -221h-309l-254 -725q-43 -122 -98 -194.5t-138.5 -109t-203.5 -36.5z" />
    <glyph glyph-name="circumflex" unicode="&#x2c6;" horiz-adv-x="1024" 
d="M973 1188h-213l-92 153l-146 -153h-237l280 319h238z" />
    <glyph glyph-name="caron" unicode="&#x2c7;" horiz-adv-x="1024" 
d="M748 1188h-238l-170 319h213l92 -153l146 153h237z" />
    <glyph glyph-name="breve" unicode="&#x2d8;" horiz-adv-x="1024" 
d="M645 1167q-293 0 -293 248q0 48 8 92h144q0 -83 35 -118t110 -35q77 0 124.5 36.5t70.5 116.5h164q-30 -176 -113 -258t-250 -82z" />
    <glyph glyph-name="dotaccent" unicode="&#x2d9;" horiz-adv-x="1024" 
d="M639 1212q-63 0 -100 33t-37 82q0 70 44 113t126 43q61 0 99 -33t38 -82q0 -70 -44 -113t-126 -43z" />
    <glyph glyph-name="ring" unicode="&#x2da;" horiz-adv-x="1024" 
d="M635 1139q-117 0 -190.5 62t-73.5 159q0 135 86 217t241 82q117 0 191 -62t74 -159q0 -135 -86.5 -217t-241.5 -82zM647 1284q62 0 99.5 38t37.5 101q0 41 -26 65.5t-72 24.5q-62 0 -99.5 -38t-37.5 -101q0 -41 26 -65.5t72 -24.5z" />
    <glyph glyph-name="ogonek" unicode="&#x2db;" horiz-adv-x="1024" 
d="M553 -373l-133 -14q-117 0 -179.5 37t-62.5 110q0 77 69.5 131.5t225.5 108.5h148q-135 -71 -188.5 -120.5t-53.5 -92.5q0 -45 74 -45h122z" />
    <glyph glyph-name="tilde" unicode="&#x2dc;" horiz-adv-x="1024" 
d="M780 1196q-42 0 -81.5 18.5t-63.5 40t-53 40t-52 18.5q-37 0 -58 -29t-32 -88h-153q13 153 76 228t169 75q42 0 81.5 -18.5t63.5 -40t53 -40t52 -18.5q72 0 90 117h154q-13 -152 -76.5 -227.5t-169.5 -75.5z" />
    <glyph glyph-name="hungarumlaut" unicode="&#x2dd;" horiz-adv-x="1024" 
d="M401 1188h-239l248 319h331zM836 1188h-240l248 319h332z" />
    <glyph glyph-name="pi" unicode="&#x3c0;" horiz-adv-x="1333" 
d="M1063 0h-313l145 838h-348l-148 -838h-311l145 838h-157l37 219h1292l-37 -219h-160z" />
    <glyph glyph-name="endash" unicode="&#x2013;" horiz-adv-x="1105" 
d="M1016 469h-946l41 238h946z" />
    <glyph glyph-name="emdash" unicode="&#x2014;" horiz-adv-x="1802" 
d="M1712 469h-1642l41 238h1642z" />
    <glyph glyph-name="quoteleft" unicode="&#x2018;" horiz-adv-x="493" 
d="M436 836h-270l37 208q28 148 85 245.5t169 168.5l147 -67q-57 -73 -83.5 -144.5t-49.5 -202.5z" />
    <glyph glyph-name="quoteright" unicode="&#x2019;" horiz-adv-x="493" 
d="M256 836l-150 69q57 72 84 144t50 202l36 207h269l-37 -207q-26 -149 -82.5 -246.5t-169.5 -168.5z" />
    <glyph glyph-name="quotesinglbase" unicode="&#x201a;" horiz-adv-x="493" 
d="M127 -311l-147 67q56 73 82 144t51 202l34 209h269l-35 -209q-28 -149 -85 -246.5t-169 -166.5z" />
    <glyph glyph-name="quotedblleft" unicode="&#x201c;" horiz-adv-x="946" 
d="M510 836h-270l36 208q28 148 85 245.5t169 168.5l148 -67q-57 -73 -83.5 -144.5t-49.5 -202.5zM963 836h-269l35 208q28 148 85 245.5t169 168.5l147 -67q-57 -74 -83.5 -146.5t-49.5 -200.5z" />
    <glyph glyph-name="quotedblright" unicode="&#x201d;" horiz-adv-x="946" 
d="M256 836l-150 69q57 72 84 144t50 202l36 207h269l-37 -207q-26 -149 -82.5 -246.5t-169.5 -168.5zM709 836l-150 69q57 71 83.5 143t49.5 203l37 207h268l-34 -207q-28 -150 -84.5 -247t-169.5 -168z" />
    <glyph glyph-name="quotedblbase" unicode="&#x201e;" horiz-adv-x="946" 
d="M53 -311l-147 67q56 73 82 144t51 202l35 209h268l-35 -209q-28 -149 -85 -246.5t-169 -166.5zM506 -311l-148 67q56 73 83 144.5t51 201.5l34 209h271l-37 -209q-28 -149 -85 -246.5t-169 -166.5z" />
    <glyph glyph-name="dagger" unicode="&#x2020;" horiz-adv-x="1101" 
d="M514 -401h-254l205 1161l51 182l-186 -16h-180l40 235h181l178 -18l16 182l33 188h254l-33 -188l-51 -182l184 18h181l-41 -235h-181l-178 16l-14 -182z" />
    <glyph glyph-name="daggerdbl" unicode="&#x2021;" horiz-adv-x="1101" 
d="M514 -401h-254l33 188l51 182l-186 -18h-178l40 237h179l180 -18l14 182l72 408l51 182l-186 -16h-180l40 235h181l178 -18l16 182l33 188h254l-33 -188l-51 -182l184 18h181l-41 -235h-181l-178 16l-14 -182l-72 -408l-51 -182l186 18h181l-41 -237h-181l-180 18
l-14 -182z" />
    <glyph glyph-name="bullet" unicode="&#x2022;" horiz-adv-x="755" 
d="M352 311q-128 0 -203 66.5t-75 167.5q0 144 91.5 231.5t258.5 87.5q127 0 202.5 -66t75.5 -167q0 -144 -91.5 -232t-258.5 -88z" />
    <glyph glyph-name="ellipsis" unicode="&#x2026;" horiz-adv-x="1478" 
d="M158 -18q-77 0 -123.5 40.5t-46.5 100.5q0 87 56 139.5t155 52.5q77 0 123.5 -40.5t46.5 -100.5q0 -87 -55.5 -139.5t-155.5 -52.5zM651 -18q-77 0 -123.5 40.5t-46.5 100.5q0 87 55.5 139.5t155.5 52.5q77 0 123.5 -40.5t46.5 -100.5q0 -87 -55.5 -139.5t-155.5 -52.5z
M1145 -18q-77 0 -123.5 40.5t-46.5 100.5q0 87 55.5 139.5t155.5 52.5q77 0 123.5 -40.5t46.5 -100.5q0 -87 -56 -139.5t-155 -52.5z" />
    <glyph glyph-name="perthousand" unicode="&#x2030;" horiz-adv-x="2650" 
d="M453 754q156 0 204 264q13 66 13 123q0 162 -125 162q-154 0 -205 -265q-10 -64 -10 -123q0 -161 123 -161zM438 586q-149 0 -231 82t-82 239q0 47 12 133q38 213 139 321.5t285 108.5q148 0 230.5 -82.5t82.5 -238.5q0 -53 -14 -133q-37 -212 -138 -321t-284 -109z
M528 0h-184l1038 1458h185zM1366 156q154 0 205 264q12 76 12 123q0 162 -125 162q-154 0 -205 -265q-10 -64 -10 -123q0 -161 123 -161zM1352 -12q-150 0 -232 82t-82 239q0 40 13 133q38 212 138.5 321t283.5 109q150 0 232.5 -82.5t82.5 -238.5q0 -53 -14 -133
q-37 -212 -138 -321t-284 -109zM2177 156q154 0 205 264q12 76 12 123q0 162 -125 162q-154 0 -205 -265q-10 -64 -10 -123q0 -161 123 -161zM2163 -12q-149 0 -231.5 82t-82.5 239q0 40 13 133q38 212 138.5 321t283.5 109q150 0 232.5 -82.5t82.5 -238.5q0 -53 -14 -133
q-37 -212 -138 -321t-284 -109z" />
    <glyph glyph-name="guilsinglleft" unicode="&#x2039;" horiz-adv-x="561" 
d="M387 166l-289 303l41 238l398 303l-50 -285l-190 -147l139 -148z" />
    <glyph glyph-name="guilsinglright" unicode="&#x203a;" horiz-adv-x="561" 
d="M442 469l-399 -303l49 285l193 147l-140 147l48 265l290 -303z" />
    <glyph glyph-name="fraction" unicode="&#x2044;" horiz-adv-x="274" 
d="M-254 0h-184l1038 1458h184z" />
    <glyph glyph-name="Euro" unicode="&#x20ac;" horiz-adv-x="1253" 
d="M801 -20q-278 0 -448.5 140.5t-192.5 379.5h-115l25 139h88q3 95 24 180h-82l25 139h96q93 242 297.5 381.5t491.5 139.5q104 0 203.5 -19.5t146.5 -48.5l-41 -235q-55 22 -146.5 36.5t-183.5 14.5q-145 0 -252 -72t-170 -197h496l-25 -139h-526q-24 -85 -27 -180h523
l-25 -139h-487q25 -129 109.5 -199t215.5 -70q91 0 183.5 14.5t154.5 37.5l-41 -236q-131 -67 -317 -67z" />
    <glyph glyph-name="trademark" unicode="&#x2122;" horiz-adv-x="1222" 
d="M381 926h-133l74 422h-152l20 110h437l-19 -110h-151zM1184 926h-129l67 391l-184 -391h-111l-49 391l-67 -391h-129l94 532h196l37 -323l152 323h217z" />
    <glyph glyph-name="Omega" unicode="&#x2126;" horiz-adv-x="1576" 
d="M1415 0h-631l37 223q200 74 311 236t111 403q0 161 -92 254.5t-246 93.5q-118 0 -214.5 -49t-158.5 -133.5t-95.5 -195.5t-33.5 -236q0 -273 242 -373l-37 -223h-631l46 268h303q-238 121 -238 412q0 169 57 314.5t162.5 253.5t265.5 169.5t355 61.5q156 0 281.5 -43
t207 -119.5t125 -178t43.5 -220.5q0 -467 -426 -650h301z" />
    <glyph glyph-name="partialdiff" unicode="&#x2202;" horiz-adv-x="1325" 
d="M483 -20q-109 0 -196.5 30.5t-142.5 82.5t-84 120t-29 145q0 271 178 435.5t477 164.5q115 0 200 -41t132 -116q24 158 24 227q0 105 -51 160t-151 55q-89 0 -147.5 -37.5t-98.5 -111.5h-291q134 385 594 385q197 0 320.5 -119.5t123.5 -337.5q0 -242 -65 -439.5
t-179.5 -329t-272 -202.5t-341.5 -71zM541 215q137 0 241 98.5t162 286.5q-20 60 -82.5 98.5t-154.5 38.5q-158 0 -260.5 -94.5t-102.5 -251.5q0 -81 51 -128.5t146 -47.5z" />
    <glyph glyph-name="Delta" unicode="&#x2206;" horiz-adv-x="1482" 
d="M1382 0h-1466l786 1458h406zM1022 268l-152 895l-469 -895h621z" />
    <glyph glyph-name="product" unicode="&#x220f;" horiz-adv-x="1236" 
d="M965 -401h-314l287 1624h-393l-287 -1624h-313l327 1859h1020z" />
    <glyph glyph-name="summation" unicode="&#x2211;" horiz-adv-x="1191" 
d="M963 -401h-1059l37 219l643 710l-394 711l39 219h1061l-41 -235h-696l365 -645l-19 -99l-592 -645h697z" />
    <glyph glyph-name="minus" unicode="&#x2212;" horiz-adv-x="1101" 
d="M1036 610h-942l41 238h942z" />
    <glyph glyph-name="radical" unicode="&#x221a;" horiz-adv-x="1531" 
d="M700 -401h-381l-112 616h-254l41 236h457l92 -582l803 1589h342z" />
    <glyph glyph-name="infinity" unicode="&#x221e;" horiz-adv-x="1601" 
d="M1587 729q0 -178 -106.5 -279.5t-288.5 -101.5q-99 0 -180 41.5t-176 165.5q-95 -123 -177 -165t-180 -42q-182 0 -288.5 101.5t-106.5 279.5t106.5 279.5t288.5 101.5q97 0 179.5 -42.5t177.5 -164.5q96 123 177 165t179 42q182 0 288.5 -101.5t106.5 -279.5zM1348 729
q0 75 -47.5 123.5t-124.5 48.5q-64 0 -113.5 -38.5t-110.5 -133.5q61 -95 110.5 -133.5t113.5 -38.5q77 0 124.5 48.5t47.5 123.5zM326 729q0 -75 46.5 -123.5t123.5 -48.5q64 0 113 38.5t110 133.5q-61 95 -110 133.5t-113 38.5q-77 0 -123.5 -48.5t-46.5 -123.5z" />
    <glyph glyph-name="integral" unicode="&#x222b;" horiz-adv-x="827" 
d="M-121 -401l35 208h109q56 0 86 26.5t41 82.5l215 1214q31 181 118 260.5t265 79.5q61 0 202 -12l-37 -209h-108q-56 0 -86 -26t-41 -82l-215 -1215q-31 -181 -118 -260.5t-265 -79.5q-55 0 -201 13z" />
    <glyph glyph-name="approxequal" unicode="&#x2248;" horiz-adv-x="1101" 
d="M739 309q-55 0 -112 23.5t-96.5 51.5t-86 51.5t-82.5 23.5q-56 0 -92.5 -38.5t-48.5 -111.5h-180q21 182 105.5 277.5t205.5 95.5q55 0 112 -23.5t96.5 -51.5t86 -51.5t82.5 -23.5q56 0 92.5 38.5t48.5 111.5h181q-21 -182 -105.5 -277.5t-206.5 -95.5zM821 776
q-55 0 -112 23.5t-96.5 51.5t-86 51.5t-82.5 23.5q-56 0 -92.5 -38.5t-48.5 -111.5h-180q21 182 105.5 277.5t205.5 95.5q55 0 112 -23.5t96.5 -51.5t86 -51.5t82.5 -23.5q56 0 92.5 38.5t48.5 111.5h181q-21 -182 -105.5 -277.5t-206.5 -95.5z" />
    <glyph glyph-name="notequal" unicode="&#x2260;" horiz-adv-x="1101" 
d="M410 207h-181l105 203h-277l41 223h348l99 192h-414l41 224h487l105 202h180l-104 -202h274l-41 -224h-348l-98 -192h413l-41 -223h-485z" />
    <glyph glyph-name="lessequal" unicode="&#x2264;" horiz-adv-x="1101" 
d="M930 0h-942l41 236h942zM991 356l-885 320l41 237l1000 320l-45 -254l-660 -184l594 -185z" />
    <glyph glyph-name="greaterequal" unicode="&#x2265;" horiz-adv-x="1101" 
d="M930 0h-942l41 236h942zM1049 676l-1000 -320l45 254l658 185l-592 184l45 254l885 -320z" />
    <glyph glyph-name="lozenge" unicode="&#x25ca;" horiz-adv-x="1114" 
d="M641 0h-352l-195 729l451 729h352l193 -729zM506 238l293 491l-119 492l-295 -492z" />
    </font>
</defs>
</svg>
