<?xml version="1.0" standalone="no"?>
<!DOCTYPE svg PUBLIC "-//W3C//DTD SVG 1.1//EN" "http://www.w3.org/Graphics/SVG/1.1/DTD/svg11.dtd" >
<svg xmlns="http://www.w3.org/2000/svg" xmlns:xlink="http://www.w3.org/1999/xlink" version="1.1">
<metadata>
Created by FontForge 20201107 at Sun Mar  2 12:56:04 2025
 By 
Copyright (c) 2021 by Anugrah Pasau
</metadata>
<defs>
<font id="CreatoDisplay-ExtraBold" horiz-adv-x="1155" >
  <font-face 
    font-family="Creato Display ExtraBold"
    font-weight="800"
    font-stretch="normal"
    units-per-em="2048"
    panose-1="2 11 5 3 0 0 0 2 0 4"
    ascent="1647"
    descent="-401"
    x-height="1057"
    cap-height="1458"
    bbox="-346 -422 2601 1937"
    underline-thickness="102"
    underline-position="-204"
    unicode-range="U+000D-25CA"
  />
<missing-glyph horiz-adv-x="1146" 
d="M954 0h-761v1458h761v-1458zM897 49v1360h-647v-1360h647z" />
    <glyph glyph-name=".notdef" horiz-adv-x="1146" 
d="M954 0h-761v1458h761v-1458zM897 49v1360h-647v-1360h647z" />
    <glyph glyph-name=".null" horiz-adv-x="0" 
 />
    <glyph glyph-name="nonmarkingreturn" horiz-adv-x="682" 
 />
    <glyph glyph-name="NULL" horiz-adv-x="0" 
 />
    <glyph glyph-name="NULL" horiz-adv-x="0" 
 />
    <glyph glyph-name="CR" unicode="&#xd;" horiz-adv-x="512" 
 />
    <glyph glyph-name="space" unicode=" " horiz-adv-x="512" 
 />
    <glyph glyph-name="exclam" unicode="!" horiz-adv-x="493" 
d="M246 -18q-87 0 -136 46.5t-49 118.5q0 73 49 120.5t136 47.5q88 0 137 -47.5t49 -120.5q0 -72 -49 -118.5t-137 -46.5zM328 461h-162l-84 534v463h330v-463z" />
    <glyph glyph-name="quotedbl" unicode="&#x22;" horiz-adv-x="946" 
d="M360 836h-227l-51 622h330zM813 836h-227l-51 622h329z" />
    <glyph glyph-name="numbersign" unicode="#" horiz-adv-x="1421" 
d="M90 588h213l49 282h-215l41 236h215l64 352h262l-64 -352h242l64 352h262l-64 -352h215l-41 -236h-215l-49 -282h217l-43 -236h-215l-61 -352h-262l61 352h-242l-61 -352h-262l61 352h-215zM614 870l-49 -282h242l49 282h-242z" />
    <glyph glyph-name="dollar" unicode="$" horiz-adv-x="1339" 
d="M735 -238h-131v220q-276 13 -415.5 140t-139.5 353h324q12 -116 66 -175t165 -71v381l-80 13q-235 33 -336.5 123t-101.5 278q0 191 133 314.5t385 138.5v219h131v-219q253 -15 385.5 -141t132.5 -332h-313q-24 194 -205 223v-355l78 -10q239 -35 358 -134t119 -290
q0 -197 -142 -320t-413 -136v-220zM961 418q0 68 -49 109t-177 65v-365q111 10 168.5 61.5t57.5 129.5zM416 1044q0 -67 38.5 -100t149.5 -53v338q-94 -10 -141 -59.5t-47 -125.5z" />
    <glyph glyph-name="percent" unicode="%" horiz-adv-x="1839" 
d="M412 586q-182 0 -272.5 115.5t-90.5 326.5t90.5 326.5t272.5 115.5q183 0 272.5 -115.5t89.5 -326.5t-89.5 -326.5t-272.5 -115.5zM412 754q78 0 117.5 66t39.5 208q0 275 -157 275q-158 0 -158 -275q0 -274 158 -274zM621 0h-185l783 1458h184zM1427 -12
q-182 0 -272 115.5t-90 326.5t90 326.5t272 115.5q183 0 273 -115.5t90 -326.5t-90 -326.5t-273 -115.5zM1427 156q158 0 158 274q0 275 -158 275q-157 0 -157 -275q0 -274 157 -274z" />
    <glyph glyph-name="ampersand" unicode="&#x26;" horiz-adv-x="1458" 
d="M1100 0l-96 100q-184 -120 -418 -120q-133 0 -237.5 33t-168.5 90t-97.5 129.5t-33.5 156.5q0 140 69 233.5t230 161.5q-133 147 -133 320q0 76 29.5 143.5t84 119.5t139.5 82t189 30q204 0 323.5 -108.5t119.5 -266.5q0 -128 -81 -212t-271 -153l268 -282q63 109 88 250
h280q-46 -257 -190 -437l260 -270h-354zM608 215q124 0 228 59l-349 365q-125 -70 -125 -217q0 -91 70 -149t176 -58zM512 1112q0 -58 21 -110.5t79 -118.5q95 40 143 100t48 129q0 68 -39.5 108t-106.5 40q-66 0 -105.5 -39.5t-39.5 -108.5z" />
    <glyph glyph-name="quotesingle" unicode="'" horiz-adv-x="493" 
d="M360 836h-227l-51 622h330z" />
    <glyph glyph-name="parenleft" unicode="(" horiz-adv-x="581" 
d="M70 600q0 552 276 1002h232q-228 -488 -228 -1002q0 -513 228 -1001h-232q-276 450 -276 1001z" />
    <glyph glyph-name="parenright" unicode=")" horiz-adv-x="581" 
d="M512 600q0 -551 -276 -1001h-232q227 486 227 1001q0 516 -227 1002h232q276 -450 276 -1002z" />
    <glyph glyph-name="asterisk" unicode="*" horiz-adv-x="897" 
d="M598 649l-149 240l-148 -240l-186 133l184 219l-274 68l69 213l262 -106l-20 282h225l-20 -282l264 106l67 -213l-274 -68l184 -219z" />
    <glyph glyph-name="plus" unicode="+" horiz-adv-x="1101" 
d="M424 258v352h-344v238h344v352h254v-352h344v-238h-344v-352h-254z" />
    <glyph glyph-name="comma" unicode="," horiz-adv-x="493" 
d="M201 -311l-160 67q44 74 58 145.5t14 200.5v209h268v-209q0 -148 -40 -246t-140 -167z" />
    <glyph glyph-name="hyphen" unicode="-" horiz-adv-x="757" 
d="M678 469h-598v238h598v-238z" />
    <glyph glyph-name="period" unicode="." horiz-adv-x="493" 
d="M246 -18q-87 0 -136 46.5t-49 118.5q0 73 49 120.5t136 47.5q88 0 137 -47.5t49 -120.5q0 -72 -49 -118.5t-137 -46.5z" />
    <glyph glyph-name="slash" unicode="/" horiz-adv-x="817" 
d="M281 0h-281l537 1458h280z" />
    <glyph glyph-name="zero" unicode="0" horiz-adv-x="1327" 
d="M664 -20q-309 0 -462 195.5t-153 553.5t153 554t462 196t461.5 -196t152.5 -554t-152.5 -553.5t-461.5 -195.5zM664 231q151 0 226 121t75 377t-75 377t-226 121t-226.5 -121t-75.5 -377t75.5 -377t226.5 -121z" />
    <glyph glyph-name="one" unicode="1" horiz-adv-x="804" 
d="M696 0h-313v973q-34 -20 -120 -31.5t-144 -11.5h-70v229q171 7 265.5 78.5t136.5 220.5h245v-1458z" />
    <glyph glyph-name="two" unicode="2" horiz-adv-x="1204" 
d="M1155 0h-1106v137q0 232 91.5 363t305.5 209l199 71q105 39 151 98t46 146q0 94 -61.5 148.5t-159.5 54.5q-113 0 -173 -64t-75 -200h-291q0 247 136.5 381.5t399.5 134.5q253 0 395 -127t142 -336q0 -313 -367 -445l-215 -77q-199 -73 -211 -242h793v-252z" />
    <glyph glyph-name="three" unicode="3" horiz-adv-x="1253" 
d="M627 -20q-277 0 -427.5 125t-150.5 391h291q28 -265 289 -265q125 0 193.5 58t68.5 155q0 90 -62 135.5t-178 45.5h-164v237h144q239 0 239 168q0 88 -69 142.5t-176 54.5q-238 0 -265 -223h-290q0 218 145 346.5t412 128.5q253 0 405 -117.5t152 -300.5
q0 -255 -244 -311q128 -32 196 -116.5t68 -236.5q0 -186 -157 -301.5t-420 -115.5z" />
    <glyph glyph-name="four" unicode="4" horiz-adv-x="1286" 
d="M1049 0h-304v340h-696v295l627 823h373v-864h188v-254h-188v-340zM745 594v559l-421 -559h421z" />
    <glyph glyph-name="five" unicode="5" horiz-adv-x="1232" 
d="M618 -20q-134 0 -240.5 35t-172.5 94t-100.5 132.5t-34.5 155.5h307q15 -76 75 -129t166 -53q116 0 184 69.5t68 190.5t-68 191.5t-184 70.5q-97 0 -154.5 -46t-80.5 -118h-305l123 885h901v-252h-647l-47 -329q90 81 254 81q246 0 384 -124.5t138 -348.5
q0 -229 -148 -367t-418 -138z" />
    <glyph glyph-name="six" unicode="6" horiz-adv-x="1261" 
d="M645 -20q-289 0 -442.5 164t-153.5 495q0 411 155 625.5t443 214.5q225 0 360 -99t164 -303h-290q-11 74 -67 120t-152 46q-134 0 -207 -105.5t-93 -322.5q119 143 328 143q246 0 384 -125t138 -348q0 -226 -148.5 -365.5t-418.5 -139.5zM633 215q121 0 193.5 70.5
t72.5 191.5q0 120 -72.5 190t-193.5 70t-193.5 -70t-72.5 -190q0 -121 72.5 -191.5t193.5 -70.5z" />
    <glyph glyph-name="seven" unicode="7" horiz-adv-x="1056" 
d="M594 0h-326q0 347 124.5 655.5t361.5 550.5h-727v252h1003v-252q-246 -258 -341 -524.5t-95 -681.5z" />
    <glyph glyph-name="eight" unicode="8" horiz-adv-x="1257" 
d="M629 -20q-268 0 -424 114t-156 301q0 153 75 239t220 116q-116 27 -185 108.5t-69 206.5q0 184 143.5 299t395.5 115t395 -114.5t143 -299.5q0 -125 -69 -206.5t-185 -108.5q145 -30 220 -116t75 -239q0 -187 -155.5 -301t-423.5 -114zM629 215q121 0 193.5 53.5
t72.5 151.5t-72.5 151.5t-193.5 53.5q-120 0 -190 -53.5t-70 -151.5t70 -151.5t190 -53.5zM629 862q108 0 174.5 51t66.5 140q0 90 -66 140t-175 50t-175.5 -50t-66.5 -140q0 -89 67 -140t175 -51z" />
    <glyph glyph-name="nine" unicode="9" horiz-adv-x="1261" 
d="M616 1479q289 0 442.5 -164.5t153.5 -495.5q0 -411 -155 -625t-443 -214q-225 0 -360.5 98.5t-163.5 302.5h291q11 -74 67 -120t152 -46q134 0 206.5 105.5t92.5 322.5q-119 -143 -328 -143q-246 0 -384 125t-138 348q0 226 148.5 366t418.5 140zM629 1243
q-121 0 -194 -70.5t-73 -191.5q0 -120 73 -190t194 -70t193.5 70t72.5 190q0 121 -72.5 191.5t-193.5 70.5z" />
    <glyph glyph-name="colon" unicode=":" horiz-adv-x="493" 
d="M246 -18q-87 0 -136 46.5t-49 118.5q0 73 49 120.5t136 47.5q88 0 137 -47.5t49 -120.5q0 -72 -49 -118.5t-137 -46.5zM246 688q-87 0 -136 47.5t-49 120.5q0 72 49.5 119t135.5 47q88 0 137 -47t49 -119q0 -73 -49 -120.5t-137 -47.5z" />
    <glyph glyph-name="semicolon" unicode=";" horiz-adv-x="493" 
d="M201 -311l-160 67q44 74 58 145.5t14 200.5v209h268v-209q0 -148 -40 -246t-140 -167zM246 688q-87 0 -136 47.5t-49 120.5q0 72 49.5 119t135.5 47q88 0 137 -47t49 -119q0 -73 -49 -120.5t-137 -47.5z" />
    <glyph glyph-name="less" unicode="&#x3c;" horiz-adv-x="1101" 
d="M1022 225l-942 385v238l942 385v-275l-643 -229l643 -229v-275z" />
    <glyph glyph-name="equal" unicode="=" horiz-adv-x="1101" 
d="M1022 410h-942v223h942v-223zM1022 825h-942v224h942v-224z" />
    <glyph glyph-name="greater" unicode="&#x3e;" horiz-adv-x="1101" 
d="M1022 610l-942 -385v275l643 229l-643 229v275l942 -385v-238z" />
    <glyph glyph-name="question" unicode="?" horiz-adv-x="1130" 
d="M545 -18q-87 0 -136 46.5t-49 118.5q0 73 49 120.5t136 47.5q86 0 135 -47.5t49 -120.5q0 -72 -49 -118.5t-135 -46.5zM676 461h-262v65q0 78 18.5 138.5t48.5 97t66 64.5t72 50.5t66 45.5t48.5 57.5t18.5 79.5q0 81 -52.5 124.5t-134.5 43.5q-94 0 -145 -54t-64 -169
h-307q0 226 133.5 350.5t382.5 124.5q239 0 377.5 -117t138.5 -305q0 -68 -22.5 -122.5t-58 -90.5t-79 -65.5t-86.5 -54.5t-78.5 -51.5t-58 -63.5t-22.5 -83v-65z" />
    <glyph glyph-name="at" unicode="@" horiz-adv-x="1880" 
d="M858 164q-174 0 -276.5 118.5t-102.5 327.5t103 328t276 119q165 0 246 -123v108h256v-604q0 -82 82 -82q79 0 130.5 93.5t51.5 263.5q0 116 -45.5 220t-129.5 185t-216 128.5t-293 47.5q-218 0 -373.5 -86.5t-233 -239.5t-77.5 -358t77.5 -358t233 -239.5t373.5 -86.5
q228 0 432 90v-186q-206 -88 -432 -88q-200 0 -367 63.5t-282 177.5t-178.5 275t-63.5 352q0 255 109 452t312 307t470 110q198 0 367 -62t283 -166.5t177.5 -244t63.5 -293.5q0 -265 -125 -407t-324 -142q-96 0 -164.5 38t-99.5 107q-77 -145 -260 -145zM922 356
q86 0 134 64t48 190t-48 190t-134 64t-135.5 -64t-49.5 -190t49.5 -190t135.5 -64z" />
    <glyph glyph-name="A" unicode="A" horiz-adv-x="1482" 
d="M1475 0h-338l-95 270h-602l-94 -270h-338l531 1458h405zM963 522l-222 641l-221 -641h443z" />
    <glyph glyph-name="B" unicode="B" horiz-adv-x="1411" 
d="M1362 408q0 -184 -131.5 -296t-366.5 -112h-755v1458h714q237 0 367.5 -105.5t130.5 -287.5q0 -123 -61.5 -205.5t-182.5 -109.5q139 -26 212 -117t73 -225zM1032 434q0 90 -52.5 139.5t-154.5 49.5h-387v-377h387q102 0 154.5 49t52.5 139zM991 1038q0 174 -207 174
h-346v-348h346q207 0 207 174z" />
    <glyph glyph-name="C" unicode="C" horiz-adv-x="1525" 
d="M788 -20q-229 0 -397.5 95t-255 263.5t-86.5 390.5t86.5 391t255 264t397.5 95q149 0 277.5 -42.5t218.5 -117t141.5 -180t51.5 -226.5h-314q-20 135 -114 216t-261 81q-202 0 -305.5 -123.5t-103.5 -357.5t103.5 -357.5t305.5 -123.5q168 0 262 81t113 228h314
q0 -252 -191 -414.5t-498 -162.5z" />
    <glyph glyph-name="D" unicode="D" horiz-adv-x="1492" 
d="M1444 729q0 -349 -189 -539t-550 -190h-596v1458h596q361 0 550 -190t189 -539zM1114 729q0 471 -393 471h-283v-942h283q393 0 393 471z" />
    <glyph glyph-name="E" unicode="E" horiz-adv-x="1257" 
d="M1202 0h-1093v1458h1093v-268h-764v-320h699v-254h-699v-348h764v-268z" />
    <glyph glyph-name="F" unicode="F" horiz-adv-x="1228" 
d="M438 0h-329v1458h1093v-268h-764v-320h699v-254h-699v-616z" />
    <glyph glyph-name="G" unicode="G" horiz-adv-x="1562" 
d="M756 -20q-221 0 -382 95t-243 263t-82 391q0 222 86.5 391t255 264t397.5 95q158 0 287.5 -43t211.5 -115t126.5 -163t44.5 -191h-299q-30 108 -125 175.5t-246 67.5q-202 0 -305.5 -123.5t-103.5 -357.5t103.5 -357.5t305.5 -123.5q344 0 373 342h-334v223h648v-813
h-236l-31 217q-52 -119 -162 -178t-290 -59z" />
    <glyph glyph-name="H" unicode="H" horiz-adv-x="1495" 
d="M1386 0h-329v602h-619v-602h-329v1458h329v-573h619v573h329v-1458z" />
    <glyph glyph-name="I" unicode="I" horiz-adv-x="544" 
d="M438 0h-329v1458h329v-1458z" />
    <glyph glyph-name="J" unicode="J" horiz-adv-x="1183" 
d="M571 -20q-278 0 -401 134t-123 398v41h313v-41q0 -151 50.5 -207.5t152.5 -56.5t152.5 56.5t50.5 207.5v946h330v-946q0 -263 -123.5 -397.5t-401.5 -134.5z" />
    <glyph glyph-name="K" unicode="K" horiz-adv-x="1409" 
d="M1401 0h-383l-402 612l-184 -200v-412h-330v1458h330v-649l565 649h383l-549 -602z" />
    <glyph glyph-name="L" unicode="L" horiz-adv-x="1142" 
d="M1116 0h-1007v1458h329v-1190h678v-268z" />
    <glyph glyph-name="M" unicode="M" horiz-adv-x="1859" 
d="M1751 0h-313v1163l-371 -1163h-276l-369 1163v-1163h-313v1458h518l303 -956l303 956h518v-1458z" />
    <glyph glyph-name="N" unicode="N" horiz-adv-x="1495" 
d="M1386 0h-350l-614 987v-987h-313v1458h350l614 -987v987h313v-1458z" />
    <glyph glyph-name="O" unicode="O" horiz-adv-x="1576" 
d="M788 -20q-229 0 -397.5 95t-255 263.5t-86.5 390.5t86.5 391t255 264t397.5 95q172 0 312 -55t233.5 -153.5t144 -237t50.5 -304.5q0 -222 -86.5 -390.5t-255.5 -263.5t-398 -95zM788 248q202 0 306 123.5t104 357.5t-104 357.5t-306 123.5t-305.5 -123.5t-103.5 -357.5
t103.5 -357.5t305.5 -123.5z" />
    <glyph glyph-name="P" unicode="P" horiz-adv-x="1349" 
d="M1300 983q0 -226 -142.5 -350.5t-395.5 -124.5h-324v-508h-329v1458h653q253 0 395.5 -124.5t142.5 -350.5zM971 983q0 118 -65 173.5t-193 55.5h-275v-458h275q128 0 193 55.5t65 173.5z" />
    <glyph glyph-name="Q" unicode="Q" horiz-adv-x="1576" 
d="M1528 -164h-283l-143 197q-139 -53 -314 -53q-229 0 -397.5 95t-255 263.5t-86.5 390.5t86.5 391t255 264t397.5 95q172 0 312 -55t233.5 -153.5t144 -237t50.5 -304.5q0 -182 -59.5 -329.5t-172.5 -247.5zM788 248q80 0 144 18l-268 369h282l170 -236q82 119 82 330
q0 234 -104 357.5t-306 123.5t-305.5 -123.5t-103.5 -357.5t103.5 -357.5t305.5 -123.5z" />
    <glyph glyph-name="R" unicode="R" horiz-adv-x="1370" 
d="M1300 1036q0 -136 -67 -226.5t-195 -127.5q119 -24 180.5 -104.5t61.5 -202.5v-228q0 -89 20 -147h-317q-33 72 -33 147v215q0 63 -17 105.5t-50 64t-71.5 29.5t-92.5 8h-281v-569h-329v1458h694q237 0 367 -113t130 -309zM971 1014q0 94 -51.5 146t-155.5 52h-326v-397
h326q103 0 155 52.5t52 146.5z" />
    <glyph glyph-name="S" unicode="S" horiz-adv-x="1339" 
d="M670 -20q-308 0 -464.5 128.5t-156.5 366.5h324q15 -132 85.5 -191t219.5 -59q139 0 211 53t72 140q0 73 -57 115.5t-210 64.5l-170 25q-235 33 -336.5 123t-101.5 278q0 204 151 329.5t433 125.5q285 0 434 -127.5t149 -347.5h-313q-27 229 -278 229q-124 0 -185 -51
t-61 -138q0 -71 46.5 -105t180.5 -54l170 -23q239 -35 358 -134t119 -290q0 -208 -158.5 -333t-461.5 -125z" />
    <glyph glyph-name="T" unicode="T" horiz-adv-x="1249" 
d="M788 0h-329v1190h-432v268h1196v-268h-435v-1190z" />
    <glyph glyph-name="U" unicode="U" horiz-adv-x="1454" 
d="M727 -20q-317 0 -478 145t-161 428v905h330v-872q0 -187 72 -262.5t237 -75.5t237 75.5t72 262.5v872h330v-905q0 -283 -161 -428t-478 -145z" />
    <glyph glyph-name="V" unicode="V" horiz-adv-x="1482" 
d="M944 0h-405l-531 1458h354l379 -1130l379 1130h355z" />
    <glyph glyph-name="W" unicode="W" horiz-adv-x="2093" 
d="M1679 0h-397l-235 999l-236 -999h-397l-406 1458h354l261 -1063l256 1063h335l256 -1063l261 1063h354z" />
    <glyph glyph-name="X" unicode="X" horiz-adv-x="1441" 
d="M1434 0h-383l-330 496l-330 -496h-383l500 743l-479 715h383l309 -467l309 467h383l-479 -715z" />
    <glyph glyph-name="Y" unicode="Y" horiz-adv-x="1441" 
d="M557 0v578l-549 880h381l332 -571l332 571h381l-549 -880v-578h-328z" />
    <glyph glyph-name="Z" unicode="Z" horiz-adv-x="1232" 
d="M1167 0h-1101v223l671 967h-651v268h1061v-223l-674 -967h694v-268z" />
    <glyph glyph-name="bracketleft" unicode="[" horiz-adv-x="741" 
d="M717 -401h-608v2003h608v-220h-328v-1564h328v-219z" />
    <glyph glyph-name="backslash" unicode="\" horiz-adv-x="817" 
d="M817 0h-280l-537 1458h281z" />
    <glyph glyph-name="bracketright" unicode="]" horiz-adv-x="741" 
d="M633 -401h-608v219h327v1564h-327v220h608v-2003z" />
    <glyph glyph-name="asciicircum" unicode="^" horiz-adv-x="903" 
d="M879 799h-273l-153 366l-154 -366h-274l309 659h235z" />
    <glyph glyph-name="underscore" unicode="_" horiz-adv-x="1024" 
d="M1024 -309h-1024v207h1024v-207z" />
    <glyph glyph-name="grave" unicode="`" horiz-adv-x="1024" 
d="M762 1188h-240l-280 319h323z" />
    <glyph glyph-name="a" unicode="a" 
d="M434 -20q-186 0 -285.5 85t-99.5 234q0 64 19.5 116.5t61.5 95.5t114 71t170 36l225 19q63 6 88 25t25 55q0 68 -41.5 104.5t-120.5 36.5q-157 0 -172 -141h-312q0 171 117 265.5t363 94.5t362.5 -94.5t116.5 -265.5v-447q0 -212 33 -270h-285q-45 57 -45 147
q-45 -85 -124.5 -126t-209.5 -41zM526 188q104 0 165 68.5t61 169.5v59q-19 -22 -113 -32l-115 -9q-162 -14 -162 -122q0 -63 40.5 -98.5t123.5 -35.5z" />
    <glyph glyph-name="b" unicode="b" horiz-adv-x="1224" 
d="M709 -20q-229 0 -322 184v-164h-297v1458h313v-540q91 159 306 159t341 -145.5t126 -403.5q0 -257 -125.5 -402.5t-341.5 -145.5zM633 215q107 0 168 78t61 235q0 158 -61 236t-168 78t-168.5 -78.5t-61.5 -235.5t61.5 -235t168.5 -78z" />
    <glyph glyph-name="c" unicode="c" horiz-adv-x="1142" 
d="M598 -20q-259 0 -404 148.5t-145 399.5t145 400t404 149q127 0 228 -36.5t162.5 -98.5t93.5 -138.5t32 -160.5h-295q-13 93 -67 146t-154 53q-114 0 -175 -78.5t-61 -235.5t60.5 -235t175.5 -78q196 0 221 207h295q0 -91 -33.5 -170.5t-96.5 -140.5t-162.5 -96
t-223.5 -35z" />
    <glyph glyph-name="d" unicode="d" horiz-adv-x="1224" 
d="M516 -20q-216 0 -341.5 145.5t-125.5 402.5q0 258 126 403.5t341 145.5q214 0 305 -159v540h314v-1458h-297v164q-93 -184 -322 -184zM592 215q107 0 168 78t61 235q0 158 -61 236t-168 78t-168.5 -78.5t-61.5 -235.5t61.5 -235t168.5 -78z" />
    <glyph glyph-name="e" unicode="e" horiz-adv-x="1179" 
d="M602 -20q-262 0 -407.5 148.5t-145.5 399.5q0 250 142.5 399.5t398.5 149.5q255 0 397.5 -149t142.5 -391q0 -37 -6 -78h-762q4 -132 67 -201.5t173 -69.5q82 0 138.5 40.5t78.5 111.5h289q-35 -169 -163 -264.5t-343 -95.5zM590 868q-95 0 -153 -53.5t-75 -155.5h455
q-36 209 -227 209z" />
    <glyph glyph-name="f" unicode="f" horiz-adv-x="749" 
d="M492 0h-312v838h-160v219h160v73q0 178 80 259t260 81q48 0 189 -12v-209h-111q-55 0 -80.5 -26t-25.5 -82v-84h217v-219h-217v-838z" />
    <glyph glyph-name="g" unicode="g" horiz-adv-x="1224" 
d="M516 41q-213 0 -340 142t-127 376t127 376t340 142q229 0 322 -184v164h297v-965q0 -250 -135.5 -382t-405.5 -132q-240 0 -364 102.5t-124 282.5h295q24 -182 209 -182q211 0 211 223v197q-91 -160 -305 -160zM592 260q106 0 167.5 76.5t61.5 222.5t-61.5 222.5
t-167.5 76.5t-168 -76.5t-62 -222.5t62 -222.5t168 -76.5z" />
    <glyph glyph-name="h" unicode="h" 
d="M1065 0h-313v637q0 188 -152 188q-91 0 -144 -61.5t-53 -173.5v-590h-313v1458h313v-536q93 155 297 155q365 0 365 -379v-698z" />
    <glyph glyph-name="i" unicode="i" horiz-adv-x="493" 
d="M403 0h-313v1057h313v-1057zM246 1190q-83 0 -129.5 44t-46.5 114q0 69 46.5 113t129.5 44q84 0 131 -43.5t47 -113.5t-47 -114t-131 -44z" />
    <glyph glyph-name="j" unicode="j" horiz-adv-x="493" 
d="M-70 -401v219h62q98 0 98 108v1131h313v-1131q0 -160 -82 -243.5t-235 -83.5h-156zM246 1190q-83 0 -129.5 44t-46.5 114q0 69 46.5 113t129.5 44q84 0 131 -43.5t47 -113.5t-47 -114t-131 -44z" />
    <glyph glyph-name="k" unicode="k" horiz-adv-x="1187" 
d="M1180 0h-361l-276 424l-140 -141v-283h-313v1458h313v-821l396 420h360l-405 -414z" />
    <glyph glyph-name="l" unicode="l" horiz-adv-x="493" 
d="M403 0h-313v1458h313v-1458z" />
    <glyph glyph-name="m" unicode="m" horiz-adv-x="1681" 
d="M1591 0h-301v645q0 180 -127 180q-75 0 -124.5 -58.5t-49.5 -166.5v-600h-299v645q0 180 -127 180q-76 0 -125 -58.5t-49 -166.5v-600h-299v1057h297v-160q94 180 279 180q228 0 297 -184q41 85 117 134.5t180 49.5q331 0 331 -379v-698z" />
    <glyph glyph-name="n" unicode="n" 
d="M1065 0h-313v637q0 188 -152 188q-91 0 -144 -61.5t-53 -173.5v-590h-313v1057h297v-160q97 180 313 180q365 0 365 -379v-698z" />
    <glyph glyph-name="o" unicode="o" horiz-adv-x="1204" 
d="M602 -20q-262 0 -407.5 148.5t-145.5 399.5t145.5 400t407.5 149t407.5 -149t145.5 -400t-145.5 -399.5t-407.5 -148.5zM602 215q240 0 240 313q0 314 -240 314t-240 -314q0 -313 240 -313z" />
    <glyph glyph-name="p" unicode="p" horiz-adv-x="1224" 
d="M709 -20q-215 0 -306 159v-540h-313v1458h297v-164q93 184 322 184q215 0 341 -145.5t126 -403.5q0 -257 -125.5 -402.5t-341.5 -145.5zM633 215q107 0 168 78t61 235q0 158 -61 236t-168 78t-168.5 -78.5t-61.5 -235.5t61.5 -235t168.5 -78z" />
    <glyph glyph-name="q" unicode="q" horiz-adv-x="1224" 
d="M516 -20q-216 0 -341.5 145.5t-125.5 402.5q0 258 126 403.5t341 145.5q229 0 322 -184v164h297v-1458h-314v540q-91 -159 -305 -159zM592 215q107 0 168 78t61 235q0 158 -61 236t-168 78t-168.5 -78.5t-61.5 -235.5t61.5 -235t168.5 -78z" />
    <glyph glyph-name="r" unicode="r" horiz-adv-x="811" 
d="M403 0h-313v1057h297v-228q38 133 107 187.5t178 54.5q63 0 98 -14v-273l-111 2q-118 0 -187 -80t-69 -223v-483z" />
    <glyph glyph-name="s" unicode="s" horiz-adv-x="1101" 
d="M551 -20q-252 0 -377 96t-125 264h305q9 -80 55 -119t146 -39q94 0 139 32t45 85q0 85 -133 104l-168 23q-198 29 -279 100.5t-81 210.5q0 154 118 247t355 93q238 0 355.5 -93.5t117.5 -250.5h-305q-9 68 -45.5 104.5t-126.5 36.5q-156 0 -156 -110q0 -42 24 -64t77 -30
l165 -23q202 -30 299 -103t97 -225q0 -154 -125.5 -246.5t-376.5 -92.5z" />
    <glyph glyph-name="t" unicode="t" horiz-adv-x="761" 
d="M520 -12q-193 0 -266.5 72.5t-73.5 261.5v516h-160v219h160v319h312v-319h217v-219h-217v-529q0 -55 25 -77.5t81 -22.5h111v-209q-141 -12 -189 -12z" />
    <glyph glyph-name="u" unicode="u" 
d="M455 -20q-365 0 -365 378v699h313v-637q0 -189 152 -189q91 0 144 62t53 174v590h313v-1057h-297v160q-97 -180 -313 -180z" />
    <glyph glyph-name="v" unicode="v" 
d="M768 0h-381l-379 1057h326l244 -787l243 787h326z" />
    <glyph glyph-name="w" unicode="w" horiz-adv-x="1744" 
d="M1382 0h-329l-181 635l-180 -635h-330l-354 1057h326l213 -701l188 701h275l188 -701l213 701h326z" />
    <glyph glyph-name="x" unicode="x" horiz-adv-x="1114" 
d="M1106 0h-344l-205 311l-205 -311h-344l369 555l-348 502h344l184 -281l184 281h344l-348 -502z" />
    <glyph glyph-name="y" unicode="y" 
d="M104 -401v219h117q164 0 164 139q0 55 -27 131l-350 969h326l244 -819l243 819h326l-350 -969q-51 -142 -106 -235t-125 -150t-152 -80.5t-193 -23.5h-117z" />
    <glyph glyph-name="z" unicode="z" horiz-adv-x="991" 
d="M946 0h-901v203l516 635h-495v219h860v-203l-516 -635h536v-219z" />
    <glyph glyph-name="braceleft" unicode="{" horiz-adv-x="741" 
d="M717 -401h-158q-174 0 -263 94.5t-89 265.5v401q0 57 -32.5 93t-94.5 36h-55v222h55q62 0 94.5 36t32.5 93v401q0 171 89 266t263 95h158v-220h-99q-65 0 -98 -37.5t-33 -97.5v-393q0 -99 -53.5 -171t-159.5 -83q106 -11 159.5 -83t53.5 -171v-393q0 -60 33 -97.5
t98 -37.5h99v-219z" />
    <glyph glyph-name="bar" unicode="|" horiz-adv-x="462" 
d="M356 -401h-247v2003h247v-2003z" />
    <glyph glyph-name="braceright" unicode="}" horiz-adv-x="741" 
d="M180 -401h-155v219h98q65 0 98 37.5t33 97.5v393q0 99 53.5 171t159.5 83q-106 11 -159.5 83t-53.5 171v393q0 60 -33 97.5t-98 37.5h-98v220h155q175 0 265 -95t90 -266v-401q0 -57 32.5 -93t94.5 -36h55v-222h-55q-62 0 -94.5 -36t-32.5 -93v-401q0 -171 -90 -265.5
t-265 -94.5z" />
    <glyph glyph-name="asciitilde" unicode="~" horiz-adv-x="1101" 
d="M760 543q-55 0 -113.5 23.5t-99.5 51t-89.5 51t-84.5 23.5q-56 0 -85.5 -38t-29.5 -111h-178q0 182 70.5 277t191.5 95q55 0 113.5 -23.5t99.5 -51t89.5 -51t84.5 -23.5q56 0 85.5 38t29.5 111h178q0 -182 -70.5 -277t-191.5 -95z" />
    <glyph glyph-name="exclamdown" unicode="&#xa1;" horiz-adv-x="493" 
d="M412 -401h-330v462l84 535h162l84 -535v-462zM246 741q-87 0 -136 47.5t-49 120.5q0 72 49.5 119t135.5 47q88 0 137 -47t49 -119q0 -73 -49 -120.5t-137 -47.5z" />
    <glyph glyph-name="cent" unicode="&#xa2;" horiz-adv-x="1142" 
d="M653 -238h-110v220q-234 17 -364 163t-130 383q0 236 130 383t364 164v219h110v-219q113 -8 203 -47.5t145.5 -99.5t84 -133t28.5 -152h-295q-11 78 -52.5 129t-113.5 64v-617q143 26 166 203h295q0 -178 -121 -302.5t-340 -137.5v-220zM362 528q0 -273 181 -309v617
q-181 -36 -181 -308z" />
    <glyph glyph-name="sterling" unicode="&#xa3;" horiz-adv-x="1253" 
d="M977 -20q-62 0 -236 43t-262 43q-63 0 -136.5 -18.5t-215.5 -67.5l-78 215q81 30 134 88.5t72 119.5t19 127q0 26 -12 84h-213v138h156q-24 52 -37 83.5t-25 81t-12 95.5q0 220 142 343.5t395 123.5q254 0 395 -125t141 -350h-307q-13 116 -68 169.5t-155 53.5
q-99 0 -156 -56t-57 -157q0 -22 3 -46.5t6.5 -42t11.5 -45.5t12.5 -41t15.5 -45t14 -42h459v-138h-424q12 -54 12 -84q0 -145 -133 -237q57 14 123 14q68 0 217 -38t215 -38q141 0 211 43v-233q-95 -61 -227 -61z" />
    <glyph glyph-name="currency" unicode="&#xa4;" horiz-adv-x="1253" 
d="M627 248q-152 0 -279 86l-151 -152l-117 117l151 152q-86 122 -86 278q0 155 86 277l-151 153l117 117l151 -154q125 88 279 88t276 -88l154 154l117 -117l-154 -153q88 -125 88 -277q0 -153 -88 -278l154 -152l-117 -117l-154 152q-123 -86 -276 -86zM627 483
q107 0 176 71.5t69 174.5t-69 174.5t-176 71.5t-176.5 -71.5t-69.5 -174.5t69.5 -174.5t176.5 -71.5z" />
    <glyph glyph-name="yen" unicode="&#xa5;" horiz-adv-x="1339" 
d="M825 0h-311v211h-319v139h319v172h-319v140h266l-504 796h373l340 -588l340 588h372l-503 -796h266v-140h-320v-172h320v-139h-320v-211z" />
    <glyph glyph-name="brokenbar" unicode="&#xa6;" horiz-adv-x="462" 
d="M356 -401h-247v856h247v-856zM356 745h-247v857h247v-857z" />
    <glyph glyph-name="section" unicode="&#xa7;" horiz-adv-x="1290" 
d="M1241 465q0 -96 -56 -170t-177 -109q70 -41 104.5 -107.5t34.5 -144.5q0 -165 -125 -260.5t-377 -95.5t-377 96.5t-125 264.5h306q9 -79 56 -118.5t144 -39.5q185 0 185 147q0 57 -29 98t-96 74l-430 209q-121 60 -175.5 126t-54.5 171q0 102 60 174t182 105
q-119 96 -119 237q0 166 117 261.5t356 95.5q238 0 355.5 -93.5t117.5 -250.5h-305q-9 68 -45.5 104.5t-126.5 36.5q-156 0 -156 -148q0 -53 25 -89.5t84 -65.5l399 -193q65 -31 106 -58t75.5 -63.5t50.5 -84t16 -109.5zM928 442q0 59 -28.5 98.5t-88.5 67.5l-334 164
q-55 -13 -85 -53.5t-30 -89.5q0 -56 23.5 -90.5t75.5 -59.5l360 -178q56 16 81.5 55t25.5 86z" />
    <glyph glyph-name="dieresis" unicode="&#xa8;" horiz-adv-x="1024" 
d="M311 1212q-71 0 -111 38.5t-40 97.5t40 97t111 38t111.5 -38t40.5 -97t-40.5 -97.5t-111.5 -38.5zM713 1212q-71 0 -111.5 38.5t-40.5 97.5t40.5 97t111.5 38t111 -38t40 -97t-40 -97.5t-111 -38.5z" />
    <glyph glyph-name="copyright" unicode="&#xa9;" horiz-adv-x="1650" 
d="M825 -20q-174 0 -319.5 55t-245.5 153t-155.5 237t-55.5 304t55.5 304t155.5 237.5t245.5 153.5t319.5 55q232 0 409 -94.5t272.5 -265t95.5 -390.5t-95.5 -390t-272.5 -264.5t-409 -94.5zM825 164q262 0 416 155.5t154 409.5t-154 409.5t-416 155.5t-415.5 -155.5
t-153.5 -409.5t153.5 -409.5t415.5 -155.5zM836 344q-182 0 -283.5 104.5t-101.5 280.5t101.5 280.5t283.5 104.5q90 0 161 -25.5t113.5 -69t65 -96.5t22.5 -112h-209q-9 63 -47 99t-106 36q-78 0 -120 -55t-42 -162t42 -162t120 -55q133 0 153 141h209q0 -133 -94.5 -221
t-267.5 -88z" />
    <glyph glyph-name="ordfeminine" unicode="&#xaa;" horiz-adv-x="1021" 
d="M383 524q-160 0 -247 74.5t-87 204.5q0 115 75.5 189t242.5 87l196 17q54 4 75 20.5t21 48.5q0 59 -36 90t-105 31q-132 0 -147 -121h-273q0 149 102 231.5t316 82.5q213 0 314.5 -82.5t101.5 -231.5v-389q0 -186 29 -233h-248q-39 45 -39 127q-39 -74 -108.5 -110
t-182.5 -36zM463 709q91 0 143.5 58t52.5 146v50q-23 -23 -98 -29l-98 -6q-139 -11 -139 -105q0 -114 139 -114z" />
    <glyph glyph-name="guillemotleft" unicode="&#xab;" horiz-adv-x="995" 
d="M453 166l-344 303v238l344 303v-275l-164 -147l164 -148v-274zM887 166l-344 303v238l344 303v-275l-164 -147l164 -148v-274z" />
    <glyph glyph-name="logicalnot" unicode="&#xac;" horiz-adv-x="1101" 
d="M1022 436h-254v350h-688v236h942v-586z" />
    <glyph glyph-name="uni00AD" unicode="&#xad;" horiz-adv-x="757" 
d="M678 469h-598v238h598v-238z" />
    <glyph glyph-name="registered" unicode="&#xae;" horiz-adv-x="1206" 
d="M604 410q-251 0 -403 147.5t-152 386.5t152 387t403 148t402 -148t151 -387t-151 -386.5t-402 -147.5zM604 516q198 0 315 117.5t117 310.5t-117 310.5t-315 117.5q-200 0 -317 -117t-117 -311t117 -311t317 -117zM834 1055q0 -99 -97 -127q88 -21 88 -113v-84
q0 -26 9 -53h-132q-12 28 -12 53v74q0 76 -84 76h-74v-203h-135v532h254q87 0 135 -41t48 -114zM698 1047q0 32 -17.5 46.5t-57.5 14.5h-91v-127h91q40 0 57.5 15.5t17.5 50.5z" />
    <glyph glyph-name="macron" unicode="&#xaf;" horiz-adv-x="1024" 
d="M836 1262h-648v172h648v-172z" />
    <glyph glyph-name="degree" unicode="&#xb0;" horiz-adv-x="712" 
d="M356 848q-150 0 -238.5 90t-88.5 225t89 225.5t238 90.5q150 0 239 -90.5t89 -225.5t-89 -225t-239 -90zM356 1012q67 0 106.5 42t39.5 109t-39.5 109.5t-106.5 42.5q-68 0 -106.5 -42t-38.5 -110q0 -67 38.5 -109t106.5 -42z" />
    <glyph glyph-name="plusminus" unicode="&#xb1;" horiz-adv-x="1101" 
d="M1022 0h-942v236h942v-236zM678 389h-254v287h-344v237h344v287h254v-287h344v-237h-344v-287z" />
    <glyph glyph-name="twosuperior" unicode="&#xb2;" horiz-adv-x="751" 
d="M702 1008h-653v102q0 135 53.5 207t180.5 119l118 43q53 20 75 51t22 82q0 47 -30 73.5t-81 26.5q-56 0 -88.5 -30t-40.5 -107h-188q0 147 80 226t235 79q149 0 233 -75t84 -199q0 -191 -217 -273l-127 -45q-98 -37 -104 -112h448v-168z" />
    <glyph glyph-name="threesuperior" unicode="&#xb3;" horiz-adv-x="780" 
d="M391 995q-342 0 -342 305h191q7 -75 44.5 -106t106.5 -31q67 0 101 31t34 84q0 94 -120 94h-99v148h86q121 0 121 86q0 47 -34.5 76.5t-90.5 29.5q-126 0 -137 -113h-191q0 129 86 205t244 76q148 0 238 -70t90 -178q0 -152 -144 -182q156 -41 156 -207
q0 -110 -92.5 -179t-247.5 -69z" />
    <glyph glyph-name="acute" unicode="&#xb4;" horiz-adv-x="1024" 
d="M502 1188h-240l197 319h323z" />
    <glyph glyph-name="mu" unicode="&#xb5;" 
d="M520 -20q-78 0 -117 36v-417h-313v1458h313v-637q0 -189 152 -189q91 0 144 62t53 174v590h313v-1057h-297v160q-57 -180 -248 -180z" />
    <glyph glyph-name="paragraph" unicode="&#xb6;" horiz-adv-x="1253" 
d="M1147 -401h-232v1642h-239v-1642h-230v1089q-177 0 -291 106.5t-114 278.5t114 278.5t291 106.5h701v-1859z" />
    <glyph glyph-name="periodcentered" unicode="&#xb7;" horiz-adv-x="493" 
d="M246 422q-87 0 -136 46.5t-49 119.5t49 119.5t136 46.5q88 0 137 -46.5t49 -119.5t-49 -119.5t-137 -46.5z" />
    <glyph glyph-name="cedilla" unicode="&#xb8;" horiz-adv-x="1024" 
d="M733 -219q0 -86 -69 -127t-222 -41l-151 14v115h147q48 0 71 12t23 41q0 53 -94 53h-53v66l92 109h109l-92 -109q110 0 174.5 -32t64.5 -101z" />
    <glyph glyph-name="onesuperior" unicode="&#xb9;" horiz-adv-x="561" 
d="M453 1008h-205v553q-21 -11 -71.5 -18t-84.5 -7h-43v156q101 4 158 46.5t80 129.5h166v-860z" />
    <glyph glyph-name="ordmasculine" unicode="&#xba;" horiz-adv-x="1060" 
d="M530 524q-227 0 -354 129.5t-127 347.5q0 219 127 348.5t354 129.5t354.5 -130t127.5 -348t-127.5 -347.5t-354.5 -129.5zM530 731q100 0 154.5 68t54.5 202t-54.5 202.5t-154.5 68.5t-153 -68t-53 -203t53 -202.5t153 -67.5z" />
    <glyph glyph-name="guillemotright" unicode="&#xbb;" horiz-adv-x="995" 
d="M453 469l-344 -303v274l163 148l-163 147v275l344 -303v-238zM887 469l-344 -303v274l164 148l-164 147v275l344 -303v-238z" />
    <glyph glyph-name="onequarter" unicode="&#xbc;" horiz-adv-x="1572" 
d="M453 598h-205v553q-21 -11 -71.5 -18t-84.5 -7h-43v156q101 4 158 46.5t80 129.5h166v-860zM426 0h-184l782 1458h184zM1411 0h-199v197h-407v184l377 479h229v-506h113v-157h-113v-197zM1212 354v297l-229 -297h229z" />
    <glyph glyph-name="onehalf" unicode="&#xbd;" horiz-adv-x="1601" 
d="M453 598h-205v553q-21 -11 -71.5 -18t-84.5 -7h-43v156q101 4 158 46.5t80 129.5h166v-860zM426 0h-184l782 1458h184zM1552 0h-655v102q0 135 53.5 207t182.5 119l116 43q53 20 76 51.5t23 81.5q0 47 -30 74t-83 27q-55 0 -86.5 -30.5t-40.5 -107.5h-190q0 147 80 226
t235 79q150 0 234.5 -75t84.5 -199q0 -190 -217 -272l-127 -45q-96 -35 -106 -113h450v-168z" />
    <glyph glyph-name="threequarters" unicode="&#xbe;" horiz-adv-x="1744" 
d="M391 586q-342 0 -342 305h191q7 -75 44.5 -106t106.5 -31q67 0 101 30.5t34 83.5q0 95 -120 95h-99v147h86q121 0 121 86q0 47 -35 77t-90 30q-126 0 -137 -113h-191q0 129 86 204.5t244 75.5q148 0 238 -69.5t90 -177.5q0 -153 -144 -183q156 -41 156 -206
q0 -110 -92.5 -179t-247.5 -69zM600 0h-184l782 1458h184zM1585 0h-199v197h-407v184l375 479h231v-506h111v-157h-111v-197zM1386 354v297l-229 -297h229z" />
    <glyph glyph-name="questiondown" unicode="&#xbf;" horiz-adv-x="1130" 
d="M565 -422q-239 0 -377.5 117t-138.5 305q0 68 22.5 122.5t58 90t79 65t87 55t79 51.5t58 63t22.5 83v66h262v-66q0 -78 -18.5 -138.5t-48.5 -96.5t-66 -64.5t-72 -50.5t-66 -45t-48.5 -57.5t-18.5 -79.5q0 -81 52 -124.5t134 -43.5q94 0 145 54t64 169h307
q0 -226 -133.5 -350.5t-382.5 -124.5zM586 741q-87 0 -136 47.5t-49 120.5q0 72 49.5 119t135.5 47t135 -47t49 -119q0 -73 -49 -120.5t-135 -47.5z" />
    <glyph glyph-name="Agrave" unicode="&#xc0;" horiz-adv-x="1482" 
d="M1475 0h-338l-95 270h-602l-94 -270h-338l531 1458h405zM963 522l-222 641l-221 -641h443zM860 1577h-237l-283 319h326z" />
    <glyph glyph-name="Aacute" unicode="&#xc1;" horiz-adv-x="1482" 
d="M1475 0h-338l-95 270h-602l-94 -270h-338l531 1458h405zM963 522l-222 641l-221 -641h443zM860 1577h-237l194 319h326z" />
    <glyph glyph-name="Acircumflex" unicode="&#xc2;" horiz-adv-x="1482" 
d="M1475 0h-338l-95 270h-602l-94 -270h-338l531 1458h405zM963 522l-222 641l-221 -641h443zM1085 1577h-225l-119 154l-118 -154h-226l226 319h237z" />
    <glyph glyph-name="Atilde" unicode="&#xc3;" horiz-adv-x="1482" 
d="M1475 0h-338l-95 270h-602l-94 -270h-338l531 1458h405zM963 522l-222 641l-221 -641h443zM874 1585q-54 0 -103.5 29.5t-86.5 58.5t-61 29q-32 0 -51 -30.5t-19 -86.5h-156q0 303 211 303q42 0 83 -18t67 -40t54 -40t48 -18q32 0 51 30t19 86h155q0 -303 -211 -303z" />
    <glyph glyph-name="Adieresis" unicode="&#xc4;" horiz-adv-x="1482" 
d="M1475 0h-338l-95 270h-602l-94 -270h-338l531 1458h405zM963 522l-222 641l-221 -641h443zM541 1602q-71 0 -111.5 38t-40.5 97t40.5 97t111.5 38t111 -38t40 -97t-40 -97t-111 -38zM942 1602q-71 0 -111 38t-40 97t40 97t111 38t111.5 -38t40.5 -97t-40.5 -97
t-111.5 -38z" />
    <glyph glyph-name="Aring" unicode="&#xc5;" horiz-adv-x="1482" 
d="M1475 0h-338l-95 270h-602l-94 -270h-338l531 1458h30q-118 68 -118 219q0 116 76.5 188t213.5 72t214 -72t77 -188q0 -151 -121 -219h33zM963 522l-222 641l-221 -641h443zM741 1563q54 0 83.5 31t29.5 83q0 53 -29.5 85t-83.5 32t-83 -32t-29 -85q0 -52 29 -83t83 -31z
" />
    <glyph glyph-name="AE" unicode="&#xc6;" horiz-adv-x="2193" 
d="M2138 0h-1094v270h-569l-129 -270h-338l694 1458h1436v-268h-764v-320h699v-254h-699v-348h764v-268zM1044 522v668h-133l-319 -668h452z" />
    <glyph glyph-name="Ccedilla" unicode="&#xc7;" horiz-adv-x="1525" 
d="M1010 -219q0 -86 -69 -127t-222 -41l-152 14v115h148q48 0 71 12t23 41q0 53 -94 53h-53v66l57 68q-209 14 -361 112t-230.5 261t-78.5 374q0 222 86.5 391t255 264t397.5 95q149 0 277.5 -42.5t218.5 -117t141.5 -180t51.5 -226.5h-314q-20 135 -114 216t-261 81
q-202 0 -305.5 -123.5t-103.5 -357.5t103.5 -357.5t305.5 -123.5q168 0 262 81t113 228h314q0 -161 -81 -289.5t-229.5 -204.5t-341.5 -83l-55 -66q110 0 175 -32.5t65 -100.5z" />
    <glyph glyph-name="Egrave" unicode="&#xc8;" horiz-adv-x="1257" 
d="M1202 0h-1093v1458h1093v-268h-764v-320h699v-254h-699v-348h764v-268zM774 1577h-237l-283 319h326z" />
    <glyph glyph-name="Eacute" unicode="&#xc9;" horiz-adv-x="1257" 
d="M1202 0h-1093v1458h1093v-268h-764v-320h699v-254h-699v-348h764v-268zM774 1577h-237l194 319h326z" />
    <glyph glyph-name="Ecircumflex" unicode="&#xca;" horiz-adv-x="1257" 
d="M1202 0h-1093v1458h1093v-268h-764v-320h699v-254h-699v-348h764v-268zM999 1577h-227l-117 154l-118 -154h-226l224 319h239z" />
    <glyph glyph-name="Edieresis" unicode="&#xcb;" horiz-adv-x="1257" 
d="M1202 0h-1093v1458h1093v-268h-764v-320h699v-254h-699v-348h764v-268zM455 1602q-71 0 -111.5 38t-40.5 97t40.5 97t111.5 38q70 0 110.5 -38t40.5 -97t-40.5 -97t-110.5 -38zM856 1602q-71 0 -111 38t-40 97t40 97t111 38q70 0 111 -38t41 -97t-41 -97t-111 -38z" />
    <glyph glyph-name="Igrave" unicode="&#xcc;" horiz-adv-x="544" 
d="M438 0h-329v1458h329v-1458zM391 1577h-237l-283 319h326z" />
    <glyph glyph-name="Iacute" unicode="&#xcd;" horiz-adv-x="544" 
d="M438 0h-329v1458h329v-1458zM391 1577h-237l194 319h326z" />
    <glyph glyph-name="Icircumflex" unicode="&#xce;" horiz-adv-x="544" 
d="M438 0h-329v1458h329v-1458zM616 1577h-225l-119 154l-116 -154h-228l226 319h239z" />
    <glyph glyph-name="Idieresis" unicode="&#xcf;" horiz-adv-x="544" 
d="M438 0h-329v1458h329v-1458zM72 1602q-70 0 -111 38t-41 97t41 97t111 38q71 0 111 -38t40 -97t-40 -97t-111 -38zM473 1602q-70 0 -110.5 38t-40.5 97t40.5 97t110.5 38q71 0 111.5 -38t40.5 -97t-40.5 -97t-111.5 -38z" />
    <glyph glyph-name="Eth" unicode="&#xd0;" horiz-adv-x="1533" 
d="M1485 729q0 -349 -189.5 -539t-550.5 -190h-595v657h-150v172h150v629h595q361 0 550.5 -190t189.5 -539zM801 657h-322v-399h283q393 0 393 471t-393 471h-283v-371h322v-172z" />
    <glyph glyph-name="Ntilde" unicode="&#xd1;" horiz-adv-x="1495" 
d="M1386 0h-350l-614 987v-987h-313v1458h350l614 -987v987h313v-1458zM881 1585q-42 0 -83 18.5t-67 40t-54 40t-48 18.5q-33 0 -52.5 -30.5t-19.5 -86.5h-154q0 303 211 303q42 0 83 -18t66.5 -40t54 -40t48.5 -18q32 0 51 30t19 86h156q0 -303 -211 -303z" />
    <glyph glyph-name="Ograve" unicode="&#xd2;" horiz-adv-x="1576" 
d="M788 -20q-229 0 -397.5 95t-255 263.5t-86.5 390.5t86.5 391t255 264t397.5 95q172 0 312 -55t233.5 -153.5t144 -237t50.5 -304.5q0 -222 -86.5 -390.5t-255.5 -263.5t-398 -95zM788 248q202 0 306 123.5t104 357.5t-104 357.5t-306 123.5t-305.5 -123.5t-103.5 -357.5
t103.5 -357.5t305.5 -123.5zM907 1577h-237l-283 319h326z" />
    <glyph glyph-name="Oacute" unicode="&#xd3;" horiz-adv-x="1576" 
d="M788 -20q-229 0 -397.5 95t-255 263.5t-86.5 390.5t86.5 391t255 264t397.5 95q172 0 312 -55t233.5 -153.5t144 -237t50.5 -304.5q0 -222 -86.5 -390.5t-255.5 -263.5t-398 -95zM788 248q202 0 306 123.5t104 357.5t-104 357.5t-306 123.5t-305.5 -123.5t-103.5 -357.5
t103.5 -357.5t305.5 -123.5zM907 1577h-237l194 319h326z" />
    <glyph glyph-name="Ocircumflex" unicode="&#xd4;" horiz-adv-x="1576" 
d="M788 -20q-229 0 -397.5 95t-255 263.5t-86.5 390.5t86.5 391t255 264t397.5 95q172 0 312 -55t233.5 -153.5t144 -237t50.5 -304.5q0 -222 -86.5 -390.5t-255.5 -263.5t-398 -95zM788 248q202 0 306 123.5t104 357.5t-104 357.5t-306 123.5t-305.5 -123.5t-103.5 -357.5
t103.5 -357.5t305.5 -123.5zM1133 1577h-226l-119 154l-118 -154h-226l226 319h237z" />
    <glyph glyph-name="Otilde" unicode="&#xd5;" horiz-adv-x="1576" 
d="M788 -20q-229 0 -397.5 95t-255 263.5t-86.5 390.5t86.5 391t255 264t397.5 95q172 0 312 -55t233.5 -153.5t144 -237t50.5 -304.5q0 -222 -86.5 -390.5t-255.5 -263.5t-398 -95zM788 248q202 0 306 123.5t104 357.5t-104 357.5t-306 123.5t-305.5 -123.5t-103.5 -357.5
t103.5 -357.5t305.5 -123.5zM922 1585q-42 0 -83 18.5t-67 40t-54 40t-48 18.5q-32 0 -51 -30.5t-19 -86.5h-156q0 303 211 303q42 0 83 -18t67 -40t54 -40t48 -18q32 0 51 30t19 86h156q0 -303 -211 -303z" />
    <glyph glyph-name="Odieresis" unicode="&#xd6;" horiz-adv-x="1576" 
d="M788 -20q-229 0 -397.5 95t-255 263.5t-86.5 390.5t86.5 391t255 264t397.5 95q172 0 312 -55t233.5 -153.5t144 -237t50.5 -304.5q0 -222 -86.5 -390.5t-255.5 -263.5t-398 -95zM788 248q202 0 306 123.5t104 357.5t-104 357.5t-306 123.5t-305.5 -123.5t-103.5 -357.5
t103.5 -357.5t305.5 -123.5zM588 1602q-71 0 -111.5 38t-40.5 97t40.5 97t111.5 38t111 -38t40 -97t-40 -97t-111 -38zM989 1602q-71 0 -111 38t-40 97t40 97t111 38t111.5 -38t40.5 -97t-40.5 -97t-111.5 -38z" />
    <glyph glyph-name="multiply" unicode="&#xd7;" horiz-adv-x="1101" 
d="M856 258l-305 305l-305 -305l-166 166l305 305l-305 305l166 166l305 -305l305 305l166 -166l-305 -305l305 -305z" />
    <glyph glyph-name="Oslash" unicode="&#xd8;" horiz-adv-x="1576" 
d="M141 -20l-92 92l156 157q-156 197 -156 500q0 222 86.5 391t255 264t397.5 95q299 0 492 -160l156 160l92 -93l-158 -159q158 -197 158 -498q0 -222 -86.5 -390.5t-255.5 -263.5t-398 -95q-298 0 -491 157zM379 729q0 -165 49 -272l645 653q-103 100 -285 100
q-202 0 -305.5 -123.5t-103.5 -357.5zM788 248q202 0 306 123.5t104 357.5q0 164 -51 272l-643 -653q103 -100 284 -100z" />
    <glyph glyph-name="Ugrave" unicode="&#xd9;" horiz-adv-x="1454" 
d="M727 -20q-317 0 -478 145t-161 428v905h330v-872q0 -187 72 -262.5t237 -75.5t237 75.5t72 262.5v872h330v-905q0 -283 -161 -428t-478 -145zM846 1577h-238l-282 319h325z" />
    <glyph glyph-name="Uacute" unicode="&#xda;" horiz-adv-x="1454" 
d="M727 -20q-317 0 -478 145t-161 428v905h330v-872q0 -187 72 -262.5t237 -75.5t237 75.5t72 262.5v872h330v-905q0 -283 -161 -428t-478 -145zM846 1577h-238l195 319h325z" />
    <glyph glyph-name="Ucircumflex" unicode="&#xdb;" horiz-adv-x="1454" 
d="M727 -20q-317 0 -478 145t-161 428v905h330v-872q0 -187 72 -262.5t237 -75.5t237 75.5t72 262.5v872h330v-905q0 -283 -161 -428t-478 -145zM1071 1577h-227l-117 154l-119 -154h-225l223 319h240z" />
    <glyph glyph-name="Udieresis" unicode="&#xdc;" horiz-adv-x="1454" 
d="M727 -20q-317 0 -478 145t-161 428v905h330v-872q0 -187 72 -262.5t237 -75.5t237 75.5t72 262.5v872h330v-905q0 -283 -161 -428t-478 -145zM526 1602q-71 0 -111 38t-40 97t40 97t111 38q70 0 111 -38t41 -97t-41 -97t-111 -38zM928 1602q-71 0 -111.5 38t-40.5 97
t40.5 97t111.5 38q70 0 110.5 -38t40.5 -97t-40.5 -97t-110.5 -38z" />
    <glyph glyph-name="Yacute" unicode="&#xdd;" horiz-adv-x="1441" 
d="M557 0v578l-549 880h381l332 -571l332 571h381l-549 -880v-578h-328zM840 1577h-238l195 319h325z" />
    <glyph glyph-name="Thorn" unicode="&#xde;" horiz-adv-x="1349" 
d="M1300 729q0 -232 -146 -359.5t-406 -127.5h-310v-242h-329v1458h329v-241h310q259 0 405.5 -128t146.5 -360zM971 729q0 242 -273 242h-260v-484h260q273 0 273 242z" />
    <glyph glyph-name="germandbls" unicode="&#xdf;" horiz-adv-x="1224" 
d="M750 -12q-18 0 -177 12v219l115 -2q174 0 174 164q0 42 -17.5 82.5t-43 73.5l-51 66t-43 71t-17.5 76q0 32 16 66t35.5 60.5t35.5 69.5t16 90q0 95 -51.5 151t-143.5 56t-143.5 -56t-51.5 -151v-1036h-313v1036q0 92 29 170.5t87 140.5t154.5 97t221.5 35t221 -35
t154 -97t87 -140.5t29 -170.5q0 -47 -16 -90t-35 -69.5t-35 -60.5t-16 -66q0 -29 21 -62t51.5 -66t60.5 -68.5t51 -80.5t21 -92q0 -184 -104 -288.5t-322 -104.5z" />
    <glyph glyph-name="agrave" unicode="&#xe0;" 
d="M434 -20q-186 0 -285.5 85t-99.5 234q0 64 19.5 116.5t61.5 95.5t114 71t170 36l225 19q63 6 88 25t25 55q0 68 -41.5 104.5t-120.5 36.5q-157 0 -172 -141h-312q0 171 117 265.5t363 94.5t362.5 -94.5t116.5 -265.5v-447q0 -212 33 -270h-285q-45 57 -45 147
q-45 -85 -124.5 -126t-209.5 -41zM526 188q104 0 165 68.5t61 169.5v59q-19 -22 -113 -32l-115 -9q-162 -14 -162 -122q0 -63 40.5 -98.5t123.5 -35.5zM705 1188h-238l-283 319h326z" />
    <glyph glyph-name="aacute" unicode="&#xe1;" 
d="M434 -20q-186 0 -285.5 85t-99.5 234q0 64 19.5 116.5t61.5 95.5t114 71t170 36l225 19q63 6 88 25t25 55q0 68 -41.5 104.5t-120.5 36.5q-157 0 -172 -141h-312q0 171 117 265.5t363 94.5t362.5 -94.5t116.5 -265.5v-447q0 -212 33 -270h-285q-45 57 -45 147
q-45 -85 -124.5 -126t-209.5 -41zM526 188q104 0 165 68.5t61 169.5v59q-19 -22 -113 -32l-115 -9q-162 -14 -162 -122q0 -63 40.5 -98.5t123.5 -35.5zM705 1188h-238l195 319h325z" />
    <glyph glyph-name="acircumflex" unicode="&#xe2;" 
d="M434 -20q-186 0 -285.5 85t-99.5 234q0 64 19.5 116.5t61.5 95.5t114 71t170 36l225 19q63 6 88 25t25 55q0 68 -41.5 104.5t-120.5 36.5q-157 0 -172 -141h-312q0 171 117 265.5t363 94.5t362.5 -94.5t116.5 -265.5v-447q0 -212 33 -270h-285q-45 57 -45 147
q-45 -85 -124.5 -126t-209.5 -41zM526 188q104 0 165 68.5t61 169.5v59q-19 -22 -113 -32l-115 -9q-162 -14 -162 -122q0 -63 40.5 -98.5t123.5 -35.5zM930 1188h-225l-119 153l-119 -153h-225l225 319h238z" />
    <glyph glyph-name="atilde" unicode="&#xe3;" 
d="M434 -20q-186 0 -285.5 85t-99.5 234q0 64 19.5 116.5t61.5 95.5t114 71t170 36l225 19q63 6 88 25t25 55q0 68 -41.5 104.5t-120.5 36.5q-157 0 -172 -141h-312q0 171 117 265.5t363 94.5t362.5 -94.5t116.5 -265.5v-447q0 -212 33 -270h-285q-45 57 -45 147
q-45 -85 -124.5 -126t-209.5 -41zM526 188q104 0 165 68.5t61 169.5v59q-19 -22 -113 -32l-115 -9q-162 -14 -162 -122q0 -63 40.5 -98.5t123.5 -35.5zM719 1196q-42 0 -83 18.5t-67 40t-54 40t-48 18.5q-32 0 -51 -30.5t-19 -86.5h-155q0 303 211 303q42 0 83 -18.5t67 -40
t54 -40t48 -18.5q31 0 50 30.5t19 86.5h156q0 -303 -211 -303z" />
    <glyph glyph-name="adieresis" unicode="&#xe4;" 
d="M434 -20q-186 0 -285.5 85t-99.5 234q0 64 19.5 116.5t61.5 95.5t114 71t170 36l225 19q63 6 88 25t25 55q0 68 -41.5 104.5t-120.5 36.5q-157 0 -172 -141h-312q0 171 117 265.5t363 94.5t362.5 -94.5t116.5 -265.5v-447q0 -212 33 -270h-285q-45 57 -45 147
q-45 -85 -124.5 -126t-209.5 -41zM526 188q104 0 165 68.5t61 169.5v59q-19 -22 -113 -32l-115 -9q-162 -14 -162 -122q0 -63 40.5 -98.5t123.5 -35.5zM385 1212q-71 0 -111.5 38.5t-40.5 97.5t40.5 97t111.5 38t111.5 -38t40.5 -97t-40.5 -97.5t-111.5 -38.5zM786 1212
q-71 0 -111 38.5t-40 97.5t40 97t111 38t111.5 -38t40.5 -97t-40.5 -97.5t-111.5 -38.5z" />
    <glyph glyph-name="aring" unicode="&#xe5;" 
d="M434 -20q-186 0 -285.5 85t-99.5 234q0 64 19.5 116.5t61.5 95.5t114 71t170 36l225 19q63 6 88 25t25 55q0 68 -41.5 104.5t-120.5 36.5q-157 0 -172 -141h-312q0 171 117 265.5t363 94.5t362.5 -94.5t116.5 -265.5v-447q0 -212 33 -270h-285q-45 57 -45 147
q-45 -85 -124.5 -126t-209.5 -41zM526 188q104 0 165 68.5t61 169.5v59q-19 -22 -113 -32l-115 -9q-162 -14 -162 -122q0 -63 40.5 -98.5t123.5 -35.5zM586 1139q-137 0 -214 72t-77 188t77 188t214 72t214 -72t77 -188t-77 -188t-214 -72zM586 1284q54 0 83 31.5t29 83.5
t-29 83t-83 31t-83.5 -31t-29.5 -83t29.5 -83.5t83.5 -31.5z" />
    <glyph glyph-name="ae" unicode="&#xe6;" horiz-adv-x="1882" 
d="M1305 -20q-315 0 -426 251q-63 -136 -172.5 -193.5t-272.5 -57.5q-186 0 -285.5 85t-99.5 234q0 132 86.5 216.5t278.5 102.5l225 19q63 6 88 25t25 55q0 68 -41.5 104.5t-120.5 36.5q-157 0 -172 -141h-312q0 171 117 265.5t363 94.5q276 0 354 -155q117 155 352 155
q255 0 398 -149t143 -391q0 -24 -4 -78h-764q6 -132 68 -201.5t172 -69.5q83 0 139 40t78 112h288q-35 -169 -162.5 -264.5t-342.5 -95.5zM526 188q104 0 165 68.5t61 169.5v59q-22 -22 -113 -32l-115 -9q-162 -14 -162 -122q0 -63 40.5 -98.5t123.5 -35.5zM1292 868
q-191 0 -227 -209h455q-17 102 -75 155.5t-153 53.5z" />
    <glyph glyph-name="ccedilla" unicode="&#xe7;" horiz-adv-x="1142" 
d="M819 -219q0 -86 -69 -127t-222 -41l-151 14v115h147q48 0 71 12t23 41q0 53 -94 53h-53v66l57 70q-228 20 -353.5 165.5t-125.5 378.5q0 251 145 400t404 149q127 0 228 -36.5t162.5 -98.5t93.5 -138.5t32 -160.5h-295q-13 93 -67 146t-154 53q-114 0 -175 -78.5
t-61 -235.5t60.5 -235t175.5 -78q196 0 221 207h295q0 -88 -31 -165t-90 -137t-151 -97.5t-207 -42.5l-55 -66q110 0 174.5 -32t64.5 -101z" />
    <glyph glyph-name="egrave" unicode="&#xe8;" horiz-adv-x="1179" 
d="M602 -20q-262 0 -407.5 148.5t-145.5 399.5q0 250 142.5 399.5t398.5 149.5q255 0 397.5 -149t142.5 -391q0 -37 -6 -78h-762q4 -132 67 -201.5t173 -69.5q82 0 138.5 40.5t78.5 111.5h289q-35 -169 -163 -264.5t-343 -95.5zM590 868q-95 0 -153 -53.5t-75 -155.5h455
q-36 209 -227 209zM709 1188h-238l-283 319h326z" />
    <glyph glyph-name="eacute" unicode="&#xe9;" horiz-adv-x="1179" 
d="M602 -20q-262 0 -407.5 148.5t-145.5 399.5q0 250 142.5 399.5t398.5 149.5q255 0 397.5 -149t142.5 -391q0 -37 -6 -78h-762q4 -132 67 -201.5t173 -69.5q82 0 138.5 40.5t78.5 111.5h289q-35 -169 -163 -264.5t-343 -95.5zM590 868q-95 0 -153 -53.5t-75 -155.5h455
q-36 209 -227 209zM709 1188h-238l195 319h325z" />
    <glyph glyph-name="ecircumflex" unicode="&#xea;" horiz-adv-x="1179" 
d="M602 -20q-262 0 -407.5 148.5t-145.5 399.5q0 250 142.5 399.5t398.5 149.5q255 0 397.5 -149t142.5 -391q0 -37 -6 -78h-762q4 -132 67 -201.5t173 -69.5q82 0 138.5 40.5t78.5 111.5h289q-35 -169 -163 -264.5t-343 -95.5zM590 868q-95 0 -153 -53.5t-75 -155.5h455
q-36 209 -227 209zM934 1188h-225l-119 153l-119 -153h-225l225 319h238z" />
    <glyph glyph-name="edieresis" unicode="&#xeb;" horiz-adv-x="1179" 
d="M602 -20q-262 0 -407.5 148.5t-145.5 399.5q0 250 142.5 399.5t398.5 149.5q255 0 397.5 -149t142.5 -391q0 -37 -6 -78h-762q4 -132 67 -201.5t173 -69.5q82 0 138.5 40.5t78.5 111.5h289q-35 -169 -163 -264.5t-343 -95.5zM590 868q-95 0 -153 -53.5t-75 -155.5h455
q-36 209 -227 209zM389 1212q-71 0 -111 38.5t-40 97.5t40 97t111 38t111.5 -38t40.5 -97t-40.5 -97.5t-111.5 -38.5zM791 1212q-71 0 -111.5 38.5t-40.5 97.5t40.5 97t111.5 38t111 -38t40 -97t-40 -97.5t-111 -38.5z" />
    <glyph glyph-name="igrave" unicode="&#xec;" horiz-adv-x="493" 
d="M403 0h-313v1057h313v-1057zM367 1188h-240l-281 319h324z" />
    <glyph glyph-name="iacute" unicode="&#xed;" horiz-adv-x="493" 
d="M403 0h-313v1057h313v-1057zM367 1188h-240l195 319h325z" />
    <glyph glyph-name="icircumflex" unicode="&#xee;" horiz-adv-x="493" 
d="M403 0h-313v1057h313v-1057zM590 1188h-225l-119 153l-117 -153h-227l225 319h240z" />
    <glyph glyph-name="idieresis" unicode="&#xef;" horiz-adv-x="493" 
d="M403 0h-313v1057h313v-1057zM45 1212q-70 0 -110.5 38.5t-40.5 97.5t40.5 97t110.5 38q71 0 111.5 -38t40.5 -97t-40.5 -97.5t-111.5 -38.5zM446 1212q-70 0 -110.5 38.5t-40.5 97.5t40.5 97t110.5 38q71 0 111.5 -38t40.5 -97t-40.5 -97.5t-111.5 -38.5z" />
    <glyph glyph-name="eth" unicode="&#xf0;" horiz-adv-x="1204" 
d="M602 -20q-261 0 -407 141t-146 377q0 234 126.5 376t344.5 142q184 0 283 -127q-57 131 -197 287l-344 -97v160l225 61q-115 111 -172 158h299q61 -54 101 -94l309 88v-160l-186 -53q317 -358 317 -741q0 -236 -146 -377t-407 -141zM602 199q117 0 178.5 75.5t61.5 223.5
t-61.5 223.5t-178.5 75.5t-178.5 -75.5t-61.5 -223.5t61.5 -223.5t178.5 -75.5z" />
    <glyph glyph-name="ntilde" unicode="&#xf1;" 
d="M1065 0h-313v637q0 188 -152 188q-91 0 -144 -61.5t-53 -173.5v-590h-313v1057h297v-160q97 180 313 180q365 0 365 -379v-698zM711 1196q-42 0 -83 18.5t-67 40t-54 40t-48 18.5q-32 0 -51 -30.5t-19 -86.5h-156q0 303 211 303q42 0 83 -18.5t67 -40t54 -40t48 -18.5
q32 0 51 30.5t19 86.5h156q0 -303 -211 -303z" />
    <glyph glyph-name="ograve" unicode="&#xf2;" horiz-adv-x="1204" 
d="M602 -20q-262 0 -407.5 148.5t-145.5 399.5t145.5 400t407.5 149t407.5 -149t145.5 -400t-145.5 -399.5t-407.5 -148.5zM602 215q240 0 240 313q0 314 -240 314t-240 -314q0 -313 240 -313zM721 1188h-238l-282 319h325z" />
    <glyph glyph-name="oacute" unicode="&#xf3;" horiz-adv-x="1204" 
d="M602 -20q-262 0 -407.5 148.5t-145.5 399.5t145.5 400t407.5 149t407.5 -149t145.5 -400t-145.5 -399.5t-407.5 -148.5zM602 215q240 0 240 313q0 314 -240 314t-240 -314q0 -313 240 -313zM721 1188h-238l195 319h326z" />
    <glyph glyph-name="ocircumflex" unicode="&#xf4;" horiz-adv-x="1204" 
d="M602 -20q-262 0 -407.5 148.5t-145.5 399.5t145.5 400t407.5 149t407.5 -149t145.5 -400t-145.5 -399.5t-407.5 -148.5zM602 215q240 0 240 313q0 314 -240 314t-240 -314q0 -313 240 -313zM946 1188h-225l-119 153l-119 -153h-225l225 319h238z" />
    <glyph glyph-name="otilde" unicode="&#xf5;" horiz-adv-x="1204" 
d="M602 -20q-262 0 -407.5 148.5t-145.5 399.5t145.5 400t407.5 149t407.5 -149t145.5 -400t-145.5 -399.5t-407.5 -148.5zM602 215q240 0 240 313q0 314 -240 314t-240 -314q0 -313 240 -313zM735 1196q-42 0 -83 18.5t-67 40t-54 40t-48 18.5q-31 0 -50 -30.5t-19 -86.5
h-156q0 303 211 303q42 0 83 -18.5t67 -40t54 -40t48 -18.5q32 0 51 30.5t19 86.5h155q0 -303 -211 -303z" />
    <glyph glyph-name="odieresis" unicode="&#xf6;" horiz-adv-x="1204" 
d="M602 -20q-262 0 -407.5 148.5t-145.5 399.5t145.5 400t407.5 149t407.5 -149t145.5 -400t-145.5 -399.5t-407.5 -148.5zM602 215q240 0 240 313q0 314 -240 314t-240 -314q0 -313 240 -313zM401 1212q-71 0 -111 38.5t-40 97.5t40 97t111 38t111.5 -38t40.5 -97
t-40.5 -97.5t-111.5 -38.5zM803 1212q-71 0 -111.5 38.5t-40.5 97.5t40.5 97t111.5 38t111 -38t40 -97t-40 -97.5t-111 -38.5z" />
    <glyph glyph-name="divide" unicode="&#xf7;" horiz-adv-x="1101" 
d="M551 209q-69 0 -108.5 37t-39.5 94t40 95t108 38t107.5 -37.5t39.5 -95.5q0 -57 -39 -94t-108 -37zM1022 610h-942v238h942v-238zM551 985q-68 0 -108 38t-40 95t39.5 94t108.5 37t108 -37t39 -94q0 -58 -39.5 -95.5t-107.5 -37.5z" />
    <glyph glyph-name="oslash" unicode="&#xf8;" horiz-adv-x="1204" 
d="M129 -20l-80 77l111 111q-111 142 -111 360q0 251 145.5 400t407.5 149q218 0 363 -110l112 112l78 -80l-113 -110q113 -144 113 -361q0 -251 -145.5 -399.5t-407.5 -148.5q-223 0 -362 108zM362 528q0 -88 17 -143l391 389q-59 68 -168 68q-240 0 -240 -314zM602 215
q240 0 240 313q0 74 -17 144l-393 -391q60 -66 170 -66z" />
    <glyph glyph-name="ugrave" unicode="&#xf9;" 
d="M455 -20q-365 0 -365 378v699h313v-637q0 -189 152 -189q91 0 144 62t53 174v590h313v-1057h-297v160q-97 -180 -313 -180zM696 1188h-237l-283 319h326z" />
    <glyph glyph-name="uacute" unicode="&#xfa;" 
d="M455 -20q-365 0 -365 378v699h313v-637q0 -189 152 -189q91 0 144 62t53 174v590h313v-1057h-297v160q-97 -180 -313 -180zM696 1188h-237l194 319h326z" />
    <glyph glyph-name="ucircumflex" unicode="&#xfb;" 
d="M455 -20q-365 0 -365 378v699h313v-637q0 -189 152 -189q91 0 144 62t53 174v590h313v-1057h-297v160q-97 -180 -313 -180zM922 1188h-226l-118 153l-119 -153h-226l226 319h237z" />
    <glyph glyph-name="udieresis" unicode="&#xfc;" 
d="M455 -20q-365 0 -365 378v699h313v-637q0 -189 152 -189q91 0 144 62t53 174v590h313v-1057h-297v160q-97 -180 -313 -180zM377 1212q-71 0 -111.5 38.5t-40.5 97.5t40.5 97t111.5 38t111 -38t40 -97t-40 -97.5t-111 -38.5zM778 1212q-71 0 -111 38.5t-40 97.5t40 97
t111 38t111.5 -38t40.5 -97t-40.5 -97.5t-111.5 -38.5z" />
    <glyph glyph-name="yacute" unicode="&#xfd;" 
d="M104 -401v219h117q164 0 164 139q0 55 -27 131l-350 969h326l244 -819l243 819h326l-350 -969q-51 -142 -106 -235t-125 -150t-152 -80.5t-193 -23.5h-117zM696 1188h-237l194 319h326z" />
    <glyph glyph-name="thorn" unicode="&#xfe;" horiz-adv-x="1224" 
d="M709 -20q-215 0 -306 159v-540h-313v1859h313v-540q91 159 306 159t341 -145.5t126 -403.5q0 -257 -125.5 -402.5t-341.5 -145.5zM633 215q107 0 168 78t61 235q0 158 -61 236t-168 78t-168.5 -78.5t-61.5 -235.5t61.5 -235t168.5 -78z" />
    <glyph glyph-name="ydieresis" unicode="&#xff;" 
d="M104 -401v219h117q164 0 164 139q0 55 -27 131l-350 969h326l244 -819l243 819h326l-350 -969q-51 -142 -106 -235t-125 -150t-152 -80.5t-193 -23.5h-117zM778 1212q-71 0 -111 38.5t-40 97.5t40 97t111 38t111.5 -38t40.5 -97t-40.5 -97.5t-111.5 -38.5zM377 1212
q-71 0 -111.5 38.5t-40.5 97.5t40.5 97t111.5 38t111 -38t40 -97t-40 -97.5t-111 -38.5z" />
    <glyph glyph-name="dotlessi" unicode="&#x131;" horiz-adv-x="493" 
d="M403 0h-313v1057h313v-1057z" />
    <glyph glyph-name="Lslash" unicode="&#x141;" horiz-adv-x="1183" 
d="M844 840l-365 -133v-439h678v-268h-1007v586l-150 -56v175l150 55v698h329v-577l365 133v-174z" />
    <glyph glyph-name="lslash" unicode="&#x142;" horiz-adv-x="575" 
d="M444 0h-313v586l-131 -47v174l131 47v698h313v-586l131 48v-175l-131 -47v-698z" />
    <glyph glyph-name="OE" unicode="&#x152;" horiz-adv-x="2203" 
d="M2148 0h-1360q-361 0 -550 190t-189 539t189 539t550 190h1360v-268h-764v-320h699v-254h-699v-348h764v-268zM379 729q0 -471 393 -471h283v942h-283q-393 0 -393 -471z" />
    <glyph glyph-name="oe" unicode="&#x153;" horiz-adv-x="1972" 
d="M1395 -20q-284 0 -396 204q-115 -204 -397 -204q-262 0 -407.5 148.5t-145.5 399.5t145.5 400t407.5 149q277 0 395 -205q111 205 385 205q255 0 398 -149t143 -391q0 -24 -4 -78h-764q6 -132 68 -201.5t172 -69.5q83 0 139 40t78 112h289q-35 -169 -163 -264.5
t-343 -95.5zM602 215q240 0 240 313q0 314 -240 314t-240 -314q0 -313 240 -313zM1382 868q-191 0 -227 -209h455q-17 102 -75 155.5t-153 53.5z" />
    <glyph glyph-name="Scaron" unicode="&#x160;" horiz-adv-x="1339" 
d="M670 -20q-308 0 -464.5 128.5t-156.5 366.5h324q15 -132 85.5 -191t219.5 -59q139 0 211 53t72 140q0 73 -57 115.5t-210 64.5l-170 25q-235 33 -336.5 123t-101.5 278q0 204 151 329.5t433 125.5q285 0 434 -127.5t149 -347.5h-313q-27 229 -278 229q-124 0 -185 -51
t-61 -138q0 -71 46.5 -105t180.5 -54l170 -23q239 -35 358 -134t119 -290q0 -208 -158.5 -333t-461.5 -125zM788 1577h-237l-225 319h225l119 -153l118 153h226z" />
    <glyph glyph-name="scaron" unicode="&#x161;" horiz-adv-x="1101" 
d="M551 -20q-252 0 -377 96t-125 264h305q9 -80 55 -119t146 -39q94 0 139 32t45 85q0 85 -133 104l-168 23q-198 29 -279 100.5t-81 210.5q0 154 118 247t355 93q238 0 355.5 -93.5t117.5 -250.5h-305q-9 68 -45.5 104.5t-126.5 36.5q-156 0 -156 -110q0 -42 24 -64t77 -30
l165 -23q202 -30 299 -103t97 -225q0 -154 -125.5 -246.5t-376.5 -92.5zM670 1188h-238l-225 319h225l119 -153l119 153h225z" />
    <glyph glyph-name="Ydieresis" unicode="&#x178;" horiz-adv-x="1441" 
d="M557 0v578l-549 880h381l332 -571l332 571h381l-549 -880v-578h-328zM520 1602q-71 0 -111 38t-40 97t40 97t111 38t111.5 -38t40.5 -97t-40.5 -97t-111.5 -38zM922 1602q-71 0 -111.5 38t-40.5 97t40.5 97t111.5 38t111 -38t40 -97t-40 -97t-111 -38z" />
    <glyph glyph-name="Zcaron" unicode="&#x17d;" horiz-adv-x="1232" 
d="M1167 0h-1101v223l671 967h-651v268h1061v-223l-674 -967h694v-268zM735 1577h-237l-226 319h226l118 -153l119 153h226z" />
    <glyph glyph-name="zcaron" unicode="&#x17e;" horiz-adv-x="991" 
d="M946 0h-901v203l516 635h-495v219h860v-203l-516 -635h536v-219zM614 1188h-237l-225 319h225l119 -153l118 153h226z" />
    <glyph glyph-name="florin" unicode="&#x192;" horiz-adv-x="1110" 
d="M184 -414q-31 0 -184 13v208h143q57 0 87.5 26.5t39.5 82.5l129 735h-268v221h307l45 258q31 178 125.5 259t274.5 81q45 0 186 -12v-209h-145q-57 0 -86.5 -26t-38.5 -82l-47 -269h268v-221h-309l-125 -725q-31 -178 -126 -259t-276 -81z" />
    <glyph glyph-name="circumflex" unicode="&#x2c6;" horiz-adv-x="1024" 
d="M856 1188h-225l-119 153l-119 -153h-225l225 319h238z" />
    <glyph glyph-name="caron" unicode="&#x2c7;" horiz-adv-x="1024" 
d="M631 1188h-238l-225 319h225l119 -153l119 153h225z" />
    <glyph glyph-name="breve" unicode="&#x2d8;" horiz-adv-x="1024" 
d="M512 1167q-169 0 -246.5 83.5t-77.5 256.5h156q7 -80 49 -116.5t119 -36.5t119 36.5t49 116.5h156q0 -173 -77.5 -256.5t-246.5 -83.5z" />
    <glyph glyph-name="dotaccent" unicode="&#x2d9;" horiz-adv-x="1024" 
d="M512 1212q-71 0 -111.5 38.5t-40.5 97.5t40.5 97t111.5 38t111.5 -38t40.5 -97t-40.5 -97.5t-111.5 -38.5z" />
    <glyph glyph-name="ring" unicode="&#x2da;" horiz-adv-x="1024" 
d="M512 1139q-137 0 -214 72t-77 188t77 188t214 72t214 -72t77 -188t-77 -188t-214 -72zM512 1284q54 0 83.5 31.5t29.5 83.5t-29.5 83t-83.5 31t-83.5 -31t-29.5 -83t29.5 -83.5t83.5 -31.5z" />
    <glyph glyph-name="ogonek" unicode="&#x2db;" horiz-adv-x="1024" 
d="M561 -387q-122 0 -186 38.5t-64 110.5q0 73 61 130t193 108h148q-111 -62 -156 -109.5t-45 -89.5q0 -59 78 -59h123v-115z" />
    <glyph glyph-name="tilde" unicode="&#x2dc;" horiz-adv-x="1024" 
d="M645 1196q-42 0 -83 18.5t-67 40t-54 40t-48 18.5q-31 0 -50 -30.5t-19 -86.5h-156q0 303 211 303q42 0 83 -18.5t67 -40t54 -40t48 -18.5q31 0 50 30.5t19 86.5h156q0 -303 -211 -303z" />
    <glyph glyph-name="hungarumlaut" unicode="&#x2dd;" horiz-adv-x="1024" 
d="M285 1188h-240l197 319h323zM719 1188h-240l197 319h323z" />
    <glyph glyph-name="pi" unicode="&#x3c0;" horiz-adv-x="1333" 
d="M1155 0h-313v838h-350v-838h-312v838h-160v219h1293v-219h-158v-838z" />
    <glyph glyph-name="endash" unicode="&#x2013;" horiz-adv-x="1105" 
d="M1026 469h-946v238h946v-238z" />
    <glyph glyph-name="emdash" unicode="&#x2014;" horiz-adv-x="1802" 
d="M1722 469h-1642v238h1642v-238z" />
    <glyph glyph-name="quoteleft" unicode="&#x2018;" horiz-adv-x="493" 
d="M381 836h-268v208q0 148 40 245.5t140 168.5l160 -67q-44 -74 -58 -146t-14 -201v-208z" />
    <glyph glyph-name="quoteright" unicode="&#x2019;" horiz-adv-x="493" 
d="M201 836l-160 69q44 72 58 144.5t14 201.5v207h268v-207q0 -149 -40 -246.5t-140 -168.5z" />
    <glyph glyph-name="quotesinglbase" unicode="&#x201a;" horiz-adv-x="493" 
d="M201 -311l-160 67q44 74 58 145.5t14 200.5v209h268v-209q0 -148 -40 -246t-140 -167z" />
    <glyph glyph-name="quotedblleft" unicode="&#x201c;" horiz-adv-x="946" 
d="M381 836h-268v208q0 148 40 245.5t140 168.5l160 -67q-44 -74 -58 -146t-14 -201v-208zM834 836h-269v208q0 148 40 245.5t140 168.5l160 -67q-44 -73 -57.5 -145t-13.5 -202v-208z" />
    <glyph glyph-name="quotedblright" unicode="&#x201d;" horiz-adv-x="946" 
d="M201 836l-160 69q44 72 58 144.5t14 201.5v207h268v-207q0 -149 -40 -246.5t-140 -168.5zM653 836l-159 69q44 72 57.5 144t13.5 202v207h269v-207q0 -149 -40 -246.5t-141 -168.5z" />
    <glyph glyph-name="quotedblbase" unicode="&#x201e;" horiz-adv-x="946" 
d="M201 -311l-160 67q44 74 58 145.5t14 200.5v209h268v-209q0 -148 -40 -246t-140 -167zM653 -311l-159 67q44 73 57.5 144.5t13.5 201.5v209h269v-209q0 -148 -40.5 -246t-140.5 -167z" />
    <glyph glyph-name="dagger" unicode="&#x2020;" horiz-adv-x="1101" 
d="M678 -401h-254v1161l18 182l-182 -16h-180v235h180l182 -18l-18 182v188h254v-188l-19 -182l183 18h180v-235h-180l-183 16l19 -182v-1161z" />
    <glyph glyph-name="daggerdbl" unicode="&#x2021;" horiz-adv-x="1101" 
d="M678 -401h-254v188l18 182l-182 -18h-180v237h180l182 -18l-18 182v408l18 182l-182 -16h-180v235h180l182 -18l-18 182v188h254v-188l-19 -182l183 18h180v-235h-180l-183 16l19 -182v-408l-19 -182l183 18h180v-237h-180l-183 18l19 -182v-188z" />
    <glyph glyph-name="bullet" unicode="&#x2022;" horiz-adv-x="755" 
d="M377 311q-145 0 -226 78t-81 199t81 198.5t226 77.5t227 -77.5t82 -198.5t-82 -199t-227 -78z" />
    <glyph glyph-name="ellipsis" unicode="&#x2026;" horiz-adv-x="1478" 
d="M246 -18q-87 0 -136 46.5t-49 118.5q0 73 49 120.5t136 47.5q88 0 137 -47.5t49 -120.5q0 -72 -49 -118.5t-137 -46.5zM739 -18q-86 0 -135 46.5t-49 118.5q0 73 49 120.5t135 47.5q87 0 137 -47.5t50 -120.5q0 -71 -50 -118t-137 -47zM1233 -18q-86 0 -135 46.5
t-49 118.5q0 73 49 120.5t135 47.5t135 -47.5t49 -120.5q0 -72 -49 -118.5t-135 -46.5z" />
    <glyph glyph-name="perthousand" unicode="&#x2030;" horiz-adv-x="2650" 
d="M412 586q-182 0 -272.5 115.5t-90.5 326.5t90.5 326.5t272.5 115.5q183 0 272.5 -115.5t89.5 -326.5t-89.5 -326.5t-272.5 -115.5zM412 754q78 0 117.5 66t39.5 208q0 275 -157 275q-158 0 -158 -275q0 -274 158 -274zM621 0h-185l783 1458h184zM1427 -12
q-182 0 -272 115.5t-90 326.5t90 326.5t272 115.5q183 0 273 -115.5t90 -326.5t-90 -326.5t-273 -115.5zM1427 156q158 0 158 274q0 275 -158 275q-157 0 -157 -275q0 -274 157 -274zM2238 -12q-182 0 -272 115.5t-90 326.5t90 326.5t272 115.5q183 0 273 -115.5t90 -326.5
t-90 -326.5t-273 -115.5zM2238 156q158 0 158 274q0 275 -158 275q-157 0 -157 -275q0 -274 157 -274z" />
    <glyph glyph-name="guilsinglleft" unicode="&#x2039;" horiz-adv-x="561" 
d="M453 166l-344 303v238l344 303v-275l-164 -147l164 -148v-274z" />
    <glyph glyph-name="guilsinglright" unicode="&#x203a;" horiz-adv-x="561" 
d="M453 469l-344 -303v274l163 148l-163 147v275l344 -303v-238z" />
    <glyph glyph-name="fraction" unicode="&#x2044;" horiz-adv-x="274" 
d="M-162 0h-184l782 1458h185z" />
    <glyph glyph-name="Euro" unicode="&#x20ac;" horiz-adv-x="1253" 
d="M870 -20q-282 0 -466.5 138.5t-245.5 381.5h-109v139h86q-4 29 -4 90t4 90h-86v139h109q61 242 246 381.5t466 139.5q100 0 190 -19t144 -49v-235q-137 51 -334 51q-296 0 -378 -269h495v-139h-524q-2 -29 -2 -90t2 -90h524v-139h-495q82 -269 378 -269q194 0 334 52
v-236q-54 -30 -143.5 -48.5t-190.5 -18.5z" />
    <glyph glyph-name="trademark" unicode="&#x2122;" horiz-adv-x="1222" 
d="M311 926h-133v422h-151v110h436v-110h-152v-422zM1114 926h-129v391l-117 -391h-110l-117 391v-391h-129v532h207l94 -323l94 323h207v-532z" />
    <glyph glyph-name="Omega" unicode="&#x2126;" horiz-adv-x="1576" 
d="M1507 0h-630v223q321 123 321 506q0 234 -104 357.5t-306 123.5t-305.5 -123.5t-103.5 -357.5q0 -383 321 -506v-223h-630v268h303q-324 152 -324 543q0 142 50.5 264t143.5 212t233.5 141t311.5 51t312 -51t234 -141t143.5 -212t50.5 -264q0 -391 -324 -543h303v-268z
" />
    <glyph glyph-name="partialdiff" unicode="&#x2202;" horiz-adv-x="1325" 
d="M549 -20q-237 0 -368.5 121t-131.5 307q0 263 159 406.5t437 143.5q109 0 196.5 -40.5t127.5 -100.5q10 51 10 135q0 137 -62.5 214t-181.5 77q-179 0 -241 -149h-291q48 186 188.5 285.5t366.5 99.5q109 0 202.5 -35.5t165 -103.5t112 -176t40.5 -244q0 -458 -191 -699
t-538 -241zM590 215q130 0 218.5 97t121.5 288q-22 61 -90 99t-160 38q-144 0 -231 -83t-87 -224q0 -98 61 -156.5t167 -58.5z" />
    <glyph glyph-name="Delta" unicode="&#x2206;" horiz-adv-x="1482" 
d="M1475 0h-1467l531 1458h405zM1051 268l-310 895l-309 -895h619z" />
    <glyph glyph-name="product" unicode="&#x220f;" horiz-adv-x="1236" 
d="M1128 -401h-313v1624h-393v-1624h-313v1859h1019v-1859z" />
    <glyph glyph-name="summation" unicode="&#x2211;" horiz-adv-x="1191" 
d="M1126 -401h-1060v219l518 710l-518 711v219h1060v-235h-696l479 -645v-99l-479 -645h696v-235z" />
    <glyph glyph-name="minus" unicode="&#x2212;" horiz-adv-x="1101" 
d="M1022 610h-942v238h942v-238z" />
    <glyph glyph-name="radical" unicode="&#x221a;" horiz-adv-x="1531" 
d="M864 -401h-381l-221 616h-254v236h473l193 -582l524 1589h326z" />
    <glyph glyph-name="infinity" unicode="&#x221e;" horiz-adv-x="1601" 
d="M1552 729q0 -178 -106.5 -279.5t-288.5 -101.5q-99 0 -180 41.5t-176 165.5q-95 -123 -177 -165t-180 -42q-182 0 -288.5 101.5t-106.5 279.5t106.5 279.5t288.5 101.5q97 0 179.5 -42.5t177.5 -164.5q96 123 177 165t179 42q182 0 288.5 -101.5t106.5 -279.5zM1311 729
q0 75 -46.5 123.5t-123.5 48.5q-64 0 -113 -38.5t-110 -133.5q61 -95 110 -133.5t113 -38.5q77 0 123.5 48.5t46.5 123.5zM291 729q0 -75 46.5 -123.5t123.5 -48.5q64 0 113 38.5t110 133.5q-61 95 -110 133.5t-113 38.5q-77 0 -123.5 -48.5t-46.5 -123.5z" />
    <glyph glyph-name="integral" unicode="&#x222b;" horiz-adv-x="827" 
d="M229 -414q-35 0 -188 13v208h111q55 0 80.5 26.5t25.5 82.5v1214q0 178 80 259t260 81q47 0 188 -12v-209h-110q-55 0 -81 -26t-26 -82v-1215q0 -178 -80 -259t-260 -81z" />
    <glyph glyph-name="approxequal" unicode="&#x2248;" horiz-adv-x="1101" 
d="M760 309q-55 0 -113.5 23.5t-99.5 51.5t-89.5 51.5t-84.5 23.5q-56 0 -85.5 -38.5t-29.5 -111.5h-178q0 183 70.5 278t191.5 95q55 0 113.5 -23.5t99.5 -51.5t89.5 -51.5t84.5 -23.5q56 0 85.5 38.5t29.5 111.5h178q0 -183 -70.5 -278t-191.5 -95zM760 776
q-55 0 -113.5 23.5t-99.5 51.5t-89.5 51.5t-84.5 23.5q-56 0 -85.5 -38.5t-29.5 -111.5h-178q0 183 70.5 278t191.5 95q55 0 113.5 -23.5t99.5 -51.5t89.5 -51.5t84.5 -23.5q56 0 85.5 38.5t29.5 111.5h178q0 -183 -70.5 -278t-191.5 -95z" />
    <glyph glyph-name="notequal" unicode="&#x2260;" horiz-adv-x="1101" 
d="M465 207h-180l67 203h-272v223h346l68 192h-414v224h487l70 202h180l-69 -202h274v-224h-348l-68 -192h416v-223h-490z" />
    <glyph glyph-name="lessequal" unicode="&#x2264;" horiz-adv-x="1101" 
d="M1022 0h-942v236h942v-236zM1022 356l-942 320v237l942 320v-254l-627 -184l627 -185v-254z" />
    <glyph glyph-name="greaterequal" unicode="&#x2265;" horiz-adv-x="1101" 
d="M1022 0h-942v236h942v-236zM1022 676l-942 -320v254l627 185l-627 184v254l942 -320v-237z" />
    <glyph glyph-name="lozenge" unicode="&#x25ca;" horiz-adv-x="1114" 
d="M733 0h-352l-322 729l322 729h352l322 -729zM557 238l207 491l-207 492l-207 -492z" />
    </font>
</defs>
</svg>
