<?xml version="1.0" standalone="no"?>
<!DOCTYPE svg PUBLIC "-//W3C//DTD SVG 1.1//EN" "http://www.w3.org/Graphics/SVG/1.1/DTD/svg11.dtd" >
<svg xmlns="http://www.w3.org/2000/svg" xmlns:xlink="http://www.w3.org/1999/xlink" version="1.1">
<metadata>
Created by FontForge 20201107 at Sun Mar  2 12:35:49 2025
 By 
Copyright (c) 2019, Carl Enlund
</metadata>
<defs>
<font id="TechnaSans-Regular" horiz-adv-x="1245" >
  <font-face 
    font-family="Techna Sans"
    font-weight="400"
    font-stretch="normal"
    units-per-em="2048"
    panose-1="2 0 0 0 0 0 0 0 0 0"
    ascent="1638"
    descent="-410"
    x-height="1030"
    cap-height="1409"
    bbox="-102 -492 2513 1896"
    underline-thickness="102"
    underline-position="-409"
    unicode-range="U+0020-FB02"
  />
<missing-glyph horiz-adv-x="1327" 
d="M365 225h598v959h-598v-959zM1200 0h-1073v1409h1073v-1409z" />
    <glyph glyph-name="f_f" unicode="ff" horiz-adv-x="1404" 
d="M858 1110q0 85 23.5 152t59.5 107t84.5 66.5t93.5 36t91 9.5q103 0 154 -31l41 -221q-55 20 -125 20q-158 0 -158 -141v-78h262v-213h-262v-817h-264v817h-407v-817h-265v817h-170l37 213h133v80q0 85 23.5 152t60 107t85 66.5t93.5 36t91 9.5q102 0 153 -31l41 -221
q-55 20 -125 20q-78 0 -117.5 -34t-39.5 -107v-78h407v80z" />
    <glyph glyph-name="T_T" unicode="TT" horiz-adv-x="2220" 
d="M2210 1409v-250h-418v-1159h-274v1159h-777v-1159h-274v1159h-473l65 250h2151z" />
    <glyph glyph-name=".notdef" horiz-adv-x="1327" 
d="M365 225h598v959h-598v-959zM1200 0h-1073v1409h1073v-1409z" />
    <glyph glyph-name=".null" horiz-adv-x="0" 
 />
    <glyph glyph-name="nonmarkingreturn" horiz-adv-x="682" 
 />
    <glyph glyph-name="space" unicode=" " horiz-adv-x="337" 
 />
    <glyph glyph-name="exclam" unicode="!" horiz-adv-x="526" 
d="M168 463l-49 584v362h278v-362l-49 -584h-180zM104 0v311h297v-311h-297z" />
    <glyph glyph-name="quotedbl" unicode="&#x22;" horiz-adv-x="860" 
d="M561 811l-55 408v190h262v-190l-55 -408h-152zM147 811l-55 408v190h262v-190l-55 -408h-152z" />
    <glyph glyph-name="numbersign" unicode="#" horiz-adv-x="1423" 
d="M1380 1057v-205h-258l-69 -264h204v-205h-258l-100 -383h-235l100 383h-254l-100 -383h-236l100 383h-241l53 205h242l69 264h-241l53 205h242l92 352h235l-92 -352h254l92 352h236l-92 -352h204zM887 852h-254l-70 -264h254z" />
    <glyph glyph-name="dollar" unicode="$" horiz-adv-x="1040" 
d="M950 1337l-63 -252q-136 95 -295 95q-122 0 -186 -39t-64 -115q0 -54 32.5 -86t108.5 -63l228 -97q138 -58 209 -143t71 -223q0 -157 -84.5 -265t-242.5 -149v-233h-250v213q-94 8 -183.5 36t-140.5 68v274q76 -59 183 -95t204 -36q112 0 173 40.5t61 121.5
q0 55 -35 88.5t-117 67.5l-242 100q-121 50 -188.5 133.5t-67.5 227.5q0 148 94 255.5t259 147.5v213h250v-195q177 -13 286 -90z" />
    <glyph glyph-name="percent" unicode="%" horiz-adv-x="1806" 
d="M1413 643q-62 0 -93.5 -55t-31.5 -178q0 -236 125 -236q129 0 129 236q0 233 -129 233zM1413 831q170 0 261 -108t91 -313q0 -206 -91 -315t-261 -109q-168 0 -258 109t-90 315q0 205 90 313t258 108zM401 1235q-125 0 -125 -234q0 -235 125 -235q129 0 129 235
q0 234 -129 234zM401 1423q170 0 261.5 -108.5t91.5 -313.5q0 -206 -91.5 -314.5t-261.5 -108.5q-168 0 -258 108.5t-90 314.5q0 205 90 313.5t258 108.5zM330 0l911 1409h248l-911 -1409h-248z" />
    <glyph glyph-name="ampersand" unicode="&#x26;" horiz-adv-x="1236" 
d="M47 406q0 264 227 372q-100 130 -100 266q0 78 26 143.5t70 109.5t101.5 74.5t120 44.5t126.5 14q197 0 312 -84l-62 -244q-116 90 -252 90q-31 0 -59 -6.5t-56 -21.5t-44.5 -46t-16.5 -74q0 -39 24.5 -81.5t90.5 -122.5l332 -404q39 103 39 238q0 82 -13 141l215 -55
q19 -49 19 -117q0 -230 -105 -395l205 -248h-297l-69 80q-142 -100 -332 -100q-216 0 -359 122t-143 304zM737 246l-336 385q-92 -50 -92 -178q0 -103 77 -175.5t196 -72.5q84 0 155 41z" />
    <glyph glyph-name="quotesingle" unicode="'" horiz-adv-x="446" 
d="M147 811l-55 408v190h262v-190l-55 -408h-152z" />
    <glyph glyph-name="parenleft" unicode="(" horiz-adv-x="614" 
d="M309 614q0 -262 108.5 -509t250.5 -361h-273q-61 54 -117.5 137t-105 192t-77.5 249.5t-29 289.5t28.5 288t77 246.5t105 188.5t118.5 135h273q-146 -116 -252.5 -355t-106.5 -501z" />
    <glyph glyph-name="parenright" unicode=")" horiz-adv-x="614" 
d="M305 600q0 262 -108 509t-250 361h272q61 -54 117.5 -137t105.5 -192t78 -249.5t29 -289.5t-29 -288t-77.5 -246.5t-105 -188.5t-118.5 -135h-272q145 116 251.5 355t106.5 501z" />
    <glyph glyph-name="asterisk" unicode="*" horiz-adv-x="980" 
d="M41 1016l74 188l291 -145l-23 350h215l-23 -350l291 145l74 -188l-311 -107l215 -262l-170 -121l-182 293l-185 -293l-170 121l215 262z" />
    <glyph glyph-name="plus" unicode="+" horiz-adv-x="1017" 
d="M623 741h340v-198h-340v-377h-220v377h-364l51 198h313v353h220v-353z" />
    <glyph glyph-name="comma" unicode="," horiz-adv-x="493" 
d="M109 -135q108 0 108 110v56l-123 65v215h307v-323q0 -138 -65.5 -214.5t-175.5 -76.5q-63 0 -111 29v147q24 -8 60 -8z" />
    <glyph glyph-name="hyphen" unicode="-" horiz-adv-x="770" 
d="M694 731v-235h-643l62 235h581z" />
    <glyph glyph-name="period" unicode="." horiz-adv-x="481" 
d="M92 0v311h297v-311h-297z" />
    <glyph glyph-name="slash" unicode="/" horiz-adv-x="964" 
d="M12 -256l695 1726h245l-694 -1726h-246z" />
    <glyph glyph-name="zero" unicode="0" horiz-adv-x="1241" 
d="M618 1186q-133 0 -204.5 -117.5t-71.5 -359.5q0 -245 72 -365.5t204 -120.5q134 0 207.5 120.5t73.5 365.5q0 241 -73.5 359t-207.5 118zM618 1434q267 0 412.5 -186.5t145.5 -538.5q0 -356 -145.5 -545t-412.5 -189q-265 0 -408.5 189t-143.5 545q0 353 143 539t409 186
z" />
    <glyph glyph-name="one" unicode="1" horiz-adv-x="827" 
d="M389 1116l-379 -78l68 265l586 118v-1421h-275v1116z" />
    <glyph glyph-name="two" unicode="2" horiz-adv-x="1083" 
d="M76 1059l69 268q145 100 379 100q207 0 336 -97t129 -279q0 -121 -56 -223t-202 -232l-205 -180q-55 -50 -85.5 -86.5t-49.5 -83.5h670l-68 -246h-932v59q0 133 74.5 265.5t243.5 287.5l172 158q102 95 132 143t30 111q0 77 -67 116.5t-181 39.5q-110 0 -201 -30.5
t-188 -90.5z" />
    <glyph glyph-name="three" unicode="3" horiz-adv-x="1081" 
d="M692 1020q0 81 -67 123.5t-170 42.5q-200 0 -381 -109l69 262q136 88 371 88q203 0 332 -93.5t129 -260.5q0 -120 -64 -203t-153 -120q111 -31 183.5 -114t72.5 -216q0 -202 -145 -319t-386 -117q-123 0 -230.5 29t-176.5 77v264q197 -125 407 -125q110 0 178 50t68 147
q0 95 -98.5 143.5t-268.5 48.5l-73 -2l59 224q78 2 136 10.5t107.5 28t75 55t25.5 86.5z" />
    <glyph glyph-name="four" unicode="4" horiz-adv-x="1130" 
d="M678 315h-649v217l534 877h303l-534 -872h346v333l274 76v-409h154v-222h-154v-315h-274v315z" />
    <glyph glyph-name="five" unicode="5" horiz-adv-x="1095" 
d="M1044 465q0 -220 -150 -350.5t-400 -130.5q-124 0 -231 28.5t-177 75.5v264q101 -61 198 -92t216 -31q116 0 192 54.5t76 162.5q0 61 -25 105.5t-69.5 70t-99.5 37t-123 11.5q-81 0 -174.5 -15t-161.5 -39l98 793h784l-67 -252h-504l-35 -274q79 18 170 18q135 0 243 -49
t174 -149.5t66 -237.5z" />
    <glyph glyph-name="six" unicode="6" horiz-adv-x="1132" 
d="M51 676q0 -176 40 -311t114.5 -220t176 -127.5t228.5 -42.5q216 0 352 135t136 353q0 127 -62 230.5t-164 159.5t-221 56q-128 0 -218.5 -51.5t-121.5 -138.5q2 98 23 178.5t63 147t114.5 104t170.5 37.5q84 0 156.5 -27t119.5 -67l64 245q-57 42 -143.5 69.5
t-184.5 27.5q-137 0 -246.5 -40t-183 -109.5t-122 -166.5t-70 -207t-21.5 -235zM356 442q0 94 67.5 157t168.5 63t168 -63t67 -157q0 -95 -67 -159t-168 -64t-168.5 64t-67.5 159z" />
    <glyph glyph-name="seven" unicode="7" horiz-adv-x="1071" 
d="M698 1157h-694l68 252h1007v-49q-105 -178 -233 -426.5t-245.5 -522t-141.5 -411.5h-301q27 173 191 512.5t349 644.5z" />
    <glyph glyph-name="eight" unicode="8" horiz-adv-x="1159" 
d="M580 1208q-99 0 -157 -54t-58 -134q0 -79 58 -134t157 -55t157 56.5t58 136.5q0 78 -58 131t-157 53zM580 1438q223 0 357 -112.5t134 -270.5q0 -115 -59.5 -200.5t-175.5 -127.5q136 -40 206 -127t70 -215q0 -85 -36 -160.5t-102.5 -132t-168 -89t-225.5 -32.5
q-246 0 -389.5 117.5t-143.5 292.5q0 130 69.5 218t205.5 128q-116 42 -175 126.5t-59 197.5q0 76 34 146t95.5 123.5t156 85.5t206.5 32zM580 612q-118 0 -185 -58t-67 -144q0 -87 67 -146t185 -59q119 0 185 60.5t66 150.5q0 84 -66 140t-185 56z" />
    <glyph glyph-name="nine" unicode="9" horiz-adv-x="1140" 
d="M1090 723q0 355 -149 533t-406 178q-218 0 -355 -137.5t-137 -354.5q0 -130 62.5 -234.5t165.5 -161.5t225 -57q126 0 215.5 55t119.5 148q-8 -467 -368 -467q-186 0 -334 111v-260q55 -42 147 -69t195 -27q115 0 209.5 28t161.5 80t115.5 119.5t77 153t42 174.5
t13.5 188zM784 963q0 -96 -67 -160t-168 -64t-168.5 64.5t-67.5 159.5q0 97 67.5 162t168.5 65t168 -65t67 -162z" />
    <glyph glyph-name="colon" unicode=":" horiz-adv-x="522" 
d="M113 719v311h297v-311h-297zM113 0v311h297v-311h-297z" />
    <glyph glyph-name="semicolon" unicode=";" horiz-adv-x="522" 
d="M113 719v311h297v-311h-297zM117 -135q108 0 108 110v56l-123 65v215h308v-323q0 -137 -65.5 -214t-176.5 -77q-63 0 -111 29v147q24 -8 60 -8z" />
    <glyph glyph-name="less" unicode="&#x3c;" horiz-adv-x="925" 
d="M848 301v-244l-791 387v242l791 387v-244l-557 -264z" />
    <glyph glyph-name="equal" unicode="=" horiz-adv-x="1044" 
d="M123 932h835v-209h-888zM123 530h835v-208h-888z" />
    <glyph glyph-name="greater" unicode="&#x3e;" horiz-adv-x="905" 
d="M51 829v244l791 -387v-242l-791 -387v244l557 264z" />
    <glyph glyph-name="question" unicode="?" horiz-adv-x="954" 
d="M326 483q0 104 42.5 176.5t145.5 165.5q36 32 57 55t40.5 63t19.5 83q0 79 -57.5 116.5t-157.5 37.5q-112 0 -200 -28t-183 -85l69 268q141 92 359 92q126 0 225.5 -40t160 -122.5t60.5 -195.5q0 -103 -47.5 -184t-136.5 -160q-88 -78 -128 -134.5t-44 -127.5h-225v20z
M293 0v311h297v-311h-297z" />
    <glyph glyph-name="at" unicode="@" horiz-adv-x="2041" 
d="M940 76q-198 0 -319 138t-121 347q0 137 53 247t154 174.5t233 64.5q98 0 170.5 -48t110.5 -129l2 156h254v-623q0 -66 21.5 -98.5t78.5 -32.5q43 0 76.5 32t52 86t28 115.5t9.5 127.5q0 131 -51 252.5t-142 215t-228.5 150t-299.5 56.5q-134 0 -251 -41t-201.5 -112
t-145.5 -164t-91 -198t-30 -214q0 -122 32.5 -233t99.5 -206t162.5 -164.5t228.5 -109t290 -39.5q114 0 235 30.5t203 86.5v-209q-80 -51 -206 -78t-256 -27q-190 0 -353.5 49t-283 135.5t-204.5 204t-127 256.5t-42 291q0 149 40 287.5t121 257t194 207t268 138.5t335 50
q168 0 315.5 -46.5t256.5 -128.5t188.5 -191.5t119.5 -238.5t40 -267q0 -252 -111 -403.5t-297 -151.5q-121 0 -195.5 56t-103.5 145q-41 -94 -122 -148.5t-191 -54.5zM1217 561q0 115 -60 191.5t-166 76.5t-165.5 -76.5t-59.5 -191.5t59.5 -190.5t165.5 -75.5t166 75.5
t60 190.5z" />
    <glyph glyph-name="A" unicode="A" horiz-adv-x="1345" 
d="M12 0l486 1409h356l479 -1409h-291l-104 322h-541l-106 -322h-279zM473 553h389l-192 594z" />
    <glyph glyph-name="B" unicode="B" horiz-adv-x="1212" 
d="M125 0v1409h559q201 0 316.5 -105.5t115.5 -259.5q0 -109 -56 -191t-159 -120q121 -37 184.5 -126t63.5 -208q0 -177 -125.5 -288t-347.5 -111h-551zM399 1165v-338h271q79 0 122.5 48.5t43.5 123.5q0 71 -42.5 118.5t-117.5 47.5h-277zM672 598h-273v-360h267
q99 0 146.5 49t47.5 133q0 83 -45.5 130.5t-142.5 47.5z" />
    <glyph glyph-name="C" unicode="C" horiz-adv-x="1243" 
d="M1133 1092q-124 75 -304 75q-68 0 -135 -13.5t-134.5 -47t-118.5 -83t-83 -128.5t-32 -176q0 -102 32 -185.5t85 -139.5t125 -93.5t149.5 -54.5t159.5 -17q83 0 166.5 23t140.5 59v-260q-43 -31 -138.5 -52.5t-205.5 -21.5q-74 0 -149 11t-154.5 36.5t-150.5 63.5
t-134.5 96.5t-109 131.5t-72.5 172t-27 214q0 120 29 222t77 175t115 131t139.5 94t154 60t154 33.5t144.5 9.5q116 0 206.5 -23.5t137.5 -57.5z" />
    <glyph glyph-name="D" unicode="D" horiz-adv-x="1421" 
d="M125 0v1409h545q169 0 304.5 -53t223 -146.5t134 -219t46.5 -273.5q0 -153 -48 -283.5t-138 -227t-229.5 -151.5t-313.5 -55h-524zM399 1161v-913h250q111 0 198.5 36t142 99t82.5 145.5t28 180.5q0 95 -27.5 176t-80.5 143.5t-139 97.5t-196 35h-258z" />
    <glyph glyph-name="E" unicode="E" horiz-adv-x="1124" 
d="M125 0v1409h958l-65 -250h-619v-311h539l-64 -248h-475v-350h643l68 -250h-985z" />
    <glyph glyph-name="F" unicode="F" horiz-adv-x="1077" 
d="M125 0v1409h952l-67 -250h-611v-325h527l-66 -248h-461v-586h-274z" />
    <glyph glyph-name="G" unicode="G" horiz-adv-x="1409" 
d="M705 834h598v-791q-73 -28 -187 -47t-225 -19q-124 0 -241 23.5t-228.5 78.5t-194.5 136t-133.5 206.5t-50.5 280.5q0 121 29 223t77.5 175.5t116.5 131t141.5 93.5t156.5 59.5t157.5 33t148.5 9.5q248 0 416 -86l-65 -260q-166 88 -357 88q-76 0 -147.5 -12.5t-144 -45
t-126 -82.5t-87 -131.5t-33.5 -184.5q0 -99 30.5 -180.5t83.5 -137.5t127 -94.5t158.5 -56t179.5 -17.5q56 0 133 15v346h-389z" />
    <glyph glyph-name="H" unicode="H" horiz-adv-x="1392" 
d="M127 0v1409h274v-561h590v561h275v-1409h-275v602h-590v-602h-274z" />
    <glyph glyph-name="I" unicode="I" horiz-adv-x="544" 
d="M135 0v1409h275v-1409h-275z" />
    <glyph glyph-name="J" unicode="J" horiz-adv-x="968" 
d="M35 319q147 -90 295 -90q254 0 254 238v692h-482l66 250h690v-956q0 -231 -135.5 -352t-372.5 -121q-104 0 -186.5 22t-128.5 59v258z" />
    <glyph glyph-name="K" unicode="K" horiz-adv-x="1269" 
d="M125 0v1409h274v-631l516 631h334l-561 -682l600 -727h-350l-539 664v-664h-274z" />
    <glyph glyph-name="L" unicode="L" horiz-adv-x="1044" 
d="M125 0v1409h274v-1159h650l-64 -250h-860z" />
    <glyph glyph-name="M" unicode="M" horiz-adv-x="1599" 
d="M125 0v1409h369l311 -526l309 526h361v-1409h-275v1112l-315 -594h-168l-318 588v-1106h-274z" />
    <glyph glyph-name="N" unicode="N" horiz-adv-x="1413" 
d="M127 0v1409h387l498 -1018v1018h274v-1409h-360l-525 1069v-1069h-274z" />
    <glyph glyph-name="O" unicode="O" horiz-adv-x="1609" 
d="M805 1194q-114 0 -207.5 -41t-152 -109.5t-90 -154.5t-31.5 -180q0 -76 19.5 -148t59.5 -135t96.5 -110t135 -74t170.5 -27t170.5 27t135 74t96.5 110t59.5 135t19.5 148q0 94 -31.5 180t-90 154.5t-152 109.5t-207.5 41zM805 1446q181 0 328 -60t240.5 -162.5
t143.5 -234.5t50 -280q0 -119 -31 -229t-94.5 -204t-153 -164t-213.5 -109.5t-270 -39.5t-270 39.5t-213.5 109.5t-153 164t-94.5 204t-31 229q0 148 50 280t143.5 234.5t240.5 162.5t328 60z" />
    <glyph glyph-name="P" unicode="P" horiz-adv-x="1157" 
d="M125 0v1409h559q213 0 329.5 -119.5t116.5 -306.5q0 -202 -123 -327.5t-350 -125.5h-258v-530h-274zM399 1161v-385h258q97 0 146 54.5t49 142.5q0 83 -47 135.5t-141 52.5h-265z" />
    <glyph glyph-name="Q" unicode="Q" horiz-adv-x="1609" 
d="M811 1194q-114 0 -207.5 -41t-152 -109.5t-90 -154.5t-31.5 -180q0 -76 19.5 -148t59.5 -135t96.5 -110t135 -74t170.5 -27q83 0 160 23l-236 262l187 157l254 -282q116 137 116 334q0 94 -31.5 180t-90 154.5t-152 109.5t-207.5 41zM811 1446q181 0 328 -60
t240.5 -162.5t143.5 -234.5t50 -280q0 -157 -55 -297.5t-158 -243.5l141 -156l-186 -157l-158 176q-155 -68 -346 -68q-146 0 -270 39.5t-213.5 109.5t-153 164t-94.5 204t-31 229q0 148 50 280t143.5 234.5t240.5 162.5t328 60z" />
    <glyph glyph-name="R" unicode="R" horiz-adv-x="1200" 
d="M125 0v1409h565q210 0 325 -117t115 -303q0 -151 -70.5 -259t-213.5 -152l332 -578h-314l-309 549h-156v-549h-274zM399 1161v-379h263q95 0 142.5 53t47.5 140q0 82 -46 134t-138 52h-269z" />
    <glyph glyph-name="S" unicode="S" horiz-adv-x="1036" 
d="M954 1337l-63 -252q-136 95 -295 95q-122 0 -186 -39t-64 -115q0 -54 32.5 -86t108.5 -63l228 -97q138 -58 209 -143t71 -223q0 -202 -136.5 -319.5t-385.5 -117.5q-104 0 -212.5 29.5t-166.5 77.5v274q76 -59 183 -95t204 -36q112 0 173 40.5t61 121.5q0 55 -35 88.5
t-117 67.5l-241 100q-121 50 -188.5 133.5t-67.5 227.5q0 188 146 306t392 118q100 0 194.5 -24t155.5 -69z" />
    <glyph glyph-name="T" unicode="T" horiz-adv-x="1169" 
d="M1159 1409v-250h-418v-1159h-274v1159h-473l65 250h1100z" />
    <glyph glyph-name="U" unicode="U" horiz-adv-x="1327" 
d="M395 528q0 -309 269 -309q135 0 201.5 76.5t66.5 232.5v881h274v-915q0 -249 -140 -388t-402 -139q-263 0 -403 139t-140 388v915h274v-881z" />
    <glyph glyph-name="V" unicode="V" horiz-adv-x="1329" 
d="M483 0l-465 1409h310l338 -1120l346 1120h299l-473 -1409h-355z" />
    <glyph glyph-name="W" unicode="W" horiz-adv-x="1914" 
d="M365 0l-318 1409h293l207 -1022l274 1022h281l272 -1022l209 1022h285l-322 -1409h-317l-275 1004l-278 -1004h-311z" />
    <glyph glyph-name="X" unicode="X" horiz-adv-x="1286" 
d="M313 0h-321l467 729l-436 680h325l299 -489l301 489h320l-441 -678l467 -731h-323l-332 541z" />
    <glyph glyph-name="Y" unicode="Y" horiz-adv-x="1181" 
d="M596 813l285 596h305l-457 -852v-557h-274v547l-459 862h315z" />
    <glyph glyph-name="Z" unicode="Z" horiz-adv-x="1161" 
d="M690 1161h-641l70 248h1005v-31l-647 -1130h682l-69 -248h-1045v31z" />
    <glyph glyph-name="bracketleft" unicode="[" horiz-adv-x="690" 
d="M684 -256h-559v1726h559l-53 -204h-269v-1317h269z" />
    <glyph glyph-name="backslash" unicode="\" horiz-adv-x="964" 
d="M952 -256h-245l-695 1726h246z" />
    <glyph glyph-name="bracketright" unicode="]" horiz-adv-x="690" 
d="M6 1470h559v-1726h-559l53 205h269v1317h-269z" />
    <glyph glyph-name="asciicircum" unicode="^" horiz-adv-x="1046" 
d="M778 721h252l-360 688h-295l-361 -688h252l256 493z" />
    <glyph glyph-name="underscore" unicode="_" horiz-adv-x="1069" 
d="M1059 0v-229h-1065l59 229h1006z" />
    <glyph glyph-name="grave" unicode="`" horiz-adv-x="495" 
d="M262 1069l-244 340h293l174 -340h-223z" />
    <glyph glyph-name="a" unicode="a" horiz-adv-x="995" 
d="M313 322q0 -57 38.5 -93t113.5 -36q73 0 124.5 56t51.5 148v72l-145 -14q-94 -9 -138.5 -40t-44.5 -93zM901 670v-670h-248l-2 172q-74 -188 -272 -188q-148 0 -239 89t-91 218q0 52 10.5 95t32 75t47 56.5t62 42t69.5 29.5t78 20t78.5 12t79.5 8l135 12v23
q0 76 -67 117.5t-177 41.5q-160 0 -313 -84l63 242q133 68 310 68q92 0 171 -22.5t141 -67t97 -118.5t35 -171z" />
    <glyph glyph-name="b" unicode="b" 
d="M651 205q131 0 204 87.5t73 221.5q0 135 -73.5 223t-203.5 88t-202 -88t-72 -223t72 -222t202 -87zM719 -23q-126 0 -215.5 57.5t-132.5 155.5l-2 -190h-256v1470h264v-618q46 92 136 146.5t210 54.5q106 0 195 -41.5t149 -113.5t93.5 -171t33.5 -213q0 -232 -130 -384.5
t-345 -152.5z" />
    <glyph glyph-name="c" unicode="c" horiz-adv-x="950" 
d="M850 756q-93 59 -211 59q-58 0 -112.5 -16t-102 -48t-76.5 -89.5t-29 -133.5q0 -82 29.5 -145.5t80.5 -101.5t114 -57t135 -19q58 0 118.5 17t104.5 46v-233q-39 -24 -110.5 -42t-151.5 -18q-79 0 -157.5 17t-157 58t-138.5 100.5t-97.5 154t-37.5 209.5q0 88 20.5 163
t55.5 129t83.5 97t101.5 70.5t112 45t112.5 25t106.5 7.5q172 0 268 -68z" />
    <glyph glyph-name="d" unicode="d" 
d="M594 825q-130 0 -203.5 -88t-73.5 -221t73.5 -222t203.5 -89t202 88.5t72 222.5t-72 221.5t-202 87.5zM874 193q-44 -98 -136 -157t-216 -59q-106 0 -195 41.5t-149 113.5t-93.5 171t-33.5 213q0 232 130 384.5t345 152.5q117 0 207 -54t135 -145v616h265v-1470h-256z
" />
    <glyph glyph-name="e" unicode="e" horiz-adv-x="1095" 
d="M987 49q-53 -35 -146.5 -55.5t-181.5 -20.5q-295 0 -451.5 150t-156.5 395q0 109 35 206t100 171.5t165 118t222 43.5q141 0 247.5 -71.5t160 -187t53.5 -255.5q0 -77 -8 -121h-700q51 -225 362 -225q85 0 166 23.5t133 60.5v-232zM776 606q-12 106 -68.5 168t-144.5 62
q-98 0 -160.5 -61.5t-80.5 -168.5h454z" />
    <glyph glyph-name="f" unicode="f" horiz-adv-x="733" 
d="M186 1110q0 85 23.5 152t60 107t85 66.5t93.5 36t91 9.5q102 0 153 -31l41 -221q-55 20 -125 20q-78 0 -117.5 -34t-39.5 -107v-78h262v-213h-262v-817h-265v817h-170l37 213h133v80z" />
    <glyph glyph-name="g" unicode="g" horiz-adv-x="1230" 
d="M526 35q-144 0 -253 67.5t-165.5 182t-56.5 258.5q0 145 56.5 260t165.5 182.5t253 67.5q111 0 197 -50t137 -139l2 166h256v-880q0 -240 -155 -375t-424 -135q-104 0 -211 26t-164 76v240q156 -115 368 -115q142 0 232 66t90 190v90q-52 -84 -136.5 -131t-191.5 -47z
M854 543q0 121 -70.5 200.5t-197.5 79.5t-199 -79.5t-72 -200.5t72 -200t199 -79t197.5 79t70.5 200z" />
    <glyph glyph-name="h" unicode="h" horiz-adv-x="1122" 
d="M113 0v1470h264v-596q43 83 121 129t180 46q160 0 252 -101t92 -270v-678h-264v610q0 95 -45.5 149t-134.5 54q-96 0 -148.5 -60t-52.5 -173v-580h-264z" />
    <glyph glyph-name="i" unicode="i" horiz-adv-x="489" 
d="M113 0v1030h264v-1030h-264zM111 1196v274h268v-274h-268z" />
    <glyph glyph-name="j" unicode="j" horiz-adv-x="489" 
d="M113 25v1005h264v-989q0 -200 -88 -294.5t-248 -94.5q-84 0 -137 37v209q41 -15 80 -15q63 0 96 37.5t33 104.5zM111 1196v274h268v-274h-268z" />
    <glyph glyph-name="k" unicode="k" horiz-adv-x="1073" 
d="M113 0v1470h264v-886l383 446h317l-420 -485l424 -545h-329l-375 492v-492h-264z" />
    <glyph glyph-name="l" unicode="l" horiz-adv-x="489" 
d="M113 0v1470h264v-1470h-264z" />
    <glyph glyph-name="m" unicode="m" horiz-adv-x="1677" 
d="M113 0v1030h256l2 -168q38 88 112 136.5t170 48.5q106 0 182.5 -49.5t112.5 -139.5q46 90 124.5 139.5t180.5 49.5q151 0 237.5 -97t86.5 -260v-690h-264v627q0 89 -40 137.5t-116 48.5q-180 0 -180 -223v-590h-264v627q0 89 -40 137.5t-116 48.5q-180 0 -180 -223v-590
h-264z" />
    <glyph glyph-name="n" unicode="n" horiz-adv-x="1122" 
d="M758 610q0 94 -45.5 148.5t-134.5 54.5q-96 0 -148.5 -60t-52.5 -173v-580h-264v1030h256l2 -168q42 89 121.5 138t185.5 49q160 0 252 -101t92 -270v-678h-264v610z" />
    <glyph glyph-name="o" unicode="o" horiz-adv-x="1208" 
d="M604 834q-135 0 -211 -91.5t-76 -226.5t76 -227t211 -92t211 92t76 227t-76 226.5t-211 91.5zM604 1063q128 0 233 -42.5t174.5 -116t107.5 -173.5t38 -215q0 -116 -38 -216t-107.5 -174t-174.5 -116.5t-233 -42.5t-233 42.5t-174.5 116.5t-107.5 174t-38 216
q0 115 38 215t107.5 173.5t174.5 116t233 42.5z" />
    <glyph glyph-name="p" unicode="p" 
d="M651 205q130 0 203.5 88t73.5 221t-73.5 222t-203.5 89t-202 -88.5t-72 -222.5t72 -221.5t202 -87.5zM371 852q53 94 143.5 147.5t208.5 53.5q106 0 195 -41.5t149 -113.5t93.5 -171t33.5 -213q0 -232 -130 -384.5t-345 -152.5q-113 0 -201.5 50.5t-140.5 138.5v-504
h-264v1368h256z" />
    <glyph glyph-name="q" unicode="q" 
d="M594 825q-131 0 -204 -87.5t-73 -221.5q0 -135 73.5 -223t203.5 -88t202 88t72 223t-72 222t-202 87zM868 166q-52 -89 -141 -139t-205 -50q-106 0 -195 41.5t-149 113.5t-93.5 171t-33.5 213q0 232 130 384.5t345 152.5q117 0 206 -53.5t142 -147.5l3 178h256v-1368
h-265v504z" />
    <glyph glyph-name="r" unicode="r" horiz-adv-x="763" 
d="M715 735q-58 33 -127 33q-211 0 -211 -258v-510h-264v1030h249l3 -223q80 240 276 240q78 0 123 -48z" />
    <glyph glyph-name="s" unicode="s" horiz-adv-x="862" 
d="M786 979l-57 -223q-106 75 -248 75q-157 0 -157 -88q0 -31 19 -50t77 -42l164 -65q119 -47 175 -111t56 -172q0 -154 -111.5 -243t-300.5 -89q-93 0 -181.5 23.5t-135.5 66.5v238q145 -106 320 -106q151 0 151 92q0 32 -21 49.5t-83 42.5l-168 65q-110 43 -166 109
t-56 178q0 147 117.5 236.5t321.5 89.5q81 0 157.5 -20t126.5 -56z" />
    <glyph glyph-name="t" unicode="t" horiz-adv-x="743" 
d="M414 1030h280v-213h-280v-438q0 -84 41 -121t129 -37q58 0 118 29v-213q-29 -24 -83.5 -36.5t-112.5 -12.5q-175 0 -265.5 88t-90.5 246v495h-140v57l324 379h80v-223z" />
    <glyph glyph-name="u" unicode="u" horiz-adv-x="1118" 
d="M1006 1030v-1030h-252l-2 170q-37 -84 -115 -136t-188 -52q-163 0 -256 100.5t-93 269.5v678h265v-614q0 -92 45 -145.5t133 -53.5q96 0 147 59.5t51 178.5v575h265z" />
    <glyph glyph-name="v" unicode="v" horiz-adv-x="1067" 
d="M369 0l-359 1030h295l236 -768l233 768h283l-359 -1030h-329z" />
    <glyph glyph-name="w" unicode="w" horiz-adv-x="1560" 
d="M291 0l-268 1030h272l158 -723l202 723h260l203 -719l154 719h266l-272 -1030h-285l-201 688l-205 -688h-284z" />
    <glyph glyph-name="x" unicode="x" horiz-adv-x="1040" 
d="M287 0h-295l360 528l-332 502h308l198 -332l207 332h295l-336 -498l357 -532h-308l-225 362z" />
    <glyph glyph-name="y" unicode="y" horiz-adv-x="1036" 
d="M10 1030h291l231 -713l222 713h272l-356 -1016q-64 -181 -158 -269.5t-256 -88.5q-53 0 -101.5 13t-74.5 36v217q60 -31 135 -31q144 0 172 117z" />
    <glyph glyph-name="z" unicode="z" horiz-adv-x="921" 
d="M487 805h-456l69 225h797v-26l-459 -779h488l-70 -225h-825v27z" />
    <glyph glyph-name="braceleft" unicode="{" horiz-adv-x="677" 
d="M322 608q91 -32 147.5 -98t56.5 -164q0 -88 -80 -190q-51 -63 -51 -107q0 -55 58 -83.5t168 -39.5l-31 -192q-53 0 -111.5 12t-117 38t-105 63t-75.5 91t-29 117q0 46 13 86t26.5 61t37.5 52q45 56 45 113q0 76 -61 113t-160 42v172q99 5 160 42.5t61 113.5q0 60 -45 113
q-36 42 -56.5 87t-20.5 111q0 63 29 117.5t75.5 91t105 63t117 38.5t111.5 12l31 -193q-110 -11 -168 -39.5t-58 -83.5q0 -27 11.5 -49t39.5 -57q80 -97 80 -191q0 -98 -56.5 -164t-147.5 -98z" />
    <glyph glyph-name="bar" unicode="|" horiz-adv-x="485" 
d="M125 -256v1726h235v-1726h-235z" />
    <glyph glyph-name="braceright" unicode="}" horiz-adv-x="677" 
d="M356 608q-91 32 -147.5 98t-56.5 164q0 91 79 191q28 35 40 57.5t12 48.5q0 55 -58 83.5t-168 39.5l31 193q53 0 111.5 -12t117 -38.5t105 -63t75.5 -91t29 -117.5q0 -46 -13 -86t-26.5 -60.5t-37.5 -51.5q-46 -57 -46 -113q0 -76 61.5 -113.5t160.5 -42.5v-172
q-99 -5 -160.5 -42t-61.5 -113q0 -59 46 -113q36 -41 56.5 -87t20.5 -112q0 -63 -29 -117t-75.5 -91t-105 -63t-117 -38t-111.5 -12l-31 192q110 11 168 39.5t58 83.5q0 27 -12 49.5t-40 57.5q-79 96 -79 190q0 98 56.5 164t147.5 98z" />
    <glyph glyph-name="asciitilde" unicode="~" horiz-adv-x="1054" 
d="M1018 803q0 -166 -72.5 -261.5t-202.5 -95.5q-52 0 -101.5 16t-78.5 33t-80 52q-98 65 -122 74q-17 6 -35 6q-44 0 -67.5 -40t-33.5 -147l-188 33q0 168 74.5 264.5t207.5 96.5q68 0 123 -23.5t133 -77.5q75 -51 102 -65.5t56 -14.5q42 0 64.5 39.5t31.5 143.5z" />
    <glyph glyph-name="uni00A0" unicode="&#xa0;" horiz-adv-x="350" 
 />
    <glyph glyph-name="exclamdown" unicode="&#xa1;" horiz-adv-x="526" 
d="M358 608l50 -583v-363h-279v363l49 583h180zM422 1071v-311h-297v311h297z" />
    <glyph glyph-name="cent" unicode="&#xa2;" horiz-adv-x="950" 
d="M850 756q-93 59 -211 59q-58 0 -112.5 -16t-102 -48t-76.5 -89.5t-29 -133.5q0 -82 29.5 -145.5t80.5 -101.5t114 -57t135 -19q58 0 118.5 17t104.5 46v-233q-76 -46 -213 -58v-210h-246v235q-63 18 -118 46t-106 72.5t-87.5 99.5t-58 130.5t-21.5 163.5
q0 112 32.5 202.5t90 150.5t123.5 98t145 59v221h246v-196q142 -8 223 -66z" />
    <glyph glyph-name="sterling" unicode="&#xa3;" horiz-adv-x="1097" 
d="M90 0v229q146 100 146 271q0 40 -7 84h-206l40 223h105q-16 69 -16 162q0 216 149.5 338.5t403.5 122.5q190 0 317 -72l-59 -242q-135 66 -269 66q-133 0 -200.5 -57t-67.5 -156q0 -75 25 -162l436 2l-56 -223h-327q4 -40 4 -64q0 -179 -109 -272h625l68 -250h-1002z" />
    <glyph glyph-name="currency" unicode="&#xa4;" horiz-adv-x="1179" 
d="M590 940q-102 0 -169 -72.5t-67 -173.5t67 -174.5t169 -73.5t168.5 73.5t66.5 174.5t-66.5 173.5t-168.5 72.5zM350 1081q108 62 240 62q131 0 239 -62l154 154l147 -150l-151 -153q65 -106 65 -238q0 -135 -65 -241l151 -152l-147 -149l-156 153q-106 -61 -237 -61
q-132 0 -238 61l-155 -153l-148 149l152 152q-66 107 -66 241q0 131 66 238l-152 153l148 150z" />
    <glyph glyph-name="yen" unicode="&#xa5;" horiz-adv-x="1181" 
d="M383 680l-387 729h315l285 -610l285 610h305l-391 -729h237v-174h-303v-129h303v-174h-303v-203h-274v203h-328l33 174h295v129h-328l33 174h223z" />
    <glyph glyph-name="brokenbar" unicode="&#xa6;" horiz-adv-x="485" 
d="M360 512v-768h-235v768h235zM125 750v720h235v-720h-235z" />
    <glyph glyph-name="section" unicode="&#xa7;" horiz-adv-x="1062" 
d="M934 1341l-60 -239q-123 88 -268 88q-192 0 -192 -111q0 -47 29 -70.5t116 -58.5l119 -49q88 -37 144 -68t104.5 -74.5t71 -99.5t22.5 -129q0 -97 -45 -171t-123 -115q102 -85 102 -224q0 -173 -126 -275.5t-341 -102.5q-102 0 -198 26.5t-160 71.5v260q76 -57 173.5 -89
t193.5 -32q184 0 184 117q0 46 -34.5 71t-137.5 68l-131 55q-42 18 -69.5 31t-62.5 32.5t-57.5 38.5t-46 46t-37 56.5t-22 69t-8.5 85.5q0 94 46.5 165t127.5 111q-109 88 -109 234q0 166 132 268.5t364 102.5q81 0 166 -24.5t133 -64.5zM653 354q101 30 101 140
q0 56 -48.5 96.5t-160.5 87.5l-90 37q-56 -16 -85.5 -46.5t-29.5 -84.5q0 -60 41.5 -98t140.5 -78l119 -50q2 -1 6 -2t6 -2z" />
    <glyph glyph-name="dieresis" unicode="&#xa8;" horiz-adv-x="892" 
d="M104 1151v258h271v-258h-271zM518 1151v258h270v-258h-270z" />
    <glyph glyph-name="copyright" unicode="&#xa9;" horiz-adv-x="1597" 
d="M1022 866q-83 49 -166 49q-41 0 -79 -10t-73.5 -31.5t-57 -63t-21.5 -97.5q0 -109 70 -162t171 -53q106 0 187 57v-182q-77 -56 -197 -56q-61 0 -119 11.5t-116 40.5t-101 72.5t-69.5 112.5t-26.5 155q0 91 30 162t75.5 113t107 69t118 37t115.5 10q123 0 189 -49z
M799 1270q-131 0 -239.5 -46.5t-179 -125t-109 -179t-38.5 -210.5q0 -112 38.5 -214t109 -181.5t179.5 -127t241 -47.5q105 0 196 31t157.5 85.5t114 126.5t71.5 156t24 173q0 109 -38.5 209.5t-108.5 178.5t-178.5 124.5t-239.5 46.5zM799 1444q177 0 322 -60t238.5 -162
t144 -234t50.5 -279q0 -148 -51.5 -282t-146 -237t-239 -164t-318.5 -61t-318.5 61t-239 164t-146.5 237t-52 282q0 147 52 279.5t146.5 234t239 161.5t318.5 60z" />
    <glyph glyph-name="ordfeminine" unicode="&#xaa;" horiz-adv-x="823" 
d="M281 842q0 -46 25.5 -74.5t78.5 -28.5q63 0 103 43t40 117v55l-122 -12q-63 -6 -94 -29t-31 -71zM528 1092v22q0 56 -49 87.5t-127 31.5q-133 0 -250 -57l52 192q88 43 223 43q178 0 270 -76.5t92 -220.5v-526h-200l-2 133q-25 -68 -80 -107t-129 -39q-118 0 -189 68
t-71 172q0 47 12 85t30 64t48 46.5t58 32t68 20.5t70 12.5t72 7.5z" />
    <glyph glyph-name="guillemotleft" unicode="&#xab;" horiz-adv-x="1163" 
d="M502 518l356 414h262l-346 -410l346 -416h-264zM43 518l356 414h263l-347 -410l347 -416h-265z" />
    <glyph glyph-name="logicalnot" unicode="&#xac;" horiz-adv-x="1026" 
d="M94 848h852v-584h-227v369h-680z" />
    <glyph glyph-name="uni00AD" unicode="&#xad;" horiz-adv-x="770" 
d="M694 731v-235h-643l62 235h581z" />
    <glyph glyph-name="registered" unicode="&#xae;" horiz-adv-x="1597" 
d="M524 330v762h328q129 0 200.5 -68t71.5 -176q0 -74 -35.5 -130.5t-105.5 -86.5l141 -301h-209l-127 274h-71v-274h-193zM799 1270q-131 0 -239.5 -46.5t-179 -125t-109 -179t-38.5 -210.5q0 -112 38.5 -214t109 -181.5t179.5 -127t241 -47.5q105 0 196 31t157.5 85.5
t114 126.5t71.5 156t24 173q0 109 -38.5 209.5t-108.5 178.5t-178.5 124.5t-239.5 46.5zM799 1444q177 0 322 -60t238.5 -162t144 -234t50.5 -279q0 -148 -51.5 -282t-146 -237t-239 -164t-318.5 -61t-318.5 61t-239 164t-146.5 237t-52 282q0 147 52 279.5t146.5 234
t239 161.5t318.5 60zM717 940v-192h100q57 0 85 27t28 71q0 42 -28 68t-85 26h-100z" />
    <glyph glyph-name="macron" unicode="&#xaf;" horiz-adv-x="1069" 
d="M1065 1638v-229h-1065l59 229h1006z" />
    <glyph glyph-name="degree" unicode="&#xb0;" horiz-adv-x="667" 
d="M334 1268q-60 0 -93.5 -39.5t-33.5 -95.5q0 -55 33.5 -95.5t93.5 -40.5t93.5 40.5t33.5 95.5q0 56 -33.5 95.5t-93.5 39.5zM334 1409q130 0 205 -78.5t75 -197.5q0 -121 -75 -199t-205 -78t-205.5 78t-75.5 199q0 119 75.5 197.5t205.5 78.5z" />
    <glyph glyph-name="plusminus" unicode="&#xb1;" horiz-adv-x="1009" 
d="M109 270h823v-198h-875zM616 874h316v-198h-316v-314h-219v314h-340l52 198h288v291h219v-291z" />
    <glyph glyph-name="twosuperior" unicode="&#xb2;" horiz-adv-x="770" 
d="M92 1167l51 199q97 51 242 51q135 0 217 -58.5t82 -172.5q0 -67 -32 -129.5t-117 -130.5l-119 -97q-40 -36 -49 -49h362l-49 -192h-596v35q0 164 188 317l101 82q57 47 73.5 73.5t16.5 55.5q0 78 -129 78q-132 0 -242 -62z" />
    <glyph glyph-name="threesuperior" unicode="&#xb3;" horiz-adv-x="770" 
d="M457 1171q0 37 -33 53.5t-102 16.5q-116 0 -228 -67l51 194q96 49 240 49q128 0 210.5 -54t82.5 -151q0 -69 -40.5 -118t-100.5 -74q73 -24 118 -72.5t45 -122.5q0 -110 -93 -177.5t-247 -67.5q-168 0 -268 63v186q131 -67 260 -67q125 0 125 74q0 50 -62 71t-200 21
l39 162q103 0 153 18.5t50 62.5z" />
    <glyph glyph-name="acute" unicode="&#xb4;" horiz-adv-x="495" 
d="M233 1069h-223l174 340h293z" />
    <glyph glyph-name="uni00B5" unicode="&#xb5;" horiz-adv-x="1110" 
d="M365 414q0 -89 43.5 -140t130.5 -51q93 0 143.5 59t50.5 167v581h264v-1030h-252l-2 166q-32 -85 -100.5 -132.5t-161.5 -47.5q-65 0 -116 28v-352h-265v1368h265v-616z" />
    <glyph glyph-name="paragraph" unicode="&#xb6;" horiz-adv-x="1230" 
d="M721 -256h-234v791q-216 0 -333 120t-117 312q0 197 123 319.5t350 122.5h211v-1665zM1106 -256h-234v1665h234v-1665zM487 750v444q-107 -1 -162 -61.5t-55 -159.5q0 -98 55.5 -160t161.5 -63z" />
    <glyph glyph-name="periodcentered" unicode="&#xb7;" horiz-adv-x="501" 
d="M102 473v311h297v-311h-297z" />
    <glyph glyph-name="cedilla" unicode="&#xb8;" horiz-adv-x="495" 
d="M301 45q56 -37 91.5 -93.5t35.5 -119.5q0 -82 -64 -136t-171 -54q-110 0 -166 49v162q47 -27 106 -27q90 0 90 82q0 61 -43 137h121z" />
    <glyph glyph-name="onesuperior" unicode="&#xb9;" horiz-adv-x="770" 
d="M346 1174l-256 -52l53 207l424 82v-823h-221v586z" />
    <glyph glyph-name="ordmasculine" unicode="&#xba;" horiz-adv-x="972" 
d="M485 1235q-99 0 -155 -68t-56 -168t56 -168.5t155 -68.5t156 68.5t57 168.5t-57 168t-156 68zM485 1423q200 0 316.5 -119.5t116.5 -304.5q0 -187 -116 -306.5t-317 -119.5q-200 0 -315 119.5t-115 306.5q0 186 115 305t315 119z" />
    <glyph glyph-name="guillemotright" unicode="&#xbb;" horiz-adv-x="1163" 
d="M662 520l-357 -414h-262l346 410l-346 416h264zM1120 520l-356 -414h-262l346 410l-346 416h264z" />
    <glyph glyph-name="onequarter" unicode="&#xbc;" horiz-adv-x="1746" 
d="M295 0l911 1409h248l-911 -1409h-248zM1380 158h-401v166l285 497h239l-293 -495h170v145l222 68v-213h106l-31 -168h-75v-158h-222v158zM315 1176l-256 -52l54 207l424 82v-823h-222v586z" />
    <glyph glyph-name="onehalf" unicode="&#xbd;" horiz-adv-x="1769" 
d="M1085 580l52 198q97 51 241 51q135 0 217 -58.5t82 -172.5q0 -67 -32 -129.5t-117 -130.5l-119 -96q-40 -36 -49 -49h362l-49 -193h-596v35q0 163 189 317l100 82q57 47 73.5 73.5t16.5 55.5q0 78 -129 78q-134 0 -242 -61zM293 0l911 1409h248l-911 -1409h-248z
M315 1176l-256 -52l54 207l424 82v-823h-222v586z" />
    <glyph glyph-name="threequarters" unicode="&#xbe;" horiz-adv-x="1785" 
d="M455 1174q0 37 -33 53t-103 16q-115 0 -227 -67l51 194q96 49 240 49q128 0 210.5 -54t82.5 -151q0 -69 -40.5 -118t-100.5 -74q73 -24 118 -72.5t45 -122.5q0 -110 -93 -177.5t-247 -67.5q-168 0 -268 63v186q131 -67 260 -67q125 0 125 74q0 50 -62 71t-200 21l39 162
q102 0 152.5 19t50.5 63zM334 0l911 1409h248l-911 -1409h-248zM1419 158h-401v166l285 497h239l-293 -495h170v145l221 68v-213h107l-31 -168h-76v-158h-221v158z" />
    <glyph glyph-name="questiondown" unicode="&#xbf;" horiz-adv-x="894" 
d="M635 590q0 -60 -11.5 -106t-40 -88t-55.5 -71t-79 -77q-38 -34 -59 -56.5t-40.5 -62.5t-19.5 -84q0 -79 57.5 -116.5t157.5 -37.5q185 0 354 101v-236q-60 -50 -162.5 -81t-236.5 -31q-126 0 -226 40t-160.5 122.5t-60.5 195.5q0 105 46.5 182t138.5 162q93 85 129.5 137
t42.5 125h225v-18zM381 760v311h297v-311h-297z" />
    <glyph glyph-name="Agrave" unicode="&#xc0;" horiz-adv-x="1345" 
d="M604 1524l-244 340h293l174 -340h-223zM12 0l486 1409h356l479 -1409h-291l-104 322h-541l-106 -322h-279zM473 553h389l-192 594z" />
    <glyph glyph-name="Aacute" unicode="&#xc1;" horiz-adv-x="1345" 
d="M739 1524h-223l174 340h293zM12 0l486 1409h356l479 -1409h-291l-104 322h-541l-106 -322h-279zM473 553h389l-192 594z" />
    <glyph glyph-name="Acircumflex" unicode="&#xc2;" horiz-adv-x="1345" 
d="M547 1524h-221l211 340h274l211 -340h-221l-127 180zM12 0l486 1409h356l479 -1409h-291l-104 322h-541l-106 -322h-279zM473 553h389l-192 594z" />
    <glyph glyph-name="Atilde" unicode="&#xc3;" horiz-adv-x="1345" 
d="M317 1554q0 126 59.5 199.5t162.5 73.5q54 0 94.5 -19t85.5 -55q31 -25 49.5 -34t42.5 -9q68 0 74 115l147 -27q0 -126 -60 -200t-159 -74q-52 0 -94.5 19t-91.5 56q-58 43 -88 43q-33 0 -51 -24.5t-21 -89.5zM12 0l486 1409h356l479 -1409h-291l-104 322h-541l-106 -322
h-279zM473 553h389l-192 594z" />
    <glyph glyph-name="Adieresis" unicode="&#xc4;" horiz-adv-x="1345" 
d="M332 1524v258h270v-258h-270zM745 1524v258h271v-258h-271zM12 0l486 1409h356l479 -1409h-291l-104 322h-541l-106 -322h-279zM473 553h389l-192 594z" />
    <glyph glyph-name="Aring" unicode="&#xc5;" horiz-adv-x="1345" 
d="M444 1686q0 92 60 151t170 59t169.5 -59t59.5 -151t-59.5 -151.5t-169.5 -59.5t-170 59.5t-60 151.5zM578 1686q0 -42 24.5 -69.5t71.5 -27.5t71.5 27.5t24.5 69.5t-24.5 69t-71.5 27t-71.5 -27t-24.5 -69zM12 0l486 1409h356l479 -1409h-291l-104 322h-541l-106 -322
h-279zM473 553h389l-192 594z" />
    <glyph glyph-name="AE" unicode="&#xc6;" horiz-adv-x="1853" 
d="M-8 0l715 1409h1105l-65 -250h-596v-311h518l-65 -248h-453v-350h621l67 -250h-962v315h-439l-157 -315h-289zM555 549h322v647z" />
    <glyph glyph-name="Ccedilla" unicode="&#xc7;" horiz-adv-x="1243" 
d="M1133 1092q-124 75 -304 75q-68 0 -135 -13.5t-134.5 -47t-118.5 -83t-83 -128.5t-32 -176q0 -102 32 -185.5t85 -139.5t125 -93.5t149.5 -54.5t159.5 -17q83 0 166.5 23t140.5 59v-260q-40 -29 -126.5 -50t-187.5 -24q54 -67 54 -145q0 -82 -64 -136t-172 -54
q-110 0 -166 49v162q46 -27 107 -27q90 0 90 82q0 42 -14 80q-99 14 -189 44.5t-178 87.5t-152 134.5t-103.5 193t-39.5 254.5q0 120 29 222t77 175t115 131t139.5 94t154 60t154 33.5t144.5 9.5q116 0 206.5 -23.5t137.5 -57.5z" />
    <glyph glyph-name="Egrave" unicode="&#xc8;" horiz-adv-x="1124" 
d="M541 1524l-244 340h293l174 -340h-223zM125 0v1409h958l-65 -250h-619v-311h539l-64 -248h-475v-350h643l68 -250h-985z" />
    <glyph glyph-name="Eacute" unicode="&#xc9;" horiz-adv-x="1124" 
d="M676 1524h-223l174 340h293zM125 0v1409h958l-65 -250h-619v-311h539l-64 -248h-475v-350h643l68 -250h-985z" />
    <glyph glyph-name="Ecircumflex" unicode="&#xca;" horiz-adv-x="1124" 
d="M483 1524h-221l211 340h275l210 -340h-221l-127 180zM125 0v1409h958l-65 -250h-619v-311h539l-64 -248h-475v-350h643l68 -250h-985z" />
    <glyph glyph-name="Edieresis" unicode="&#xcb;" horiz-adv-x="1124" 
d="M268 1524v258h271v-258h-271zM682 1524v258h270v-258h-270zM125 0v1409h958l-65 -250h-619v-311h539l-64 -248h-475v-350h643l68 -250h-985z" />
    <glyph glyph-name="Igrave" unicode="&#xcc;" horiz-adv-x="544" 
d="M203 1524l-244 340h293l174 -340h-223zM135 0v1409h275v-1409h-275z" />
    <glyph glyph-name="Iacute" unicode="&#xcd;" horiz-adv-x="544" 
d="M338 1524h-223l174 340h293zM135 0v1409h275v-1409h-275z" />
    <glyph glyph-name="Icircumflex" unicode="&#xce;" horiz-adv-x="544" 
d="M145 1524h-221l211 340h275l211 -340h-222l-127 180zM135 0v1409h275v-1409h-275z" />
    <glyph glyph-name="Idieresis" unicode="&#xcf;" horiz-adv-x="544" 
d="M-70 1524v258h271v-258h-271zM344 1524v258h270v-258h-270zM135 0v1409h275v-1409h-275z" />
    <glyph glyph-name="Eth" unicode="&#xd0;" horiz-adv-x="1468" 
d="M172 1409h545q169 0 304.5 -53t223 -146.5t134 -219t46.5 -273.5q0 -153 -48 -283.5t-138 -227t-229.5 -151.5t-313.5 -55h-524v614h-180l45 217h135v578zM446 1161v-330h275v-217h-275v-366h250q111 0 198.5 36t142 99t82.5 145.5t28 180.5q0 95 -27 176t-80.5 143.5
t-139 97.5t-195.5 35h-259z" />
    <glyph glyph-name="Ntilde" unicode="&#xd1;" horiz-adv-x="1413" 
d="M350 1554q0 126 59 199.5t162 73.5q54 0 95 -19t86 -55q31 -25 49.5 -34t42.5 -9q68 0 74 115l147 -27q0 -126 -60 -200t-159 -74q-52 0 -95 19.5t-92 55.5q-58 43 -88 43q-33 0 -50.5 -24.5t-20.5 -89.5zM127 0v1409h387l498 -1018v1018h274v-1409h-360l-525 1069v-1069
h-274z" />
    <glyph glyph-name="Ograve" unicode="&#xd2;" horiz-adv-x="1609" 
d="M735 1524l-243 340h292l174 -340h-223zM805 1194q-114 0 -207.5 -41t-152 -109.5t-90 -154.5t-31.5 -180q0 -76 19.5 -148t59.5 -135t96.5 -110t135 -74t170.5 -27t170.5 27t135 74t96.5 110t59.5 135t19.5 148q0 94 -31.5 180t-90 154.5t-152 109.5t-207.5 41zM805 1446
q181 0 328 -60t240.5 -162.5t143.5 -234.5t50 -280q0 -119 -31 -229t-94.5 -204t-153 -164t-213.5 -109.5t-270 -39.5t-270 39.5t-213.5 109.5t-153 164t-94.5 204t-31 229q0 148 50 280t143.5 234.5t240.5 162.5t328 60z" />
    <glyph glyph-name="Oacute" unicode="&#xd3;" horiz-adv-x="1609" 
d="M870 1524h-223l174 340h293zM805 1194q-114 0 -207.5 -41t-152 -109.5t-90 -154.5t-31.5 -180q0 -76 19.5 -148t59.5 -135t96.5 -110t135 -74t170.5 -27t170.5 27t135 74t96.5 110t59.5 135t19.5 148q0 94 -31.5 180t-90 154.5t-152 109.5t-207.5 41zM805 1446
q181 0 328 -60t240.5 -162.5t143.5 -234.5t50 -280q0 -119 -31 -229t-94.5 -204t-153 -164t-213.5 -109.5t-270 -39.5t-270 39.5t-213.5 109.5t-153 164t-94.5 204t-31 229q0 148 50 280t143.5 234.5t240.5 162.5t328 60z" />
    <glyph glyph-name="Ocircumflex" unicode="&#xd4;" horiz-adv-x="1609" 
d="M678 1524h-221l211 340h274l211 -340h-221l-127 180zM805 1194q-114 0 -207.5 -41t-152 -109.5t-90 -154.5t-31.5 -180q0 -76 19.5 -148t59.5 -135t96.5 -110t135 -74t170.5 -27t170.5 27t135 74t96.5 110t59.5 135t19.5 148q0 94 -31.5 180t-90 154.5t-152 109.5
t-207.5 41zM805 1446q181 0 328 -60t240.5 -162.5t143.5 -234.5t50 -280q0 -119 -31 -229t-94.5 -204t-153 -164t-213.5 -109.5t-270 -39.5t-270 39.5t-213.5 109.5t-153 164t-94.5 204t-31 229q0 148 50 280t143.5 234.5t240.5 162.5t328 60z" />
    <glyph glyph-name="Otilde" unicode="&#xd5;" horiz-adv-x="1609" 
d="M449 1554q0 126 59 199.5t162 73.5q54 0 94.5 -19t85.5 -55q31 -25 49.5 -34t42.5 -9q68 0 74 115l147 -27q0 -126 -60 -200t-159 -74q-52 0 -94.5 19t-91.5 56q-58 43 -88 43q-33 0 -51 -24.5t-21 -89.5zM805 1194q-114 0 -207.5 -41t-152 -109.5t-90 -154.5t-31.5 -180
q0 -76 19.5 -148t59.5 -135t96.5 -110t135 -74t170.5 -27t170.5 27t135 74t96.5 110t59.5 135t19.5 148q0 94 -31.5 180t-90 154.5t-152 109.5t-207.5 41zM805 1446q181 0 328 -60t240.5 -162.5t143.5 -234.5t50 -280q0 -119 -31 -229t-94.5 -204t-153 -164t-213.5 -109.5
t-270 -39.5t-270 39.5t-213.5 109.5t-153 164t-94.5 204t-31 229q0 148 50 280t143.5 234.5t240.5 162.5t328 60z" />
    <glyph glyph-name="Odieresis" unicode="&#xd6;" horiz-adv-x="1609" 
d="M463 1524v258h270v-258h-270zM877 1524v258h270v-258h-270zM805 1194q-114 0 -207.5 -41t-152 -109.5t-90 -154.5t-31.5 -180q0 -76 19.5 -148t59.5 -135t96.5 -110t135 -74t170.5 -27t170.5 27t135 74t96.5 110t59.5 135t19.5 148q0 94 -31.5 180t-90 154.5t-152 109.5
t-207.5 41zM805 1446q181 0 328 -60t240.5 -162.5t143.5 -234.5t50 -280q0 -119 -31 -229t-94.5 -204t-153 -164t-213.5 -109.5t-270 -39.5t-270 39.5t-213.5 109.5t-153 164t-94.5 204t-31 229q0 148 50 280t143.5 234.5t240.5 162.5t328 60z" />
    <glyph glyph-name="multiply" unicode="&#xd7;" horiz-adv-x="1030" 
d="M365 631l-275 272l152 152l274 -273l272 273l152 -152l-272 -272l272 -275l-152 -151l-272 274l-274 -274l-152 151z" />
    <glyph glyph-name="Oslash" unicode="&#xd8;" horiz-adv-x="1609" 
d="M805 1194q-114 0 -207.5 -41t-152 -109.5t-90 -154.5t-31.5 -180q0 -157 82 -287l632 719q-106 53 -233 53zM1206 989l-631 -723q97 -51 230 -51q92 0 170.5 27t135 74t96.5 110t59.5 135t19.5 148q0 156 -80 280zM225 201q-182 203 -182 508q0 148 50 280t143.5 234.5
t240.5 162.5t328 60q244 0 422 -107l145 164l158 -131l-144 -164q88 -99 134.5 -228t46.5 -271q0 -119 -31 -229t-94.5 -204t-153 -164t-213.5 -109.5t-270 -39.5q-242 0 -420 107l-145 -164l-158 131z" />
    <glyph glyph-name="Ugrave" unicode="&#xd9;" horiz-adv-x="1327" 
d="M592 1524l-244 340h293l174 -340h-223zM395 528q0 -309 269 -309q135 0 201.5 76.5t66.5 232.5v881h274v-915q0 -249 -140 -388t-402 -139q-263 0 -403 139t-140 388v915h274v-881z" />
    <glyph glyph-name="Uacute" unicode="&#xda;" horiz-adv-x="1327" 
d="M727 1524h-223l174 340h293zM395 528q0 -309 269 -309q135 0 201.5 76.5t66.5 232.5v881h274v-915q0 -249 -140 -388t-402 -139q-263 0 -403 139t-140 388v915h274v-881z" />
    <glyph glyph-name="Ucircumflex" unicode="&#xdb;" horiz-adv-x="1327" 
d="M535 1524h-222l211 340h275l211 -340h-222l-126 180zM395 528q0 -309 269 -309q135 0 201.5 76.5t66.5 232.5v881h274v-915q0 -249 -140 -388t-402 -139q-263 0 -403 139t-140 388v915h274v-881z" />
    <glyph glyph-name="Udieresis" unicode="&#xdc;" horiz-adv-x="1327" 
d="M319 1524v258h271v-258h-271zM733 1524v258h271v-258h-271zM395 528q0 -309 269 -309q135 0 201.5 76.5t66.5 232.5v881h274v-915q0 -249 -140 -388t-402 -139q-263 0 -403 139t-140 388v915h274v-881z" />
    <glyph glyph-name="Yacute" unicode="&#xdd;" horiz-adv-x="1181" 
d="M664 1524h-224l174 340h293zM596 813l285 596h305l-457 -852v-557h-274v547l-459 862h315z" />
    <glyph glyph-name="Thorn" unicode="&#xde;" horiz-adv-x="1163" 
d="M125 0v1409h274v-246h287q212 0 328 -119t116 -305q0 -202 -120.5 -326t-343.5 -124h-267v-289h-274zM399 915v-378h267q93 0 139.5 53t46.5 139q0 82 -47 134t-139 52h-267z" />
    <glyph glyph-name="germandbls" unicode="&#xdf;" horiz-adv-x="1171" 
d="M113 1053q0 102 29 180.5t73.5 125t105.5 76t118 40t118 10.5q72 0 140.5 -19t126.5 -55.5t93 -98.5t35 -141q0 -60 -17 -105t-38.5 -69.5t-65.5 -62.5q-44 -37 -59.5 -60t-15.5 -57q0 -58 71 -94l82 -41q136 -65 190 -142.5t54 -197.5q0 -160 -108.5 -259t-305.5 -99
q-63 0 -131.5 16t-115.5 47v229q113 -73 253 -73q70 0 110 34t40 85q0 44 -26.5 78.5t-94.5 66.5l-86 41q-99 48 -144.5 107t-45.5 153q0 76 28 126t80 97q50 45 69 71.5t19 67.5q0 62 -42 92.5t-107 30.5q-33 0 -60.5 -9t-53 -29.5t-40 -59t-14.5 -92.5v-1063h-264v1053z
" />
    <glyph glyph-name="agrave" unicode="&#xe0;" horiz-adv-x="995" 
d="M424 1176l-244 340h293l174 -340h-223zM313 322q0 -57 38.5 -93t113.5 -36q73 0 124.5 56t51.5 148v72l-145 -14q-94 -9 -138.5 -40t-44.5 -93zM901 670v-670h-248l-2 172q-74 -188 -272 -188q-148 0 -239 89t-91 218q0 52 10.5 95t32 75t47 56.5t62 42t69.5 29.5t78 20
t78.5 12t79.5 8l135 12v23q0 76 -67 117.5t-177 41.5q-160 0 -313 -84l63 242q133 68 310 68q92 0 171 -22.5t141 -67t97 -118.5t35 -171z" />
    <glyph glyph-name="aacute" unicode="&#xe1;" horiz-adv-x="995" 
d="M559 1176h-223l174 340h293zM313 322q0 -57 38.5 -93t113.5 -36q73 0 124.5 56t51.5 148v72l-145 -14q-94 -9 -138.5 -40t-44.5 -93zM901 670v-670h-248l-2 172q-74 -188 -272 -188q-148 0 -239 89t-91 218q0 52 10.5 95t32 75t47 56.5t62 42t69.5 29.5t78 20t78.5 12
t79.5 8l135 12v23q0 76 -67 117.5t-177 41.5q-160 0 -313 -84l63 242q133 68 310 68q92 0 171 -22.5t141 -67t97 -118.5t35 -171z" />
    <glyph glyph-name="acircumflex" unicode="&#xe2;" horiz-adv-x="995" 
d="M367 1176h-222l211 340h275l211 -340h-221l-127 180zM313 322q0 -57 38.5 -93t113.5 -36q73 0 124.5 56t51.5 148v72l-145 -14q-94 -9 -138.5 -40t-44.5 -93zM901 670v-670h-248l-2 172q-74 -188 -272 -188q-148 0 -239 89t-91 218q0 52 10.5 95t32 75t47 56.5t62 42
t69.5 29.5t78 20t78.5 12t79.5 8l135 12v23q0 76 -67 117.5t-177 41.5q-160 0 -313 -84l63 242q133 68 310 68q92 0 171 -22.5t141 -67t97 -118.5t35 -171z" />
    <glyph glyph-name="atilde" unicode="&#xe3;" horiz-adv-x="995" 
d="M137 1206q0 126 59 199.5t162 73.5q54 0 95 -19t86 -55q31 -25 49.5 -34t42.5 -9q68 0 74 115l147 -27q0 -126 -60 -200t-159 -74q-52 0 -95 19.5t-92 55.5q-58 43 -88 43q-33 0 -50.5 -24.5t-20.5 -89.5zM313 322q0 -57 38.5 -93t113.5 -36q73 0 124.5 56t51.5 148v72
l-145 -14q-94 -9 -138.5 -40t-44.5 -93zM901 670v-670h-248l-2 172q-74 -188 -272 -188q-148 0 -239 89t-91 218q0 52 10.5 95t32 75t47 56.5t62 42t69.5 29.5t78 20t78.5 12t79.5 8l135 12v23q0 76 -67 117.5t-177 41.5q-160 0 -313 -84l63 242q133 68 310 68
q92 0 171 -22.5t141 -67t97 -118.5t35 -171z" />
    <glyph glyph-name="adieresis" unicode="&#xe4;" horiz-adv-x="995" 
d="M152 1176v258h270v-258h-270zM565 1176v258h271v-258h-271zM313 322q0 -57 38.5 -93t113.5 -36q73 0 124.5 56t51.5 148v72l-145 -14q-94 -9 -138.5 -40t-44.5 -93zM901 670v-670h-248l-2 172q-74 -188 -272 -188q-148 0 -239 89t-91 218q0 52 10.5 95t32 75t47 56.5
t62 42t69.5 29.5t78 20t78.5 12t79.5 8l135 12v23q0 76 -67 117.5t-177 41.5q-160 0 -313 -84l63 242q133 68 310 68q92 0 171 -22.5t141 -67t97 -118.5t35 -171z" />
    <glyph glyph-name="aring" unicode="&#xe5;" horiz-adv-x="995" 
d="M264 1337q0 92 60 151.5t170 59.5t169.5 -59.5t59.5 -151.5t-59.5 -151.5t-169.5 -59.5t-170 59.5t-60 151.5zM397 1337q0 -42 25 -69t72 -27t71.5 27t24.5 69t-24.5 69.5t-71.5 27.5t-72 -27.5t-25 -69.5zM313 322q0 -57 38.5 -93t113.5 -36q73 0 124.5 56t51.5 148v72
l-145 -14q-94 -9 -138.5 -40t-44.5 -93zM901 670v-670h-248l-2 172q-74 -188 -272 -188q-148 0 -239 89t-91 218q0 52 10.5 95t32 75t47 56.5t62 42t69.5 29.5t78 20t78.5 12t79.5 8l135 12v23q0 76 -67 117.5t-177 41.5q-160 0 -313 -84l63 242q133 68 310 68
q92 0 171 -22.5t141 -67t97 -118.5t35 -171z" />
    <glyph glyph-name="ae" unicode="&#xe6;" horiz-adv-x="1677" 
d="M317 322q0 -58 36 -92.5t110 -34.5q87 0 138.5 53t51.5 151v68l-166 -16q-170 -16 -170 -129zM1579 47q-59 -33 -155 -53.5t-193 -20.5q-305 0 -461 189q-41 -86 -133 -132t-219 -46q-178 0 -271.5 85t-93.5 220q0 60 15.5 108.5t39.5 81.5t63 58.5t75 40.5t88.5 26
t90 15.5t91.5 9.5l137 12v8q0 82 -72.5 129t-168.5 47q-171 0 -322 -88l62 238q135 74 315 74q224 0 332 -146q143 156 364 156q142 0 248.5 -70t159.5 -184t53 -254q0 -78 -10 -129h-699q52 -225 367 -225q78 0 159.5 23.5t137.5 60.5v-234zM1368 606q-11 109 -64 170.5
t-147 61.5q-102 0 -164.5 -59.5t-79.5 -172.5h455z" />
    <glyph glyph-name="ccedilla" unicode="&#xe7;" horiz-adv-x="950" 
d="M850 756q-93 59 -211 59q-58 0 -112.5 -16t-102 -48t-76.5 -89.5t-29 -133.5q0 -82 29.5 -145.5t80.5 -101.5t114 -57t135 -19q58 0 118.5 17t104.5 46v-233q-36 -21 -97.5 -38.5t-129.5 -21.5q53 -66 53 -143q0 -82 -64 -136t-171 -54q-110 0 -166 49v162
q46 -27 106 -27q90 0 90 82q0 42 -14 80q-69 13 -132.5 38t-123.5 69t-104 101t-70.5 139t-26.5 179q0 88 20.5 163t55.5 129t83.5 97t101.5 70.5t112 45t112.5 25t106.5 7.5q172 0 268 -68z" />
    <glyph glyph-name="egrave" unicode="&#xe8;" horiz-adv-x="1095" 
d="M504 1176l-244 340h293l174 -340h-223zM987 49q-53 -35 -146.5 -55.5t-181.5 -20.5q-295 0 -451.5 150t-156.5 395q0 109 35 206t100 171.5t165 118t222 43.5q141 0 247.5 -71.5t160 -187t53.5 -255.5q0 -77 -8 -121h-700q51 -225 362 -225q85 0 166 23.5t133 60.5v-232z
M776 606q-12 106 -68.5 168t-144.5 62q-98 0 -160.5 -61.5t-80.5 -168.5h454z" />
    <glyph glyph-name="eacute" unicode="&#xe9;" horiz-adv-x="1095" 
d="M639 1176h-223l174 340h293zM987 49q-53 -35 -146.5 -55.5t-181.5 -20.5q-295 0 -451.5 150t-156.5 395q0 109 35 206t100 171.5t165 118t222 43.5q141 0 247.5 -71.5t160 -187t53.5 -255.5q0 -77 -8 -121h-700q51 -225 362 -225q85 0 166 23.5t133 60.5v-232zM776 606
q-12 106 -68.5 168t-144.5 62q-98 0 -160.5 -61.5t-80.5 -168.5h454z" />
    <glyph glyph-name="ecircumflex" unicode="&#xea;" horiz-adv-x="1095" 
d="M446 1176h-221l211 340h275l211 -340h-222l-127 180zM987 49q-53 -35 -146.5 -55.5t-181.5 -20.5q-295 0 -451.5 150t-156.5 395q0 109 35 206t100 171.5t165 118t222 43.5q141 0 247.5 -71.5t160 -187t53.5 -255.5q0 -77 -8 -121h-700q51 -225 362 -225q85 0 166 23.5
t133 60.5v-232zM776 606q-12 106 -68.5 168t-144.5 62q-98 0 -160.5 -61.5t-80.5 -168.5h454z" />
    <glyph glyph-name="edieresis" unicode="&#xeb;" horiz-adv-x="1095" 
d="M231 1176v258h271v-258h-271zM645 1176v258h270v-258h-270zM987 49q-53 -35 -146.5 -55.5t-181.5 -20.5q-295 0 -451.5 150t-156.5 395q0 109 35 206t100 171.5t165 118t222 43.5q141 0 247.5 -71.5t160 -187t53.5 -255.5q0 -77 -8 -121h-700q51 -225 362 -225
q85 0 166 23.5t133 60.5v-232zM776 606q-12 106 -68.5 168t-144.5 62q-98 0 -160.5 -61.5t-80.5 -168.5h454z" />
    <glyph glyph-name="igrave" unicode="&#xec;" horiz-adv-x="489" 
d="M176 1176l-244 340h293l174 -340h-223zM113 0v1030h264v-1030h-264z" />
    <glyph glyph-name="iacute" unicode="&#xed;" horiz-adv-x="489" 
d="M311 1176h-223l174 340h293zM113 0v1030h264v-1030h-264z" />
    <glyph glyph-name="icircumflex" unicode="&#xee;" horiz-adv-x="489" 
d="M119 1176h-221l211 340h274l211 -340h-221l-127 180zM113 0v1030h264v-1030h-264z" />
    <glyph glyph-name="idieresis" unicode="&#xef;" horiz-adv-x="489" 
d="M-96 1176v258h270v-258h-270zM317 1176v258h271v-258h-271zM113 0v1030h264v-1030h-264z" />
    <glyph glyph-name="eth" unicode="&#xf0;" horiz-adv-x="1142" 
d="M803 500q0 122 -69 198t-175 76t-175 -76t-69 -198q0 -126 69 -204.5t175 -78.5t175 78.5t69 204.5zM840 809q-38 201 -203 371l-373 -99l39 199l166 43q-73 56 -199 131v16h314q73 -31 137 -81l217 55v-184l-68 -19q102 -126 162 -284t60 -326q0 -316 -148.5 -486
t-394.5 -170q-226 0 -365 150.5t-139 378.5q0 226 131.5 366t327.5 140q106 0 195.5 -53t140.5 -148z" />
    <glyph glyph-name="ntilde" unicode="&#xf1;" horiz-adv-x="1122" 
d="M207 1206q0 126 59 199.5t162 73.5q54 0 94.5 -19t85.5 -55q31 -25 49.5 -34t42.5 -9q68 0 74 115l148 -27q0 -126 -60.5 -200t-159.5 -74q-52 0 -94.5 19t-91.5 56q-58 43 -88 43q-33 0 -51 -24.5t-21 -89.5zM758 610q0 94 -45.5 148.5t-134.5 54.5q-96 0 -148.5 -60
t-52.5 -173v-580h-264v1030h256l2 -168q42 89 121.5 138t185.5 49q160 0 252 -101t92 -270v-678h-264v610z" />
    <glyph glyph-name="ograve" unicode="&#xf2;" horiz-adv-x="1208" 
d="M535 1184l-244 340h293l174 -340h-223zM604 834q-135 0 -211 -91.5t-76 -226.5t76 -227t211 -92t211 92t76 227t-76 226.5t-211 91.5zM604 1063q128 0 233 -42.5t174.5 -116t107.5 -173.5t38 -215q0 -116 -38 -216t-107.5 -174t-174.5 -116.5t-233 -42.5t-233 42.5
t-174.5 116.5t-107.5 174t-38 216q0 115 38 215t107.5 173.5t174.5 116t233 42.5z" />
    <glyph glyph-name="oacute" unicode="&#xf3;" horiz-adv-x="1208" 
d="M670 1184h-224l175 340h292zM604 834q-135 0 -211 -91.5t-76 -226.5t76 -227t211 -92t211 92t76 227t-76 226.5t-211 91.5zM604 1063q128 0 233 -42.5t174.5 -116t107.5 -173.5t38 -215q0 -116 -38 -216t-107.5 -174t-174.5 -116.5t-233 -42.5t-233 42.5t-174.5 116.5
t-107.5 174t-38 216q0 115 38 215t107.5 173.5t174.5 116t233 42.5z" />
    <glyph glyph-name="ocircumflex" unicode="&#xf4;" horiz-adv-x="1208" 
d="M477 1184h-221l211 340h274l211 -340h-221l-127 180zM604 834q-135 0 -211 -91.5t-76 -226.5t76 -227t211 -92t211 92t76 227t-76 226.5t-211 91.5zM604 1063q128 0 233 -42.5t174.5 -116t107.5 -173.5t38 -215q0 -116 -38 -216t-107.5 -174t-174.5 -116.5t-233 -42.5
t-233 42.5t-174.5 116.5t-107.5 174t-38 216q0 115 38 215t107.5 173.5t174.5 116t233 42.5z" />
    <glyph glyph-name="otilde" unicode="&#xf5;" horiz-adv-x="1208" 
d="M248 1214q0 126 59 199.5t162 73.5q54 0 94.5 -19t85.5 -55q31 -25 49.5 -34t42.5 -9q68 0 74 115l148 -27q0 -126 -60.5 -200t-159.5 -74q-52 0 -94 19.5t-92 56.5q-58 43 -88 43q-33 0 -51 -25t-21 -90zM604 834q-135 0 -211 -91.5t-76 -226.5t76 -227t211 -92t211 92
t76 227t-76 226.5t-211 91.5zM604 1063q128 0 233 -42.5t174.5 -116t107.5 -173.5t38 -215q0 -116 -38 -216t-107.5 -174t-174.5 -116.5t-233 -42.5t-233 42.5t-174.5 116.5t-107.5 174t-38 216q0 115 38 215t107.5 173.5t174.5 116t233 42.5z" />
    <glyph glyph-name="odieresis" unicode="&#xf6;" horiz-adv-x="1208" 
d="M262 1184v258h270v-258h-270zM676 1184v258h270v-258h-270zM604 834q-135 0 -211 -91.5t-76 -226.5t76 -227t211 -92t211 92t76 227t-76 226.5t-211 91.5zM604 1063q128 0 233 -42.5t174.5 -116t107.5 -173.5t38 -215q0 -116 -38 -216t-107.5 -174t-174.5 -116.5
t-233 -42.5t-233 42.5t-174.5 116.5t-107.5 174t-38 216q0 115 38 215t107.5 173.5t174.5 116t233 42.5z" />
    <glyph glyph-name="divide" unicode="&#xf7;" horiz-adv-x="1001" 
d="M90 741h856v-198h-907zM506 1112q65 0 103 -38t38 -99t-38 -100t-103 -39q-64 0 -102.5 37.5t-38.5 101.5q0 61 38 99t103 38zM506 446q65 0 103 -37t38 -98q0 -62 -38 -100.5t-103 -38.5t-103 38.5t-38 100.5q0 61 38 98t103 37z" />
    <glyph glyph-name="oslash" unicode="&#xf8;" horiz-adv-x="1212" 
d="M604 834q-135 0 -211 -91.5t-76 -226.5q0 -75 29 -147l385 438q-62 27 -127 27zM866 655l-383 -434q52 -24 121 -24q135 0 211 92t76 227q0 72 -25 139zM170 158q-119 146 -119 358q0 115 38 215t107.5 173.5t174.5 116t233 42.5q168 0 297 -74l115 129l145 -117
l-119 -133q115 -146 115 -352q0 -116 -38 -216t-107.5 -174t-174.5 -116.5t-233 -42.5q-165 0 -293 72l-110 -127l-146 117z" />
    <glyph glyph-name="ugrave" unicode="&#xf9;" horiz-adv-x="1118" 
d="M489 1176l-243 340h293l174 -340h-224zM1006 1030v-1030h-252l-2 170q-37 -84 -115 -136t-188 -52q-163 0 -256 100.5t-93 269.5v678h265v-614q0 -92 45 -145.5t133 -53.5q96 0 147 59.5t51 178.5v575h265z" />
    <glyph glyph-name="uacute" unicode="&#xfa;" horiz-adv-x="1118" 
d="M625 1176h-224l174 340h293zM1006 1030v-1030h-252l-2 170q-37 -84 -115 -136t-188 -52q-163 0 -256 100.5t-93 269.5v678h265v-614q0 -92 45 -145.5t133 -53.5q96 0 147 59.5t51 178.5v575h265z" />
    <glyph glyph-name="ucircumflex" unicode="&#xfb;" horiz-adv-x="1118" 
d="M432 1176h-221l211 340h274l211 -340h-221l-127 180zM1006 1030v-1030h-252l-2 170q-37 -84 -115 -136t-188 -52q-163 0 -256 100.5t-93 269.5v678h265v-614q0 -92 45 -145.5t133 -53.5q96 0 147 59.5t51 178.5v575h265z" />
    <glyph glyph-name="udieresis" unicode="&#xfc;" horiz-adv-x="1118" 
d="M217 1176v258h270v-258h-270zM631 1176v258h270v-258h-270zM1006 1030v-1030h-252l-2 170q-37 -84 -115 -136t-188 -52q-163 0 -256 100.5t-93 269.5v678h265v-614q0 -92 45 -145.5t133 -53.5q96 0 147 59.5t51 178.5v575h265z" />
    <glyph glyph-name="yacute" unicode="&#xfd;" horiz-adv-x="1036" 
d="M590 1176h-223l174 340h293zM10 1030h291l231 -713l222 713h272l-356 -1016q-64 -181 -158 -269.5t-256 -88.5q-53 0 -101.5 13t-74.5 36v217q60 -31 135 -31q144 0 172 117z" />
    <glyph glyph-name="thorn" unicode="&#xfe;" 
d="M651 203q130 0 203.5 88t73.5 223t-73.5 224t-203.5 89t-203 -89t-73 -224t73 -223t203 -88zM377 879q51 82 136.5 129t197.5 47q147 0 258 -72t168 -194t57 -275q0 -152 -57 -273.5t-168.5 -193.5t-259.5 -72q-111 0 -196 46.5t-136 128.5v-488h-264v1808h264v-591z" />
    <glyph glyph-name="ydieresis" unicode="&#xff;" horiz-adv-x="1036" 
d="M182 1176v258h271v-258h-271zM596 1176v258h270v-258h-270zM10 1030h291l231 -713l222 713h272l-356 -1016q-64 -181 -158 -269.5t-256 -88.5q-53 0 -101.5 13t-74.5 36v217q60 -31 135 -31q144 0 172 117z" />
    <glyph glyph-name="Amacron" unicode="&#x100;" horiz-adv-x="1345" 
d="M336 1540l51 189h619v-189h-670zM12 0l486 1409h356l479 -1409h-291l-104 322h-541l-106 -322h-279zM473 553h389l-192 594z" />
    <glyph glyph-name="amacron" unicode="&#x101;" horiz-adv-x="995" 
d="M156 1192l51 188h618v-188h-669zM313 322q0 -57 38.5 -93t113.5 -36q73 0 124.5 56t51.5 148v72l-145 -14q-94 -9 -138.5 -40t-44.5 -93zM901 670v-670h-248l-2 172q-74 -188 -272 -188q-148 0 -239 89t-91 218q0 52 10.5 95t32 75t47 56.5t62 42t69.5 29.5t78 20
t78.5 12t79.5 8l135 12v23q0 76 -67 117.5t-177 41.5q-160 0 -313 -84l63 242q133 68 310 68q92 0 171 -22.5t141 -67t97 -118.5t35 -171z" />
    <glyph glyph-name="Abreve" unicode="&#x102;" horiz-adv-x="1345" 
d="M813 1837h180q0 -158 -91 -245t-228 -87t-228.5 87t-91.5 245h181q3 -71 38 -114.5t101 -43.5t101 43.5t38 114.5zM12 0l486 1409h356l479 -1409h-291l-104 322h-541l-106 -322h-279zM473 553h389l-192 594z" />
    <glyph glyph-name="abreve" unicode="&#x103;" horiz-adv-x="995" 
d="M633 1489h180q0 -158 -91 -245t-228 -87t-228.5 87t-91.5 245h180q3 -71 38.5 -114.5t101.5 -43.5t101 43.5t38 114.5zM313 322q0 -57 38.5 -93t113.5 -36q73 0 124.5 56t51.5 148v72l-145 -14q-94 -9 -138.5 -40t-44.5 -93zM901 670v-670h-248l-2 172
q-74 -188 -272 -188q-148 0 -239 89t-91 218q0 52 10.5 95t32 75t47 56.5t62 42t69.5 29.5t78 20t78.5 12t79.5 8l135 12v23q0 76 -67 117.5t-177 41.5q-160 0 -313 -84l63 242q133 68 310 68q92 0 171 -22.5t141 -67t97 -118.5t35 -171z" />
    <glyph glyph-name="Aogonek" unicode="&#x104;" horiz-adv-x="1345" 
d="M12 0l486 1409h356l479 -1409h-141q-21 -46 -21 -92q0 -82 91 -82q60 0 106 27v-162q-56 -49 -166 -49q-107 0 -171 54t-64 136q0 95 75 170l-104 320h-541l-106 -322h-279zM473 553h389l-192 594z" />
    <glyph glyph-name="aogonek" unicode="&#x105;" horiz-adv-x="995" 
d="M313 322q0 -57 38.5 -93t113.5 -36q73 0 124.5 56t51.5 148v72l-145 -14q-94 -9 -138.5 -40t-44.5 -93zM653 25l-2 147q-74 -188 -272 -188q-148 0 -239 89t-91 218q0 52 10.5 95t32 75t47 56.5t62 42t69.5 29.5t78 20t78.5 12t79.5 8l135 12v23q0 76 -67 117.5
t-177 41.5q-160 0 -313 -84l63 242q133 68 310 68q92 0 171 -22.5t141 -67t97 -118.5t35 -171v-670h-123q-20 -44 -20 -92q0 -82 90 -82q60 0 106 27v-162q-56 -49 -166 -49q-107 0 -171 54t-64 136q0 55 27.5 105.5t72.5 87.5z" />
    <glyph glyph-name="Cacute" unicode="&#x106;" horiz-adv-x="1243" 
d="M838 1524h-224l174 340h293zM1133 1092q-124 75 -304 75q-68 0 -135 -13.5t-134.5 -47t-118.5 -83t-83 -128.5t-32 -176q0 -102 32 -185.5t85 -139.5t125 -93.5t149.5 -54.5t159.5 -17q83 0 166.5 23t140.5 59v-260q-43 -31 -138.5 -52.5t-205.5 -21.5q-74 0 -149 11
t-154.5 36.5t-150.5 63.5t-134.5 96.5t-109 131.5t-72.5 172t-27 214q0 120 29 222t77 175t115 131t139.5 94t154 60t154 33.5t144.5 9.5q116 0 206.5 -23.5t137.5 -57.5z" />
    <glyph glyph-name="cacute" unicode="&#x107;" horiz-adv-x="950" 
d="M631 1176h-223l174 340h292zM850 756q-93 59 -211 59q-58 0 -112.5 -16t-102 -48t-76.5 -89.5t-29 -133.5q0 -82 29.5 -145.5t80.5 -101.5t114 -57t135 -19q58 0 118.5 17t104.5 46v-233q-39 -24 -110.5 -42t-151.5 -18q-79 0 -157.5 17t-157 58t-138.5 100.5t-97.5 154
t-37.5 209.5q0 88 20.5 163t55.5 129t83.5 97t101.5 70.5t112 45t112.5 25t106.5 7.5q172 0 268 -68z" />
    <glyph glyph-name="Ccaron" unicode="&#x10c;" horiz-adv-x="1243" 
d="M897 1864h221l-211 -340h-274l-211 340h221l127 -181zM1133 1092q-124 75 -304 75q-68 0 -135 -13.5t-134.5 -47t-118.5 -83t-83 -128.5t-32 -176q0 -102 32 -185.5t85 -139.5t125 -93.5t149.5 -54.5t159.5 -17q83 0 166.5 23t140.5 59v-260q-43 -31 -138.5 -52.5
t-205.5 -21.5q-74 0 -149 11t-154.5 36.5t-150.5 63.5t-134.5 96.5t-109 131.5t-72.5 172t-27 214q0 120 29 222t77 175t115 131t139.5 94t154 60t154 33.5t144.5 9.5q116 0 206.5 -23.5t137.5 -57.5z" />
    <glyph glyph-name="ccaron" unicode="&#x10d;" horiz-adv-x="950" 
d="M690 1516h221l-211 -340h-274l-211 340h221l127 -181zM850 756q-93 59 -211 59q-58 0 -112.5 -16t-102 -48t-76.5 -89.5t-29 -133.5q0 -82 29.5 -145.5t80.5 -101.5t114 -57t135 -19q58 0 118.5 17t104.5 46v-233q-39 -24 -110.5 -42t-151.5 -18q-79 0 -157.5 17t-157 58
t-138.5 100.5t-97.5 154t-37.5 209.5q0 88 20.5 163t55.5 129t83.5 97t101.5 70.5t112 45t112.5 25t106.5 7.5q172 0 268 -68z" />
    <glyph glyph-name="Dcaron" unicode="&#x10e;" horiz-adv-x="1421" 
d="M793 1864h221l-211 -340h-275l-211 340h222l127 -181zM125 0v1409h545q169 0 304.5 -53t223 -146.5t134 -219t46.5 -273.5q0 -153 -48 -283.5t-138 -227t-229.5 -151.5t-313.5 -55h-524zM399 1161v-913h250q111 0 198.5 36t142 99t82.5 145.5t28 180.5q0 95 -27.5 176
t-80.5 143.5t-139 97.5t-196 35h-258z" />
    <glyph glyph-name="dcaron" unicode="&#x10f;" horiz-adv-x="1589" 
d="M1276 963q108 0 108 110v55l-122 66v215h307v-324q0 -137 -65.5 -213.5t-176.5 -76.5q-64 0 -110 28v148q24 -8 59 -8zM594 825q-130 0 -203.5 -88t-73.5 -221t73.5 -222t203.5 -89t202 88.5t72 222.5t-72 221.5t-202 87.5zM874 193q-44 -98 -136 -157t-216 -59
q-106 0 -195 41.5t-149 113.5t-93.5 171t-33.5 213q0 232 130 384.5t345 152.5q117 0 207 -54t135 -145v616h265v-1470h-256z" />
    <glyph glyph-name="Dcroat" unicode="&#x110;" horiz-adv-x="1468" 
d="M446 614v-366h250q111 0 198.5 36t142 99t82.5 145.5t28 180.5q0 95 -27 176t-80.5 143.5t-139 97.5t-195.5 35h-259v-330h275v-217h-275zM172 614h-180l45 217h135v578h545q169 0 304.5 -53t223 -146.5t134 -219t46.5 -273.5q0 -153 -48 -283.5t-138 -227t-229.5 -151.5
t-313.5 -55h-524v614z" />
    <glyph glyph-name="dcroat" unicode="&#x111;" horiz-adv-x="1275" 
d="M600 825q-130 0 -203 -88t-73 -221q0 -134 73 -222.5t203 -88.5t202 88.5t72 222.5t-72 221.5t-202 87.5zM1139 1352h116v-189h-116v-1163h-256l-2 193q-44 -98 -136.5 -157t-216.5 -59q-106 0 -195 41.5t-149 113.5t-93.5 171t-33.5 213q0 232 130 384.5t345 152.5
q117 0 207 -54t135 -145v309h-299l37 189h262v118h265v-118z" />
    <glyph glyph-name="Emacron" unicode="&#x112;" horiz-adv-x="1124" 
d="M272 1540l52 189h618v-189h-670zM125 0v1409h958l-65 -250h-619v-311h539l-64 -248h-475v-350h643l68 -250h-985z" />
    <glyph glyph-name="emacron" unicode="&#x113;" horiz-adv-x="1095" 
d="M236 1192l51 188h618v-188h-669zM987 49q-53 -35 -146.5 -55.5t-181.5 -20.5q-295 0 -451.5 150t-156.5 395q0 109 35 206t100 171.5t165 118t222 43.5q141 0 247.5 -71.5t160 -187t53.5 -255.5q0 -77 -8 -121h-700q51 -225 362 -225q85 0 166 23.5t133 60.5v-232z
M776 606q-12 106 -68.5 168t-144.5 62q-98 0 -160.5 -61.5t-80.5 -168.5h454z" />
    <glyph glyph-name="Edotaccent" unicode="&#x116;" horiz-adv-x="1124" 
d="M477 1544v275h268v-275h-268zM125 0v1409h958l-65 -250h-619v-311h539l-64 -248h-475v-350h643l68 -250h-985z" />
    <glyph glyph-name="edotaccent" unicode="&#x117;" horiz-adv-x="1095" 
d="M440 1196v274h269v-274h-269zM987 49q-53 -35 -146.5 -55.5t-181.5 -20.5q-295 0 -451.5 150t-156.5 395q0 109 35 206t100 171.5t165 118t222 43.5q141 0 247.5 -71.5t160 -187t53.5 -255.5q0 -77 -8 -121h-700q51 -225 362 -225q85 0 166 23.5t133 60.5v-232zM776 606
q-12 106 -68.5 168t-144.5 62q-98 0 -160.5 -61.5t-80.5 -168.5h454z" />
    <glyph glyph-name="Eogonek" unicode="&#x118;" horiz-adv-x="1124" 
d="M125 0v1409h958l-65 -250h-619v-311h539l-64 -248h-475v-350h643l68 -250h-233q-21 -46 -21 -92q0 -82 90 -82q61 0 107 27v-162q-56 -49 -166 -49q-108 0 -172 54t-64 136q0 91 74 168h-600z" />
    <glyph glyph-name="eogonek" unicode="&#x119;" horiz-adv-x="1095" 
d="M653 -27q-147 1 -262.5 42t-189.5 114t-112 172t-38 217q0 109 35 206t100 171.5t165 118t222 43.5q141 0 247.5 -71.5t160 -187t53.5 -255.5q0 -77 -8 -121h-700q51 -225 362 -225q85 0 166 23.5t133 60.5v-232q-55 -38 -164 -59q-16 -43 -16 -82q0 -82 90 -82
q61 0 107 27v-162q-56 -49 -166 -49q-108 0 -172 54t-64 136q0 74 51 141zM776 606q-12 106 -68.5 168t-144.5 62q-98 0 -160.5 -61.5t-80.5 -168.5h454z" />
    <glyph glyph-name="Ecaron" unicode="&#x11a;" horiz-adv-x="1124" 
d="M735 1864h221l-211 -340h-274l-211 340h221l127 -181zM125 0v1409h958l-65 -250h-619v-311h539l-64 -248h-475v-350h643l68 -250h-985z" />
    <glyph glyph-name="ecaron" unicode="&#x11b;" horiz-adv-x="1095" 
d="M698 1516h222l-211 -340h-275l-211 340h221l127 -181zM987 49q-53 -35 -146.5 -55.5t-181.5 -20.5q-295 0 -451.5 150t-156.5 395q0 109 35 206t100 171.5t165 118t222 43.5q141 0 247.5 -71.5t160 -187t53.5 -255.5q0 -77 -8 -121h-700q51 -225 362 -225q85 0 166 23.5
t133 60.5v-232zM776 606q-12 106 -68.5 168t-144.5 62q-98 0 -160.5 -61.5t-80.5 -168.5h454z" />
    <glyph glyph-name="Gbreve" unicode="&#x11e;" horiz-adv-x="1409" 
d="M934 1837h180q0 -158 -91 -245t-228 -87t-228.5 87t-91.5 245h180q3 -71 38.5 -114.5t101.5 -43.5t101 43.5t38 114.5zM705 834h598v-791q-73 -28 -187 -47t-225 -19q-124 0 -241 23.5t-228.5 78.5t-194.5 136t-133.5 206.5t-50.5 280.5q0 121 29 223t77.5 175.5
t116.5 131t141.5 93.5t156.5 59.5t157.5 33t148.5 9.5q248 0 416 -86l-65 -260q-166 88 -357 88q-76 0 -147.5 -12.5t-144 -45t-126 -82.5t-87 -131.5t-33.5 -184.5q0 -99 30.5 -180.5t83.5 -137.5t127 -94.5t158.5 -56t179.5 -17.5q56 0 133 15v346h-389z" />
    <glyph glyph-name="gbreve" unicode="&#x11f;" horiz-adv-x="1230" 
d="M739 1497h181q0 -158 -91.5 -245t-228.5 -87t-228 87t-91 245h180q3 -71 38 -114.5t101 -43.5t101 43.5t38 114.5zM526 35q-144 0 -253 67.5t-165.5 182t-56.5 258.5q0 145 56.5 260t165.5 182.5t253 67.5q111 0 197 -50t137 -139l2 166h256v-880q0 -240 -155 -375
t-424 -135q-104 0 -211 26t-164 76v240q156 -115 368 -115q142 0 232 66t90 190v90q-52 -84 -136.5 -131t-191.5 -47zM854 543q0 121 -70.5 200.5t-197.5 79.5t-199 -79.5t-72 -200.5t72 -200t199 -79t197.5 79t70.5 200z" />
    <glyph glyph-name="uni0122" unicode="&#x122;" horiz-adv-x="1409" 
d="M670 -354q49 0 71.5 15.5t22.5 49.5v25l-107 39v135h275v-174q0 -108 -60 -168t-163 -60q-56 0 -105 19v127q28 -8 66 -8zM705 834h598v-791q-73 -28 -187 -47t-225 -19q-124 0 -241 23.5t-228.5 78.5t-194.5 136t-133.5 206.5t-50.5 280.5q0 121 29 223t77.5 175.5
t116.5 131t141.5 93.5t156.5 59.5t157.5 33t148.5 9.5q248 0 416 -86l-65 -260q-166 88 -357 88q-76 0 -147.5 -12.5t-144 -45t-126 -82.5t-87 -131.5t-33.5 -184.5q0 -99 30.5 -180.5t83.5 -137.5t127 -94.5t158.5 -56t179.5 -17.5q56 0 133 15v346h-389z" />
    <glyph glyph-name="uni0123" unicode="&#x123;" horiz-adv-x="1230" 
d="M707 1411q-49 0 -72 -15.5t-23 -49.5v-25l107 -39v-135h-275v174q0 107 60.5 167t163.5 60q58 0 104 -18v-127q-28 8 -65 8zM526 35q-144 0 -253 67.5t-165.5 182t-56.5 258.5q0 145 56.5 260t165.5 182.5t253 67.5q111 0 197 -50t137 -139l2 166h256v-880
q0 -240 -155 -375t-424 -135q-104 0 -211 26t-164 76v240q156 -115 368 -115q142 0 232 66t90 190v90q-52 -84 -136.5 -131t-191.5 -47zM854 543q0 121 -70.5 200.5t-197.5 79.5t-199 -79.5t-72 -200.5t72 -200t199 -79t197.5 79t70.5 200z" />
    <glyph glyph-name="Imacron" unicode="&#x12a;" horiz-adv-x="544" 
d="M-66 1540l52 189h618v-189h-670zM135 0v1409h275v-1409h-275z" />
    <glyph glyph-name="imacron" unicode="&#x12b;" horiz-adv-x="489" 
d="M-92 1192l51 188h619v-188h-670zM113 0v1030h264v-1030h-264z" />
    <glyph glyph-name="Iogonek" unicode="&#x12e;" horiz-adv-x="544" 
d="M135 0v1409h275v-1409h-109q-20 -44 -20 -92q0 -82 90 -82q59 0 106 27v-162q-56 -49 -166 -49q-107 0 -171 54t-64 136q0 91 74 168h-15z" />
    <glyph glyph-name="iogonek" unicode="&#x12f;" horiz-adv-x="489" 
d="M113 0v1030h264v-1030h-101q-20 -44 -20 -92q0 -82 90 -82q60 0 107 27v-162q-56 -49 -166 -49q-108 0 -172 54t-64 136q0 91 74 168h-12zM111 1196v274h268v-274h-268z" />
    <glyph glyph-name="Idotaccent" unicode="&#x130;" horiz-adv-x="544" 
d="M139 1544v275h269v-275h-269zM135 0v1409h275v-1409h-275z" />
    <glyph glyph-name="dotlessi" unicode="&#x131;" horiz-adv-x="489" 
d="M113 0v1030h264v-1030h-264z" />
    <glyph glyph-name="uni0136" unicode="&#x136;" horiz-adv-x="1269" 
d="M518 -354q49 0 71.5 15.5t22.5 49.5v25l-106 39v135h274v-174q0 -108 -60 -168t-163 -60q-55 0 -104 19v127q28 -8 65 -8zM125 0v1409h274v-631l516 631h334l-561 -682l600 -727h-350l-539 664v-664h-274z" />
    <glyph glyph-name="uni0137" unicode="&#x137;" horiz-adv-x="1073" 
d="M438 -354q49 0 71.5 15.5t22.5 49.5v25l-106 39v135h274v-174q0 -108 -60 -168t-163 -60q-55 0 -104 19v127q28 -8 65 -8zM113 0v1470h264v-886l383 446h317l-420 -485l424 -545h-329l-375 492v-492h-264z" />
    <glyph glyph-name="Lacute" unicode="&#x139;" horiz-adv-x="1044" 
d="M330 1524h-224l175 340h292zM125 0v1409h274v-1159h650l-64 -250h-860z" />
    <glyph glyph-name="lacute" unicode="&#x13a;" horiz-adv-x="489" 
d="M311 1554h-223l174 340h293zM113 0v1470h264v-1470h-264z" />
    <glyph glyph-name="uni013B" unicode="&#x13b;" horiz-adv-x="1044" 
d="M465 -354q49 0 71.5 15.5t22.5 49.5v25l-106 39v135h274v-174q0 -108 -60.5 -168t-162.5 -60q-56 0 -105 19v127q28 -8 66 -8zM125 0v1409h274v-1159h650l-64 -250h-860z" />
    <glyph glyph-name="uni013C" unicode="&#x13c;" horiz-adv-x="489" 
d="M117 -354q49 0 71.5 15.5t22.5 49.5v25l-107 39v135h275v-174q0 -108 -60.5 -168t-162.5 -60q-56 0 -105 19v127q28 -8 66 -8zM113 0v1470h264v-1470h-264z" />
    <glyph glyph-name="Lcaron" unicode="&#x13d;" horiz-adv-x="1093" 
d="M717 963q108 0 108 110v55l-123 66v215h308v-324q0 -137 -65.5 -213.5t-176.5 -76.5q-65 0 -111 28v148q24 -8 60 -8zM127 0v1409h274v-1159h650l-64 -250h-860z" />
    <glyph glyph-name="lcaron" unicode="&#x13e;" horiz-adv-x="833" 
d="M520 963q109 0 109 110v55l-123 66v215h307v-324q0 -137 -65.5 -213.5t-176.5 -76.5q-64 0 -110 28v148q24 -8 59 -8zM113 0v1470h264v-1470h-264z" />
    <glyph glyph-name="Lslash" unicode="&#x141;" horiz-adv-x="1067" 
d="M737 1090v-230l-315 -160v-450h649l-63 -250h-861v561l-137 -69v229l137 70v618h275v-479z" />
    <glyph glyph-name="lslash" unicode="&#x142;" horiz-adv-x="538" 
d="M551 1059v-230l-154 -77v-756h-264v625l-133 -68v229l133 68v616h264v-485z" />
    <glyph glyph-name="Nacute" unicode="&#x143;" horiz-adv-x="1413" 
d="M772 1524h-223l174 340h293zM127 0v1409h387l498 -1018v1018h274v-1409h-360l-525 1069v-1069h-274z" />
    <glyph glyph-name="nacute" unicode="&#x144;" horiz-adv-x="1122" 
d="M629 1176h-223l174 340h292zM758 610q0 94 -45.5 148.5t-134.5 54.5q-96 0 -148.5 -60t-52.5 -173v-580h-264v1030h256l2 -168q42 89 121.5 138t185.5 49q160 0 252 -101t92 -270v-678h-264v610z" />
    <glyph glyph-name="uni0145" unicode="&#x145;" horiz-adv-x="1413" 
d="M584 -354q49 0 71.5 15.5t22.5 49.5v25l-107 39v135h275v-174q0 -108 -60 -168t-163 -60q-56 0 -105 19v127q28 -8 66 -8zM127 0v1409h387l498 -1018v1018h274v-1409h-360l-525 1069v-1069h-274z" />
    <glyph glyph-name="uni0146" unicode="&#x146;" horiz-adv-x="1122" 
d="M446 -354q49 0 72 15.5t23 49.5v25l-107 39v135h275v-174q0 -107 -60.5 -167.5t-163.5 -60.5q-55 0 -104 19v127q28 -8 65 -8zM758 610q0 94 -45.5 148.5t-134.5 54.5q-96 0 -148.5 -60t-52.5 -173v-580h-264v1030h256l2 -168q42 89 121.5 138t185.5 49q160 0 252 -101
t92 -270v-678h-264v610z" />
    <glyph glyph-name="Ncaron" unicode="&#x147;" horiz-adv-x="1413" 
d="M831 1864h222l-211 -340h-275l-211 340h222l127 -181zM127 0v1409h387l498 -1018v1018h274v-1409h-360l-525 1069v-1069h-274z" />
    <glyph glyph-name="ncaron" unicode="&#x148;" horiz-adv-x="1122" 
d="M688 1516h221l-211 -340h-274l-211 340h221l127 -181zM758 610q0 94 -45.5 148.5t-134.5 54.5q-96 0 -148.5 -60t-52.5 -173v-580h-264v1030h256l2 -168q42 89 121.5 138t185.5 49q160 0 252 -101t92 -270v-678h-264v610z" />
    <glyph glyph-name="Omacron" unicode="&#x14c;" horiz-adv-x="1609" 
d="M467 1540l51 189h619v-189h-670zM805 1194q-114 0 -207.5 -41t-152 -109.5t-90 -154.5t-31.5 -180q0 -76 19.5 -148t59.5 -135t96.5 -110t135 -74t170.5 -27t170.5 27t135 74t96.5 110t59.5 135t19.5 148q0 94 -31.5 180t-90 154.5t-152 109.5t-207.5 41zM805 1446
q181 0 328 -60t240.5 -162.5t143.5 -234.5t50 -280q0 -119 -31 -229t-94.5 -204t-153 -164t-213.5 -109.5t-270 -39.5t-270 39.5t-213.5 109.5t-153 164t-94.5 204t-31 229q0 148 50 280t143.5 234.5t240.5 162.5t328 60z" />
    <glyph glyph-name="omacron" unicode="&#x14d;" horiz-adv-x="1208" 
d="M266 1200l51 189h619v-189h-670zM604 834q-135 0 -211 -91.5t-76 -226.5t76 -227t211 -92t211 92t76 227t-76 226.5t-211 91.5zM604 1063q128 0 233 -42.5t174.5 -116t107.5 -173.5t38 -215q0 -116 -38 -216t-107.5 -174t-174.5 -116.5t-233 -42.5t-233 42.5
t-174.5 116.5t-107.5 174t-38 216q0 115 38 215t107.5 173.5t174.5 116t233 42.5z" />
    <glyph glyph-name="Ohungarumlaut" unicode="&#x150;" horiz-adv-x="1609" 
d="M1030 1524h-172l160 340h239zM674 1524h-172l160 340h239zM805 1194q-114 0 -207.5 -41t-152 -109.5t-90 -154.5t-31.5 -180q0 -76 19.5 -148t59.5 -135t96.5 -110t135 -74t170.5 -27t170.5 27t135 74t96.5 110t59.5 135t19.5 148q0 94 -31.5 180t-90 154.5t-152 109.5
t-207.5 41zM805 1446q181 0 328 -60t240.5 -162.5t143.5 -234.5t50 -280q0 -119 -31 -229t-94.5 -204t-153 -164t-213.5 -109.5t-270 -39.5t-270 39.5t-213.5 109.5t-153 164t-94.5 204t-31 229q0 148 50 280t143.5 234.5t240.5 162.5t328 60z" />
    <glyph glyph-name="ohungarumlaut" unicode="&#x151;" horiz-adv-x="1208" 
d="M829 1184h-172l160 340h240zM473 1184h-172l160 340h239zM604 834q-135 0 -211 -91.5t-76 -226.5t76 -227t211 -92t211 92t76 227t-76 226.5t-211 91.5zM604 1063q128 0 233 -42.5t174.5 -116t107.5 -173.5t38 -215q0 -116 -38 -216t-107.5 -174t-174.5 -116.5
t-233 -42.5t-233 42.5t-174.5 116.5t-107.5 174t-38 216q0 115 38 215t107.5 173.5t174.5 116t233 42.5z" />
    <glyph glyph-name="OE" unicode="&#x152;" horiz-adv-x="2287" 
d="M809 1196q-116 0 -210 -41t-153.5 -109.5t-91.5 -156t-32 -184.5t32 -184.5t91.5 -156.5t153.5 -110t210 -41q114 0 208 41t154 110t92.5 157t32.5 184t-32.5 184t-92.5 156.5t-154 109.5t-208 41zM1565 1159v-311h538l-65 -248h-473v-350h641l67 -250h-977v164
q-189 -199 -499 -199q-175 0 -319.5 60.5t-238 163t-145 236.5t-51.5 284q0 148 51.5 280.5t145.5 234t238 161t319 59.5q309 0 499 -197v162h951l-66 -250h-616z" />
    <glyph glyph-name="oe" unicode="&#x153;" horiz-adv-x="1894" 
d="M594 827q-130 0 -203.5 -89.5t-73.5 -221.5q0 -133 73.5 -223t203.5 -90t203 90t73 223q0 132 -73 221.5t-203 89.5zM1794 49q-57 -34 -152.5 -55t-193.5 -21q-147 0 -262.5 48t-188.5 137q-139 -189 -403 -189q-126 0 -229.5 42t-171.5 115.5t-105 173.5t-37 216
q0 237 146 391t397 154q256 0 399 -184q138 182 387 182q140 0 246.5 -70t160.5 -184.5t54 -253.5q0 -78 -10 -129h-701q24 -108 115 -166.5t252 -58.5q79 0 159.5 23t137.5 61v-232zM1583 606q-11 109 -64.5 170.5t-148.5 61.5q-98 0 -160.5 -60t-81.5 -172h455z" />
    <glyph glyph-name="Racute" unicode="&#x154;" horiz-adv-x="1200" 
d="M651 1524h-223l174 340h293zM125 0v1409h565q210 0 325 -117t115 -303q0 -151 -70.5 -259t-213.5 -152l332 -578h-314l-309 549h-156v-549h-274zM399 1161v-379h263q95 0 142.5 53t47.5 140q0 82 -46 134t-138 52h-269z" />
    <glyph glyph-name="racute" unicode="&#x155;" horiz-adv-x="763" 
d="M502 1176h-223l174 340h292zM715 735q-58 33 -127 33q-211 0 -211 -258v-510h-264v1030h249l3 -223q80 240 276 240q78 0 123 -48z" />
    <glyph glyph-name="uni0156" unicode="&#x156;" horiz-adv-x="1200" 
d="M485 -354q49 0 72 15.5t23 49.5v25l-107 39v135h275v-174q0 -107 -60.5 -167.5t-163.5 -60.5q-55 0 -104 19v127q28 -8 65 -8zM125 0v1409h565q210 0 325 -117t115 -303q0 -151 -70.5 -259t-213.5 -152l332 -578h-314l-309 549h-156v-549h-274zM399 1161v-379h263
q95 0 142.5 53t47.5 140q0 82 -46 134t-138 52h-269z" />
    <glyph glyph-name="uni0157" unicode="&#x157;" horiz-adv-x="763" 
d="M127 -354q49 0 71.5 15.5t22.5 49.5v25l-106 39v135h274v-174q0 -108 -60.5 -168t-162.5 -60q-56 0 -105 19v127q28 -8 66 -8zM715 735q-58 33 -127 33q-211 0 -211 -258v-510h-264v1030h249l3 -223q80 240 276 240q78 0 123 -48z" />
    <glyph glyph-name="Rcaron" unicode="&#x158;" horiz-adv-x="1200" 
d="M711 1864h221l-211 -340h-275l-210 340h221l127 -181zM125 0v1409h565q210 0 325 -117t115 -303q0 -151 -70.5 -259t-213.5 -152l332 -578h-314l-309 549h-156v-549h-274zM399 1161v-379h263q95 0 142.5 53t47.5 140q0 82 -46 134t-138 52h-269z" />
    <glyph glyph-name="rcaron" unicode="&#x159;" horiz-adv-x="763" 
d="M561 1516h221l-211 -340h-274l-211 340h221l127 -181zM715 735q-58 33 -127 33q-211 0 -211 -258v-510h-264v1030h249l3 -223q80 240 276 240q78 0 123 -48z" />
    <glyph glyph-name="Sacute" unicode="&#x15a;" horiz-adv-x="1036" 
d="M627 1524h-224l175 340h292zM954 1337l-63 -252q-136 95 -295 95q-122 0 -186 -39t-64 -115q0 -54 32.5 -86t108.5 -63l228 -97q138 -58 209 -143t71 -223q0 -202 -136.5 -319.5t-385.5 -117.5q-104 0 -212.5 29.5t-166.5 77.5v274q76 -59 183 -95t204 -36
q112 0 173 40.5t61 121.5q0 55 -35 88.5t-117 67.5l-241 100q-121 50 -188.5 133.5t-67.5 227.5q0 188 146 306t392 118q100 0 194.5 -24t155.5 -69z" />
    <glyph glyph-name="sacute" unicode="&#x15b;" horiz-adv-x="862" 
d="M526 1176h-223l174 340h293zM786 979l-57 -223q-106 75 -248 75q-157 0 -157 -88q0 -31 19 -50t77 -42l164 -65q119 -47 175 -111t56 -172q0 -154 -111.5 -243t-300.5 -89q-93 0 -181.5 23.5t-135.5 66.5v238q145 -106 320 -106q151 0 151 92q0 32 -21 49.5t-83 42.5
l-168 65q-110 43 -166 109t-56 178q0 147 117.5 236.5t321.5 89.5q81 0 157.5 -20t126.5 -56z" />
    <glyph glyph-name="uni015E" unicode="&#x15e;" horiz-adv-x="1036" 
d="M954 1337l-63 -252q-136 95 -295 95q-122 0 -186 -39t-64 -115q0 -54 32.5 -86t108.5 -63l228 -97q138 -58 209 -143t71 -223q0 -166 -93.5 -276.5t-270.5 -145.5q65 -72 65 -160q0 -82 -64 -136t-171 -54q-110 0 -166 49v162q47 -27 106 -27q91 0 91 82q0 32 -13 69h-6
q-104 0 -212.5 29.5t-166.5 77.5v274q76 -59 183 -95t204 -36q112 0 173 40.5t61 121.5q0 55 -35 88.5t-117 67.5l-241 100q-121 50 -188.5 133.5t-67.5 227.5q0 188 146 306t392 118q100 0 194.5 -24t155.5 -69z" />
    <glyph glyph-name="uni015F" unicode="&#x15f;" horiz-adv-x="862" 
d="M786 979l-57 -223q-106 75 -248 75q-157 0 -157 -88q0 -31 19 -50t77 -42l164 -65q119 -47 175 -111t56 -172q0 -122 -71.5 -204.5t-198.5 -112.5q61 -71 61 -154q0 -82 -64 -136t-171 -54q-110 0 -166 49v162q47 -27 106 -27q90 0 90 82q0 30 -10 63q-91 2 -175.5 25
t-129.5 65v238q145 -106 320 -106q151 0 151 92q0 32 -21 49.5t-83 42.5l-168 65q-110 43 -166 109t-56 178q0 147 117.5 236.5t321.5 89.5q81 0 157.5 -20t126.5 -56z" />
    <glyph glyph-name="Scaron" unicode="&#x160;" horiz-adv-x="1036" 
d="M686 1864h221l-211 -340h-274l-211 340h221l127 -181zM954 1337l-63 -252q-136 95 -295 95q-122 0 -186 -39t-64 -115q0 -54 32.5 -86t108.5 -63l228 -97q138 -58 209 -143t71 -223q0 -202 -136.5 -319.5t-385.5 -117.5q-104 0 -212.5 29.5t-166.5 77.5v274
q76 -59 183 -95t204 -36q112 0 173 40.5t61 121.5q0 55 -35 88.5t-117 67.5l-241 100q-121 50 -188.5 133.5t-67.5 227.5q0 188 146 306t392 118q100 0 194.5 -24t155.5 -69z" />
    <glyph glyph-name="scaron" unicode="&#x161;" horiz-adv-x="862" 
d="M586 1516h221l-211 -340h-274l-211 340h221l127 -181zM786 979l-57 -223q-106 75 -248 75q-157 0 -157 -88q0 -31 19 -50t77 -42l164 -65q119 -47 175 -111t56 -172q0 -154 -111.5 -243t-300.5 -89q-93 0 -181.5 23.5t-135.5 66.5v238q145 -106 320 -106q151 0 151 92
q0 32 -21 49.5t-83 42.5l-168 65q-110 43 -166 109t-56 178q0 147 117.5 236.5t321.5 89.5q81 0 157.5 -20t126.5 -56z" />
    <glyph glyph-name="uni0162" unicode="&#x162;" horiz-adv-x="1169" 
d="M1159 1409v-250h-418v-1159h-65q74 -77 74 -168q0 -82 -64 -136t-172 -54q-110 0 -166 49v162q46 -27 107 -27q90 0 90 82q0 46 -21 92h-57v1159h-473l65 250h1100z" />
    <glyph glyph-name="uni0163" unicode="&#x163;" horiz-adv-x="743" 
d="M506 -12q61 -71 61 -156q0 -82 -64 -136t-171 -54q-110 0 -166 49v162q46 -27 106 -27q90 0 90 82q0 50 -28 108q-184 73 -184 306v495h-140v57l324 379h80v-223h280v-213h-280v-438q0 -84 41 -121t129 -37q58 0 118 29v-213q-29 -24 -83.5 -36.5t-112.5 -12.5z" />
    <glyph glyph-name="Tcaron" unicode="&#x164;" horiz-adv-x="1169" 
d="M729 1864h221l-211 -340h-274l-211 340h221l127 -181zM1159 1409v-250h-418v-1159h-274v1159h-473l65 250h1100z" />
    <glyph glyph-name="tcaron" unicode="&#x165;" horiz-adv-x="1134" 
d="M827 961q109 0 109 110v55l-123 66v215h307v-324q0 -137 -65 -213.5t-176 -76.5q-65 0 -111 28v148q24 -8 59 -8zM414 1030h280v-213h-280v-438q0 -84 41 -121t129 -37q58 0 118 29v-213q-29 -24 -83.5 -36.5t-112.5 -12.5q-175 0 -265.5 88t-90.5 246v495h-140v57
l324 379h80v-223z" />
    <glyph glyph-name="Umacron" unicode="&#x16a;" horiz-adv-x="1327" 
d="M324 1540l51 189h618v-189h-669zM395 528q0 -309 269 -309q135 0 201.5 76.5t66.5 232.5v881h274v-915q0 -249 -140 -388t-402 -139q-263 0 -403 139t-140 388v915h274v-881z" />
    <glyph glyph-name="umacron" unicode="&#x16b;" horiz-adv-x="1118" 
d="M221 1192l51 188h619v-188h-670zM1006 1030v-1030h-252l-2 170q-37 -84 -115 -136t-188 -52q-163 0 -256 100.5t-93 269.5v678h265v-614q0 -92 45 -145.5t133 -53.5q96 0 147 59.5t51 178.5v575h265z" />
    <glyph glyph-name="Uring" unicode="&#x16e;" horiz-adv-x="1327" 
d="M432 1686q0 92 60 151t170 59t169.5 -59t59.5 -151t-59.5 -151.5t-169.5 -59.5t-170 59.5t-60 151.5zM565 1686q0 -42 25 -69.5t72 -27.5t71.5 27.5t24.5 69.5t-24.5 69t-71.5 27t-72 -27t-25 -69zM395 528q0 -309 269 -309q135 0 201.5 76.5t66.5 232.5v881h274v-915
q0 -249 -140 -388t-402 -139q-263 0 -403 139t-140 388v915h274v-881z" />
    <glyph glyph-name="uring" unicode="&#x16f;" horiz-adv-x="1118" 
d="M330 1337q0 92 59.5 151.5t169.5 59.5t169.5 -59.5t59.5 -151.5t-59.5 -151.5t-169.5 -59.5t-169.5 59.5t-59.5 151.5zM463 1337q0 -42 24.5 -69t71.5 -27t71.5 27t24.5 69t-24.5 69.5t-71.5 27.5t-71.5 -27.5t-24.5 -69.5zM1006 1030v-1030h-252l-2 170
q-37 -84 -115 -136t-188 -52q-163 0 -256 100.5t-93 269.5v678h265v-614q0 -92 45 -145.5t133 -53.5q96 0 147 59.5t51 178.5v575h265z" />
    <glyph glyph-name="Uhungarumlaut" unicode="&#x170;" horiz-adv-x="1327" 
d="M887 1524h-172l159 340h240zM530 1524h-172l160 340h240zM395 528q0 -309 269 -309q135 0 201.5 76.5t66.5 232.5v881h274v-915q0 -249 -140 -388t-402 -139q-263 0 -403 139t-140 388v915h274v-881z" />
    <glyph glyph-name="uhungarumlaut" unicode="&#x171;" horiz-adv-x="1118" 
d="M784 1176h-172l160 340h240zM428 1176h-172l160 340h239zM1006 1030v-1030h-252l-2 170q-37 -84 -115 -136t-188 -52q-163 0 -256 100.5t-93 269.5v678h265v-614q0 -92 45 -145.5t133 -53.5q96 0 147 59.5t51 178.5v575h265z" />
    <glyph glyph-name="Uogonek" unicode="&#x172;" horiz-adv-x="1327" 
d="M395 528q0 -309 269 -309q135 0 201.5 76.5t66.5 232.5v881h274v-915q0 -213 -102.5 -346t-298.5 -168q-12 -34 -12 -70q0 -82 90 -82q59 0 106 27v-162q-56 -49 -166 -49q-107 0 -171 54t-64 136q0 68 45 133q-249 9 -380.5 147.5t-131.5 379.5v915h274v-881z" />
    <glyph glyph-name="uogonek" unicode="&#x173;" horiz-adv-x="1118" 
d="M1006 1030v-1030h-127q-21 -54 -21 -90q0 -82 90 -82q60 0 107 27v-162q-56 -49 -166 -49q-108 0 -172 54t-64 136q0 55 28 105.5t73 87.5l-2 143q-37 -84 -115 -136t-188 -52q-163 0 -256 100.5t-93 269.5v678h265v-614q0 -92 45 -145.5t133 -53.5q96 0 147 59.5
t51 178.5v575h265z" />
    <glyph glyph-name="Ydieresis" unicode="&#x178;" horiz-adv-x="1181" 
d="M250 1524v258h270v-258h-270zM664 1524v258h270v-258h-270zM596 813l285 596h305l-457 -852v-557h-274v547l-459 862h315z" />
    <glyph glyph-name="Zacute" unicode="&#x179;" horiz-adv-x="1161" 
d="M688 1524h-223l174 340h293zM690 1161h-641l70 248h1005v-31l-647 -1130h682l-69 -248h-1045v31z" />
    <glyph glyph-name="zacute" unicode="&#x17a;" horiz-adv-x="921" 
d="M555 1176h-223l174 340h293zM487 805h-456l69 225h797v-26l-459 -779h488l-70 -225h-825v27z" />
    <glyph glyph-name="Zdotaccent" unicode="&#x17b;" horiz-adv-x="1161" 
d="M489 1544v275h269v-275h-269zM690 1161h-641l70 248h1005v-31l-647 -1130h682l-69 -248h-1045v31z" />
    <glyph glyph-name="zdotaccent" unicode="&#x17c;" horiz-adv-x="921" 
d="M356 1196v274h269v-274h-269zM487 805h-456l69 225h797v-26l-459 -779h488l-70 -225h-825v27z" />
    <glyph glyph-name="Zcaron" unicode="&#x17d;" horiz-adv-x="1161" 
d="M748 1864h221l-211 -340h-275l-211 340h222l127 -181zM690 1161h-641l70 248h1005v-31l-647 -1130h682l-69 -248h-1045v31z" />
    <glyph glyph-name="zcaron" unicode="&#x17e;" horiz-adv-x="921" 
d="M614 1516h222l-211 -340h-275l-211 340h221l127 -181zM487 805h-456l69 225h797v-26l-459 -779h488l-70 -225h-825v27z" />
    <glyph glyph-name="florin" unicode="&#x192;" horiz-adv-x="739" 
d="M193 1110q0 85 24.5 152t63 107t89.5 66.5t98.5 36t96.5 9.5q38 0 76 -10t57 -25l41 -219q-49 22 -114 22q-168 0 -168 -135v-84h262v-213h-262v-776q0 -202 -89 -295.5t-245 -93.5q-89 0 -139 24v220q44 -13 82 -13q61 0 94 39t33 113v782h-170l36 213h134v80z" />
    <glyph glyph-name="uni0218" unicode="&#x218;" horiz-adv-x="1036" 
d="M406 -354q49 0 71.5 15.5t22.5 49.5v25l-107 39v135h275v-174q0 -107 -60.5 -167.5t-163.5 -60.5q-55 0 -104 19v127q28 -8 66 -8zM954 1337l-63 -252q-136 95 -295 95q-122 0 -186 -39t-64 -115q0 -54 32.5 -86t108.5 -63l228 -97q138 -58 209 -143t71 -223
q0 -202 -136.5 -319.5t-385.5 -117.5q-104 0 -212.5 29.5t-166.5 77.5v274q76 -59 183 -95t204 -36q112 0 173 40.5t61 121.5q0 55 -35 88.5t-117 67.5l-241 100q-121 50 -188.5 133.5t-67.5 227.5q0 188 146 306t392 118q100 0 194.5 -24t155.5 -69z" />
    <glyph glyph-name="uni0219" unicode="&#x219;" horiz-adv-x="862" 
d="M334 -354q49 0 71.5 15.5t22.5 49.5v25l-106 39v135h274v-174q0 -108 -60 -168t-163 -60q-56 0 -105 19v127q28 -8 66 -8zM786 979l-57 -223q-106 75 -248 75q-157 0 -157 -88q0 -31 19 -50t77 -42l164 -65q119 -47 175 -111t56 -172q0 -154 -111.5 -243t-300.5 -89
q-93 0 -181.5 23.5t-135.5 66.5v238q145 -106 320 -106q151 0 151 92q0 32 -21 49.5t-83 42.5l-168 65q-110 43 -166 109t-56 178q0 147 117.5 236.5t321.5 89.5q81 0 157.5 -20t126.5 -56z" />
    <glyph glyph-name="uni021A" unicode="&#x21a;" horiz-adv-x="1169" 
d="M477 -354q49 0 71.5 15.5t22.5 49.5v25l-106 39v135h274v-174q0 -108 -60.5 -168t-162.5 -60q-55 0 -104 19v127q28 -8 65 -8zM1159 1409v-250h-418v-1159h-274v1159h-473l65 250h1100z" />
    <glyph glyph-name="uni021B" unicode="&#x21b;" horiz-adv-x="743" 
d="M297 -354q49 0 71.5 15.5t22.5 49.5v25l-106 39v135h274v-174q0 -108 -60.5 -168t-162.5 -60q-56 0 -105 19v127q28 -8 66 -8zM414 1030h280v-213h-280v-438q0 -84 41 -121t129 -37q58 0 118 29v-213q-29 -24 -83.5 -36.5t-112.5 -12.5q-175 0 -265.5 88t-90.5 246v495
h-140v57l324 379h80v-223z" />
    <glyph glyph-name="circumflex" unicode="&#x2c6;" horiz-adv-x="720" 
d="M233 1069h-221l211 340h275l211 -340h-222l-127 180z" />
    <glyph glyph-name="caron" unicode="&#x2c7;" horiz-adv-x="720" 
d="M485 1409h222l-211 -340h-275l-211 340h221l127 -180z" />
    <glyph glyph-name="uni02C9" unicode="&#x2c9;" horiz-adv-x="759" 
d="M41 1190l51 188h619v-188h-670z" />
    <glyph glyph-name="breve" unicode="&#x2d8;" horiz-adv-x="708" 
d="M494 1409h180q0 -158 -91.5 -245t-228.5 -87t-228 87t-91 245h180q3 -71 38 -114.5t101 -43.5t101.5 43.5t38.5 114.5z" />
    <glyph glyph-name="dotaccent" unicode="&#x2d9;" horiz-adv-x="489" 
d="M111 1196v274h268v-274h-268z" />
    <glyph glyph-name="ring" unicode="&#x2da;" horiz-adv-x="548" 
d="M45 1225q0 92 59.5 151.5t169.5 59.5t170 -59.5t60 -151.5t-60 -151.5t-170 -59.5t-169.5 59.5t-59.5 151.5zM176 1225q0 -42 25.5 -70.5t72.5 -28.5t73 28.5t26 70.5t-26 70t-73 28t-72.5 -28t-25.5 -70z" />
    <glyph glyph-name="ogonek" unicode="&#x2db;" horiz-adv-x="495" 
d="M195 45h120q-43 -76 -43 -137q0 -82 90 -82q60 0 107 27v-162q-56 -49 -166 -49q-107 0 -171 54t-64 136q0 63 35.5 119.5t91.5 93.5z" />
    <glyph glyph-name="tilde" unicode="&#x2dc;" horiz-adv-x="800" 
d="M43 1147q0 126 59 199t162 73q54 0 94.5 -19t85.5 -54q31 -24 50 -33.5t43 -9.5q67 0 73 114l148 -26q0 -127 -60 -201t-159 -74q-52 0 -95 19.5t-92 56.5q-26 18 -36 24.5t-24.5 12.5t-27.5 6q-33 0 -50.5 -25t-20.5 -90z" />
    <glyph glyph-name="hungarumlaut" unicode="&#x2dd;" horiz-adv-x="792" 
d="M547 1069h-172l160 340h239zM190 1069h-172l160 340h240z" />
    <glyph glyph-name="commasubnosp" unicode="&#x326;" horiz-adv-x="483" 
d="M133 -348q49 0 71.5 15.5t22.5 49.5v25l-106 39v135h274v-174q0 -107 -60 -167t-163 -60q-58 0 -104 18v127q28 -8 65 -8z" />
    <glyph glyph-name="pi" unicode="&#x3c0;" horiz-adv-x="1249" 
d="M1233 1030v-233h-182v-797h-265v797h-307v-797h-264v797h-209l64 233h1163z" />
    <glyph glyph-name="endash" unicode="&#x2013;" horiz-adv-x="1077" 
d="M1001 743v-247h-950l66 247h884z" />
    <glyph glyph-name="emdash" unicode="&#x2014;" horiz-adv-x="1693" 
d="M1618 743v-247h-1567l66 247h1501z" />
    <glyph glyph-name="quoteleft" unicode="&#x2018;" horiz-adv-x="487" 
d="M367 1251q-109 0 -109 -110v-56l123 -65v-215h-307v323q0 138 65.5 214.5t175.5 76.5q65 0 111 -28v-148q-24 8 -59 8z" />
    <glyph glyph-name="quoteright" unicode="&#x2019;" horiz-adv-x="487" 
d="M121 963q108 0 108 110v55l-123 66v215h308v-324q0 -137 -65.5 -213.5t-176.5 -76.5q-65 0 -111 28v148q24 -8 60 -8z" />
    <glyph glyph-name="quotesinglbase" unicode="&#x201a;" horiz-adv-x="493" 
d="M109 -135q108 0 108 110v56l-123 65v215h307v-323q0 -138 -65.5 -214.5t-175.5 -76.5q-63 0 -111 29v147q24 -8 60 -8z" />
    <glyph glyph-name="quotedblleft" unicode="&#x201c;" horiz-adv-x="921" 
d="M801 1251q-109 0 -109 -110v-56l123 -65v-215h-307v323q0 137 65.5 214t176.5 77q64 0 110 -28v-148q-24 8 -59 8zM367 1251q-109 0 -109 -110v-56l123 -65v-215h-307v323q0 138 65.5 214.5t175.5 76.5q65 0 111 -28v-148q-24 8 -59 8z" />
    <glyph glyph-name="quotedblright" unicode="&#x201d;" horiz-adv-x="921" 
d="M555 963q109 0 109 110v55l-123 66v215h307v-324q0 -137 -65.5 -213.5t-176.5 -76.5q-64 0 -110 28v148q24 -8 59 -8zM121 963q108 0 108 110v55l-123 66v215h308v-324q0 -137 -65.5 -213.5t-176.5 -76.5q-65 0 -111 28v148q24 -8 60 -8z" />
    <glyph glyph-name="quotedblbase" unicode="&#x201e;" horiz-adv-x="927" 
d="M543 -135q108 0 108 110v56l-123 65v215h308v-323q0 -137 -65.5 -214t-176.5 -77q-63 0 -111 29v147q24 -8 60 -8zM109 -135q108 0 108 110v56l-123 65v215h307v-323q0 -138 -65.5 -214.5t-175.5 -76.5q-63 0 -111 29v147q24 -8 60 -8z" />
    <glyph glyph-name="dagger" unicode="&#x2020;" horiz-adv-x="825" 
d="M541 1030h270v-211h-270v-1075h-236v1075h-295l41 211h254v379h236v-379z" />
    <glyph glyph-name="daggerdbl" unicode="&#x2021;" horiz-adv-x="825" 
d="M541 1030h270v-211h-270v-342h270v-211h-270v-522h-236v522h-295l41 211h254v342h-295l41 211h254v379h236v-379z" />
    <glyph glyph-name="bullet" unicode="&#x2022;" horiz-adv-x="741" 
d="M371 905q126 0 202 -78t76 -198q0 -121 -76 -200t-202 -79q-127 0 -203 79t-76 200q0 120 76 198t203 78z" />
    <glyph glyph-name="ellipsis" unicode="&#x2026;" horiz-adv-x="1566" 
d="M1157 0v311h297v-311h-297zM635 0v311h297v-311h-297zM113 0v311h297v-311h-297z" />
    <glyph glyph-name="perthousand" unicode="&#x2030;" horiz-adv-x="2553" 
d="M319 0l912 1409h248l-912 -1409h-248zM2161 643q-62 0 -93.5 -55t-31.5 -178q0 -236 125 -236q129 0 129 236q0 233 -129 233zM2161 831q170 0 261 -108t91 -313q0 -206 -91 -315t-261 -109q-168 0 -258.5 109t-90.5 315q0 205 90.5 313t258.5 108zM1393 643
q-62 0 -93.5 -55t-31.5 -178q0 -236 125 -236q129 0 129 236q0 233 -129 233zM1393 831q170 0 261 -108t91 -313q0 -206 -91 -315t-261 -109q-168 0 -258.5 109t-90.5 315q0 205 90.5 313t258.5 108zM401 1235q-125 0 -125 -234q0 -235 125 -235q129 0 129 235
q0 234 -129 234zM401 1423q170 0 261.5 -108.5t91.5 -313.5q0 -206 -91.5 -314.5t-261.5 -108.5q-168 0 -258 108.5t-90 314.5q0 205 90 313.5t258 108.5z" />
    <glyph glyph-name="guilsinglleft" unicode="&#x2039;" horiz-adv-x="704" 
d="M43 518l356 414h263l-347 -410l347 -416h-265z" />
    <glyph glyph-name="guilsinglright" unicode="&#x203a;" horiz-adv-x="704" 
d="M662 520l-357 -414h-262l346 410l-346 416h264z" />
    <glyph glyph-name="fraction" unicode="&#x2044;" horiz-adv-x="1167" 
d="M4 0l911 1409h248l-911 -1409h-248z" />
    <glyph glyph-name="zerosuperior" unicode="&#x2070;" horiz-adv-x="770" 
d="M383 1233q-125 0 -125 -234q0 -235 125 -235q129 0 129 235q0 234 -129 234zM383 1421q169 0 260.5 -108.5t91.5 -313.5q0 -206 -91 -315t-261 -109q-168 0 -258 109t-90 315q0 205 90 313.5t258 108.5z" />
    <glyph glyph-name="foursuperior" unicode="&#x2074;" horiz-adv-x="770" 
d="M444 745h-401v166l285 498h239l-293 -496h170v146l222 67v-213h106l-31 -168h-75v-157h-222v157z" />
    <glyph glyph-name="Euro" unicode="&#x20ac;" horiz-adv-x="1275" 
d="M1167 1128q-127 43 -243 43q-62 0 -122.5 -12t-120 -37.5t-111 -71.5t-83.5 -108h631l-45 -174h-635q-2 -18 -2 -57q0 -26 4 -72h600l-45 -174h-506q63 -120 184 -179t265 -59q158 0 281 58v-254q-110 -54 -297 -54q-90 0 -177 15t-176 51.5t-161.5 91t-131 139.5
t-88.5 191h-170l33 174h109q-2 20 -2 63q0 46 2 66h-142l33 174h137q32 111 97 198t143 139.5t174 87t183 47.5t176 13q151 0 272 -43z" />
    <glyph glyph-name="uni20BA" unicode="&#x20ba;" horiz-adv-x="1130" 
d="M383 0h-178v508l-178 -35l32 180l146 29v143l-178 -34l32 180l146 28v410h274v-356l277 53v-174l-277 -53v-144l277 53v-174l-277 -53v-313q46 0 74 0.5t72 5t72.5 12.5t63 23.5t56 37.5t39.5 55.5t25 76.5h229q-6 -87 -34 -157.5t-67.5 -117.5t-98.5 -81.5t-117 -54
t-133.5 -31t-137 -14.5t-139.5 -3z" />
    <glyph glyph-name="uni20BD" unicode="&#x20bd;" horiz-adv-x="1222" 
d="M459 422l485 2l-57 -205h-428v-219h-275v217h-161l40 205h121v135h-161l40 219h121v633h555q215 0 333 -119t118 -305q0 -94 -27 -170t-82 -134t-146 -90t-212 -32h-123h-141v-137zM459 1161v-383h266q94 0 141 53.5t47 141.5q0 83 -47 135.5t-141 52.5h-266z" />
    <glyph glyph-name="uni2113" unicode="&#x2113;" horiz-adv-x="854" 
d="M426 1128v-245q164 113 164 272q0 42 -19 72t-59 30t-63 -33.5t-23 -95.5zM162 780v328q0 49 9 98.5t33.5 104t62.5 95.5t101.5 68t143.5 27q144 0 223.5 -89t79.5 -226q0 -101 -30.5 -188.5t-85.5 -153.5t-122.5 -115t-150.5 -86v-254q0 -88 42.5 -130t115.5 -42
q89 0 174 49v-225q-67 -53 -217 -53q-190 0 -284.5 98.5t-94.5 280.5v198q-100 -14 -162 -14l43 219q51 0 119 10z" />
    <glyph glyph-name="trademark" unicode="&#x2122;" horiz-adv-x="1816" 
d="M807 588v821h287l168 -356l165 356h285v-821h-217v598l-160 -357h-151l-162 355v-596h-215zM702 1409v-197h-223v-624h-217v624h-264l55 197h649z" />
    <glyph glyph-name="uni2126" unicode="&#x2126;" horiz-adv-x="1523" 
d="M762 1444q110 0 208.5 -26t173.5 -71t135 -106.5t98 -132.5t58.5 -148t20.5 -155q0 -107 -36.5 -208t-120.5 -189.5t-203 -128.5v-46h284l64 -233h-592v369q326 115 326 428q0 77 -27.5 148.5t-78 129t-131.5 92.5t-179 35t-179 -35t-131.5 -92.5t-78 -129t-27.5 -148.5
q0 -313 326 -428v-369h-592l63 233h285v46q-119 40 -203 128.5t-120.5 189.5t-36.5 208q0 78 20.5 155t58.5 148t98 132.5t135 106.5t173.5 71t208.5 26z" />
    <glyph glyph-name="estimated" unicode="&#x212e;" horiz-adv-x="1552" 
d="M1475 354q-88 -174 -270.5 -281.5t-405.5 -107.5q-162 0 -304.5 60.5t-240.5 162.5t-154.5 237.5t-56.5 283.5q0 140 52 272t145 235t234 165.5t306 62.5q125 0 239.5 -40.5t202.5 -111t153.5 -163t99.5 -201t34 -219.5q0 -30 -4 -88h-1065v-324q142 -145 361 -145
q137 0 247 55t175 147h252zM440 1120v-327h672v331q-133 133 -332 133q-203 0 -340 -137z" />
    <glyph glyph-name="partialdiff" unicode="&#x2202;" horiz-adv-x="1130" 
d="M1071 676q0 -176 -40 -311t-114.5 -220t-176 -127.5t-228.5 -42.5q-213 0 -350 134t-137 335q0 207 132 336t328 129q110 0 199 -52t127 -138q-11 467 -422 467q-158 0 -285 -84l60 256q102 76 274 76q132 0 238.5 -40t179.5 -109.5t122 -166.5t71 -207t22 -235zM766 442
q0 94 -67.5 157t-168.5 63t-168 -63t-67 -157q0 -95 67 -159t168 -64t168.5 64t67.5 159z" />
    <glyph glyph-name="uni2206" unicode="&#x2206;" horiz-adv-x="1280" 
d="M12 0v49l490 1360h286l480 -1360v-49h-1256zM354 250h564l-279 842z" />
    <glyph glyph-name="product" unicode="&#x220f;" horiz-adv-x="1384" 
d="M125 -256v1665h1135v-1665h-275v1415h-586v-1415h-274z" />
    <glyph glyph-name="summation" unicode="&#x2211;" horiz-adv-x="1196" 
d="M16 -256v49l559 795l-536 772v49h1118l-65 -250h-584l403 -557l-444 -608h657l66 -250h-1174z" />
    <glyph glyph-name="minus" unicode="&#x2212;" horiz-adv-x="960" 
d="M96 752h809v-222h-866z" />
    <glyph glyph-name="uni2215" unicode="&#x2215;" horiz-adv-x="1167" 
d="M4 0l911 1409h248l-911 -1409h-248z" />
    <glyph glyph-name="uni2219" unicode="&#x2219;" horiz-adv-x="536" 
d="M268 829q84 0 134.5 -50.5t50.5 -129.5t-51 -130.5t-134 -51.5t-133.5 51.5t-50.5 130.5t50 129.5t134 50.5z" />
    <glyph glyph-name="radical" unicode="&#x221a;" horiz-adv-x="1161" 
d="M770 0h-285l-286 600h-172l65 248h275l233 -549l268 1110h250z" />
    <glyph glyph-name="infinity" unicode="&#x221e;" horiz-adv-x="1593" 
d="M799 436q-75 -110 -152 -159.5t-196 -49.5q-117 0 -206 56.5t-133 144t-44 190.5q0 104 44 192.5t133 145t206 56.5q120 0 197 -50t149 -159q52 74 97.5 117t107 67.5t141.5 24.5q117 0 206 -56t133 -144t44 -191q0 -104 -44 -192.5t-133 -145t-206 -56.5
q-118 0 -193 47.5t-151 161.5zM909 616q54 -87 99.5 -125t113.5 -38q75 0 117.5 48.5t42.5 119.5q0 70 -42.5 117.5t-117.5 47.5q-68 0 -112.5 -39t-100.5 -131zM682 625q-50 82 -96.5 121.5t-114.5 39.5q-75 0 -117.5 -48t-42.5 -120q0 -71 42.5 -118t117.5 -47
q67 0 108 37t103 135z" />
    <glyph glyph-name="integral" unicode="&#x222b;" horiz-adv-x="724" 
d="M408 41q0 -202 -89 -295.5t-245 -93.5q-86 0 -140 37v209q41 -15 82 -15q61 0 94 37.5t33 106.5v1091q0 84 23 150t59 105t84.5 64.5t94 34.5t92.5 9q51 0 84 -11l41 -225q-36 8 -72 8q-61 0 -101 -33t-40 -102v-1077z" />
    <glyph glyph-name="approxequal" unicode="&#x2248;" horiz-adv-x="1026" 
d="M86 870q122 117 240 117q52 0 94.5 -17.5t99.5 -54.5q56 -37 99 -54t92 -17q57 0 107.5 29t121.5 88v-222q-40 -49 -103 -82.5t-139 -33.5q-53 0 -92.5 15.5t-101.5 55.5q-44 27 -67 39.5t-55.5 22.5t-66.5 10q-46 0 -91 -19.5t-71 -40t-67 -57.5v221zM86 475
q122 117 240 117q52 0 94.5 -17.5t99.5 -54.5q56 -37 99 -54t92 -17q57 0 108 29t121 87v-221q-40 -49 -103.5 -83t-138.5 -34q-53 0 -92 16t-102 56q-44 27 -67 39.5t-55.5 22.5t-66.5 10q-46 0 -91 -19.5t-71 -40t-67 -57.5v221z" />
    <glyph glyph-name="notequal" unicode="&#x2260;" horiz-adv-x="1044" 
d="M662 723l-68 -193h371v-208h-447l-80 -224h-190l80 224h-252l53 208h274l68 193h-395l53 209h418l76 211h190l-76 -211h228v-209h-303z" />
    <glyph glyph-name="lessequal" unicode="&#x2264;" horiz-adv-x="966" 
d="M868 922v223l-790 -305v-224l790 -305v224l-561 194zM868 166l-790 293v-207l790 -293v207z" />
    <glyph glyph-name="greaterequal" unicode="&#x2265;" horiz-adv-x="966" 
d="M98 922v223l791 -305v-224l-791 -305v217l566 199zM98 166l791 293v-207l-791 -293v207z" />
    <glyph glyph-name="lozenge" unicode="&#x25ca;" horiz-adv-x="1273" 
d="M776 1409l477 -704l-477 -705h-278l-478 705l478 704h278zM637 1196l-322 -491l322 -492l321 492z" />
    <glyph glyph-name="fi" unicode="&#xfb01;" horiz-adv-x="1222" 
d="M846 0v1030h264v-1030h-264zM844 1196v274h268v-274h-268zM186 1110q0 85 23.5 152t60 107t85 66.5t93.5 36t91 9.5q102 0 153 -31l41 -221q-55 20 -125 20q-78 0 -117.5 -34t-39.5 -107v-78h262v-213h-262v-817h-265v817h-170l37 213h133v80z" />
    <glyph glyph-name="fl" unicode="&#xfb02;" horiz-adv-x="1222" 
d="M846 0v1470h264v-1470h-264zM186 1110q0 85 23.5 152t60 107t85 66.5t93.5 36t91 9.5q102 0 153 -31l41 -221q-55 20 -125 20q-78 0 -117.5 -34t-39.5 -107v-78h262v-213h-262v-817h-265v817h-170l37 213h133v80z" />
    <glyph glyph-name="two.tnum" horiz-adv-x="1130" 
d="M100 1059l70 268q145 100 379 100q207 0 336 -97t129 -279q0 -121 -56 -223t-202 -232l-205 -180q-55 -50 -85.5 -86.5t-49.5 -83.5h669l-67 -246h-932v59q0 133 74.5 265.5t242.5 287.5l172 158q102 95 132 143t30 111q0 77 -67 116.5t-181 39.5q-110 0 -201 -30.5
t-188 -90.5z" />
    <glyph glyph-name="one.tnum" horiz-adv-x="1130" 
d="M532 1116l-378 -78l67 265l586 118v-1421h-275v1116z" />
    <glyph glyph-name="three.tnum" horiz-adv-x="1130" 
d="M725 1020q0 81 -67.5 123.5t-170.5 42.5q-200 0 -381 -109l70 262q136 88 371 88q203 0 332 -93.5t129 -260.5q0 -120 -64 -203t-153 -120q111 -31 183.5 -114t72.5 -216q0 -202 -145 -319t-386 -117q-123 0 -230.5 29t-176.5 77v264q197 -125 407 -125q110 0 178 50
t68 147q0 95 -98.5 143.5t-268.5 48.5l-73 -2l59 224q78 2 136 10.5t107.5 28t75 55t25.5 86.5z" />
    <glyph glyph-name="zero.tnum" horiz-adv-x="1130" 
d="M563 1186q-119 0 -178 -114t-59 -363q0 -252 59 -369t178 -117q121 0 181.5 117t60.5 369q0 249 -60.5 363t-181.5 114zM563 1434q254 0 385 -182.5t131 -542.5q0 -363 -131 -548.5t-385 -185.5q-252 0 -382 185.5t-130 548.5q0 360 129.5 542.5t382.5 182.5z" />
    <glyph glyph-name="four.tnum" horiz-adv-x="1130" 
d="M672 315h-649v217l534 877h303l-534 -872h346v333l274 76v-409h154v-222h-154v-315h-274v315z" />
    <glyph glyph-name="five.tnum" horiz-adv-x="1130" 
d="M1057 465q0 -220 -150.5 -350.5t-400.5 -130.5q-124 0 -231 28.5t-177 75.5v264q101 -61 198 -92t216 -31q116 0 192 54.5t76 162.5q0 61 -25 105.5t-69.5 70t-99.5 37t-123 11.5q-81 0 -174.5 -15t-161.5 -39l98 793h785l-68 -252h-504l-35 -274q79 18 170 18
q135 0 243.5 -49t174.5 -149.5t66 -237.5z" />
    <glyph glyph-name="six.tnum" horiz-adv-x="1130" 
d="M59 676q0 -176 40 -311t114.5 -220t176 -127.5t228.5 -42.5q216 0 352 135t136 353q0 127 -62 230.5t-164 159.5t-221 56q-128 0 -218.5 -51.5t-121.5 -138.5q2 98 23 178.5t63 147t114.5 104t170.5 37.5q84 0 157 -27t120 -67l63 245q-57 42 -143.5 69.5t-184.5 27.5
q-137 0 -246.5 -40t-183 -109.5t-122 -166.5t-70 -207t-21.5 -235zM365 442q0 94 67 157t168 63t168.5 -63t67.5 -157q0 -95 -67.5 -159t-168.5 -64t-168 64t-67 159z" />
    <glyph glyph-name="seven.tnum" horiz-adv-x="1130" 
d="M723 1157h-694l67 252h1008v-49q-105 -178 -233 -426t-246 -522t-142 -412h-301q27 172 191 511.5t350 645.5z" />
    <glyph glyph-name="eight.tnum" horiz-adv-x="1130" 
d="M565 1206q-94 0 -148.5 -54t-54.5 -134q0 -78 55 -132.5t148 -54.5t148 54.5t55 132.5q0 80 -54.5 134t-148.5 54zM565 1436q218 0 347.5 -115.5t129.5 -278.5q0 -110 -57 -191.5t-170 -123.5q132 -40 200 -128.5t68 -217.5q0 -85 -35.5 -159t-100.5 -129.5t-164 -87.5
t-218 -32t-218 32t-164 87.5t-100.5 129.5t-35.5 159q0 129 68 217.5t200 128.5q-113 42 -170 123.5t-57 191.5q0 163 129.5 278.5t347.5 115.5zM565 612q-114 0 -176.5 -57t-62.5 -143q0 -88 62.5 -146.5t176.5 -58.5q113 0 176.5 59.5t63.5 147.5q0 84 -63.5 141
t-176.5 57z" />
    <glyph glyph-name="nine.tnum" horiz-adv-x="1130" 
d="M1081 723q0 355 -149 533t-406 178q-218 0 -354.5 -137.5t-136.5 -354.5q0 -130 62 -234.5t165 -161.5t225 -57q127 0 217 55t119 148q-8 -467 -368 -467q-186 0 -334 111v-260q55 -42 147 -69t195 -27q138 0 245.5 41t176.5 109.5t114 166t63.5 202t18.5 224.5zM776 963
q0 -96 -67 -160t-168 -64t-168.5 64.5t-67.5 159.5q0 97 67.5 162t168.5 65t168 -65t67 -162z" />
    <glyph glyph-name="a.ss01" 
d="M594 825q-130 0 -203.5 -88t-73.5 -221t73.5 -222t203.5 -89t202 88.5t72 222.5t-72 221.5t-202 87.5zM874 193q-44 -98 -136 -157t-216 -59q-106 0 -195 41.5t-149 113.5t-93.5 171t-33.5 213q0 232 130 384.5t345 152.5q122 0 213 -57.5t135 -155.5l3 190h256v-1030
h-256z" />
    <glyph glyph-name="agrave.ss01" 
d="M551 1176l-244 340h293l174 -340h-223zM594 825q-130 0 -203.5 -88t-73.5 -221t73.5 -222t203.5 -89t202 88.5t72 222.5t-72 221.5t-202 87.5zM874 193q-44 -98 -136 -157t-216 -59q-106 0 -195 41.5t-149 113.5t-93.5 171t-33.5 213q0 232 130 384.5t345 152.5
q122 0 213 -57.5t135 -155.5l3 190h256v-1030h-256z" />
    <glyph glyph-name="aacute.ss01" 
d="M686 1176h-223l174 340h293zM594 825q-130 0 -203.5 -88t-73.5 -221t73.5 -222t203.5 -89t202 88.5t72 222.5t-72 221.5t-202 87.5zM874 193q-44 -98 -136 -157t-216 -59q-106 0 -195 41.5t-149 113.5t-93.5 171t-33.5 213q0 232 130 384.5t345 152.5q122 0 213 -57.5
t135 -155.5l3 190h256v-1030h-256z" />
    <glyph glyph-name="acircumflex.ss01" 
d="M494 1176h-222l211 340h275l211 -340h-221l-127 180zM594 825q-130 0 -203.5 -88t-73.5 -221t73.5 -222t203.5 -89t202 88.5t72 222.5t-72 221.5t-202 87.5zM874 193q-44 -98 -136 -157t-216 -59q-106 0 -195 41.5t-149 113.5t-93.5 171t-33.5 213q0 232 130 384.5
t345 152.5q122 0 213 -57.5t135 -155.5l3 190h256v-1030h-256z" />
    <glyph glyph-name="atilde.ss01" 
d="M264 1206q0 126 59 199.5t162 73.5q54 0 95 -19t86 -55q31 -25 49.5 -34t42.5 -9q67 0 73 115l148 -27q0 -126 -60 -200t-159 -74q-52 0 -95 19.5t-92 55.5q-58 43 -88 43q-33 0 -50.5 -24.5t-20.5 -89.5zM594 825q-130 0 -203.5 -88t-73.5 -221t73.5 -222t203.5 -89
t202 88.5t72 222.5t-72 221.5t-202 87.5zM874 193q-44 -98 -136 -157t-216 -59q-106 0 -195 41.5t-149 113.5t-93.5 171t-33.5 213q0 232 130 384.5t345 152.5q122 0 213 -57.5t135 -155.5l3 190h256v-1030h-256z" />
    <glyph glyph-name="adieresis.ss01" 
d="M279 1176v258h270v-258h-270zM692 1176v258h271v-258h-271zM594 825q-130 0 -203.5 -88t-73.5 -221t73.5 -222t203.5 -89t202 88.5t72 222.5t-72 221.5t-202 87.5zM874 193q-44 -98 -136 -157t-216 -59q-106 0 -195 41.5t-149 113.5t-93.5 171t-33.5 213q0 232 130 384.5
t345 152.5q122 0 213 -57.5t135 -155.5l3 190h256v-1030h-256z" />
    <glyph glyph-name="aring.ss01" 
d="M391 1337q0 92 60 151.5t170 59.5t169.5 -59.5t59.5 -151.5t-59.5 -151.5t-169.5 -59.5t-170 59.5t-60 151.5zM524 1337q0 -42 25 -69t72 -27t71.5 27t24.5 69t-24.5 69.5t-71.5 27.5t-72 -27.5t-25 -69.5zM594 825q-130 0 -203.5 -88t-73.5 -221t73.5 -222t203.5 -89
t202 88.5t72 222.5t-72 221.5t-202 87.5zM874 193q-44 -98 -136 -157t-216 -59q-106 0 -195 41.5t-149 113.5t-93.5 171t-33.5 213q0 232 130 384.5t345 152.5q122 0 213 -57.5t135 -155.5l3 190h256v-1030h-256z" />
    <glyph glyph-name="amacron.ss01" 
d="M283 1192l51 188h618v-188h-669zM594 825q-130 0 -203.5 -88t-73.5 -221t73.5 -222t203.5 -89t202 88.5t72 222.5t-72 221.5t-202 87.5zM874 193q-44 -98 -136 -157t-216 -59q-106 0 -195 41.5t-149 113.5t-93.5 171t-33.5 213q0 232 130 384.5t345 152.5
q122 0 213 -57.5t135 -155.5l3 190h256v-1030h-256z" />
    <glyph glyph-name="abreve.ss01" 
d="M760 1489h180q0 -158 -91 -245t-228 -87t-228.5 87t-91.5 245h180q3 -71 38.5 -114.5t101.5 -43.5t101 43.5t38 114.5zM594 825q-130 0 -203.5 -88t-73.5 -221t73.5 -222t203.5 -89t202 88.5t72 222.5t-72 221.5t-202 87.5zM874 193q-44 -98 -136 -157t-216 -59
q-106 0 -195 41.5t-149 113.5t-93.5 171t-33.5 213q0 232 130 384.5t345 152.5q122 0 213 -57.5t135 -155.5l3 190h256v-1030h-256z" />
    <glyph glyph-name="aogonek.ss01" 
d="M594 825q-130 0 -203.5 -88t-73.5 -221t73.5 -222t203.5 -89t202 88.5t72 222.5t-72 221.5t-202 87.5zM877 23l-3 170q-44 -98 -136 -157t-216 -59q-106 0 -195 41.5t-149 113.5t-93.5 171t-33.5 213q0 232 130 384.5t345 152.5q122 0 213 -57.5t135 -155.5l3 190h256
v-1030h-132q-20 -44 -20 -94q0 -82 90 -82q62 0 107 26v-161q-56 -49 -166 -49q-108 0 -172 54t-64 136q0 55 28 105.5t73 87.5z" />
    </font>
</defs>
</svg>
